<svg id="Layer_1" data-name="Layer 1" xmlns="http://www.w3.org/2000/svg" viewBox="0 0 24 24"><defs><style>.cls-1{fill:none;stroke:#020202;stroke-miterlimit:10;stroke-width:1.91px;}</style></defs><rect class="cls-1" x="1.5" y="1.5" width="21" height="15.27" rx="1.91"/><polygon class="cls-1" points="15.82 22.5 8.18 22.5 9.14 16.77 14.86 16.77 15.82 22.5"/><line class="cls-1" x1="5.32" y1="22.5" x2="18.68" y2="22.5"/><polygon class="cls-1" points="11.19 7.23 8.99 7.23 7.89 9.14 8.99 11.04 11.19 11.04 12.29 9.14 11.19 7.23"/><polygon class="cls-1" points="15.01 5.32 12.81 5.32 11.71 7.23 12.81 9.14 15.01 9.14 16.11 7.23 15.01 5.32"/><polygon class="cls-1" points="15.01 9.14 12.81 9.14 11.71 11.04 12.81 12.96 15.01 12.96 16.11 11.04 15.01 9.14"/><line class="cls-1" x1="5.32" y1="9.14" x2="8.18" y2="9.14"/><line class="cls-1" x1="18.68" y1="7.23" x2="15.82" y2="7.23"/></svg>