<svg id="Layer_1" data-name="Layer 1" xmlns="http://www.w3.org/2000/svg" viewBox="0 0 24 24"><defs><style>.cls-1{fill:none;stroke:#020202;stroke-miterlimit:10;stroke-width:1.91px;}</style></defs><path class="cls-1" d="M14.86,6.89V5.32H9.14V6.89a1.91,1.91,0,0,1-1.2,1.77l-1.78.71A2.88,2.88,0,0,0,4.36,12v7.61A2.87,2.87,0,0,0,7.23,22.5h9.54a2.87,2.87,0,0,0,2.87-2.86V12a2.88,2.88,0,0,0-1.8-2.66l-1.78-.71A1.91,1.91,0,0,1,14.86,6.89Z"/><rect class="cls-1" x="10.09" y="1.5" width="3.82" height="3.82"/><line class="cls-1" x1="7.23" y1="5.32" x2="16.77" y2="5.32"/><line class="cls-1" x1="4.36" y1="12" x2="19.64" y2="12"/><line class="cls-1" x1="7.23" y1="16.77" x2="9.14" y2="16.77"/><line class="cls-1" x1="11.05" y1="18.68" x2="12.95" y2="18.68"/><line class="cls-1" x1="14.86" y1="15.82" x2="16.77" y2="15.82"/></svg>