<svg id="Layer_1" data-name="Layer 1" xmlns="http://www.w3.org/2000/svg" viewBox="0 0 24 24"><defs><style>.cls-1{fill:none;stroke:#020202;stroke-miterlimit:10;stroke-width:1.91px;}</style></defs><path class="cls-1" d="M6.34,17.73h0a6.9,6.9,0,0,1,2-4.89L14,7.23l2.86,2.86L11.23,15.7A6.92,6.92,0,0,1,6.34,17.73Z"/><path class="cls-1" d="M17.32,10.57,13.5,6.75,18,2.29a2.69,2.69,0,0,1,1.91-.79h0a2.7,2.7,0,0,1,2.7,2.7h0a2.73,2.73,0,0,1-.79,1.91Z"/><line class="cls-1" x1="12.07" y1="5.32" x2="18.75" y2="12"/><path class="cls-1" d="M6.34,21.55a1,1,0,0,1-1.91,0,6.27,6.27,0,0,1,1-1.91A6.29,6.29,0,0,1,6.34,21.55Z"/></svg>