<svg id="Layer_1" data-name="Layer 1" xmlns="http://www.w3.org/2000/svg" viewBox="0 0 24 24"><defs><style>.cls-1{fill:none;stroke:#020202;stroke-miterlimit:10;stroke-width:1.91px;}</style></defs><path class="cls-1" d="M15.62,7.13a8,8,0,0,0-7.24,0l-2.11,1v7.64l2.11,1.05a8,8,0,0,0,7.24,0l2.11-1.05V8.18Z"/><path class="cls-1" d="M17.73,9.14h1.91A2.86,2.86,0,0,1,22.5,12v0a2.86,2.86,0,0,1-2.86,2.86H17.73a0,0,0,0,1,0,0V9.14A0,0,0,0,1,17.73,9.14Z"/><path class="cls-1" d="M1.5,9.14H3.41A2.86,2.86,0,0,1,6.27,12v0a2.86,2.86,0,0,1-2.86,2.86H1.5a0,0,0,0,1,0,0V9.14A0,0,0,0,1,1.5,9.14Z" transform="translate(7.77 24) rotate(180)"/><line class="cls-1" x1="9.14" y1="10.09" x2="14.86" y2="10.09"/><line class="cls-1" x1="9.14" y1="13.91" x2="14.86" y2="13.91"/></svg>