<svg id="Layer_1" data-name="Layer 1" xmlns="http://www.w3.org/2000/svg" viewBox="0 0 24 24"><defs><style>.cls-1{fill:none;stroke:#020202;stroke-miterlimit:10;stroke-width:1.91px;}</style></defs><path class="cls-1" d="M14.15,5.08a2.15,2.15,0,1,1-4.3,0C9.85,3.65,12,1.5,12,1.5S14.15,3.65,14.15,5.08Z"/><path class="cls-1" d="M15.82,12V9.14H8.18V12L4.61,13.43a1.9,1.9,0,0,0-1.2,1.77v5.39A1.9,1.9,0,0,0,5.32,22.5H18.68a1.9,1.9,0,0,0,1.91-1.91V15.2a1.9,1.9,0,0,0-1.2-1.77Z"/><path class="cls-1" d="M12,7.23v9a3,3,0,0,0,2.39,2.91h0a3,3,0,0,1,2.38,2.91v.43"/><line class="cls-1" x1="3.41" y1="15.82" x2="10.09" y2="15.82"/><line class="cls-1" x1="15.82" y1="15.82" x2="20.59" y2="15.82"/><line class="cls-1" x1="6.27" y1="9.14" x2="17.73" y2="9.14"/></svg>