<svg id="Layer_1" data-name="Layer 1" xmlns="http://www.w3.org/2000/svg" viewBox="0 0 24 24"><defs><style>.cls-1{fill:none;stroke:#020202;stroke-miterlimit:10;stroke-width:1.91px;}</style></defs><path class="cls-1" d="M14.15,5.08a2.15,2.15,0,1,1-4.3,0C9.85,3.65,12,1.5,12,1.5S14.15,3.65,14.15,5.08Z"/><path class="cls-1" d="M15.82,13V9.14H8.18V13h0A7.61,7.61,0,0,0,3.41,20v.59A1.9,1.9,0,0,0,5.32,22.5H18.68a1.9,1.9,0,0,0,1.91-1.91V20a7.61,7.61,0,0,0-4.77-7Z"/><line class="cls-1" x1="19.64" y1="7.23" x2="19.64" y2="11.05"/><path class="cls-1" d="M12,7.23v9a3,3,0,0,0,2.39,2.91h0a3,3,0,0,1,2.38,2.91v.43"/><line class="cls-1" x1="19.87" y1="16.77" x2="4.13" y2="16.77"/><line class="cls-1" x1="8.18" y1="9.14" x2="19.64" y2="9.14"/></svg>