<svg id="Layer_1" data-name="Layer 1" xmlns="http://www.w3.org/2000/svg" viewBox="0 0 24 24"><defs><style>.cls-1{fill:none;stroke:#020202;stroke-miterlimit:10;stroke-width:1.91px;}</style></defs><path class="cls-1" d="M16,1.5H8A6.52,6.52,0,0,0,3.41,3.41h0A6.52,6.52,0,0,0,1.5,8v6.84H5.32V22.5H18.68V14.86H22.5V8a6.52,6.52,0,0,0-1.91-4.61h0A6.52,6.52,0,0,0,16,1.5Z"/><line class="cls-1" x1="5.32" y1="7.23" x2="5.32" y2="14.86"/><line class="cls-1" x1="18.68" y1="7.23" x2="18.68" y2="14.86"/><polyline class="cls-1" points="14.86 1.5 16.77 5.32 15.82 6.27 15.82 8.18 12 11.04 8.18 8.18 8.18 6.27 7.23 5.32 9.14 1.5"/><line class="cls-1" x1="9.14" y1="1.5" x2="12" y2="7.23"/><line class="cls-1" x1="12" y1="7.23" x2="14.86" y2="1.5"/><line class="cls-1" x1="12" y1="11.05" x2="12" y2="7.23"/><line class="cls-1" x1="12" y1="22.5" x2="12" y2="11.05"/><line class="cls-1" x1="14.86" y1="16.77" x2="18.68" y2="16.77"/><line class="cls-1" x1="5.32" y1="16.77" x2="9.14" y2="16.77"/></svg>