<svg id="Layer_1" data-name="Layer 1" xmlns="http://www.w3.org/2000/svg" viewBox="0 0 24 24"><defs><style>.cls-1{fill:none;stroke:#020202;stroke-miterlimit:10;stroke-width:1.91px;}</style></defs><path class="cls-1" d="M6.27,14.86h4.78a6.68,6.68,0,0,0,6.68-6.68h0A6.68,6.68,0,0,0,11.05,1.5H6.27V5.32h4.78a2.86,2.86,0,0,1,2.86,2.86h0a2.87,2.87,0,0,1-2.86,2.87H6.27Z"/><path class="cls-1" d="M6.27,14.86h3.82a0,0,0,0,1,0,0v5.73A1.91,1.91,0,0,1,8.18,22.5h0a1.91,1.91,0,0,1-1.91-1.91V14.86A0,0,0,0,1,6.27,14.86Z"/><line class="cls-1" x1="6.27" y1="7.23" x2="6.27" y2="5.32"/><line class="cls-1" x1="6.27" y1="11.05" x2="6.27" y2="9.14"/></svg>