<svg id="Layer_1" data-name="Layer 1" xmlns="http://www.w3.org/2000/svg" viewBox="0 0 24 24"><defs><style>.cls-1{fill:none;stroke:#020202;stroke-miterlimit:10;stroke-width:1.91px;}</style></defs><rect class="cls-1" x="1.5" y="3.43" width="21" height="15.27" rx="1.91"/><line class="cls-1" x1="14.86" y1="3.43" x2="14.86" y2="18.7"/><line class="cls-1" x1="17.73" y1="14.89" x2="19.64" y2="14.89"/><line class="cls-1" x1="17.73" y1="11.07" x2="19.64" y2="11.07"/><path class="cls-1" d="M6.27,8.2h3.82a0,0,0,0,1,0,0v8.67A1.83,1.83,0,0,1,8.26,18.7H8.1a1.83,1.83,0,0,1-1.83-1.83V8.2A0,0,0,0,1,6.27,8.2Z"/><line class="cls-1" x1="12" y1="8.2" x2="4.36" y2="8.2"/><line class="cls-1" x1="6.27" y1="12.02" x2="10.09" y2="12.02"/><line class="cls-1" x1="4.36" y1="21.57" x2="4.36" y2="18.7"/><line class="cls-1" x1="19.64" y1="21.57" x2="19.64" y2="18.7"/><line class="cls-1" x1="17.73" y1="7.25" x2="19.64" y2="7.25"/></svg>