<svg id="Layer_1" data-name="Layer 1" xmlns="http://www.w3.org/2000/svg" viewBox="0 0 24 24"><defs><style>.cls-1{fill:none;stroke:#020202;stroke-miterlimit:10;stroke-width:1.91px;}</style></defs><path class="cls-1" d="M9.14,15.8V11H5.32V15.8L1.81,20.18a1.41,1.41,0,0,0-.31.88h0a1.42,1.42,0,0,0,1.41,1.42h8.63A1.42,1.42,0,0,0,13,21.06h0a1.35,1.35,0,0,0-.31-.88Z"/><line class="cls-1" x1="3.41" y1="11.02" x2="11.05" y2="11.02"/><path class="cls-1" d="M11,2.43h9.55A1.91,1.91,0,0,1,22.5,4.34v0a1.91,1.91,0,0,1-1.91,1.91H11a0,0,0,0,1,0,0V2.43a0,0,0,0,1,0,0Z"/><line class="cls-1" x1="11.05" y1="0.52" x2="11.05" y2="8.16"/><line class="cls-1" x1="5.32" y1="7.2" x2="7.23" y2="7.2"/><line class="cls-1" x1="7.23" y1="3.39" x2="9.14" y2="3.39"/></svg>