<svg id="Layer_1" data-name="Layer 1" xmlns="http://www.w3.org/2000/svg" viewBox="0 0 24 24"><defs><style>.cls-1{fill:none;stroke:#020202;stroke-miterlimit:10;stroke-width:1.91px;}</style></defs><path class="cls-1" d="M14.34,6.68,11.82,4.74A6.43,6.43,0,0,0,5.3,4a6.63,6.63,0,0,0-3.8,6.11v4.79h0a5.72,5.72,0,0,0,5.73,5.73h.83a7.35,7.35,0,0,0,3.77-1h0A7.3,7.3,0,0,1,18.17,19l4.33,1.62"/><path class="cls-1" d="M1.5,10.09h0a4.77,4.77,0,0,0,4.77,4.77h15a1.28,1.28,0,0,0,1.28-1.28h0a1.26,1.26,0,0,0-.5-1l-3.16-2.42A2.86,2.86,0,0,0,14.71,6.2a2.37,2.37,0,0,0-.37.48,2.85,2.85,0,0,0,.41,3.53"/><path class="cls-1" d="M6.27,9.14a2.86,2.86,0,1,1,0,5.72"/></svg>