<svg id="Layer_1" data-name="Layer 1" xmlns="http://www.w3.org/2000/svg" viewBox="0 0 24 24"><defs><style>.cls-1{fill:none;stroke:#020202;stroke-miterlimit:10;stroke-width:1.91px;}</style></defs><path class="cls-1" d="M14.86,13.91A2.86,2.86,0,1,0,10.09,16v1.7h3.82V16A2.85,2.85,0,0,0,14.86,13.91Z"/><line class="cls-1" x1="16.77" y1="19.64" x2="13.91" y2="16.77"/><line class="cls-1" x1="9.56" y1="12.42" x2="7.23" y2="10.09"/><line class="cls-1" x1="16.77" y1="10.09" x2="14.44" y2="12.42"/><line class="cls-1" x1="10.09" y1="16.77" x2="7.23" y2="19.64"/><path class="cls-1" d="M14.86,6.27V1.5H9.14V6.27L5.37,7.53a2.86,2.86,0,0,0-2,2.72v9.39A2.86,2.86,0,0,0,6.27,22.5H17.73a2.86,2.86,0,0,0,2.86-2.86V10.25a2.86,2.86,0,0,0-2-2.72Z"/><line class="cls-1" x1="7.23" y1="1.5" x2="16.77" y2="1.5"/></svg>