<svg id="Layer_1" data-name="Layer 1" xmlns="http://www.w3.org/2000/svg" viewBox="0 0 24 24"><defs><style>.cls-1{fill:none;stroke:#020202;stroke-miterlimit:10;stroke-width:1.91px;}</style></defs><path class="cls-1" d="M20,5.34a1.92,1.92,0,0,0-2.23,1.89V5.42a2,2,0,0,0-1.59-2,1.9,1.9,0,0,0-2.23,1.88V3.51a2,2,0,0,0-1.59-2,1.9,1.9,0,0,0-2.23,1.88V5.32A1.9,1.9,0,0,0,7.86,3.44a2,2,0,0,0-1.59,2v5.63A1.92,1.92,0,0,0,4,9.16a2,2,0,0,0-1.59,2v.06a9.85,9.85,0,0,0,4.78,8.43h0V22.5H18.68V19.64h0a9.77,9.77,0,0,0,2.87-6.92V7.33A2,2,0,0,0,20,5.34Z"/><line class="cls-1" x1="6.27" y1="13.91" x2="6.27" y2="11.05"/><line class="cls-1" x1="10.09" y1="11.05" x2="10.09" y2="5.32"/><line class="cls-1" x1="13.91" y1="11.05" x2="13.91" y2="5.32"/><line class="cls-1" x1="17.73" y1="11.05" x2="17.73" y2="7.23"/><line class="cls-1" x1="20.59" y1="22.5" x2="5.32" y2="22.5"/></svg>