<svg id="Layer_1" data-name="Layer 1" xmlns="http://www.w3.org/2000/svg" viewBox="0 0 24 24"><defs><style>.cls-1{fill:none;stroke:#020202;stroke-miterlimit:10;stroke-width:1.91px;}</style></defs><path class="cls-1" d="M17.73,22.5H16a2.86,2.86,0,0,1-2.71-2h0a1.32,1.32,0,0,0-1.26-.9h0a1.32,1.32,0,0,0-1.26.9h0A2.86,2.86,0,0,1,8,22.5H6.27a3.82,3.82,0,0,1-3.82-3.82V13H9.3a1.94,1.94,0,0,1,1.35.56h0a1.9,1.9,0,0,0,2.7,0h0A1.94,1.94,0,0,1,14.7,13h6.85v5.73A3.82,3.82,0,0,1,17.73,22.5Z"/><line class="cls-1" x1="23.45" y1="12.95" x2="21.55" y2="12.95"/><line class="cls-1" x1="2.45" y1="12.95" x2="0.55" y2="12.95"/><path class="cls-1" d="M1.5,13,3.64,4.39A3.82,3.82,0,0,1,7.34,1.5h1.8"/><path class="cls-1" d="M22.5,13,20.36,4.39a3.82,3.82,0,0,0-3.7-2.89h-1.8"/></svg>