<svg id="Layer_1" data-name="Layer 1" xmlns="http://www.w3.org/2000/svg" viewBox="0 0 24 24"><defs><style>.cls-1{fill:none;stroke:#020202;stroke-miterlimit:10;stroke-width:1.91px;}</style></defs><path class="cls-1" d="M2.43,3.37H6.26a0,0,0,0,1,0,0V15.8a1.91,1.91,0,0,1-1.91,1.91h0A1.91,1.91,0,0,1,2.43,15.8V3.37A0,0,0,0,1,2.43,3.37Z"/><line class="cls-1" x1="0.52" y1="3.37" x2="8.17" y2="3.37"/><path class="cls-1" d="M17.74,3.37h3.83a0,0,0,0,1,0,0V15.8a1.91,1.91,0,0,1-1.91,1.91h0a1.91,1.91,0,0,1-1.91-1.91V3.37A0,0,0,0,1,17.74,3.37Z"/><line class="cls-1" x1="15.83" y1="3.37" x2="23.48" y2="3.37"/><line class="cls-1" x1="17.74" y1="7.2" x2="6.26" y2="7.2"/><line class="cls-1" x1="2.43" y1="11.02" x2="6.26" y2="11.02"/><line class="cls-1" x1="17.74" y1="11.02" x2="21.57" y2="11.02"/><line class="cls-1" x1="12" y1="0.5" x2="12" y2="18.67"/><path class="cls-1" d="M10.09,18.67h3.83a3.83,3.83,0,0,1,3.83,3.83v0a0,0,0,0,1,0,0H6.26a0,0,0,0,1,0,0v0A3.83,3.83,0,0,1,10.09,18.67Z"/><rect class="cls-1" x="11.04" y="6.24" width="1.91" height="1.91"/></svg>