<svg id="Layer_1" data-name="Layer 1" xmlns="http://www.w3.org/2000/svg" viewBox="0 0 24 24"><defs><style>.cls-1{fill:none;stroke:#020202;stroke-miterlimit:10;stroke-width:1.91px;}</style></defs><line class="cls-1" x1="5.3" y1="22.5" x2="7.22" y2="22.5"/><line class="cls-1" x1="6.26" y1="19.63" x2="6.26" y2="17.72"/><line class="cls-1" x1="2.43" y1="1.46" x2="10.09" y2="1.46"/><path class="cls-1" d="M1.48,11C6.26,9.11,6.26,12.93,11,11"/><path class="cls-1" d="M11,11A4.78,4.78,0,0,0,8.17,6.64V1.46H4.35V6.64A4.78,4.78,0,0,0,1.48,11c0,3.83,4.78,6.7,4.78,6.7S11,14.85,11,11Z"/><line class="cls-1" x1="8.17" y1="5.28" x2="20.61" y2="5.28"/><path class="cls-1" d="M16.6,18.67h2.27a3.65,3.65,0,0,1,3.65,3.65v.18a0,0,0,0,1,0,0H13a0,0,0,0,1,0,0v-.18A3.65,3.65,0,0,1,16.6,18.67Z"/><line class="cls-1" x1="17.74" y1="0.5" x2="17.74" y2="18.67"/></svg>