<svg id="Layer_1" data-name="Layer 1" xmlns="http://www.w3.org/2000/svg" viewBox="0 0 24 24"><defs><style>.cls-1{fill:none;stroke:#020202;stroke-miterlimit:10;stroke-width:1.91px;}</style></defs><path class="cls-1" d="M8.49,12.74A2.44,2.44,0,0,0,6.75,12H1.5a4.78,4.78,0,0,0,4.77,4.77h.48a2.63,2.63,0,0,0,.49-.05"/><path class="cls-1" d="M16.76,16.72a2.63,2.63,0,0,0,.49.05h.48A4.78,4.78,0,0,0,22.5,12H17.25a2.44,2.44,0,0,0-1.74.74"/><path class="cls-1" d="M10.25,11.4a4.39,4.39,0,0,0-1.76,1.34,4.5,4.5,0,0,0-.94,2.08l-.31,1.9-1,5.78H17.73l-1-5.78-.31-1.9a4.5,4.5,0,0,0-.94-2.08,4.39,4.39,0,0,0-1.76-1.34"/><circle class="cls-1" cx="12" cy="9.14" r="2.86"/><ellipse class="cls-1" cx="12" cy="2.93" rx="2.86" ry="1.43"/></svg>