<svg id="Layer_1" data-name="Layer 1" xmlns="http://www.w3.org/2000/svg" viewBox="0 0 24 24"><defs><style>.cls-1{fill:none;stroke:#020202;stroke-miterlimit:10;stroke-width:1.91px;}</style></defs><path class="cls-1" d="M4.36,23.45V20.59A7.64,7.64,0,0,1,12,13h0a7.64,7.64,0,0,1,7.64,7.64v2.86"/><path class="cls-1" d="M10.09,13V12A2.86,2.86,0,0,0,7.23,9.14H5.32A3.82,3.82,0,0,1,1.5,5.32V.55"/><line class="cls-1" x1="6.27" y1="4.36" x2="6.27" y2="9.14"/><path class="cls-1" d="M13.91,13V12a2.86,2.86,0,0,1,2.86-2.86h1.91A3.82,3.82,0,0,0,22.5,5.32V.55"/><line class="cls-1" x1="17.73" y1="4.36" x2="17.73" y2="9.14"/><path class="cls-1" d="M18,15.82h.72A3.82,3.82,0,0,0,22.5,12H20.59a3.84,3.84,0,0,0-2.7,1.12,3.78,3.78,0,0,0-1,1.64"/><path class="cls-1" d="M7.07,14.76a3.78,3.78,0,0,0-1-1.64A3.84,3.84,0,0,0,3.41,12H1.5a3.82,3.82,0,0,0,3.82,3.82H6"/></svg>