<svg id="Layer_1" data-name="Layer 1" xmlns="http://www.w3.org/2000/svg" viewBox="0 0 24 24"><defs><style>.cls-1{fill:none;stroke:#020202;stroke-miterlimit:10;stroke-width:1.91px;}</style></defs><line class="cls-1" x1="8.73" y1="14.9" x2="8.72" y2="14.9"/><path class="cls-1" d="M6.53,15.25A3.81,3.81,0,1,0,12,18.68a3.83,3.83,0,0,0-.52-1.92l0,0"/><line class="cls-1" x1="15.28" y1="14.9" x2="15.27" y2="14.9"/><path class="cls-1" d="M17.47,15.25A3.81,3.81,0,1,1,12,18.68a3.83,3.83,0,0,1,.52-1.92l0,0"/><path class="cls-1" d="M15.82,13a3.81,3.81,0,0,1-.54,2h0a3.75,3.75,0,0,1-2.73,1.83,3.27,3.27,0,0,1-.54,0h-.27a2.23,2.23,0,0,1-.27,0A3.75,3.75,0,0,1,8.73,14.9h0a3.8,3.8,0,0,1,2.89-5.74l.39,0,.39,0A3.82,3.82,0,0,1,15.82,13Z"/><path class="cls-1" d="M8.18,13a3.81,3.81,0,0,0,.54,2,3.35,3.35,0,0,0-.54,0,3.68,3.68,0,0,0-1.65.39,10.51,10.51,0,0,1-5-9V1.5A10.47,10.47,0,0,1,11.61,9.16,3.82,3.82,0,0,0,8.18,13Z"/><path class="cls-1" d="M22.5,1.5V6.27a10.51,10.51,0,0,1-5,9,3.68,3.68,0,0,0-1.65-.39,3.35,3.35,0,0,0-.54,0,3.8,3.8,0,0,0-2.89-5.74A10.47,10.47,0,0,1,22.5,1.5Z"/><line class="cls-1" x1="8.87" y1="10.78" x2="4.36" y2="6.27"/><line class="cls-1" x1="19.64" y1="6.27" x2="15.13" y2="10.78"/></svg>