<svg id="Layer_1" data-name="Layer 1" xmlns="http://www.w3.org/2000/svg" viewBox="0 0 24 24"><defs><style>.cls-1{fill:none;stroke:#020202;stroke-miterlimit:10;stroke-width:1.91px;}</style></defs><path class="cls-1" d="M19.64,18.68V22.5H6.27a1.92,1.92,0,0,1-1.91-1.91,1.93,1.93,0,0,1,1.91-1.91Z"/><path class="cls-1" d="M19.64,1.5V18.68H6.27a1.93,1.93,0,0,0-1.91,1.91V3.41A1.92,1.92,0,0,1,6.27,1.5Z"/><line class="cls-1" x1="12" y1="5.32" x2="12" y2="14.86"/><line class="cls-1" x1="16.77" y1="10.09" x2="7.23" y2="10.09"/><line class="cls-1" x1="8.18" y1="7.23" x2="10.09" y2="7.23"/><line class="cls-1" x1="8.18" y1="12.95" x2="10.09" y2="12.95"/><line class="cls-1" x1="13.91" y1="7.23" x2="15.82" y2="7.23"/><line class="cls-1" x1="13.91" y1="12.95" x2="15.82" y2="12.95"/></svg>