<svg id="Layer_1" data-name="Layer 1" xmlns="http://www.w3.org/2000/svg" viewBox="0 0 24 24"><defs><style>.cls-1{fill:none;stroke:#020202;stroke-miterlimit:10;stroke-width:1.91px;}</style></defs><polygon class="cls-1" points="16.77 22.48 7.23 22.48 7.23 9.11 12 5.29 16.77 9.11 16.77 22.48"/><polygon class="cls-1" points="7.23 22.48 1.5 22.48 1.5 14.84 7.23 11.02 7.23 22.48"/><polygon class="cls-1" points="16.77 22.48 22.5 22.48 22.5 14.84 16.77 11.02 16.77 22.48"/><line class="cls-1" x1="4.36" y1="17.7" x2="7.23" y2="17.7"/><line class="cls-1" x1="16.77" y1="17.7" x2="19.64" y2="17.7"/><path class="cls-1" d="M12,17.7h0a1,1,0,0,1,1,1v3.82a0,0,0,0,1,0,0H11a0,0,0,0,1,0,0V18.66A1,1,0,0,1,12,17.7Z"/><circle class="cls-1" cx="12" cy="11.98" r="0.95"/><line class="cls-1" x1="12" y1="0.52" x2="12" y2="5.3"/><line class="cls-1" x1="10.09" y1="2.43" x2="13.91" y2="2.43"/></svg>