<svg id="Layer_1" data-name="Layer 1" xmlns="http://www.w3.org/2000/svg" viewBox="0 0 24 24"><defs><style>.cls-1{fill:none;stroke:#020202;stroke-miterlimit:10;stroke-width:1.91px;}</style></defs><path class="cls-1" d="M13.91,5.33a1.91,1.91,0,0,1-3.82,0C10.09,3.41,12,1.5,12,1.5S13.91,3.41,13.91,5.33Z"/><line class="cls-1" x1="12" y1="7.24" x2="12" y2="10.11"/><rect class="cls-1" x="7.22" y="10.11" width="9.57" height="12.43"/><path class="cls-1" d="M21.57,11.07h0a16.29,16.29,0,0,0-4.79,11.54v.89h0a6.7,6.7,0,0,1,6.7-6.7h0"/><path class="cls-1" d="M2.43,11.07h0A16.29,16.29,0,0,1,7.22,22.61v.89h0a6.7,6.7,0,0,0-6.7-6.7h0"/><line class="cls-1" x1="9.13" y1="13.93" x2="11.04" y2="13.93"/><line class="cls-1" x1="12.96" y1="13.93" x2="14.87" y2="13.93"/><line class="cls-1" x1="2.43" y1="22.54" x2="21.57" y2="22.54"/></svg>