<svg id="Layer_1" data-name="Layer 1" xmlns="http://www.w3.org/2000/svg" viewBox="0 0 24 24"><defs><style>.cls-1{fill:none;stroke:#020202;stroke-miterlimit:10;stroke-width:1.91px;}</style></defs><path class="cls-1" d="M11.05,5.32a1.91,1.91,0,0,1-3.82,0c0-1.91,1.91-3.82,1.91-3.82S11.05,3.41,11.05,5.32Z"/><line class="cls-1" x1="9.14" y1="7.23" x2="9.14" y2="10.09"/><rect class="cls-1" x="4.36" y="10.09" width="9.55" height="8.59"/><path class="cls-1" d="M1.5,18.68H16.77a0,0,0,0,1,0,0v0A3.82,3.82,0,0,1,13,22.5H5.32A3.82,3.82,0,0,1,1.5,18.68v0A0,0,0,0,1,1.5,18.68Z"/><circle class="cls-1" cx="19.64" cy="18.68" r="2.86"/></svg>