<svg id="Layer_1" data-name="Layer 1" xmlns="http://www.w3.org/2000/svg" viewBox="0 0 24 24"><defs><style>.cls-1{fill:none;stroke:#020202;stroke-miterlimit:10;stroke-width:1.92px;}</style></defs><polygon class="cls-1" points="18.71 18.73 5.29 18.73 8.65 14.89 15.35 14.89 18.71 18.73"/><polygon class="cls-1" points="16.79 14.89 7.21 14.89 10.4 11.06 13.6 11.06 16.79 14.89"/><polygon class="cls-1" points="16.79 14.89 7.21 14.89 10.4 11.06 13.6 11.06 16.79 14.89"/><polygon class="cls-1" points="14.88 11.06 9.13 11.06 12 6.27 14.88 11.06"/><polygon class="cls-1" points="12 2.31 12.3 2.91 12.96 3 12.48 3.47 12.59 4.13 12 3.82 11.41 4.13 11.52 3.47 11.04 3 11.7 2.91 12 2.31"/><line class="cls-1" x1="12" y1="22.56" x2="12" y2="18.73"/><line class="cls-1" x1="23.5" y1="22.56" x2="0.5" y2="22.56"/></svg>