<svg id="Layer_1" data-name="Layer 1" xmlns="http://www.w3.org/2000/svg" viewBox="0 0 24 24"><defs><style>.cls-1{fill:none;stroke:#020202;stroke-miterlimit:10;stroke-width:1.91px;}</style></defs><polyline class="cls-1" points="15.83 11.02 19.65 11.02 21.57 16.76 20.61 16.76 15.83 16.76"/><polyline class="cls-1" points="8.17 16.76 3.39 16.76 2.44 16.76 4.35 11.02 8.17 11.02"/><polyline class="cls-1" points="8.17 16.76 3.39 16.76 3.39 22.5 8.17 22.5 15.83 22.5 20.61 22.5 20.61 16.76 15.83 16.76"/><polygon class="cls-1" points="8.17 9.11 12 6.24 15.83 9.11 15.83 22.5 8.17 22.5 8.17 9.11"/><line class="cls-1" x1="12" y1="11.02" x2="12" y2="12.93"/><line class="cls-1" x1="12" y1="18.67" x2="12" y2="22.5"/><line class="cls-1" x1="12" y1="14.85" x2="12" y2="16.76"/><line class="cls-1" x1="12" y1="0.5" x2="12" y2="6.24"/><line class="cls-1" x1="10.09" y1="2.41" x2="13.91" y2="2.41"/></svg>