<svg id="Layer_1" data-name="Layer 1" xmlns="http://www.w3.org/2000/svg" viewBox="0 0 24 24"><defs><style>.cls-1{fill:none;stroke:#020202;stroke-miterlimit:10;stroke-width:1.91px;}</style></defs><circle class="cls-1" cx="12" cy="21.52" r="0.95"/><path class="cls-1" d="M7.23,11h9.55a0,0,0,0,1,0,0v5.73A4.77,4.77,0,0,1,12,21.52h0a4.77,4.77,0,0,1-4.77-4.77V11a0,0,0,0,1,0,0Z"/><path class="cls-1" d="M16.77,11h1.91a1.91,1.91,0,0,1,1.91,1.91v1.91a0,0,0,0,1,0,0H18.68a1.91,1.91,0,0,1-1.91-1.91V11A0,0,0,0,1,16.77,11Z"/><path class="cls-1" d="M3.41,11H5.32a1.91,1.91,0,0,1,1.91,1.91v1.91a0,0,0,0,1,0,0H5.32a1.91,1.91,0,0,1-1.91-1.91V11A0,0,0,0,1,3.41,11Z" transform="translate(18.25 7.61) rotate(90)"/><path class="cls-1" d="M9.14,11V9.11A1.92,1.92,0,0,0,7.23,7.2h-1A4.77,4.77,0,0,1,1.5,2.43V.52"/><line class="cls-1" x1="6.27" y1="3.39" x2="6.27" y2="7.2"/><path class="cls-1" d="M14.86,11V9.11A1.92,1.92,0,0,1,16.77,7.2h1A4.77,4.77,0,0,0,22.5,2.43V.52"/><line class="cls-1" x1="17.73" y1="3.39" x2="17.73" y2="7.2"/></svg>