<svg id="Layer_1" data-name="Layer 1" xmlns="http://www.w3.org/2000/svg" viewBox="0 0 24 24"><defs><style>.cls-1{fill:none;stroke:#020202;stroke-miterlimit:10;stroke-width:1.91px;}</style></defs><path class="cls-1" d="M17.73,16.77a5.73,5.73,0,0,1-11.46,0,5.57,5.57,0,0,1,.34-1.91H17.39A5.57,5.57,0,0,1,17.73,16.77Z"/><rect class="cls-1" x="6.27" y="11.05" width="11.45" height="3.82"/><path class="cls-1" d="M21.55,13h0a0,0,0,0,1,0,0v1.91a3.82,3.82,0,0,1-3.82,3.82h0a0,0,0,0,1,0,0V16.77A3.82,3.82,0,0,1,21.55,13Z"/><path class="cls-1" d="M2.45,13h0a3.82,3.82,0,0,1,3.82,3.82v1.91a0,0,0,0,1,0,0h0a3.82,3.82,0,0,1-3.82-3.82V13A0,0,0,0,1,2.45,13Z" transform="translate(8.73 31.64) rotate(180)"/><path class="cls-1" d="M13.91,3.41A1.92,1.92,0,0,1,12,5.32a1.91,1.91,0,0,1-1.91-1.91,1.91,1.91,0,0,1,3.82,0Z"/><line class="cls-1" x1="16.85" y1="11.05" x2="13.02" y2="5.02"/><line class="cls-1" x1="10.94" y1="5" x2="6.91" y2="11.05"/></svg>