<svg id="Layer_1" data-name="Layer 1" xmlns="http://www.w3.org/2000/svg" viewBox="0 0 24 24"><defs><style>.cls-1{fill:none;stroke:#020202;stroke-miterlimit:10;stroke-width:1.91px;}</style></defs><path class="cls-1" d="M7.39,10.09H7.23A1.9,1.9,0,0,1,5.32,8.18h0A1.91,1.91,0,0,1,7.23,6.27h.16a1.9,1.9,0,0,1,1.35.56l1.35,1.35L8.74,9.53A1.9,1.9,0,0,1,7.39,10.09Z"/><path class="cls-1" d="M12.79,6.27H13a1.91,1.91,0,0,1,1.91,1.91h0A1.9,1.9,0,0,1,13,10.09h-.16a1.9,1.9,0,0,1-1.35-.56L10.09,8.18l1.35-1.35A1.9,1.9,0,0,1,12.79,6.27Z"/><rect class="cls-1" x="1.5" y="1.5" width="21" height="21" rx="1.91"/><line class="cls-1" x1="10.09" y1="1.5" x2="10.09" y2="22.5"/><line class="cls-1" x1="5.32" y1="8.18" x2="1.5" y2="8.18"/><line class="cls-1" x1="14.86" y1="8.18" x2="22.5" y2="8.18"/><line class="cls-1" x1="12.95" y1="13.91" x2="10.09" y2="8.18"/><line class="cls-1" x1="7.23" y1="13.91" x2="10.09" y2="8.18"/></svg>