<svg id="Layer_1" data-name="Layer 1" xmlns="http://www.w3.org/2000/svg" viewBox="0 0 24 24"><defs><style>.cls-1{fill:none;stroke:#020202;stroke-miterlimit:10;stroke-width:1.91px;}</style></defs><polyline class="cls-1" points="13.91 12.98 13.91 9.16 2.46 9.16 2.46 22.52 11.04 22.52 13.91 22.52"/><rect class="cls-1" x="1.5" y="5.34" width="13.36" height="3.82"/><rect class="cls-1" x="11.05" y="12.98" width="11.45" height="9.55"/><line class="cls-1" x1="11.05" y1="17.75" x2="22.5" y2="17.75"/><line class="cls-1" x1="16.77" y1="12.02" x2="16.77" y2="23.48"/><path class="cls-1" d="M5.32,1.52h0A2.86,2.86,0,0,1,8.18,4.39v1a0,0,0,0,1,0,0H5.32A1.91,1.91,0,0,1,3.41,3.43v0A1.91,1.91,0,0,1,5.32,1.52Z"/><path class="cls-1" d="M10.09,1.52H13a0,0,0,0,1,0,0v1a2.86,2.86,0,0,1-2.86,2.86h0A1.91,1.91,0,0,1,8.18,3.43v0a1.91,1.91,0,0,1,1.91-1.91Z" transform="translate(21.14 6.86) rotate(180)"/></svg>