<svg id="Layer_1" data-name="Layer 1" xmlns="http://www.w3.org/2000/svg" viewBox="0 0 24 24"><defs><style>.cls-1{fill:none;stroke:#020202;stroke-miterlimit:10;stroke-width:1.91px;}</style></defs><path class="cls-1" d="M15.82,8.16a3.86,3.86,0,0,1-2.53,3.6,3.89,3.89,0,0,1-2.58,0A3.82,3.82,0,0,1,9.58,5.21a3.8,3.8,0,0,1,4.84,0A3.85,3.85,0,0,1,15.82,8.16Z"/><path class="cls-1" d="M14.42,5.21l3.48-3a2.81,2.81,0,0,1,1.82-.68A2.77,2.77,0,0,1,22.5,4.25v7.81a2.77,2.77,0,0,1-4.6,2.09l-3.48-3"/><path class="cls-1" d="M9.58,11.11l-3.48,3a2.77,2.77,0,0,1-4.6-2.09V4.25A2.77,2.77,0,0,1,4.28,1.48a2.81,2.81,0,0,1,1.82.68L9.58,5.21"/><polyline class="cls-1" points="4.54 14.83 2.46 18.66 5.32 18.66 7.23 21.52 10.71 11.76"/><polyline class="cls-1" points="19.45 14.83 21.55 18.66 18.68 18.66 16.77 21.52 13.29 11.76"/><line class="cls-1" x1="4.36" y1="8.16" x2="8.18" y2="8.16"/><line class="cls-1" x1="15.82" y1="8.16" x2="19.64" y2="8.16"/></svg>