<svg id="Layer_1" data-name="Layer 1" xmlns="http://www.w3.org/2000/svg" viewBox="0 0 24 24"><defs><style>.cls-1{fill:none;stroke:#020202;stroke-miterlimit:10;stroke-width:1.91px;}</style></defs><path class="cls-1" d="M13,7.23h-1.9L2.69,15.59A4.05,4.05,0,0,0,1.5,18.45h0A4,4,0,0,0,5.55,22.5h12.9a4,4,0,0,0,4.05-4.05h0a4.05,4.05,0,0,0-1.19-2.86Z"/><path class="cls-1" d="M9.14,1.5h5.73a0,0,0,0,1,0,0V4.36A2.86,2.86,0,0,1,12,7.23h0A2.86,2.86,0,0,1,9.14,4.36V1.5A0,0,0,0,1,9.14,1.5Z"/><line class="cls-1" x1="8.18" y1="7.23" x2="14.86" y2="7.23"/><line class="cls-1" x1="18.68" y1="4.36" x2="14.86" y2="7.23"/><line class="cls-1" x1="18.68" y1="9.14" x2="14.86" y2="7.23"/><line class="cls-1" x1="12" y1="11.05" x2="12" y2="20.59"/><line class="cls-1" x1="16.77" y1="15.82" x2="7.23" y2="15.82"/><line class="cls-1" x1="8.18" y1="12.95" x2="10.09" y2="12.95"/><line class="cls-1" x1="8.18" y1="18.68" x2="10.09" y2="18.68"/><line class="cls-1" x1="13.91" y1="12.95" x2="15.82" y2="12.95"/><line class="cls-1" x1="13.91" y1="18.68" x2="15.82" y2="18.68"/></svg>