<svg id="Layer_1" data-name="Layer 1" xmlns="http://www.w3.org/2000/svg" viewBox="0 0 24 24"><defs><style>.cls-1{fill:none;stroke:#020202;stroke-miterlimit:10;stroke-width:1.91px;}</style></defs><path class="cls-1" d="M13,14.86H7.23a2.87,2.87,0,1,0,0,5.73l.17,0a2.84,2.84,0,0,0,5.38,0l.17,0a2.87,2.87,0,1,0,0-5.73Z"/><polyline class="cls-1" points="5.32 15.6 5.32 11.04 14.86 11.04 14.86 15.6"/><rect class="cls-1" x="4.36" y="7.23" width="11.45" height="3.82"/><path class="cls-1" d="M5.32,7.23,5.72,6A6.62,6.62,0,0,1,12,1.5a6.65,6.65,0,0,1,5.73,3.33l1,1.71"/><circle class="cls-1" cx="17.73" cy="8.18" r="1.91"/><line class="cls-1" x1="13.91" y1="4.36" x2="13.91" y2="7.23"/></svg>