<svg id="Layer_1" data-name="Layer 1" xmlns="http://www.w3.org/2000/svg" viewBox="0 0 24 24"><defs><style>.cls-1{fill:none;stroke:#020202;stroke-miterlimit:10;stroke-width:1.91px;}</style></defs><path class="cls-1" d="M16.21,13.51l-.79.79a1.9,1.9,0,0,1-1.35.56h-3A1.9,1.9,0,0,1,9.14,13h0a1.91,1.91,0,0,0-1.91-1.9H2.45V12a6.69,6.69,0,0,0,6.69,6.68h6.68A5.73,5.73,0,0,0,21.55,13h-4A2,2,0,0,0,16.21,13.51Z"/><line class="cls-1" x1="0.55" y1="11.05" x2="3.41" y2="11.05"/><line class="cls-1" x1="20.59" y1="12.95" x2="23.45" y2="12.95"/><path class="cls-1" d="M18.65,13a3.91,3.91,0,0,0,0-.49,5.28,5.28,0,0,0-2-4.11L13,5.32h-1.9l-3.77,3a5.26,5.26,0,0,0-1.76,2.7"/><path class="cls-1" d="M10.09,1.5h3.82a0,0,0,0,1,0,0V3.41A1.91,1.91,0,0,1,12,5.32h0a1.91,1.91,0,0,1-1.91-1.91V1.5a0,0,0,0,1,0,0Z"/><path class="cls-1" d="M22.5,18.68h0a3.82,3.82,0,0,1-3.82,3.82H1.5"/><line class="cls-1" x1="6.27" y1="18.68" x2="6.27" y2="22.5"/><line class="cls-1" x1="17.73" y1="18.68" x2="17.73" y2="22.5"/></svg>