<svg id="Layer_1" data-name="Layer 1" xmlns="http://www.w3.org/2000/svg" viewBox="0 0 24 24"><defs><style>.cls-1{fill:none;stroke:#020202;stroke-miterlimit:10;stroke-width:1.91px;}</style></defs><path class="cls-1" d="M18.68,18.45a4,4,0,0,1-4,4.05,4.07,4.07,0,0,1-2.86-1.18L8,17.5a5.72,5.72,0,0,1-1.68-4.06V5.32h7.64v5.5a2.85,2.85,0,0,0,.84,2l2.75,2.75A4,4,0,0,1,18.68,18.45Z"/><rect class="cls-1" x="5.32" y="1.5" width="9.55" height="3.82"/><polyline class="cls-1" points="6.27 9.14 7.54 10.09 8.81 9.14 10.09 10.09 11.36 9.14 12.63 10.09 13.91 9.14"/><polyline class="cls-1" points="6.27 12.96 7.54 13.91 8.81 12.96 10.09 13.91 11.36 12.96 12.63 13.91 13.91 12.96"/></svg>