<svg id="Layer_1" data-name="Layer 1" xmlns="http://www.w3.org/2000/svg" viewBox="0 0 24 24"><defs><style>.cls-1{fill:none;stroke:#020202;stroke-miterlimit:10;stroke-width:1.91px;}</style></defs><rect class="cls-1" x="2.45" y="5.32" width="11.45" height="3.82" rx="0.95"/><path class="cls-1" d="M14.86,18.45A4.05,4.05,0,0,1,8,21.32L5.48,18.84a3.8,3.8,0,0,1-1.12-2.7v-7H12v4.77l1.68,1.68a4,4,0,0,1,1.1,2A4.56,4.56,0,0,1,14.86,18.45Z"/><path class="cls-1" d="M21.55,14.63a4,4,0,0,1-6.77,3,4,4,0,0,0-1.1-2L12,13.91V9.14H13a1,1,0,0,0,1-1V6.27a1,1,0,0,0-1-.95h5.73v4.77l1.68,1.68A4,4,0,0,1,21.55,14.63Z"/><rect class="cls-1" x="9.14" y="1.5" width="11.45" height="3.82" rx="0.95"/></svg>