<svg id="Layer_1" data-name="Layer 1" xmlns="http://www.w3.org/2000/svg" viewBox="0 0 24 24"><defs><style>.cls-1{fill:none;stroke:#020202;stroke-miterlimit:10;stroke-width:1.91px;}</style></defs><circle class="cls-1" cx="12" cy="12" r="10.5"/><circle class="cls-1" cx="12" cy="12" r="5.73"/><path class="cls-1" d="M12,6.27h0a2.86,2.86,0,0,1,2.86,2.86V12a0,0,0,0,1,0,0H9.14a0,0,0,0,1,0,0V9.14A2.86,2.86,0,0,1,12,6.27Z"/><circle class="cls-1" cx="12" cy="12.95" r="0.95"/><path class="cls-1" d="M7.22,2.65c-.08,1.24-1,1.3-1,2.67s1,1.43,1,2.86a2.23,2.23,0,0,1-.22,1l-.09.15"/><path class="cls-1" d="M17.08,14.66l-.09.15a2.23,2.23,0,0,0-.22,1c0,1.43,1,1.43,1,2.86s-.87,1.43-.95,2.67"/><path class="cls-1" d="M7.22,2.65c-.08,1.24-1,1.3-1,2.67s1,1.43,1,2.86a2.23,2.23,0,0,1-.22,1l-.09.15"/><path class="cls-1" d="M17.08,14.66l-.09.15a2.23,2.23,0,0,0-.22,1c0,1.43,1,1.43,1,2.86s-.87,1.43-.95,2.67"/><path class="cls-1" d="M1.51,11.46c1,.69.66,1.48,1.84,2.16s1.72-.11,3,.6a2.18,2.18,0,0,1,.76.7l.08.15"/><path class="cls-1" d="M16.85,8.93l.08.15a2.18,2.18,0,0,0,.76.7c1.24.71,1.72-.11,3,.6s.81,1.47,1.84,2.16"/><path class="cls-1" d="M1.51,11.46c1,.69.66,1.48,1.84,2.16s1.72-.11,3,.6a2.18,2.18,0,0,1,.76.7l.08.15"/><path class="cls-1" d="M16.85,8.93l.08.15a2.18,2.18,0,0,0,.76.7c1.24.71,1.72-.11,3,.6s.81,1.47,1.84,2.16"/><path class="cls-1" d="M6.29,20.82c1.11-.56,1.6.16,2.79-.52s.76-1.54,2-2.26a2.23,2.23,0,0,1,1-.31h.16"/><path class="cls-1" d="M11.77,6.27h.16a2.23,2.23,0,0,0,1-.31c1.24-.72.76-1.54,2-2.26s1.68,0,2.79-.52"/><path class="cls-1" d="M6.29,20.82c1.11-.56,1.6.16,2.79-.52s.76-1.54,2-2.26a2.23,2.23,0,0,1,1-.31h.16"/><path class="cls-1" d="M11.77,6.27h.16a2.23,2.23,0,0,0,1-.31c1.24-.72.76-1.54,2-2.26s1.68,0,2.79-.52"/></svg>