<svg id="Layer_1" data-name="Layer 1" xmlns="http://www.w3.org/2000/svg" viewBox="0 0 24 24"><defs><style>.cls-1{fill:none;stroke:#020202;stroke-miterlimit:10;stroke-width:1.91px;}</style></defs><path class="cls-1" d="M5.51,18a9.55,9.55,0,1,1,13,0"/><circle class="cls-1" cx="12" cy="11.05" r="2.86"/><line class="cls-1" x1="11.05" y1="4.36" x2="12.95" y2="4.36"/><line class="cls-1" x1="18.68" y1="10.09" x2="18.68" y2="12"/><line class="cls-1" x1="5.32" y1="10.09" x2="5.32" y2="12"/><line class="cls-1" x1="16.05" y1="5.65" x2="17.4" y2="7"/><line class="cls-1" x1="7.95" y1="5.65" x2="6.6" y2="7"/><path class="cls-1" d="M9.71,21.35l-1,.72a2.12,2.12,0,0,1-1.28.43,2.15,2.15,0,0,1-2.15-2.15V18.92a2.15,2.15,0,0,1,2.15-2.15,2.19,2.19,0,0,1,1.28.43l1,.72"/><path class="cls-1" d="M14.29,17.92l1-.72a2.19,2.19,0,0,1,1.28-.43,2.15,2.15,0,0,1,2.15,2.15v1.43a2.15,2.15,0,0,1-2.15,2.15,2.12,2.12,0,0,1-1.28-.43l-1-.72"/><circle class="cls-1" cx="12" cy="19.64" r="2.86"/></svg>