<svg id="Layer_1" data-name="Layer 1" xmlns="http://www.w3.org/2000/svg" viewBox="0 0 24 24"><defs><style>.cls-1{fill:none;stroke:#020202;stroke-miterlimit:10;stroke-width:1.91px;}</style></defs><path class="cls-1" d="M18.4,8.18a8.59,8.59,0,1,1-12.8,0"/><circle class="cls-1" cx="12" cy="13.91" r="2.86"/><path class="cls-1" d="M14.86,4.55V6.09a1.78,1.78,0,0,1-.12.7,2.09,2.09,0,0,1-2,1.39H11.23a2.09,2.09,0,0,1-2-1.39,1.78,1.78,0,0,1-.12-.7V4.55a1.89,1.89,0,0,1,.2-.9,2.09,2.09,0,0,1,1.89-1.2h1.54a2.09,2.09,0,0,1,1.89,1.2A1.89,1.89,0,0,1,14.86,4.55Z"/><path class="cls-1" d="M20.59,3.68V6a2.17,2.17,0,0,1-2.18,2.17h-.2a2.21,2.21,0,0,1-.92-.2L14.74,6.79a1.78,1.78,0,0,0,.12-.7V4.55a1.89,1.89,0,0,0-.2-.9l2.5-1.76a2.18,2.18,0,0,1,3.43,1.79Z"/><path class="cls-1" d="M9.14,6.09a1.78,1.78,0,0,0,.12.7L6.71,8a2.21,2.21,0,0,1-.92.2h-.2A2.17,2.17,0,0,1,3.41,6V3.68A2.18,2.18,0,0,1,6.84,1.89l2.5,1.76a1.89,1.89,0,0,0-.2.9Z"/></svg>