<svg id="Layer_1" data-name="Layer 1" xmlns="http://www.w3.org/2000/svg" viewBox="0 0 24 24"><defs><style>.cls-1{fill:none;stroke:#020202;stroke-miterlimit:10;stroke-width:1.91px;}</style></defs><path class="cls-1" d="M7.5,8.15l3-4.86A1.71,1.71,0,0,1,12,2.48h0a1.72,1.72,0,0,1,1.46.8L17,8.89h0"/><path class="cls-1" d="M5.5,11.34l-3.77,6a1.46,1.46,0,0,0-.23.79h0A1.49,1.49,0,0,0,3,19.66h8.06"/><path class="cls-1" d="M15,19.66H21a1.49,1.49,0,0,0,1.48-1.49h0a1.45,1.45,0,0,0-.23-.78L19,12.12"/><polyline class="cls-1" points="17.73 16.79 14.91 19.61 17.78 22.47"/><polyline class="cls-1" points="13.09 8.02 16.97 8.92 17.88 4.97"/><line class="cls-1" x1="19.05" y1="12.17" x2="19.01" y2="12.1"/><polyline class="cls-1" points="6.45 15.21 5.55 11.33 1.61 12.25"/><line class="cls-1" x1="7.55" y1="8.02" x2="7.48" y2="8.15"/></svg>