<svg id="Layer_1" data-name="Layer 1" xmlns="http://www.w3.org/2000/svg" viewBox="0 0 24 24"><defs><style>.cls-1{fill:none;stroke:#020202;stroke-miterlimit:10;stroke-width:1.91px;}</style></defs><circle class="cls-1" cx="17.75" cy="20.59" r="1.91"/><circle class="cls-1" cx="9.16" cy="20.59" r="1.91"/><line class="cls-1" x1="15.84" y1="20.59" x2="11.07" y2="20.59"/><path class="cls-1" d="M7.25,20.59H5.34V14.86l1.19-3a2.86,2.86,0,0,1,2.66-1.81h6a2.87,2.87,0,0,1,2.46,1.39l2,3.38a2.87,2.87,0,0,1,2.86,2.87v2.86H19.66"/><line class="cls-1" x1="19.66" y1="14.86" x2="11.07" y2="14.86"/><line class="cls-1" x1="13.93" y1="12" x2="13.93" y2="14.86"/><path class="cls-1" d="M5.34,17.73h-1a2.86,2.86,0,0,1-2.87-2.87V7.23A2.87,2.87,0,0,1,4.39,4.36H15.84"/><path class="cls-1" d="M17.75,1.5h1.91a0,0,0,0,1,0,0V7.23a0,0,0,0,1,0,0H17.75a1.91,1.91,0,0,1-1.91-1.91V3.41A1.91,1.91,0,0,1,17.75,1.5Z"/><line class="cls-1" x1="23.48" y1="2.45" x2="19.66" y2="2.45"/><line class="cls-1" x1="23.48" y1="6.27" x2="19.66" y2="6.27"/></svg>