<svg id="Layer_1" data-name="Layer 1" xmlns="http://www.w3.org/2000/svg" viewBox="0 0 24 24"><defs><style>.cls-1,.cls-2,.cls-3,.cls-4,.cls-5{fill:none;stroke:#020202;stroke-miterlimit:10;stroke-width:2px;}.cls-2{stroke-dasharray:1.93 1.93;}.cls-3{stroke-dasharray:1.93 1.93;}.cls-4{stroke-dasharray:1.93 1.93;}.cls-5{stroke-dasharray:1.93 1.93;}</style></defs><path class="cls-1" d="M7.4,4a5,5,0,0,1,.48-.88"/><path class="cls-2" d="M9.26,1.82a5,5,0,0,1,6.23.61"/><path class="cls-1" d="M16.12,3.16A5,5,0,0,1,16.6,4"/><path class="cls-1" d="M16.6,20a5,5,0,0,1-.48.88"/><path class="cls-3" d="M14.74,22.18a5,5,0,0,1-6.23-.61"/><path class="cls-1" d="M7.88,20.84A5,5,0,0,1,7.4,20"/><path class="cls-1" d="M11.4,11A5,5,0,0,1,7.4,4a5.2,5.2,0,0,1,1.9.63A5,5,0,0,1,11.4,11Z"/><path class="cls-1" d="M2.81,12a5,5,0,0,1-.52-.85"/><path class="cls-4" d="M1.81,9.28A5.06,5.06,0,0,1,2.47,6.5a4.94,4.94,0,0,1,3-2.31"/><path class="cls-1" d="M6.4,4a4.78,4.78,0,0,1,1,0"/><path class="cls-1" d="M17,18a4.94,4.94,0,0,1-.4,2,5.2,5.2,0,0,1-1.9-.63A5,5,0,0,1,12.6,13,5,5,0,0,1,17,18Z"/><path class="cls-1" d="M21.19,12a5,5,0,0,1,.52.85"/><path class="cls-5" d="M22.19,14.72a5.06,5.06,0,0,1-.66,2.78,4.94,4.94,0,0,1-3,2.31"/><path class="cls-1" d="M17.6,20a4.78,4.78,0,0,1-1,0"/><path class="cls-1" d="M10.8,12a5,5,0,0,1-6.5,1.33A4.9,4.9,0,0,1,2.81,12,4.9,4.9,0,0,1,4.3,10.67,5,5,0,0,1,10.8,12Z"/><path class="cls-1" d="M9.3,19.33A5.2,5.2,0,0,1,7.4,20a5,5,0,0,1,4-6.92A5,5,0,0,1,9.3,19.33Z"/><path class="cls-1" d="M7.4,20a4.78,4.78,0,0,1-1,0"/><path class="cls-5" d="M4.55,19.47A5,5,0,0,1,2,13.76"/><path class="cls-1" d="M2.29,12.85A5,5,0,0,1,2.81,12"/><path class="cls-1" d="M17,6a5,5,0,0,1-4.4,5,5,5,0,0,1,2.1-6.29A5.2,5.2,0,0,1,16.6,4,4.94,4.94,0,0,1,17,6Z"/><path class="cls-1" d="M21.19,12a4.9,4.9,0,0,1-1.49,1.33A5,5,0,0,1,13.2,12a5,5,0,0,1,6.5-1.33A4.9,4.9,0,0,1,21.19,12Z"/><path class="cls-1" d="M16.6,4a4.78,4.78,0,0,1,1,0"/><path class="cls-4" d="M19.45,4.53A5,5,0,0,1,22,10.24"/><path class="cls-1" d="M21.71,11.15a5,5,0,0,1-.52.85"/></svg>