<svg id="Layer_1" data-name="Layer 1" xmlns="http://www.w3.org/2000/svg" viewBox="0 0 24 24"><defs><style>.cls-1{fill:none;stroke:#020202;stroke-miterlimit:10;stroke-width:1.91px;}</style></defs><path class="cls-1" d="M10.81,12.69a5.72,5.72,0,0,1-7.9,4.57,5.9,5.9,0,0,1,.72-2.18A5.7,5.7,0,0,1,10.81,12.69Z"/><path class="cls-1" d="M18.86,6.29a5.73,5.73,0,0,1,2.23.45,5.9,5.9,0,0,1-.72,2.18,5.7,5.7,0,0,1-7.18,2.39A5.7,5.7,0,0,1,18.86,6.29Z"/><path class="cls-1" d="M12,13.37a5.71,5.71,0,0,1,1.52,7.43A5.65,5.65,0,0,1,12,22.5a5.65,5.65,0,0,1-1.52-1.7A5.71,5.71,0,0,1,12,13.37Z"/><path class="cls-1" d="M20.37,15.08a5.9,5.9,0,0,1,.72,2.18,5.72,5.72,0,0,1-7.9-4.57A5.7,5.7,0,0,1,20.37,15.08Z"/><path class="cls-1" d="M5.14,6.29a5.7,5.7,0,0,1,5.67,5A5.7,5.7,0,0,1,3.63,8.92a5.9,5.9,0,0,1-.72-2.18A5.73,5.73,0,0,1,5.14,6.29Z"/><path class="cls-1" d="M12,1.5a5.65,5.65,0,0,1,1.52,1.7A5.71,5.71,0,0,1,12,10.63,5.71,5.71,0,0,1,10.48,3.2,5.65,5.65,0,0,1,12,1.5Z"/></svg>