<svg id="Layer_1" data-name="Layer 1" xmlns="http://www.w3.org/2000/svg" viewBox="0 0 24 24"><defs><style>.cls-1{fill:none;stroke:#020202;stroke-miterlimit:10;stroke-width:1.91px;}</style></defs><path class="cls-1" d="M21.55,16.18V12a2.87,2.87,0,0,0-5.73,0v4.18a3.77,3.77,0,0,0-1,2.5,3.82,3.82,0,1,0,6.69-2.5Z"/><circle class="cls-1" cx="18.68" cy="18.68" r="0.95"/><path class="cls-1" d="M18.68,13v4.78"/><path class="cls-1" d="M21.6,16.26A10.5,10.5,0,0,0,4.32,4.84,10.5,10.5,0,0,0,16.24,21.61"/><path class="cls-1" d="M15.6,16.46l-.14-.05A10.51,10.51,0,0,0,4.32,19.16"/><path class="cls-1" d="M4.32,4.84A10.47,10.47,0,0,0,12,8.18a10.47,10.47,0,0,0,7.68-3.34"/><path class="cls-1" d="M15.4,16.76a2,2,0,0,0,.06-.35A26.33,26.33,0,0,0,15.82,12a26.33,26.33,0,0,0-.36-4.41c-.58-3.45-1.81-5.87-3.26-6.08h-.4c-1.45.21-2.68,2.63-3.26,6.08A26.33,26.33,0,0,0,8.18,12a26.33,26.33,0,0,0,.36,4.41c.58,3.45,1.81,5.87,3.26,6.08h.4c1.06-.15,2-1.51,2.67-3.58"/><line class="cls-1" x1="1.5" y1="12" x2="15.82" y2="12"/></svg>