<svg id="Layer_1" data-name="Layer 1" xmlns="http://www.w3.org/2000/svg" viewBox="0 0 24 24"><defs><style>.cls-1{fill:none;stroke:#020202;stroke-miterlimit:10;stroke-width:1.73px;}</style></defs><circle class="cls-1" cx="12" cy="15.45" r="6.05"/><line class="cls-1" x1="17.83" y1="13.73" x2="12.86" y2="13.73"/><polyline class="cls-1" points="12.43 14.16 14.56 16.32 14.56 18.02 11.14 21.45 11.14 18.91 9.41 17.18 9.41 14.59 12 14.59 12.43 14.16 12.86 13.73 13.73 12.86 13.73 9.41"/><path class="cls-1" d="M6,2.5H7.68A4.32,4.32,0,0,1,12,6.82v0a0,0,0,0,1,0,0H10.27A4.32,4.32,0,0,1,6,2.5v0A0,0,0,0,1,6,2.5Z"/><path class="cls-1" d="M16.32,2.5H18a0,0,0,0,1,0,0v0a4.32,4.32,0,0,1-4.32,4.32H12a0,0,0,0,1,0,0v0A4.32,4.32,0,0,1,16.32,2.5Z" transform="translate(30.05 9.32) rotate(180)"/><line class="cls-1" x1="12" y1="9.41" x2="12" y2="6.82"/></svg>