<svg id="Layer_1" data-name="Layer 1" xmlns="http://www.w3.org/2000/svg" viewBox="0 0 24 24"><defs><style>.cls-1{fill:none;stroke:#020202;stroke-miterlimit:10;stroke-width:1.91px;}</style></defs><path class="cls-1" d="M18.54,23.5h0a24.47,24.47,0,0,1,2.29-9.9,8.62,8.62,0,0,0,.73-3.25A8.71,8.71,0,0,0,13.25,1.5a8.61,8.61,0,0,0-8.9,8.61c0,.2,0,.39,0,.58L2.58,14.58a1.49,1.49,0,0,0-.15.66h0A1.57,1.57,0,0,0,4,16.8h.35v1a2.86,2.86,0,0,0,2.87,2.87H9.13V23.5"/><path class="cls-1" d="M9.13,7.24h2.46a4.23,4.23,0,0,1,4.23,4.23v2.46a0,0,0,0,1,0,0H13.37A4.23,4.23,0,0,1,9.13,9.7V7.24a0,0,0,0,1,0,0Z"/><line class="cls-1" x1="17.74" y1="15.85" x2="12" y2="10.11"/></svg>