<svg id="Layer_1" data-name="Layer 1" xmlns="http://www.w3.org/2000/svg" viewBox="0 0 24 24"><defs><style>.cls-1{fill:none;stroke:#020202;stroke-miterlimit:10;stroke-width:1.91px;}</style></defs><rect class="cls-1" x="6.27" y="1.5" width="4.77" height="3.82"/><path class="cls-1" d="M19.64,4.36V20.59a1.91,1.91,0,0,1-1.91,1.91H6.27a1.91,1.91,0,0,1-1.91-1.91V7.23A1.91,1.91,0,0,1,6.27,5.32H13l1.35-2a1.91,1.91,0,0,1,1.59-.85h1.84A1.92,1.92,0,0,1,19.64,4.36Z"/><path class="cls-1" d="M13,5.32h0a3.28,3.28,0,0,0,2.31.95h4.38"/><path class="cls-1" d="M8.18,10.09h2.46a4.23,4.23,0,0,1,4.23,4.23v2.46a0,0,0,0,1,0,0H12.41a4.23,4.23,0,0,1-4.23-4.23V10.09A0,0,0,0,1,8.18,10.09Z"/><line class="cls-1" x1="16.77" y1="18.68" x2="11.05" y2="12.95"/></svg>