<svg id="Layer_1" data-name="Layer 1" xmlns="http://www.w3.org/2000/svg" viewBox="0 0 24 24"><defs><style>.cls-1{fill:none;stroke:#020202;stroke-miterlimit:10;stroke-width:1.91px;}</style></defs><circle class="cls-1" cx="17.73" cy="20.59" r="1.91"/><circle class="cls-1" cx="5.32" cy="20.59" r="1.91"/><line class="cls-1" x1="15.82" y1="20.59" x2="7.23" y2="20.59"/><path class="cls-1" d="M3.41,20.59H1.5V14.86H4.36l2-3.38a2.87,2.87,0,0,1,2.46-1.39H14.2a2.86,2.86,0,0,1,2.45,1.39l2,3.38h1a2.87,2.87,0,0,1,2.86,2.87v2.86H19.64"/><line class="cls-1" x1="18.68" y1="14.86" x2="8.18" y2="14.86"/><line class="cls-1" x1="12.95" y1="12" x2="12.95" y2="14.86"/><path class="cls-1" d="M7.64,1.5h2.46a0,0,0,0,1,0,0V4A4.23,4.23,0,0,1,5.86,8.18H3.41a0,0,0,0,1,0,0V5.73A4.23,4.23,0,0,1,7.64,1.5Z" transform="translate(13.5 9.68) rotate(-180)"/><line class="cls-1" x1="1.5" y1="10.09" x2="7.23" y2="4.36"/></svg>