<svg id="Layer_1" data-name="Layer 1" xmlns="http://www.w3.org/2000/svg" viewBox="0 0 24 24"><defs><style>.cls-1{fill:none;stroke:#020202;stroke-miterlimit:10;stroke-width:1.91px;}</style></defs><path class="cls-1" d="M21.57,22.5H5.34a1.91,1.91,0,0,1-1.91-1.91h0a1.92,1.92,0,0,1,1.91-1.91H21.57"/><line class="cls-1" x1="19.66" y1="18.68" x2="19.66" y2="22.5"/><path class="cls-1" d="M19.66,22.5H5.34a1.91,1.91,0,0,1-1.91-1.91V3.41A1.91,1.91,0,0,1,5.34,1.5H20.61V18.68h-.95Z"/><path class="cls-1" d="M8.2,6.27h2.46a4.23,4.23,0,0,1,4.23,4.23V13a0,0,0,0,1,0,0H12.43A4.23,4.23,0,0,1,8.2,8.73V6.27a0,0,0,0,1,0,0Z"/><line class="cls-1" x1="16.8" y1="14.86" x2="11.07" y2="9.14"/></svg>