<svg id="Layer_1" data-name="Layer 1" xmlns="http://www.w3.org/2000/svg" viewBox="0 0 24 24"><defs><style>.cls-1{fill:none;stroke:#020202;stroke-miterlimit:10;stroke-width:1.91px;}</style></defs><path class="cls-1" d="M6.28,22.49h7.56a4.78,4.78,0,0,0,3.37-1.39l4.71-4.71a2,2,0,0,0-1.41-3.45,2,2,0,0,0-1.45.59l-5.15,5.15H13a1.9,1.9,0,0,0,1.88-2.23,2,2,0,0,0-2-1.58H9.14l-.93-.47a4.68,4.68,0,0,0-5,.55,4.57,4.57,0,0,0-1.69,3.62v.11"/><line class="cls-1" x1="12.95" y1="18.68" x2="8.19" y2="18.68"/><path class="cls-1" d="M16.77,8.87a3.82,3.82,0,1,1-7.63,0C9.14,5.6,13,1.79,13,1.79S16.77,5.6,16.77,8.87Z"/></svg>