<svg id="Layer_1" data-name="Layer 1" xmlns="http://www.w3.org/2000/svg" viewBox="0 0 24 24"><defs><style>.cls-1{fill:none;stroke:#020202;stroke-miterlimit:10;stroke-width:1.91px;}</style></defs><path class="cls-1" d="M6.27,22.5h7.57a4.77,4.77,0,0,0,3.38-1.4l4.71-4.71a2,2,0,0,0-2.86-2.87l-5.16,5.16H13a1.91,1.91,0,0,0,1.88-2.23,2,2,0,0,0-2-1.59H9.14l-.93-.46a4.66,4.66,0,0,0-5,.55A4.57,4.57,0,0,0,1.5,18.57v.11"/><line class="cls-1" x1="12.96" y1="18.68" x2="8.18" y2="18.68"/><circle class="cls-1" cx="12" cy="7.23" r="5.73"/><ellipse class="cls-1" cx="12" cy="7.23" rx="1.91" ry="5.73"/><line class="cls-1" x1="6.27" y1="7.23" x2="17.73" y2="7.23"/></svg>