<svg id="Layer_1" data-name="Layer 1" xmlns="http://www.w3.org/2000/svg" viewBox="0 0 24 24"><defs><style>.cls-1{fill:none;stroke:#020202;stroke-miterlimit:10;stroke-width:1.91px;}</style></defs><path class="cls-1" d="M16.77,2.45A5.62,5.62,0,0,0,12,5.3,5.62,5.62,0,0,0,7.23,2.45C4.06,2.45,1.5,5.3,1.5,8.82,1.5,15.18,12,21.55,12,21.55S22.5,15.18,22.5,8.82C22.5,5.3,19.94,2.45,16.77,2.45Z"/><path class="cls-1" d="M5.32,8.18H7.23A4.77,4.77,0,0,1,12,13v0a0,0,0,0,1,0,0H10.09A4.77,4.77,0,0,1,5.32,8.18v0A0,0,0,0,1,5.32,8.18Z"/><path class="cls-1" d="M16.77,9.14h1.91a0,0,0,0,1,0,0v0a4.77,4.77,0,0,1-4.77,4.77H12a0,0,0,0,1,0,0v0A4.77,4.77,0,0,1,16.77,9.14Z" transform="translate(30.68 23.05) rotate(-180)"/><line class="cls-1" x1="12" y1="21.55" x2="12" y2="12.95"/></svg>