<svg id="Layer_1" data-name="Layer 1" xmlns="http://www.w3.org/2000/svg" viewBox="0 0 24 24"><defs><style>.cls-1{fill:none;stroke:#020202;stroke-miterlimit:10;stroke-width:1.91px;}</style></defs><path class="cls-1" d="M12,22.5h0c-5-1.11-8.59-6-8.59-11.64V5.32L12,1.5l8.59,3.82v5.54C20.59,16.52,17,21.39,12,22.5Z"/><path class="cls-1" d="M8.66,7.79h2.46A4.23,4.23,0,0,1,15.34,12v2.46a0,0,0,0,1,0,0H12.89a4.23,4.23,0,0,1-4.23-4.23V7.79a0,0,0,0,1,0,0Z" transform="translate(11.38 -5.23) rotate(45)"/><line class="cls-1" x1="12" y1="18.55" x2="12" y2="10.09"/></svg>