<svg id="Layer_1" data-name="Layer 1" xmlns="http://www.w3.org/2000/svg" viewBox="0 0 24 24"><defs><style>.cls-1{fill:none;stroke:#020202;stroke-miterlimit:10;stroke-width:1.91px;}</style></defs><path class="cls-1" d="M20.15,13.91a9.35,9.35,0,0,0,.44-2.86,9.55,9.55,0,1,0-9.54,9.54,9.35,9.35,0,0,0,2.86-.44"/><path class="cls-1" d="M20.15,13.91a9.35,9.35,0,0,0,.44-2.86,9.55,9.55,0,1,0-9.54,9.54,9.35,9.35,0,0,0,2.86-.44"/><path class="cls-1" d="M4.23,17.73a9.55,9.55,0,0,1,6.82-2.87,9.42,9.42,0,0,1,3.37.62,6.13,6.13,0,0,1,.79.35"/><path class="cls-1" d="M4.23,4.36A9.35,9.35,0,0,0,7.67,6.61a9.44,9.44,0,0,0,3.38.62,9.42,9.42,0,0,0,3.37-.62,9.35,9.35,0,0,0,3.44-2.25"/><ellipse class="cls-1" cx="11.05" cy="11.05" rx="3.82" ry="9.55"/><ellipse class="cls-1" cx="11.05" cy="11.05" rx="3.82" ry="9.55"/><path class="cls-1" d="M19.34,13.91H22.5a0,0,0,0,1,0,0v3.16a5.43,5.43,0,0,1-5.43,5.43H13.91a0,0,0,0,1,0,0V19.34A5.43,5.43,0,0,1,19.34,13.91Z" transform="translate(36.41 36.41) rotate(180)"/><line class="cls-1" x1="18.82" y1="17.59" x2="13.91" y2="22.5"/><line class="cls-1" x1="1.5" y1="11.05" x2="20.59" y2="11.05"/></svg>