<svg id="Layer_1" data-name="Layer 1" xmlns="http://www.w3.org/2000/svg" viewBox="0 0 24 24"><defs><style>.cls-1{fill:none;stroke:#020202;stroke-miterlimit:10;stroke-width:2px;}</style></defs><polyline class="cls-1" points="1 10.5 12 1.5 23 10.5"/><polyline class="cls-1" points="20 7.5 20 22.5 4 22.5 4 7.5"/><line class="cls-1" x1="22" y1="22.5" x2="2" y2="22.5"/><path class="cls-1" d="M7,10.5h.77A4.23,4.23,0,0,1,12,14.73v.77a0,0,0,0,1,0,0h-.77A4.23,4.23,0,0,1,7,11.27V10.5A0,0,0,0,1,7,10.5Z"/><path class="cls-1" d="M16.23,11.5H17a0,0,0,0,1,0,0v.77a4.23,4.23,0,0,1-4.23,4.23H12a0,0,0,0,1,0,0v-.77A4.23,4.23,0,0,1,16.23,11.5Z" transform="translate(29 28) rotate(180)"/><line class="cls-1" x1="12" y1="21.5" x2="12" y2="14.5"/></svg>