<svg id="Layer_1" data-name="Layer 1" xmlns="http://www.w3.org/2000/svg" viewBox="0 0 24 24"><defs><style>.cls-1{fill:none;stroke:#020202;stroke-miterlimit:10;stroke-width:1.92px;}</style></defs><path class="cls-1" d="M2.25,16A10.58,10.58,0,0,1,4.54,4.54l.22-.21H.5"/><path class="cls-1" d="M23.5,19.67H19.24l.22-.21A10.58,10.58,0,0,0,21.75,8"/><path class="cls-1" d="M8,2.27A10.57,10.57,0,0,1,19.46,4.54l.21.22V.5"/><path class="cls-1" d="M4.33,23.5V19.24l.21.22a10.57,10.57,0,0,0,11.51,2.27"/><polygon class="cls-1" points="16.79 10.08 12.96 10.08 12.96 6.25 7.21 13.92 11.04 13.92 11.04 17.75 16.79 10.08"/></svg>