<svg id="Layer_1" data-name="Layer 1" xmlns="http://www.w3.org/2000/svg" viewBox="0 0 24 24"><defs><style>.cls-1{fill:none;stroke:#020202;stroke-miterlimit:10;stroke-width:1.91px;}</style></defs><path class="cls-1" d="M19.64,16.77c0,4.22-3.42,5.73-7.64,5.73S4.36,21,4.36,16.77c0-2.38,3.6-7,5.73-10.5h3.82C16,9.8,19.64,14.39,19.64,16.77Z"/><polygon class="cls-1" points="13.91 6.27 10.09 6.27 9.14 1.5 14.86 1.5 13.91 6.27"/><line class="cls-1" x1="17.73" y1="3.41" x2="13.91" y2="6.27"/><line class="cls-1" x1="17.73" y1="7.23" x2="13.91" y2="6.27"/><polyline class="cls-1" points="11.04 17.73 8.18 17.73 9.57 15.66"/><polyline class="cls-1" points="14.43 15.66 15.82 17.73 12.96 17.73"/><polyline class="cls-1" points="10.62 14.07 12 12 13.38 14.07"/></svg>