<svg id="Layer_1" data-name="Layer 1" xmlns="http://www.w3.org/2000/svg" viewBox="0 0 24 24"><defs><style>.cls-1{fill:none;stroke:#020202;stroke-miterlimit:10;stroke-width:1.91px;}.cls-2{fill:#020202;}</style></defs><path class="cls-1" d="M1.5,7.23h21a0,0,0,0,1,0,0V18.68a3.82,3.82,0,0,1-3.82,3.82H5.32A3.82,3.82,0,0,1,1.5,18.68V7.23A0,0,0,0,1,1.5,7.23Z"/><path class="cls-1" d="M5.32,11.05V8.18A6.68,6.68,0,0,1,12,1.5h0a6.68,6.68,0,0,1,6.68,6.68v2.87"/><path class="cls-1" d="M8.18,14.86A3.81,3.81,0,0,1,12,11.05"/><path class="cls-1" d="M15.82,14.86A3.82,3.82,0,0,1,12,18.68"/><polygon class="cls-2" points="17.73 13.91 13.91 13.91 15.82 12 17.73 13.91"/><polygon class="cls-2" points="6.27 15.82 10.09 15.82 8.18 17.73 6.27 15.82"/><path class="cls-1" d="M8.18,15.82v0Z"/><line class="cls-1" x1="15.82" y1="13.91" x2="15.82" y2="14.86"/></svg>