<svg id="Layer_1" data-name="Layer 1" xmlns="http://www.w3.org/2000/svg" viewBox="0 0 24 24"><defs><style>.cls-1{fill:none;stroke:#020202;stroke-miterlimit:10;stroke-width:1.91px;}</style></defs><path class="cls-1" d="M14.87,5.28a2.87,2.87,0,1,1-.84-2A2.89,2.89,0,0,1,14.87,5.28Z"/><line class="cls-1" x1="12" y1="2.41" x2="12" y2="0.5"/><line class="cls-1" x1="12" y1="10.07" x2="12" y2="8.15"/><line class="cls-1" x1="9.13" y1="5.28" x2="7.22" y2="5.28"/><line class="cls-1" x1="16.78" y1="5.28" x2="14.87" y2="5.28"/><line class="cls-1" x1="9.97" y1="3.25" x2="8.61" y2="1.9"/><line class="cls-1" x1="15.39" y1="8.67" x2="14.03" y2="7.31"/><line class="cls-1" x1="9.97" y1="7.31" x2="8.61" y2="8.67"/><line class="cls-1" x1="15.39" y1="1.9" x2="14.03" y2="3.25"/><polygon class="cls-1" points="21.57 22.5 2.44 22.5 6.26 11.98 17.74 11.98 21.57 22.5"/><polyline class="cls-1" points="5.22 14.85 9.56 14.85 14.44 14.85 18.78 14.85"/><polyline class="cls-1" points="3.82 18.67 8.87 18.67 15.13 18.67 20.18 18.67"/><line class="cls-1" x1="10.09" y1="11.98" x2="8.17" y2="22.5"/><line class="cls-1" x1="13.91" y1="11.98" x2="15.83" y2="22.5"/></svg>