<svg id="Layer_1" data-name="Layer 1" xmlns="http://www.w3.org/2000/svg" viewBox="0 0 24 24"><defs><style>.cls-1{fill:none;stroke:#020202;stroke-miterlimit:10;stroke-width:1.91px;}</style></defs><path class="cls-1" d="M17.84,22.5H8.07a1.8,1.8,0,0,1-1.8-1.8h0a1.64,1.64,0,0,1,0-.22L8.18,5.32h9.55l1.89,15.16a1.64,1.64,0,0,1,0,.22h0A1.8,1.8,0,0,1,17.84,22.5Z"/><path class="cls-1" d="M11,1.5h3.82a1.91,1.91,0,0,1,1.91,1.91V5.32a0,0,0,0,1,0,0H9.14a0,0,0,0,1,0,0V3.41A1.91,1.91,0,0,1,11,1.5Z"/><line class="cls-1" x1="6.27" y1="5.32" x2="19.64" y2="5.32"/><path class="cls-1" d="M18.09,8.18h.59a3.82,3.82,0,0,1,2.7,6.52A3.86,3.86,0,0,1,19,15.8"/><polyline class="cls-1" points="7.01 14.68 1.5 10.09 1.5 8.18 7.61 9.93"/><path class="cls-1" d="M15,14.7a2.08,2.08,0,0,1-4.15,0c0-1.78,2.07-3.86,2.07-3.86S15,12.92,15,14.7Z"/></svg>