<svg id="Layer_1" data-name="Layer 1" xmlns="http://www.w3.org/2000/svg" viewBox="0 0 24 24"><defs><style>.cls-1{fill:none;stroke:#020202;stroke-miterlimit:10;stroke-width:1.91px;}</style></defs><rect class="cls-1" x="10.11" y="5.32" width="7.64" height="7.64" rx="2.2"/><polyline class="cls-1" points="23.48 7.23 17.75 7.23 17.75 11.04 23.48 11.04"/><path class="cls-1" d="M10.11,7.23H9.16A5.73,5.73,0,0,0,3.43,13v1.91H7.25V13a1.9,1.9,0,0,1,1.91-1.9h.95Z"/><line class="cls-1" x1="1.52" y1="14.86" x2="9.16" y2="14.86"/><line class="cls-1" x1="9.16" y1="1.5" x2="18.7" y2="1.5"/><line class="cls-1" x1="13.93" y1="5.32" x2="13.93" y2="1.5"/><path class="cls-1" d="M8,19.83a2.67,2.67,0,0,1-5.34,0c0-2.29,2.67-5,2.67-5S8,17.54,8,19.83Z"/></svg>