<svg id="Layer_1" data-name="Layer 1" xmlns="http://www.w3.org/2000/svg" viewBox="0 0 24 24"><defs><style>.cls-1{fill:none;stroke:#020202;stroke-miterlimit:10;stroke-width:1.91px;}</style></defs><path class="cls-1" d="M9.13,10.11a2.92,2.92,0,0,0,.48,1.6l-2.2,1.46L4.35,10.11V3.41A1.92,1.92,0,0,1,6.26,1.5l2.68,4,1.46,2.2A2.88,2.88,0,0,0,9.13,10.11Z"/><path class="cls-1" d="M15.06,14.7,12,17.76H5.3a1.92,1.92,0,0,1-1.91-1.91l4-2.68,2.2-1.46a2.89,2.89,0,0,0,4,.79Z"/><path class="cls-1" d="M19.65,10.11V16.8a1.92,1.92,0,0,1-1.91,1.92l-2.68-4L13.6,12.5a2.89,2.89,0,0,0,.79-4l2.2-1.46Z"/><path class="cls-1" d="M20.61,4.37l-4,2.68-2.2,1.46a2.89,2.89,0,0,0-4-.79L8.94,5.52,12,2.46h6.7A1.92,1.92,0,0,1,20.61,4.37Z"/><path class="cls-1" d="M14.87,10.11a2.85,2.85,0,1,1-.48-1.6A2.9,2.9,0,0,1,14.87,10.11Z"/><line class="cls-1" x1="12" y1="23.5" x2="12" y2="17.76"/></svg>