<svg xmlns="http://www.w3.org/2000/svg" viewBox="0 0 24 24"><defs><style>.cls-1{fill:none;stroke:#020202;stroke-linecap:square;stroke-miterlimit:10;stroke-width:1.91px;}</style></defs><g id="wallet_coin" data-name="wallet coin"><path class="cls-1" d="M11.35,6.29C5.74,6.64,1.5,11.77,1.5,17.61h0a3.87,3.87,0,0,0,3.79,3.94H18.71a3.87,3.87,0,0,0,3.79-3.94v-.43A10.68,10.68,0,0,0,11.35,6.29Z"/><path class="cls-1" d="M11.53,10.11c-4.08.26-7.17,4.1-7.17,8.48h0a2.87,2.87,0,0,0,2.76,3h9.76a2.87,2.87,0,0,0,2.76-3v-.32C19.64,13.59,16,9.82,11.53,10.11Z"/><circle class="cls-1" cx="13.91" cy="4.36" r="1.91"/><circle class="cls-1" cx="10.09" cy="4.36" r="1.91"/></g></svg>