<svg xmlns="http://www.w3.org/2000/svg" viewBox="0 0 24 24"><defs><style>.cls-1{fill:none;stroke:#020202;stroke-linecap:square;stroke-miterlimit:10;stroke-width:1.91px;}</style></defs><g id="connection"><polyline class="cls-1" points="10.09 15.82 12 13.91 13.91 15.82"/><line class="cls-1" x1="12" y1="12" x2="12" y2="13.91"/><path class="cls-1" d="M12,5.32h0a2.86,2.86,0,0,1,2.86,2.86v1a0,0,0,0,1,0,0H9.14a0,0,0,0,1,0,0v-1A2.86,2.86,0,0,1,12,5.32Z"/><circle class="cls-1" cx="12" cy="3.41" r="1.91"/><path class="cls-1" d="M19.64,18.68h0a2.86,2.86,0,0,1,2.86,2.86v1a0,0,0,0,1,0,0H16.77a0,0,0,0,1,0,0v-1A2.86,2.86,0,0,1,19.64,18.68Z"/><circle class="cls-1" cx="19.64" cy="16.77" r="1.91"/><path class="cls-1" d="M4.36,18.68h0a2.86,2.86,0,0,1,2.86,2.86v1a0,0,0,0,1,0,0H1.5a0,0,0,0,1,0,0v-1A2.86,2.86,0,0,1,4.36,18.68Z"/><circle class="cls-1" cx="4.36" cy="16.77" r="1.91"/></g></svg>