<svg xmlns="http://www.w3.org/2000/svg" viewBox="0 0 24 24"><defs><style>.cls-1{fill:none;stroke:#020202;stroke-linecap:square;stroke-miterlimit:10;stroke-width:1.91px;}</style></defs><g id="money_bag_2" data-name="money bag 2"><rect class="cls-1" x="1.5" y="6.27" width="21" height="15.27" rx="1.91"/><polygon class="cls-1" points="15.82 6.27 8.18 6.27 9.14 2.46 14.86 2.46 15.82 6.27"/><path class="cls-1" d="M10.09,16.77h2.39a1.43,1.43,0,0,0,1.43-1.43h0a1.43,1.43,0,0,0-1.43-1.43h-1a1.43,1.43,0,0,1-1.43-1.43h0a1.43,1.43,0,0,1,1.43-1.43h2.39"/><line class="cls-1" x1="12" y1="10.09" x2="12" y2="11.05"/><line class="cls-1" x1="12" y1="16.77" x2="12" y2="17.73"/><path class="cls-1" d="M5.32,20.59a2.81,2.81,0,0,1-.17,1H3.41A1.92,1.92,0,0,1,1.5,19.64V17.9a2.54,2.54,0,0,1,1-.17A2.86,2.86,0,0,1,5.32,20.59Z"/><path class="cls-1" d="M22.5,17.9v1.74a1.92,1.92,0,0,1-1.91,1.91H18.85a2.81,2.81,0,0,1-.17-1,2.86,2.86,0,0,1,2.87-2.86A2.54,2.54,0,0,1,22.5,17.9Z"/><path class="cls-1" d="M5.32,7.23a2.86,2.86,0,0,1-2.87,2.86,2.75,2.75,0,0,1-1-.17V8.18A1.92,1.92,0,0,1,3.41,6.27H5.15A2.77,2.77,0,0,1,5.32,7.23Z"/><path class="cls-1" d="M22.5,8.18V9.92a2.75,2.75,0,0,1-.95.17,2.86,2.86,0,0,1-2.87-2.86,2.77,2.77,0,0,1,.17-1h1.74A1.92,1.92,0,0,1,22.5,8.18Z"/></g></svg>