<svg xmlns="http://www.w3.org/2000/svg" viewBox="0 0 24 24"><defs><style>.cls-1,.cls-2{fill:none;stroke:#020202;stroke-miterlimit:10;stroke-width:1.91px;}.cls-1{stroke-linecap:square;}</style></defs><g id="payment_document" data-name="payment document"><path class="cls-1" d="M10.09,17.73h2.39a1.43,1.43,0,0,0,1.43-1.43h0a1.43,1.43,0,0,0-1.43-1.44h-1a1.43,1.43,0,0,1-1.43-1.43h0A1.43,1.43,0,0,1,11.52,12h2.39"/><line class="cls-1" x1="12" y1="10.09" x2="12" y2="12"/><line class="cls-1" x1="12" y1="17.73" x2="12" y2="19.64"/><polygon class="cls-2" points="20.59 8.18 20.59 22.5 3.41 22.5 3.41 1.5 15.82 1.5 20.59 6.27 20.59 7.23 20.59 8.18"/><polyline class="cls-2" points="20.59 7.23 14.86 7.23 14.86 1.5"/></g></svg>