<svg xmlns="http://www.w3.org/2000/svg" viewBox="0 0 24 24"><defs><style>.cls-1,.cls-2{fill:none;stroke:#020202;stroke-miterlimit:10;stroke-width:1.92px;}.cls-1{stroke-linecap:square;}</style></defs><g id="hanging_sign" data-name="hanging sign"><path class="cls-1" d="M1.46,5.29V17.75H5.64a1.87,1.87,0,0,1,1.77,1.37,4.79,4.79,0,0,0,9.18,0,1.87,1.87,0,0,1,1.77-1.37h4.18V5.29Z"/><path class="cls-1" d="M10.08,15.83h2.4a1.44,1.44,0,0,0,1.44-1.43h0A1.44,1.44,0,0,0,12.48,13h-1a1.45,1.45,0,0,1-1.44-1.44h0a1.45,1.45,0,0,1,1.44-1.44h2.4"/><line class="cls-1" x1="12" y1="9.13" x2="12" y2="10.08"/><line class="cls-1" x1="12" y1="15.83" x2="12" y2="16.79"/><line class="cls-2" x1="6.25" y1="1.46" x2="6.25" y2="8.17"/><line class="cls-2" x1="17.75" y1="1.46" x2="17.75" y2="8.17"/><line class="cls-2" x1="0.5" y1="1.46" x2="23.5" y2="1.46"/></g></svg>