<svg xmlns="http://www.w3.org/2000/svg" viewBox="0 0 24 24"><defs><style>.cls-1{fill:none;stroke:#020202;stroke-miterlimit:10;stroke-width:1.91px;}</style></defs><g id="lifebuoy"><path class="cls-1" d="M20.59,12c0,9-12.2,11.94-16.26,3.86A8.59,8.59,0,1,1,20.59,12Z"/><path class="cls-1" d="M20.59,12c0,9-12.2,11.94-16.26,3.86A8.59,8.59,0,1,1,20.59,12Z"/><path class="cls-1" d="M15.82,12a3.82,3.82,0,1,1-5.73-3.3A3.82,3.82,0,0,1,15.82,12Z"/><line class="cls-1" x1="10.09" y1="8.7" x2="10.09" y2="3.62"/><line class="cls-1" x1="13.91" y1="3.62" x2="13.91" y2="8.7"/><line class="cls-1" x1="10.09" y1="20.38" x2="10.09" y2="15.3"/><line class="cls-1" x1="13.91" y1="15.3" x2="13.91" y2="20.38"/><line class="cls-1" x1="3.62" y1="10.09" x2="8.7" y2="10.09"/><line class="cls-1" x1="8.7" y1="13.91" x2="3.62" y2="13.91"/><line class="cls-1" x1="15.3" y1="10.09" x2="20.38" y2="10.09"/><line class="cls-1" x1="20.38" y1="13.91" x2="15.3" y2="13.91"/><path class="cls-1" d="M4,8.8C2.67,7.44,1.5,6.61,1.5,4.88A3.39,3.39,0,0,1,4.88,1.5C6.61,1.5,7.39,2.62,8.8,4"/><path class="cls-1" d="M15.2,4c1.36-1.36,2.19-2.53,3.92-2.53A3.39,3.39,0,0,1,22.5,4.88c0,1.73-1.12,2.51-2.53,3.92"/><path class="cls-1" d="M20,15.2c1.36,1.36,2.53,2.19,2.53,3.92a3.39,3.39,0,0,1-3.38,3.38c-1.73,0-2.51-1.12-3.92-2.53"/><path class="cls-1" d="M8.8,20C7.44,21.33,6.61,22.5,4.88,22.5A3.39,3.39,0,0,1,1.5,19.12c0-1.73,1.12-2.51,2.53-3.92"/></g></svg>