<svg xmlns="http://www.w3.org/2000/svg" viewBox="0 0 24 24"><defs><style>.cls-1,.cls-2{fill:none;stroke:#020202;stroke-miterlimit:10;stroke-width:1.91px;}.cls-1{stroke-linecap:square;}</style></defs><g id="reciept"><line class="cls-1" x1="8.18" y1="9.16" x2="12.95" y2="9.16"/><line class="cls-1" x1="8.18" y1="12.98" x2="12.95" y2="12.98"/><line class="cls-1" x1="8.18" y1="16.8" x2="12.95" y2="16.8"/><path class="cls-1" d="M19.64,22.52H4.36A2.86,2.86,0,0,1,1.5,19.66V2.48L4,4.39,6.59,2.48,9.13,4.39l2.55-1.91,2.54,1.91,2.55-1.91V19.66a2.87,2.87,0,0,0,2.87,2.86Z"/><line class="cls-2" x1="4.36" y1="9.16" x2="6.27" y2="9.16"/><line class="cls-2" x1="4.36" y1="12.98" x2="6.27" y2="12.98"/><line class="cls-2" x1="4.36" y1="16.8" x2="6.27" y2="16.8"/><path class="cls-2" d="M18.68,10.11H22.5v9.55a2.87,2.87,0,0,1-5.73,0V10.11h1.91Z"/></g></svg>