<svg xmlns="http://www.w3.org/2000/svg" viewBox="0 0 24 24"><defs><style>.cls-1{fill:none;stroke:#020202;stroke-linecap:square;stroke-miterlimit:10;stroke-width:1.91px;}</style></defs><g id="money_bag" data-name="money bag"><path class="cls-1" d="M22.5,8.18V19.64a2,2,0,0,1-2.1,1.91H3.6a2,2,0,0,1-2.1-1.91V8.18A2,2,0,0,1,3.6,6.27H20.4A2,2,0,0,1,22.5,8.18Z"/><polygon class="cls-1" points="15.82 6.27 8.18 6.27 9.14 2.46 14.86 2.46 15.82 6.27"/><path class="cls-1" d="M5.32,20.59a2.81,2.81,0,0,1-.17,1H3.41A1.92,1.92,0,0,1,1.5,19.64V17.9a2.54,2.54,0,0,1,1-.17A2.86,2.86,0,0,1,5.32,20.59Z"/><path class="cls-1" d="M22.5,17.9v1.74a1.92,1.92,0,0,1-1.91,1.91H18.85a2.81,2.81,0,0,1-.17-1,2.86,2.86,0,0,1,2.87-2.86A2.54,2.54,0,0,1,22.5,17.9Z"/><path class="cls-1" d="M5.32,7.23a2.86,2.86,0,0,1-2.87,2.86,2.75,2.75,0,0,1-1-.17V8.18A1.92,1.92,0,0,1,3.41,6.27H5.15A2.77,2.77,0,0,1,5.32,7.23Z"/><path class="cls-1" d="M22.5,8.18V9.92a2.75,2.75,0,0,1-.95.17,2.86,2.86,0,0,1-2.87-2.86,2.77,2.77,0,0,1,.17-1h1.74A1.92,1.92,0,0,1,22.5,8.18Z"/><circle class="cls-1" cx="12" cy="13.91" r="3.82"/></g></svg>