<svg xmlns="http://www.w3.org/2000/svg" viewBox="0 0 24 24"><defs><style>.cls-1{fill:none;stroke:#020202;stroke-linecap:square;stroke-miterlimit:10;stroke-width:1.91px;}</style></defs><g id="strepless"><path class="cls-1" d="M4.36,4.36H19.64A2.86,2.86,0,0,1,22.5,7.23v1a0,0,0,0,1,0,0H1.5a0,0,0,0,1,0,0v-1A2.86,2.86,0,0,1,4.36,4.36Z"/><path class="cls-1" d="M1.5,15.82h21a0,0,0,0,1,0,0v1.91a1.91,1.91,0,0,1-1.91,1.91H3.41A1.91,1.91,0,0,1,1.5,17.73V15.82A0,0,0,0,1,1.5,15.82Z"/><path class="cls-1" d="M15.82,8.18H3.41V12H14.86a3.82,3.82,0,0,0,3.82,3.82h0A3.82,3.82,0,0,0,22.5,12V8.18Z"/><line class="cls-1" x1="3.41" y1="12.95" x2="3.41" y2="12"/><path class="cls-1" d="M19.64,12h0Z"/></g></svg>