<svg xmlns="http://www.w3.org/2000/svg" viewBox="0 0 24 24"><defs><style>.cls-1,.cls-3{fill:none;stroke:#020202;stroke-miterlimit:10;stroke-width:1.91px;}.cls-1{stroke-linecap:square;}.cls-2{fill:#020202;}</style></defs><g id="ticket"><line class="cls-1" x1="22.5" y1="7.23" x2="22.5" y2="16.77"/><path class="cls-1" d="M22.5,16.77a2.86,2.86,0,0,0-2.86,2.87H4.36A2.86,2.86,0,0,0,1.5,16.77V7.23A2.86,2.86,0,0,0,4.36,4.36H19.64A2.86,2.86,0,0,0,22.5,7.23"/><polygon class="cls-2" points="15.34 8.18 16.37 10.38 18.68 10.73 17.01 12.45 17.41 14.86 15.34 13.72 13.28 14.86 13.67 12.45 12 10.73 14.31 10.38 15.34 8.18"/><line class="cls-3" x1="7.23" y1="8.18" x2="9.14" y2="8.18"/><line class="cls-3" x1="7.23" y1="12" x2="9.14" y2="12"/><line class="cls-3" x1="7.23" y1="15.82" x2="9.14" y2="15.82"/></g></svg>