<svg id="Layer_1" data-name="Layer 1" xmlns="http://www.w3.org/2000/svg" viewBox="0 0 24 24"><defs><style>.cls-1{fill:none;stroke:#020202;stroke-miterlimit:10;stroke-width:1.91px;}</style></defs><path class="cls-1" d="M22.5,12a10.49,10.49,0,0,1-5.33,9.14,10.36,10.36,0,0,1-4.87,1.35h-.6a10.36,10.36,0,0,1-4.87-1.35,10.5,10.5,0,0,1,0-18.28A10.36,10.36,0,0,1,11.7,1.51h.6a10.36,10.36,0,0,1,4.87,1.35A10.49,10.49,0,0,1,22.5,12Z"/><path class="cls-1" d="M11.7,1.51h.6"/><path class="cls-1" d="M11.7,22.49h.6"/><path class="cls-1" d="M15.84,19.8h0A15.43,15.43,0,0,0,17.73,12a15.43,15.43,0,0,0-1.89-7.79h0"/><path class="cls-1" d="M8.16,19.8h0A15.43,15.43,0,0,1,6.27,12,15.43,15.43,0,0,1,8.16,4.21"/><line class="cls-1" x1="12" y1="18.68" x2="12" y2="5.32"/><path class="cls-1" d="M17.17,2.86A4.35,4.35,0,0,1,15.84,4.2h0A6.85,6.85,0,0,1,12,5.32,6.85,6.85,0,0,1,8.16,4.21,4.49,4.49,0,0,1,6.83,2.86,10.36,10.36,0,0,1,11.7,1.51h.6A10.36,10.36,0,0,1,17.17,2.86Z"/><path class="cls-1" d="M17.17,21.14a10.36,10.36,0,0,1-4.87,1.35h-.6a10.36,10.36,0,0,1-4.87-1.35A4.35,4.35,0,0,1,8.16,19.8h0A6.85,6.85,0,0,1,12,18.68a6.85,6.85,0,0,1,3.84,1.11h0A4.35,4.35,0,0,1,17.17,21.14Z"/></svg>