<svg id="Layer_1" data-name="Layer 1" xmlns="http://www.w3.org/2000/svg" viewBox="0 0 24 24"><defs><style>.cls-1{fill:none;stroke:#020202;stroke-miterlimit:10;stroke-width:1.91px;}</style></defs><path class="cls-1" d="M19.64,15.82v2.86c-3.16,0-5.73,1.71-5.73,3.82H10.09c0-2.11-2.57-3.82-5.73-3.82V15.82Z"/><path class="cls-1" d="M11.05,9.14a3.82,3.82,0,0,1-7.64,0A6,6,0,0,1,5.32,5.32Z"/><path class="cls-1" d="M13,9.14a3.82,3.82,0,0,0,7.64,0,6,6,0,0,0-1.91-3.82Z"/><line class="cls-1" x1="11.05" y1="9.14" x2="12.95" y2="9.14"/><path class="cls-1" d="M5.32,5.32,8.6,2.69A5.45,5.45,0,0,1,12,1.5h0a5.45,5.45,0,0,1,3.4,1.19l3.28,2.63"/></svg>