<svg id="Layer_1" data-name="Layer 1" xmlns="http://www.w3.org/2000/svg" viewBox="0 0 24 24"><defs><style>.cls-1{fill:none;stroke:#020202;stroke-miterlimit:10;stroke-width:1.91px;}</style></defs><line class="cls-1" x1="1.5" y1="22.52" x2="22.5" y2="15.84"/><line class="cls-1" x1="22.5" y1="22.52" x2="1.5" y2="15.84"/><path class="cls-1" d="M17.73,11.07a5.73,5.73,0,0,1-11.46,0c0-4.77,3.82-4.77,4.78-8.59C13.91,3.43,17.73,7.25,17.73,11.07Z"/><path class="cls-1" d="M12,16.8a2.87,2.87,0,0,1-2.86-2.87c0-1.47.45-1.92,1.56-3a15.94,15.94,0,0,0,1.5-1.6c1.39,1.21,2.66,3,2.66,4.6A2.87,2.87,0,0,1,12,16.8Z"/></svg>