<svg id="Layer_1" data-name="Layer 1" xmlns="http://www.w3.org/2000/svg" viewBox="0 0 24 24"><defs><style>.cls-1{fill:none;stroke:#020202;stroke-miterlimit:10;stroke-width:1.91px;}</style></defs><path class="cls-1" d="M17.73,9.14H6.27L4.36,13v1.91a7.64,7.64,0,0,0,15.28,0V13Z"/><line class="cls-1" x1="4.36" y1="12.95" x2="19.64" y2="12.95"/><line class="cls-1" x1="13.91" y1="16.77" x2="13.91" y2="12.95"/><polyline class="cls-1" points="19.64 1.5 14.86 2.46 14.86 9.14"/><path class="cls-1" d="M7.53,1.62h0a3.82,3.82,0,0,1,3.82,3.82v0a0,0,0,0,1,0,0H3.71a0,0,0,0,1,0,0v0A3.82,3.82,0,0,1,7.53,1.62Z" transform="translate(-0.75 2.79) rotate(-20)"/><line class="cls-1" x1="9.57" y1="9.14" x2="8.18" y2="5.32"/></svg>