<svg id="Layer_1" data-name="Layer 1" xmlns="http://www.w3.org/2000/svg" viewBox="0 0 24 24"><defs><style>.cls-1{fill:none;stroke:#020202;stroke-miterlimit:10;stroke-width:1.91px;}</style></defs><path class="cls-1" d="M15.8,6.28A1.92,1.92,0,0,1,13.89,8.2H12a1.91,1.91,0,0,0-1.91,1.91V12H5.28V4.37h8.61A1.92,1.92,0,0,1,15.8,6.28Z"/><path class="cls-1" d="M19.63,15.85l1.91,3.82H12a1.92,1.92,0,0,1-1.91-1.91V10.11A1.92,1.92,0,0,0,12,12h9.56Z"/><path class="cls-1" d="M15.8,6.28V12H12a1.92,1.92,0,0,1-1.91-1.91A1.91,1.91,0,0,1,12,8.2h1.91A1.92,1.92,0,0,0,15.8,6.28Z"/><path class="cls-1" d="M1.46,23.5V3.41A1.91,1.91,0,0,1,3.37,1.5h0A1.91,1.91,0,0,1,5.28,3.41V23.5"/></svg>