<svg id="Layer_1" data-name="Layer 1" xmlns="http://www.w3.org/2000/svg" viewBox="0 0 24 24"><defs><style>.cls-1{fill:none;stroke:#020202;stroke-miterlimit:10;stroke-width:1.92px;}</style></defs><path class="cls-1" d="M4.33,9.15H8.17a1.92,1.92,0,0,1,1.92,1.92v1a3.83,3.83,0,0,1-3.83,3.83h-1A2.87,2.87,0,0,1,2.42,13V11.06A1.92,1.92,0,0,1,4.33,9.15Z"/><path class="cls-1" d="M16.79,9.15h1A3.83,3.83,0,0,1,21.58,13v1a1.92,1.92,0,0,1-1.92,1.92H15.83a1.92,1.92,0,0,1-1.92-1.92V12A2.87,2.87,0,0,1,16.79,9.15Z" transform="translate(35.5 25) rotate(180)"/><path class="cls-1" d="M10.08,12a1.92,1.92,0,0,1,3.84,0"/><line class="cls-1" x1="23.5" y1="10.1" x2="21.58" y2="10.1"/><line class="cls-1" x1="2.42" y1="10.1" x2="0.5" y2="10.1"/></svg>