<svg id="Layer_1" data-name="Layer 1" xmlns="http://www.w3.org/2000/svg" viewBox="0 0 24 24"><defs><style>.cls-1{fill:none;stroke:#020202;stroke-miterlimit:10;stroke-width:1.82px;}</style></defs><path class="cls-1" d="M1.07,20.13h0a3.41,3.41,0,0,0,5.46,0h0a3.41,3.41,0,0,0,5.46,0h0a3.4,3.4,0,0,0,5.45,0h0a3.4,3.4,0,0,0,5.45,0h0"/><circle class="cls-1" cx="12" cy="8.29" r="2.73"/><line class="cls-1" x1="12" y1="1.01" x2="12" y2="2.83"/><line class="cls-1" x1="12" y1="13.75" x2="12" y2="15.58"/><line class="cls-1" x1="19.29" y1="8.29" x2="17.46" y2="8.29"/><line class="cls-1" x1="6.54" y1="8.29" x2="4.71" y2="8.29"/><line class="cls-1" x1="17.15" y1="3.14" x2="15.86" y2="4.43"/><line class="cls-1" x1="8.14" y1="12.15" x2="6.85" y2="13.44"/><line class="cls-1" x1="17.15" y1="13.44" x2="15.86" y2="12.15"/><line class="cls-1" x1="8.14" y1="4.43" x2="6.85" y2="3.14"/></svg>