<svg id="Layer_1" data-name="Layer 1" xmlns="http://www.w3.org/2000/svg" viewBox="0 0 24 24"><defs><style>.cls-1{fill:none;stroke:#020202;stroke-miterlimit:10;stroke-width:1.91px;}</style></defs><path class="cls-1" d="M21.18,14.86l-4.35,4.6A6.63,6.63,0,0,1,12,21.55h0a6.63,6.63,0,0,1-4.83-2.09l-4.35-4.6a3.77,3.77,0,0,1,.64-6.17,4.4,4.4,0,0,1,0-.51A3.82,3.82,0,0,1,7.23,4.36a3.76,3.76,0,0,1,1.34.26,3.8,3.8,0,0,1,6.86,0,3.76,3.76,0,0,1,1.34-.26,3.82,3.82,0,0,1,3.82,3.82,4.4,4.4,0,0,1-.05.51,3.77,3.77,0,0,1,.64,6.17Z"/><line class="cls-1" x1="10.95" y1="16.83" x2="8.18" y2="4.36"/><line class="cls-1" x1="15.82" y1="4.36" x2="13.05" y2="16.83"/><line class="cls-1" x1="9.03" y1="17.26" x2="3.41" y2="9.14"/><line class="cls-1" x1="20.59" y1="9.14" x2="14.97" y2="17.26"/></svg>