<svg id="Layer_1" data-name="Layer 1" xmlns="http://www.w3.org/2000/svg" viewBox="0 0 24 24"><defs><style>.cls-1{fill:none;stroke:#020202;stroke-miterlimit:10;stroke-width:1.83px;}</style></defs><polyline class="cls-1" points="5.58 21.15 2.83 13.81 15.67 13.81 16.58 12.9 21.17 12.9 18.42 21.15"/><path class="cls-1" d="M9.25,17.48h0Z"/><path class="cls-1" d="M12.92,17.48h0Z"/><line class="cls-1" x1="14.75" y1="17.48" x2="16.58" y2="17.48"/><polyline class="cls-1" points="4.67 13.81 6.5 9.23 17.5 9.23 19.33 12.9"/><rect class="cls-1" x="8.33" y="5.56" width="7.33" height="3.67"/><line class="cls-1" x1="10.17" y1="1.9" x2="10.17" y2="5.56"/><line class="cls-1" x1="13.83" y1="1.9" x2="13.83" y2="5.56"/><line class="cls-1" x1="9.25" y1="11.98" x2="9.25" y2="13.81"/><line class="cls-1" x1="12.92" y1="11.98" x2="12.92" y2="13.81"/><path class="cls-1" d="M1,20.23H1a3.44,3.44,0,0,0,5.5,0h0a3.43,3.43,0,0,0,5.49,0h0a3.42,3.42,0,0,0,5.49,0h0a3.43,3.43,0,0,0,5.49,0h0"/></svg>