<svg id="Layer_1" data-name="Layer 1" xmlns="http://www.w3.org/2000/svg" viewBox="0 0 24 24"><defs><style>.cls-1{fill:none;stroke:#020202;stroke-miterlimit:10;stroke-width:1.91px;}.cls-2{fill:#020202;}</style></defs><path class="cls-1" d="M14.83,9.14h5.76a1.92,1.92,0,0,1,1.91,1.91v9.54a1.92,1.92,0,0,1-1.91,1.91H3.41A1.92,1.92,0,0,1,1.5,20.59V11.05A1.92,1.92,0,0,1,3.41,9.14H7.27"/><line class="cls-1" x1="18.68" y1="9.14" x2="18.68" y2="22.5"/><path class="cls-1" d="M15.82,6.15c0,3.11-4.77,7.76-4.77,7.76S6.27,9.26,6.27,6.15A4.72,4.72,0,0,1,11.05,1.5,4.71,4.71,0,0,1,15.82,6.15Z"/><circle class="cls-2" cx="11.05" cy="5.8" r="1.43"/></svg>