<svg id="Layer_1" data-name="Layer 1" xmlns="http://www.w3.org/2000/svg" viewBox="0 0 24 24"><defs><style>.cls-1{fill:none;stroke:#020202;stroke-miterlimit:10;stroke-width:1.83px;}</style></defs><path class="cls-1" d="M19.33,3.76h0A1.84,1.84,0,0,0,17.5,1.9h0a1.84,1.84,0,0,0-1.83,1.86v12.8"/><path class="cls-1" d="M12,3.76h0A1.84,1.84,0,0,0,10.17,1.9h0A1.85,1.85,0,0,0,8.33,3.76v12.8"/><line class="cls-1" x1="8.33" y1="6.48" x2="15.67" y2="6.48"/><line class="cls-1" x1="8.33" y1="11.06" x2="15.67" y2="11.06"/><line class="cls-1" x1="1" y1="5.56" x2="5.58" y2="5.56"/><line class="cls-1" x1="18.42" y1="5.56" x2="23" y2="5.56"/><path class="cls-1" d="M1,14.73H1a3.44,3.44,0,0,0,5.5,0h0a3.43,3.43,0,0,0,5.49,0h0a3.42,3.42,0,0,0,5.49,0h0a3.43,3.43,0,0,0,5.49,0h0"/><path class="cls-1" d="M1,20.23H1a3.44,3.44,0,0,0,5.5,0h0a3.43,3.43,0,0,0,5.49,0h0a3.42,3.42,0,0,0,5.49,0h0a3.43,3.43,0,0,0,5.49,0h0"/></svg>