<svg id="Layer_1" data-name="Layer 1" xmlns="http://www.w3.org/2000/svg" viewBox="0 0 24 24"><defs><style>.cls-1{fill:none;stroke:#020202;stroke-miterlimit:10;stroke-width:1.91px;}</style></defs><path class="cls-1" d="M4.36,20.59H1.5V11.05A1.9,1.9,0,0,1,3.41,9.14h15.8A1.91,1.91,0,0,1,21,10.44l1.47,4.42v5.73H19.64"/><line class="cls-1" x1="15.82" y1="20.59" x2="8.18" y2="20.59"/><circle class="cls-1" cx="6.27" cy="20.59" r="1.91"/><circle class="cls-1" cx="17.73" cy="20.59" r="1.91"/><line class="cls-1" x1="22.5" y1="14.86" x2="4.36" y2="14.86"/><line class="cls-1" x1="12" y1="12" x2="12" y2="14.86"/><line class="cls-1" x1="16.77" y1="12" x2="16.77" y2="14.86"/><line class="cls-1" x1="7.23" y1="12" x2="7.23" y2="14.86"/><path class="cls-1" d="M6.11,1.5H16a2.7,2.7,0,0,1,2.7,2.7V5.32a0,0,0,0,1,0,0H3.41a0,0,0,0,1,0,0V4.2A2.7,2.7,0,0,1,6.11,1.5Z"/><line class="cls-1" x1="7.23" y1="1.5" x2="7.23" y2="5.32"/><line class="cls-1" x1="11.05" y1="1.5" x2="11.05" y2="5.32"/><line class="cls-1" x1="14.86" y1="1.5" x2="14.86" y2="5.32"/><line class="cls-1" x1="1.5" y1="5.32" x2="20.59" y2="5.32"/><line class="cls-1" x1="4.36" y1="9.14" x2="4.36" y2="5.32"/><line class="cls-1" x1="17.73" y1="9.14" x2="17.73" y2="5.32"/></svg>