<svg id="Layer_1" data-name="Layer 1" xmlns="http://www.w3.org/2000/svg" viewBox="0 0 24 24"><defs><style>.cls-1{fill:none;stroke:#020202;stroke-miterlimit:10;stroke-width:1.91px;}</style></defs><line class="cls-1" x1="23.45" y1="22.5" x2="0.55" y2="22.5"/><path class="cls-1" d="M19.75,9.15l2.59-2.6-.68-.67a2.84,2.84,0,0,0-4.05,0,2.86,2.86,0,0,0,0,4.05l0,0"/><path class="cls-1" d="M13.79,9.15l-2.58-2.6.68-.67a2.86,2.86,0,0,1,4,4.05l0,0"/><line class="cls-1" x1="16.77" y1="12" x2="16.77" y2="22.5"/><circle class="cls-1" cx="4.36" cy="4.36" r="2.86"/><path class="cls-1" d="M19.64,13H22.5V12a2.86,2.86,0,0,0-2.86-2.86h0A2.86,2.86,0,0,0,16.77,12V13"/><path class="cls-1" d="M13.91,13H11.05V12a2.86,2.86,0,0,1,2.86-2.86h0A2.86,2.86,0,0,1,16.77,12V13"/></svg>