<svg id="Layer_1" data-name="Layer 1" xmlns="http://www.w3.org/2000/svg" viewBox="0 0 24 24"><defs><style>.cls-1{fill:none;stroke:#020202;stroke-miterlimit:10;stroke-width:1.91px;}</style></defs><circle class="cls-1" cx="6.27" cy="20.59" r="1.91"/><circle class="cls-1" cx="17.73" cy="20.59" r="1.91"/><line class="cls-1" x1="15.82" y1="20.59" x2="8.18" y2="20.59"/><path class="cls-1" d="M19.64,20.59H22.5v-3.4a1.92,1.92,0,0,0-1.31-1.81l-1.55-.52-3-3.69a2.85,2.85,0,0,0-2.24-1.08h-9a2.85,2.85,0,0,0-2.71,2L1.5,15.82v4.77H4.36"/><line class="cls-1" x1="6.27" y1="14.86" x2="19.64" y2="14.86"/><line class="cls-1" x1="12.95" y1="12" x2="12.95" y2="14.86"/><line class="cls-1" x1="7.23" y1="12" x2="7.23" y2="14.86"/><line class="cls-1" x1="1.5" y1="6.27" x2="16.77" y2="6.27"/><path class="cls-1" d="M7.23,1.5H11a3.82,3.82,0,0,1,3.82,3.82v1a0,0,0,0,1,0,0H3.41a0,0,0,0,1,0,0v-1A3.82,3.82,0,0,1,7.23,1.5Z"/><line class="cls-1" x1="4.36" y1="6.27" x2="4.36" y2="10.09"/><line class="cls-1" x1="13.91" y1="6.27" x2="13.91" y2="10.09"/><line class="cls-1" x1="7.23" y1="1.5" x2="7.23" y2="6.27"/><line class="cls-1" x1="11.05" y1="1.5" x2="11.05" y2="6.27"/></svg>