<svg id="Layer_1" data-name="Layer 1" xmlns="http://www.w3.org/2000/svg" viewBox="0 0 24 24"><defs><style>.cls-1{fill:none;stroke:#020202;stroke-miterlimit:10;stroke-width:1.91px;}</style></defs><circle class="cls-1" cx="12" cy="12" r="10.5"/><path class="cls-1" d="M7.23,9.24v0"/><path class="cls-1" d="M7.23,21.35v.2"/><path class="cls-1" d="M16.77,2.65v-.2"/><path class="cls-1" d="M16.77,9.24v0"/><path class="cls-1" d="M7.23,9.24v0"/><path class="cls-1" d="M7.23,21.35v.2"/><path class="cls-1" d="M16.77,2.65v-.2"/><path class="cls-1" d="M16.77,9.24v0"/><path class="cls-1" d="M7.23,9.24v0"/><path class="cls-1" d="M7.23,21.35v.2"/><path class="cls-1" d="M16.77,2.65v-.2"/><path class="cls-1" d="M16.77,9.24v0"/><path class="cls-1" d="M7.23,9.24v0"/><path class="cls-1" d="M7.23,21.35v.2"/><path class="cls-1" d="M16.77,2.65v-.2"/><path class="cls-1" d="M16.77,9.24v0"/><path class="cls-1" d="M7.23,14.76,12,17.51,7.23,14.76"/><path class="cls-1" d="M17.71,20.81h0l-3.95-2.28-1.75-1,1.75,1L17.7,20.8h0l.17.1"/><path class="cls-1" d="M6.29,3.19l-.17-.1"/><path class="cls-1" d="M12,6.49l-1.75-1-4-2.29,4,2.29,1.75,1,4.77,2.75L12,6.49"/><path class="cls-1" d="M7.23,14.76,12,17.51,7.23,14.76"/><path class="cls-1" d="M17.71,20.81h0l-3.95-2.28-1.75-1,1.75,1L17.7,20.8h0l.17.1"/><path class="cls-1" d="M6.29,3.19l-.17-.1"/><path class="cls-1" d="M12,6.49l-1.75-1-4-2.29,4,2.29,1.75,1,4.77,2.75L12,6.49"/><path class="cls-1" d="M7.23,14.76,12,17.51,7.23,14.76"/><path class="cls-1" d="M17.71,20.81h0l-3.95-2.28-1.75-1,1.75,1L17.7,20.8h0l.17.1"/><path class="cls-1" d="M6.29,3.19l-.17-.1"/><path class="cls-1" d="M12,6.49l-1.75-1-4-2.29,4,2.29,1.75,1,4.77,2.75L12,6.49"/><path class="cls-1" d="M7.23,14.76,12,17.51,7.23,14.76"/><path class="cls-1" d="M17.71,20.81h0l-3.95-2.28-1.75-1,1.75,1L17.7,20.8h0l.17.1"/><path class="cls-1" d="M6.29,3.19l-.17-.1"/><path class="cls-1" d="M12,6.49l-1.75-1-4-2.29,4,2.29,1.75,1,4.77,2.75L12,6.49"/><path class="cls-1" d="M12,17.51l4.77-2.75L12,17.51"/><path class="cls-1" d="M22.49,11.46l-4,2.29-1.75,1,1.75-1,4-2.29.16-.1"/><path class="cls-1" d="M1.51,12.54l-.16.1"/><path class="cls-1" d="M7.23,9.24l-1.75,1-4,2.29,4-2.29,1.75-1L12,6.49,7.23,9.24"/><path class="cls-1" d="M12,17.51l4.77-2.75L12,17.51"/><path class="cls-1" d="M22.49,11.46l-4,2.29-1.75,1,1.75-1,4-2.29.16-.1"/><path class="cls-1" d="M1.51,12.54l-.16.1"/><path class="cls-1" d="M7.23,9.24l-1.75,1-4,2.29,4-2.29,1.75-1L12,6.49,7.23,9.24"/><path class="cls-1" d="M12,17.51l4.77-2.75L12,17.51"/><path class="cls-1" d="M22.49,11.46l-4,2.29-1.75,1,1.75-1,4-2.29.16-.1"/><path class="cls-1" d="M1.51,12.54l-.16.1"/><path class="cls-1" d="M7.23,9.24l-1.75,1-4,2.29,4-2.29,1.75-1L12,6.49,7.23,9.24"/><path class="cls-1" d="M12,17.51l4.77-2.75L12,17.51"/><path class="cls-1" d="M22.49,11.46l-4,2.29-1.75,1,1.75-1,4-2.29.16-.1"/><path class="cls-1" d="M1.51,12.54l-.16.1"/><path class="cls-1" d="M7.23,9.24l-1.75,1-4,2.29,4-2.29,1.75-1L12,6.49,7.23,9.24"/></svg>