<svg id="Layer_1" data-name="Layer 1" xmlns="http://www.w3.org/2000/svg" viewBox="0 0 24 24"><defs><style>.cls-1{fill:none;stroke:#020202;stroke-miterlimit:10;stroke-width:1.91px;}</style></defs><path class="cls-1" d="M9.14,1.5h5.73a2.86,2.86,0,0,1,2.86,2.86v9.55a0,0,0,0,1,0,0H6.27a0,0,0,0,1,0,0V4.36A2.86,2.86,0,0,1,9.14,1.5Z"/><path class="cls-1" d="M1.5,10.09H6.27a0,0,0,0,1,0,0v3.34a2.39,2.39,0,0,1-2.39,2.39h0A2.39,2.39,0,0,1,1.5,13.43V10.09A0,0,0,0,1,1.5,10.09Z"/><path class="cls-1" d="M17.73,10.09H22.5a0,0,0,0,1,0,0v3.34a2.39,2.39,0,0,1-2.39,2.39h0a2.39,2.39,0,0,1-2.39-2.39V10.09A0,0,0,0,1,17.73,10.09Z"/><path class="cls-1" d="M4.6,15.7h0a2.08,2.08,0,0,0-.23.95,2,2,0,0,0,2,2H17.61a2,2,0,0,0,2-2,2.08,2.08,0,0,0-.23-.95,0,0,0,0,1,0,0"/><polyline class="cls-1" points="17.79 13.98 17.73 13.91 6.27 13.91 6.21 13.98"/><line class="cls-1" x1="7.23" y1="22.5" x2="7.23" y2="18.68"/><line class="cls-1" x1="16.77" y1="22.5" x2="16.77" y2="18.68"/><line class="cls-1" x1="5.32" y1="22.5" x2="9.14" y2="22.5"/><line class="cls-1" x1="14.86" y1="22.5" x2="18.68" y2="22.5"/></svg>