<svg id="Layer_1" data-name="Layer 1" xmlns="http://www.w3.org/2000/svg" viewBox="0 0 24 24"><defs><style>.cls-1{fill:none;stroke:#020202;stroke-miterlimit:10;stroke-width:1.91px;}</style></defs><path class="cls-1" d="M13.91,8.18h1.91a1.91,1.91,0,0,1,1.91,1.91v3.82a1.91,1.91,0,0,1-1.91,1.91H13.91a0,0,0,0,1,0,0V8.18A0,0,0,0,1,13.91,8.18Z"/><line class="cls-1" x1="10.09" y1="16.77" x2="10.09" y2="7.23"/><line class="cls-1" x1="6.27" y1="16.77" x2="6.27" y2="7.23"/><line class="cls-1" x1="10.09" y1="12" x2="6.27" y2="12"/><path class="cls-1" d="M22.5,2.45v19.1A31,31,0,0,0,12,19.64,31,31,0,0,0,1.5,21.55V2.45A31,31,0,0,0,12,4.36,31,31,0,0,0,22.5,2.45Z"/></svg>