<svg id="Layer_1" data-name="Layer 1" xmlns="http://www.w3.org/2000/svg" viewBox="0 0 24 24"><defs><style>.cls-1{fill:none;stroke:#020202;stroke-miterlimit:10;stroke-width:1.91px;}</style></defs><rect class="cls-1" x="1.5" y="2.45" width="21" height="15.27"/><line class="cls-1" x1="4.36" y1="21.55" x2="19.64" y2="21.55"/><line class="cls-1" x1="12" y1="17.73" x2="12" y2="21.55"/><path class="cls-1" d="M13.91,6.27h1.91a1.91,1.91,0,0,1,1.91,1.91V12a1.91,1.91,0,0,1-1.91,1.91H13.91a0,0,0,0,1,0,0V6.27A0,0,0,0,1,13.91,6.27Z"/><path class="cls-1" d="M5.32,6.27H8.18a1.91,1.91,0,0,1,1.91,1.91h0a1.9,1.9,0,0,1-1.91,1.91h0A1.91,1.91,0,0,1,10.09,12h0a1.91,1.91,0,0,1-1.91,1.91H5.32"/></svg>