<svg id="Layer_1" data-name="Layer 1" xmlns="http://www.w3.org/2000/svg" viewBox="0 0 24 24"><defs><style>.cls-1{fill:none;stroke:#020202;stroke-miterlimit:10;stroke-width:1.92px;}</style></defs><path class="cls-1" d="M13.92,14.88l2.87-1V11a1.92,1.92,0,0,0-1.91-1.92H9.12A1.92,1.92,0,0,0,7.21,11v2.88l2.87,1"/><circle class="cls-1" cx="12" cy="14.88" r="1.92"/><line class="cls-1" x1="7.21" y1="11.04" x2="0.5" y2="11.04"/><line class="cls-1" x1="23.5" y1="11.04" x2="16.79" y2="11.04"/><line class="cls-1" x1="0.5" y1="6.25" x2="6.25" y2="6.25"/><line class="cls-1" x1="17.75" y1="6.25" x2="23.5" y2="6.25"/><line class="cls-1" x1="3.38" y1="6.25" x2="3.38" y2="11.04"/><line class="cls-1" x1="20.63" y1="6.25" x2="20.63" y2="11.04"/><polyline class="cls-1" points="3.38 17.75 5.29 17.75 5.29 14.88 7.21 13.92"/><polyline class="cls-1" points="20.63 17.75 18.71 17.75 18.71 14.88 16.79 13.92"/></svg>