<svg id="Layer_1" data-name="Layer 1" xmlns="http://www.w3.org/2000/svg" viewBox="0 0 24 24"><defs><style>.cls-1{fill:none;stroke:#020202;stroke-miterlimit:10;stroke-width:1.91px;}</style></defs><line class="cls-1" x1="22.5" y1="0.55" x2="22.5" y2="23.45"/><line class="cls-1" x1="18.68" y1="1.5" x2="18.68" y2="3.41"/><line class="cls-1" x1="18.68" y1="5.32" x2="18.68" y2="7.23"/><line class="cls-1" x1="18.68" y1="9.14" x2="18.68" y2="11.05"/><line class="cls-1" x1="18.68" y1="12.95" x2="18.68" y2="14.86"/><line class="cls-1" x1="18.68" y1="16.77" x2="18.68" y2="18.68"/><line class="cls-1" x1="18.68" y1="20.59" x2="18.68" y2="22.5"/><line class="cls-1" x1="1.5" y1="23.45" x2="1.5" y2="0.55"/><line class="cls-1" x1="5.32" y1="22.5" x2="5.32" y2="20.59"/><line class="cls-1" x1="5.32" y1="18.68" x2="5.32" y2="16.77"/><line class="cls-1" x1="5.32" y1="14.86" x2="5.32" y2="12.95"/><line class="cls-1" x1="5.32" y1="11.05" x2="5.32" y2="9.14"/><line class="cls-1" x1="5.32" y1="7.23" x2="5.32" y2="5.32"/><line class="cls-1" x1="5.32" y1="3.41" x2="5.32" y2="1.5"/><circle class="cls-1" cx="11.05" cy="14.86" r="1.91"/><polyline class="cls-1" points="15.82 8.18 12.96 8.18 12.96 14.86"/></svg>