<svg id="Layer_1" data-name="Layer 1" xmlns="http://www.w3.org/2000/svg" viewBox="0 0 24 24"><defs><style>.cls-1{fill:none;stroke:#020202;stroke-miterlimit:10;stroke-width:1.91px;}</style></defs><path class="cls-1" d="M20.48,10a2.82,2.82,0,0,0-.84,2,2.86,2.86,0,0,0,2.86,2.86v4.78H1.5V14.86a2.82,2.82,0,0,0,2-.84,2.85,2.85,0,0,0,0-4,2.82,2.82,0,0,0-2-.84V4.36h21V9.14A2.82,2.82,0,0,0,20.48,10Z"/><polygon class="cls-1" points="12 10.18 12.59 11.38 13.91 11.57 12.96 12.5 13.18 13.82 12 13.2 10.82 13.82 11.04 12.5 10.09 11.57 11.41 11.38 12 10.18"/></svg>