<svg id="Layer_1" data-name="Layer 1" xmlns="http://www.w3.org/2000/svg" viewBox="0 0 24 24"><defs><style>.cls-1{fill:none;stroke:currentColor;stroke-miterlimit:10;stroke-width:1.92px;}</style></defs><path class="cls-1" d="M9.12,23.52A2.87,2.87,0,0,1,12,20.65h0a2.86,2.86,0,0,1,2.87,2.87"/><circle class="cls-1" cx="12" cy="16.81" r="1.92"/><path class="cls-1" d="M16.79,23.52a2.87,2.87,0,0,1,2.88-2.87h0a2.87,2.87,0,0,1,2.87,2.87"/><circle class="cls-1" cx="19.67" cy="16.81" r="1.92"/><path class="cls-1" d="M1.46,23.52a2.87,2.87,0,0,1,2.87-2.87h0a2.87,2.87,0,0,1,2.88,2.87"/><circle class="cls-1" cx="4.33" cy="16.81" r="1.92"/><line class="cls-1" x1="0.5" y1="1.48" x2="23.5" y2="1.48"/><polyline class="cls-1" points="2.42 12.98 2.42 1.48 21.58 1.48 21.58 12.98"/><polyline class="cls-1" points="8.17 10.1 11.04 7.23 12.96 9.15 15.83 6.27"/></svg>