<svg id="Layer_1" data-name="Layer 1" xmlns="http://www.w3.org/2000/svg" viewBox="0 0 24 24"><defs><style>.cls-1{fill:none;stroke:currentColor;stroke-miterlimit:10;stroke-width:1.91px;}</style></defs><circle class="cls-1" cx="16.76" cy="3.87" r="2.39"/><path class="cls-1" d="M20.59,12h0a3.84,3.84,0,0,0-3.83-3.83h0A3.84,3.84,0,0,0,12.93,12h0"/><path class="cls-1" d="M8.15,16.78l3.62.91a2,2,0,0,0,.42,0h0a1.7,1.7,0,0,0,1.7-1.7v-.12A1.7,1.7,0,0,0,13,14.4L9.67,12.76A7.19,7.19,0,0,0,6.45,12h0a7.12,7.12,0,0,0-2.28.37L2.41,13H.5"/><path class="cls-1" d="M12,17.74h1.91l6.47-1.85a1.82,1.82,0,0,1,.46-.06h0A1.68,1.68,0,0,1,22.5,17.5v.11a1.67,1.67,0,0,1-1,1.53L15,22a5.78,5.78,0,0,1-2.32.49h0a5.79,5.79,0,0,1-1.38-.17l-7-1.74H.5"/></svg>