<svg id="Layer_1" data-name="Layer 1" xmlns="http://www.w3.org/2000/svg" viewBox="0 0 24 24"><defs><style>.cls-1{fill:none;stroke:#020202;stroke-miterlimit:10;stroke-width:1.91px;}</style></defs><polyline class="cls-1" points="21.55 0.52 21.55 18.66 2.46 18.66 2.46 0.52"/><rect class="cls-1" x="1.5" y="18.66" width="21" height="3.82"/><line class="cls-1" x1="2.45" y1="2.43" x2="21.55" y2="2.43"/><line class="cls-1" x1="6.27" y1="0.52" x2="6.27" y2="4.34"/><line class="cls-1" x1="9.14" y1="0.52" x2="9.14" y2="4.34"/><line class="cls-1" x1="12" y1="0.52" x2="12" y2="4.34"/><line class="cls-1" x1="2.45" y1="8.16" x2="21.55" y2="8.16"/><line class="cls-1" x1="10.09" y1="6.25" x2="10.09" y2="10.07"/><line class="cls-1" x1="12.95" y1="6.25" x2="12.95" y2="10.07"/><line class="cls-1" x1="17.73" y1="6.25" x2="17.73" y2="10.07"/><line class="cls-1" x1="2.45" y1="13.89" x2="21.55" y2="13.89"/><line class="cls-1" x1="6.27" y1="11.98" x2="6.27" y2="15.8"/><line class="cls-1" x1="9.14" y1="11.98" x2="9.14" y2="15.8"/><line class="cls-1" x1="15.82" y1="11.98" x2="15.82" y2="15.8"/></svg>