<svg id="Layer_1" data-name="Layer 1" xmlns="http://www.w3.org/2000/svg" viewBox="0 0 24 24"><defs><style>.cls-1{fill:none;stroke:#020202;stroke-miterlimit:10;stroke-width:1.91px;}</style></defs><path class="cls-1" d="M10.09,5.32h3.82a4.77,4.77,0,0,1,4.77,4.77V22.5a0,0,0,0,1,0,0H5.32a0,0,0,0,1,0,0V10.09A4.77,4.77,0,0,1,10.09,5.32Z"/><path class="cls-1" d="M11.47,1.5h1.05a2.34,2.34,0,0,1,2.34,2.34V5.32a0,0,0,0,1,0,0H9.14a0,0,0,0,1,0,0V3.84A2.34,2.34,0,0,1,11.47,1.5Z"/><path class="cls-1" d="M18.68,14.86H20.3a2.2,2.2,0,0,1,2.2,2.2V20.3a2.2,2.2,0,0,1-2.2,2.2H18.68a0,0,0,0,1,0,0V14.86A0,0,0,0,1,18.68,14.86Z"/><path class="cls-1" d="M1.5,14.86H3.11a2.2,2.2,0,0,1,2.2,2.2V20.3a2.2,2.2,0,0,1-2.2,2.2H1.5a0,0,0,0,1,0,0V14.86A0,0,0,0,1,1.5,14.86Z" transform="translate(6.82 37.36) rotate(180)"/><line class="cls-1" x1="8.18" y1="15.82" x2="15.82" y2="15.82"/><line class="cls-1" x1="13.91" y1="17.73" x2="13.91" y2="15.82"/></svg>