<svg id="Layer_1" data-name="Layer 1" xmlns="http://www.w3.org/2000/svg" viewBox="0 0 24 24"><defs><style>.cls-1{fill:none;stroke:#020202;stroke-miterlimit:10;stroke-width:1.91px;}</style></defs><path class="cls-1" d="M5.32,12H18.68a2.86,2.86,0,0,1,2.86,2.86V22.5a0,0,0,0,1,0,0H2.45a0,0,0,0,1,0,0V14.86A2.86,2.86,0,0,1,5.32,12Z"/><line class="cls-1" x1="0.55" y1="22.5" x2="23.45" y2="22.5"/><path class="cls-1" d="M18.68,19.64H15.82L13.91,8.18,16,6.11a2.69,2.69,0,0,0,.79-1.91h0a2.7,2.7,0,0,0-2.7-2.7H9.93a2.7,2.7,0,0,0-2.7,2.7h0A2.69,2.69,0,0,0,8,6.11l2.07,2.07L8.18,19.64H5.32"/></svg>