<svg id="Layer_1" data-name="Layer 1" xmlns="http://www.w3.org/2000/svg" viewBox="0 0 24 24"><defs><style>.cls-1{fill:none;stroke:#020202;stroke-miterlimit:10;stroke-width:1.91px;}</style></defs><path class="cls-1" d="M20.59,3.41V22.5H3.41V3.41H8.18a1.92,1.92,0,0,0,1.91,1.91h3.82a1.83,1.83,0,0,0,1.34-.57,1.83,1.83,0,0,0,.57-1.34Z"/><path class="cls-1" d="M15.82,3.41a1.83,1.83,0,0,1-.57,1.34,1.83,1.83,0,0,1-1.34.57H10.09A1.92,1.92,0,0,1,8.18,3.41,1.93,1.93,0,0,1,10.09,1.5h3.82A1.92,1.92,0,0,1,15.82,3.41Z"/><line class="cls-1" x1="6.27" y1="10.09" x2="17.73" y2="10.09"/><line class="cls-1" x1="6.27" y1="13.91" x2="17.73" y2="13.91"/><line class="cls-1" x1="6.27" y1="17.73" x2="12.95" y2="17.73"/></svg>