<svg id="Layer_1" data-name="Layer 1" xmlns="http://www.w3.org/2000/svg" viewBox="0 0 24 24"><defs><style>.cls-1{fill:none;stroke:#020202;stroke-miterlimit:10;stroke-width:1.91px;}</style></defs><path class="cls-1" d="M8.65,5.78a2.77,2.77,0,0,1-.17,1A2.83,2.83,0,0,1,6.74,8.48a2.77,2.77,0,0,1-1,.17A2.86,2.86,0,0,1,2.91,5.78,2.87,2.87,0,0,1,5.78,2.91,2.86,2.86,0,0,1,8.65,5.78Z"/><line class="cls-1" x1="1" y1="1" x2="3.87" y2="3.87"/><path class="cls-1" d="M8.48,6.74a2.77,2.77,0,0,0,.17-1A2.86,2.86,0,0,0,5.78,2.91H19.17V4.83L16.3,6.74Z"/><path class="cls-1" d="M6.74,8.48V16.3L4.83,19.17H2.91V5.78A2.86,2.86,0,0,0,5.78,8.65,2.77,2.77,0,0,0,6.74,8.48Z"/><line class="cls-1" x1="3.87" y1="23" x2="3.87" y2="19.17"/><line class="cls-1" x1="23" y1="3.87" x2="19.17" y2="3.87"/><path class="cls-1" d="M6.74,13.43a6.68,6.68,0,0,0,6.69-6.69"/><line class="cls-1" x1="10.09" y1="10.09" x2="12.96" y2="12.96"/><path class="cls-1" d="M22,7.22A14.81,14.81,0,0,1,7.22,22"/></svg>