<svg id="Layer_1" data-name="Layer 1" xmlns="http://www.w3.org/2000/svg" viewBox="0 0 24 24"><defs><style>.cls-1{fill:none;stroke:#020202;stroke-miterlimit:10;stroke-width:1.91px;}</style></defs><path class="cls-1" d="M8.66,4.05h0a4.72,4.72,0,0,1,4.72,4.72v.67a0,0,0,0,1,0,0H3.93a0,0,0,0,1,0,0V8.77A4.72,4.72,0,0,1,8.66,4.05Z" transform="translate(7.31 -4.15) rotate(45)"/><path class="cls-1" d="M8.06,3.53,9.3,2.29a2.71,2.71,0,0,1,1.91-.79,2.7,2.7,0,0,1,2.7,2.7,2.73,2.73,0,0,1-.79,1.91L11.88,7.35"/><polyline class="cls-1" points="13.91 5.32 20.59 12 20.59 12.96 15.82 22.5"/><line class="cls-1" x1="6.27" y1="22.5" x2="19.64" y2="22.5"/><line class="cls-1" x1="9.14" y1="20.59" x2="9.14" y2="22.5"/></svg>