<svg id="Layer_1" data-name="Layer 1" xmlns="http://www.w3.org/2000/svg" viewBox="0 0 24 24"><defs><style>.cls-1{fill:none;stroke:#020202;stroke-miterlimit:10;stroke-width:1.92px;}</style></defs><path class="cls-1" d="M2.42,13.92H8A2.07,2.07,0,0,1,10.08,16v1.53A3.11,3.11,0,0,1,7,20.63H5.52a3.11,3.11,0,0,1-3.11-3.11v-3.6A0,0,0,0,1,2.42,13.92Z"/><path class="cls-1" d="M16,13.92h5.6a0,0,0,0,1,0,0v3.6a3.11,3.11,0,0,1-3.11,3.11H17a3.11,3.11,0,0,1-3.11-3.11V16A2.07,2.07,0,0,1,16,13.92Z"/><path class="cls-1" d="M10.08,16.79a1.92,1.92,0,0,1,3.84,0"/><line class="cls-1" x1="0.5" y1="13.92" x2="2.42" y2="13.92"/><line class="cls-1" x1="23.5" y1="13.92" x2="21.58" y2="13.92"/><path class="cls-1" d="M1.46,13.92l2.91-8A3.82,3.82,0,0,1,8,3.38h2.1"/><path class="cls-1" d="M22.54,13.92l-2.91-8A3.83,3.83,0,0,0,16,3.37h-2.1"/></svg>