<svg id="Layer_1" data-name="Layer 1" xmlns="http://www.w3.org/2000/svg" viewBox="0 0 24 24"><defs><style>.cls-1{fill:none;stroke:#020202;stroke-miterlimit:10;stroke-width:1.95px;}</style></defs><path class="cls-1" d="M22.75,5.16a2.35,2.35,0,0,1-.69,1.67l-4.68,4.68L7.86,21l-5.62.74L3,16.14l9.51-9.52,4.68-4.68a2.37,2.37,0,0,1,3.34,0l1.55,1.55A2.34,2.34,0,0,1,22.75,5.16Z"/><line class="cls-1" x1="14.94" y1="4.18" x2="19.82" y2="9.06"/><path class="cls-1" d="M7.87,21h0l-5.62.74L3,16.14H3A6.76,6.76,0,0,1,7.87,21Z"/><line class="cls-1" x1="17.38" y1="6.62" x2="6.1" y2="17.9"/><line class="cls-1" x1="14.77" y1="9.23" x2="13.39" y2="10.61"/><rect class="cls-1" x="2.98" y="3.66" width="8.29" height="6.91" transform="translate(-2.94 7.12) rotate(-45)"/><rect class="cls-1" x="12.75" y="13.42" width="8.29" height="6.91" transform="translate(-6.99 16.89) rotate(-45)"/><line class="cls-1" x1="4.19" y1="10.04" x2="6.15" y2="8.09"/><line class="cls-1" x1="13.96" y1="19.81" x2="15.91" y2="17.85"/></svg>