<svg id="Layer_1" data-name="Layer 1" xmlns="http://www.w3.org/2000/svg" viewBox="0 0 24 24"><defs><style>.cls-1{fill:#020202;}.cls-2{fill:none;stroke:#020202;stroke-miterlimit:10;stroke-width:2px;}</style></defs><polygon class="cls-1" points="2.77 20.53 8.78 13.81 10.19 15.22 3.47 21.23 2.77 20.53 2.77 20.53"/><path class="cls-2" d="M13.73,18.76,5.24,10.27A5.94,5.94,0,0,1,9.48,8.52,5.42,5.42,0,0,1,11,8.73L14.5,5.26a1.49,1.49,0,0,1,2-2,1.32,1.32,0,0,1,.42.29l3.53,3.53a1.32,1.32,0,0,1,.29.42,1.49,1.49,0,0,1-2,2L15.27,13a5.42,5.42,0,0,1,.21,1.55A5.94,5.94,0,0,1,13.73,18.76Z"/></svg>