<svg id="Layer_1" data-name="Layer 1" xmlns="http://www.w3.org/2000/svg" viewBox="0 0 24 24"><defs><style>.cls-1{fill:none;stroke:#020202;stroke-miterlimit:10;stroke-width:1.88px;}</style></defs><path class="cls-1" d="M11.83,9.84,9,12.67l-5-5A4,4,0,0,1,4,2Z"/><path class="cls-1" d="M21.89,19.28A4,4,0,0,1,14,18.34a4.21,4.21,0,0,1,.05-.62L11.83,15.5l2.83-2.83,1.93,1.93A3.88,3.88,0,0,1,18,14.34,4,4,0,0,1,21.89,19.28Z"/><path class="cls-1" d="M19.67,7.66l-5,5L9.89,17.44a3.73,3.73,0,0,1-.23,2.45,4.09,4.09,0,0,1-3.15,2.42,4,4,0,0,1-4.38-5,3.94,3.94,0,0,1,2-2.49,4.05,4.05,0,0,1,3.06-.3L9,12.67l2.83-2.83L19.67,2A4,4,0,0,1,19.67,7.66Z"/></svg>