<svg id="Layer_1" data-name="Layer 1" xmlns="http://www.w3.org/2000/svg" viewBox="0 0 24 24"><defs><style>.cls-1{fill:none;stroke:#020202;stroke-miterlimit:10;stroke-width:1.91px;}</style></defs><polyline class="cls-1" points="13.89 11.04 18.66 11.04 18.66 5.32 7.21 5.32 7.21 6.27 7.21 10.09 7.21 11.04 10.07 11.04"/><rect class="cls-1" x="3.39" y="6.27" width="3.82" height="3.82"/><path class="cls-1" d="M22.48,4.36h0a0,0,0,0,1,0,0V12a0,0,0,0,1,0,0h0a3.82,3.82,0,0,1-3.82-3.82v0a3.82,3.82,0,0,1,3.82-3.82Z" transform="translate(41.14 16.36) rotate(180)"/><line class="cls-1" x1="18.66" y1="2.45" x2="18.66" y2="13.91"/><line class="cls-1" x1="11.98" y1="1.5" x2="11.98" y2="5.32"/><line class="cls-1" x1="10.07" y1="1.5" x2="13.89" y2="1.5"/><line class="cls-1" x1="0.52" y1="8.18" x2="3.39" y2="8.18"/><circle class="cls-1" cx="11.98" cy="11.05" r="1.91"/><line class="cls-1" x1="16.75" y1="22.5" x2="12.71" y2="12.8"/><line class="cls-1" x1="11.24" y1="12.8" x2="7.2" y2="22.5"/><line class="cls-1" x1="5.3" y1="22.5" x2="10.07" y2="22.5"/><line class="cls-1" x1="13.89" y1="22.5" x2="18.66" y2="22.5"/></svg>