<svg id="Layer_1" data-name="Layer 1" xmlns="http://www.w3.org/2000/svg" viewBox="0 0 24 24"><defs><style>.cls-1{fill:none;stroke:#020202;stroke-miterlimit:10;stroke-width:1.91px;}</style></defs><path class="cls-1" d="M1.46,1.5h0A6.53,6.53,0,0,0,6.08,3.41h0A5,5,0,0,1,11,8.36v1.75L12.93,12"/><path class="cls-1" d="M22.5,22.54h0a6.53,6.53,0,0,1-1.91-4.62h0A5,5,0,0,0,15.64,13H13.89L12,11.07"/><path class="cls-1" d="M18.67,1.5h-1a1.92,1.92,0,1,0,0,3.83h1v1a1.92,1.92,0,1,0,3.83,0V1.5Z"/><polyline class="cls-1" points="0.5 19.67 4.33 19.67 18.67 5.33"/><line class="cls-1" x1="4.33" y1="19.67" x2="4.33" y2="23.5"/><line class="cls-1" x1="2.41" y1="16.8" x2="7.2" y2="16.8"/><line class="cls-1" x1="7.2" y1="16.8" x2="7.2" y2="21.59"/><line class="cls-1" x1="2.41" y1="2.46" x2="2.41" y2="13.93"/><line class="cls-1" x1="21.5" y1="21.59" x2="10.07" y2="21.59"/></svg>