<svg id="Layer_1" data-name="Layer 1" xmlns="http://www.w3.org/2000/svg" viewBox="0 0 24 24"><defs><style>.cls-1{fill:#020202;}.cls-2{fill:none;stroke:#020202;stroke-miterlimit:10;stroke-width:1.91px;}</style></defs><path class="cls-1" d="M14.23,15.82A1.55,1.55,0,0,0,13,16.5a1.54,1.54,0,0,0-2.81.85c0,2.3,2.81,3.07,2.81,3.07s2.82-.77,2.82-3.07A1.53,1.53,0,0,0,14.23,15.82Z"/><polyline class="cls-2" points="6.27 9.14 14.86 9.14 19.64 9.14 19.64 22.5 6.27 22.5 6.27 12.96"/><path class="cls-2" d="M16.77,13H6.27a1.91,1.91,0,0,1-1.91-1.9A1.84,1.84,0,0,1,4.93,9.7a1.87,1.87,0,0,1,1.34-.56h8.59"/><path class="cls-2" d="M6.27,13a1.91,1.91,0,0,1-1.91-1.9h0A1.91,1.91,0,0,1,6.27,9.14"/><path class="cls-2" d="M16.77,13a1.91,1.91,0,0,1-1.91-1.9h0a1.91,1.91,0,0,1,1.91-1.91"/><rect class="cls-2" x="7.23" y="1.5" width="11.45" height="7.64"/><line class="cls-2" x1="7.23" y1="5.32" x2="18.68" y2="5.32"/><line class="cls-2" x1="12.95" y1="1.5" x2="12.95" y2="9.14"/></svg>