<svg id="Layer_1" data-name="Layer 1" xmlns="http://www.w3.org/2000/svg" viewBox="0 0 24 24"><defs><style>.cls-1{fill:#020202;}.cls-2{fill:none;stroke:#020202;stroke-miterlimit:10;stroke-width:1.91px;}</style></defs><path class="cls-1" d="M13.28,14.86a1.53,1.53,0,0,0-1.28.69,1.53,1.53,0,0,0-2.81.85c0,2.3,2.81,3.06,2.81,3.06s2.81-.76,2.81-3.06A1.54,1.54,0,0,0,13.28,14.86Z"/><polygon class="cls-2" points="20.17 22.5 3.83 22.5 2.46 12 21.55 12 20.17 22.5"/><path class="cls-2" d="M3.55,12a4.66,4.66,0,0,1-.14-1.13C3.41,3.84,12,1.5,12,1.5s8.59,2.34,8.59,9.37A4.66,4.66,0,0,1,20.45,12"/><path class="cls-2" d="M9.18,12c0-.36,0-.74,0-1.13C9.14,3.84,12,1.5,12,1.5s2.86,2.34,2.86,9.37c0,.39,0,.77,0,1.13"/></svg>