<svg id="Layer_1" data-name="Layer 1" xmlns="http://www.w3.org/2000/svg" viewBox="0 0 24 24"><defs><style>.cls-1{fill:none;stroke:#020202;stroke-miterlimit:10;stroke-width:1.91px;}</style></defs><rect class="cls-1" x="1.5" y="9.14" width="21" height="4.77"/><rect class="cls-1" x="2.45" y="13.91" width="19.09" height="8.59"/><path class="cls-1" d="M12,9.14V4.25A2.75,2.75,0,0,0,9.25,1.5h0a2,2,0,0,0-2,2h0A2,2,0,0,0,7.82,5L12,9.1H6.12A2.71,2.71,0,0,1,3.41,6.39h0a2,2,0,0,1,2-2h0A4.37,4.37,0,0,1,8.5,5.63Z"/><path class="cls-1" d="M12,9.18V4.29a2.75,2.75,0,0,1,2.75-2.75h0a2,2,0,0,1,2,2h0A2,2,0,0,1,16.18,5L12,9.14h5.84a2.71,2.71,0,0,0,2.71-2.71h0a2,2,0,0,0-2-2h0A4.37,4.37,0,0,0,15.5,5.67Z"/><line class="cls-1" x1="12" y1="22.5" x2="12" y2="9.14"/></svg>