<svg id="Layer_1" data-name="Layer 1" xmlns="http://www.w3.org/2000/svg" viewBox="0 0 24 24"><defs><style>.cls-1{fill:none;stroke:#020202;stroke-miterlimit:10;stroke-width:1.91px;}</style></defs><path class="cls-1" d="M13.74,7.23A2.2,2.2,0,0,0,12,8a2.2,2.2,0,0,0-1.74-.77A1.93,1.93,0,0,0,8.18,9c0,2.57,3.82,4,3.82,4s3.82-1.43,3.82-4A1.93,1.93,0,0,0,13.74,7.23Z"/><polyline class="cls-1" points="20.59 10.09 20.59 22.5 3.41 22.5 3.41 10.09"/><path class="cls-1" d="M20.59,9.14v.95l-7,7a2.32,2.32,0,0,1-1.63.68h0a2.32,2.32,0,0,1-1.63-.68l-7-7V9.14l7-7a2.29,2.29,0,0,1,3.26,0Z"/><line class="cls-1" x1="20.59" y1="22.5" x2="14.39" y2="16.3"/><line class="cls-1" x1="9.61" y1="16.3" x2="3.41" y2="22.5"/></svg>