<svg id="Layer_1" data-name="Layer 1" xmlns="http://www.w3.org/2000/svg" viewBox="0 0 24 24"><defs><style>.cls-1{fill:none;stroke:#020202;stroke-miterlimit:10;stroke-width:1.91px;}</style></defs><path class="cls-1" d="M14.17,9.38a2.78,2.78,0,0,0-2.17,1,2.78,2.78,0,0,0-2.17-1,2.4,2.4,0,0,0-2.6,2.14c0,3.22,4.77,5,4.77,5s4.77-1.79,4.77-5A2.4,2.4,0,0,0,14.17,9.38Z"/><rect class="cls-1" x="1.5" y="5.32" width="21" height="15.27" rx="1.91"/><circle class="cls-1" cx="4.84" cy="22.02" r="0.48"/><circle class="cls-1" cx="19.16" cy="22.02" r="0.48"/><path class="cls-1" d="M16.77,5.32H7.23L8.61,2.56A1.9,1.9,0,0,1,10.32,1.5h3.36a1.9,1.9,0,0,1,1.71,1.06Z"/><line class="cls-1" x1="5.32" y1="15.82" x2="5.32" y2="20.59"/><line class="cls-1" x1="18.68" y1="15.82" x2="18.68" y2="20.59"/><line class="cls-1" x1="5.32" y1="5.32" x2="5.32" y2="8.18"/><line class="cls-1" x1="18.68" y1="5.32" x2="18.68" y2="8.18"/></svg>