<svg id="Layer_1" data-name="Layer 1" xmlns="http://www.w3.org/2000/svg" viewBox="0 0 24 24"><defs><style>.cls-1{fill:none;stroke:#020202;stroke-miterlimit:10;stroke-width:1.91px;}</style></defs><path class="cls-1" d="M16.46,11.14a4.16,4.16,0,0,1-1.81,3.14A10.9,10.9,0,0,1,12,15.82a10.9,10.9,0,0,1-2.65-1.54,4.16,4.16,0,0,1-1.81-3.14A2,2,0,0,1,8.91,9.35,2.65,2.65,0,0,1,10,9.14,2.6,2.6,0,0,1,12,10a2.6,2.6,0,0,1,2-.89,2.65,2.65,0,0,1,1.07.21A2,2,0,0,1,16.46,11.14Z"/><path class="cls-1" d="M9.35,14.28,6.1,17.06a2.79,2.79,0,0,1-4.6-2.12v-.15A2.79,2.79,0,0,1,4.29,12,2.79,2.79,0,0,1,1.5,9.21V9.06A2.79,2.79,0,0,1,6.1,6.94L8.91,9.35a2,2,0,0,0-1.37,1.79A4.16,4.16,0,0,0,9.35,14.28Z"/><path class="cls-1" d="M19.71,12a2.79,2.79,0,0,1,2.79,2.79v.15a2.79,2.79,0,0,1-4.6,2.12l-3.25-2.78a4.16,4.16,0,0,0,1.81-3.14,2,2,0,0,0-1.37-1.79L17.9,6.94a2.79,2.79,0,0,1,4.6,2.12v.15A2.79,2.79,0,0,1,19.71,12Z"/></svg>