<svg id="Layer_1" data-name="Layer 1" xmlns="http://www.w3.org/2000/svg" viewBox="0 0 24 24"><defs><style>.cls-1{fill:none;stroke:#020202;stroke-miterlimit:10;stroke-width:1.91px;}</style></defs><path class="cls-1" d="M17.47,1.52a3.33,3.33,0,0,0-2.61,1.16,3.31,3.31,0,0,0-2.6-1.16A2.89,2.89,0,0,0,9.14,4.1c0,3.87,5.72,6,5.72,6s5.73-2.14,5.73-6A2.89,2.89,0,0,0,17.47,1.52Z"/><line class="cls-1" x1="2.45" y1="1.52" x2="6.27" y2="1.52"/><line class="cls-1" x1="4.36" y1="10.11" x2="4.36" y2="1.52"/><line class="cls-1" x1="2.45" y1="10.11" x2="6.27" y2="10.11"/><polyline class="cls-1" points="7.23 14.89 7.23 15.84 4.36 19.66 1.5 15.84 1.5 14.89"/><line class="cls-1" x1="4.36" y1="23.48" x2="4.36" y2="19.66"/><rect class="cls-1" x="10.09" y="15.84" width="4.77" height="6.68" rx="2.39"/><path class="cls-1" d="M22.5,14.89v5.25a2.39,2.39,0,0,1-2.39,2.38h0a2.39,2.39,0,0,1-2.38-2.38V14.89"/></svg>