<svg id="Layer_1" data-name="Layer 1" xmlns="http://www.w3.org/2000/svg" viewBox="0 0 24 24"><defs><style>.cls-1{fill:none;stroke:#020202;stroke-miterlimit:10;stroke-width:1.91px;}</style></defs><path class="cls-1" d="M17.73,22.5H4.36V5.32L15.57,1.58a1.75,1.75,0,0,1,.51-.08h0a1.65,1.65,0,0,1,1.65,1.64V5.32h0a1.91,1.91,0,0,1,1.91,1.91V20.59A1.91,1.91,0,0,1,17.73,22.5Z"/><path class="cls-1" d="M17.73,5.32a1.91,1.91,0,0,1,1.91,1.91V20.59a1.91,1.91,0,0,1-1.91,1.91H4.36V5.32"/><path class="cls-1" d="M13.74,9.14A2.2,2.2,0,0,0,12,9.91a2.2,2.2,0,0,0-1.74-.77,1.92,1.92,0,0,0-2.08,1.71c0,2.58,3.82,4,3.82,4s3.82-1.43,3.82-4A1.92,1.92,0,0,0,13.74,9.14Z"/><line class="cls-1" x1="8.18" y1="18.68" x2="15.82" y2="18.68"/><line class="cls-1" x1="17.73" y1="5.32" x2="4.36" y2="5.32"/></svg>