<svg id="Layer_1" data-name="Layer 1" xmlns="http://www.w3.org/2000/svg" viewBox="0 0 24 24"><defs><style>.cls-1{fill:none;stroke:#020202;stroke-miterlimit:10;stroke-width:1.91px;}</style></defs><path class="cls-1" d="M15.9,8.44a4.61,4.61,0,0,0-2,.46V1.5H10.09V8.9a4.61,4.61,0,0,0-2-.46,4.69,4.69,0,0,0-4.69,4.69c0,7,8.59,9.37,8.59,9.37s8.59-2.34,8.59-9.37A4.69,4.69,0,0,0,15.9,8.44Z"/><line class="cls-1" x1="8.18" y1="1.5" x2="15.82" y2="1.5"/><path class="cls-1" d="M3.41,13.91c8.59-3.82,8.59,2.86,17.18,0"/><line class="cls-1" x1="8.18" y1="16.77" x2="10.09" y2="16.77"/><line class="cls-1" x1="12" y1="18.68" x2="13.91" y2="18.68"/></svg>