<svg id="Layer_1" data-name="Layer 1" xmlns="http://www.w3.org/2000/svg" viewBox="0 0 24 24"><defs><style>.cls-1{fill:none;stroke:#020202;stroke-miterlimit:10;stroke-width:1.91px;}</style></defs><path class="cls-1" d="M4.36,14.89H19.64a2.86,2.86,0,0,1,2.86,2.86v2.86a0,0,0,0,1,0,0H1.5a0,0,0,0,1,0,0V17.75A2.86,2.86,0,0,1,4.36,14.89Z"/><path class="cls-1" d="M7.38,11.07H9.94A2.06,2.06,0,0,1,12,13.13v1.76a0,0,0,0,1,0,0H5.32a0,0,0,0,1,0,0V13.13A2.06,2.06,0,0,1,7.38,11.07Z"/><path class="cls-1" d="M14.06,11.07h2.56a2.06,2.06,0,0,1,2.06,2.06v1.76a0,0,0,0,1,0,0H12a0,0,0,0,1,0,0V13.13A2.06,2.06,0,0,1,14.06,11.07Z"/><line class="cls-1" x1="3.41" y1="23.48" x2="3.41" y2="20.61"/><line class="cls-1" x1="20.59" y1="23.48" x2="20.59" y2="20.61"/><path class="cls-1" d="M18.92,14.89A10.09,10.09,0,0,0,22.5,7.25,5.72,5.72,0,0,0,12,4.09,5.72,5.72,0,0,0,1.5,7.25a10.09,10.09,0,0,0,3.58,7.64"/></svg>