<svg id="Layer_1" data-name="Layer 1" xmlns="http://www.w3.org/2000/svg" viewBox="0 0 24 24"><defs><style>.cls-1{fill:#020202;}.cls-2{fill:none;stroke:#020202;stroke-miterlimit:10;stroke-width:1.91px;}</style></defs><path class="cls-1" d="M13.28,13.91A1.51,1.51,0,0,0,12,14.6a1.51,1.51,0,0,0-1.28-.69,1.54,1.54,0,0,0-1.53,1.53c0,2.3,2.81,3.07,2.81,3.07s2.81-.77,2.81-3.07A1.54,1.54,0,0,0,13.28,13.91Z"/><path class="cls-2" d="M17.73,22.5H6.27V8.18l.3.1a35.25,35.25,0,0,0,11.16,1.81h0Z"/><path class="cls-2" d="M13.91,5.32a1.91,1.91,0,0,1-3.82,0C10.09,3.41,12,1.5,12,1.5S13.91,3.41,13.91,5.32Z"/><line class="cls-2" x1="12" y1="7.23" x2="12" y2="10.09"/><line class="cls-2" x1="3.41" y1="22.5" x2="20.59" y2="22.5"/></svg>