<svg id="Layer_1" data-name="Layer 1" xmlns="http://www.w3.org/2000/svg" viewBox="0 0 24 24"><defs><style>.cls-1{fill:#020202;}.cls-2{fill:none;stroke:#020202;stroke-miterlimit:10;stroke-width:1.91px;}</style></defs><path class="cls-1" d="M18.05,8.18a1.53,1.53,0,0,0-1.28.69,1.5,1.5,0,0,0-1.27-.69A1.54,1.54,0,0,0,14,9.71c0,2.3,2.81,3.07,2.81,3.07s2.81-.77,2.81-3.07A1.53,1.53,0,0,0,18.05,8.18Z"/><path class="cls-2" d="M14.86,16.3v4.29A1.92,1.92,0,0,1,13,22.5H3.41A1.92,1.92,0,0,1,1.5,20.59V3.41A1.92,1.92,0,0,1,3.41,1.5H13a1.92,1.92,0,0,1,1.91,1.91V4.7"/><path class="cls-2" d="M10.09,2.45H6.27a1,1,0,0,1-.95-1h5.73A1,1,0,0,1,10.09,2.45Z"/><path class="cls-2" d="M16.77,4.36a5.73,5.73,0,0,0-3.82,10v2.42l3.82-.95a5.73,5.73,0,0,0,0-11.46Z"/></svg>