<svg id="Layer_1" data-name="Layer 1" xmlns="http://www.w3.org/2000/svg" viewBox="0 0 24 24"><defs><style>.cls-1{fill:none;stroke:#020202;stroke-miterlimit:10;stroke-width:1.91px;}</style></defs><path class="cls-1" d="M20.48,10a2.82,2.82,0,0,0-.84,2,2.86,2.86,0,0,0,2.86,2.86v4.78H1.5V14.86a2.82,2.82,0,0,0,2-.84,2.85,2.85,0,0,0,0-4,2.82,2.82,0,0,0-2-.84V4.36h21V9.14A2.82,2.82,0,0,0,20.48,10Z"/><path class="cls-1" d="M13.74,9.14A2.2,2.2,0,0,0,12,9.91a2.2,2.2,0,0,0-1.74-.77,1.92,1.92,0,0,0-2.08,1.71c0,2.58,3.82,4,3.82,4s3.82-1.43,3.82-4A1.92,1.92,0,0,0,13.74,9.14Z"/></svg>