<svg id="Layer_1" data-name="Layer 1" xmlns="http://www.w3.org/2000/svg" viewBox="0 0 24 24"><defs><style>.cls-1{fill:none;stroke:#020202;stroke-miterlimit:10;stroke-width:1.91px;}.cls-2{fill:#020202;}</style></defs><path class="cls-1" d="M13,22.5H1.5V9.14l.29.09A35.31,35.31,0,0,0,13,11.05h0Z"/><rect class="cls-1" x="12.95" y="15.82" width="9.55" height="6.68"/><path class="cls-1" d="M9.14,5.32a1.91,1.91,0,0,1-3.82,0c0-1.91,1.91-3.82,1.91-3.82S9.14,3.41,9.14,5.32Z"/><path class="cls-1" d="M19.64,11.05a1.91,1.91,0,0,1-3.82,0c0-1.91,1.91-3.82,1.91-3.82S19.64,9.14,19.64,11.05Z"/><line class="cls-1" x1="7.23" y1="7.23" x2="7.23" y2="10.09"/><line class="cls-1" x1="17.73" y1="12.95" x2="17.73" y2="15.82"/><path class="cls-2" d="M8.5,14.86a1.53,1.53,0,0,0-1.27.69A1.56,1.56,0,0,0,6,14.86,1.53,1.53,0,0,0,4.42,16.4c0,2.3,2.81,3.06,2.81,3.06S10,18.7,10,16.4A1.54,1.54,0,0,0,8.5,14.86Z"/></svg>