<svg id="Layer_1" data-name="Layer 1" xmlns="http://www.w3.org/2000/svg" viewBox="0 0 24 24"><defs><style>.cls-1{fill:none;stroke:#020202;stroke-miterlimit:10;stroke-width:1.91px;}</style></defs><path class="cls-1" d="M22.5,18.5a2.25,2.25,0,0,0-.77-1.74A2.22,2.22,0,0,0,22.5,15a1.93,1.93,0,0,0-1.72-2.09c-2.58,0-4,3.82-4,3.82s1.43,3.82,4,3.82A1.93,1.93,0,0,0,22.5,18.5Z"/><path class="cls-1" d="M12.61,9.56a4.15,4.15,0,0,0-3.47,1.86A4.17,4.17,0,0,0,1.5,13.73c0,6.24,7.64,8.33,7.64,8.33s7.63-2.09,7.63-8.33A4.16,4.16,0,0,0,12.61,9.56Z"/><path class="cls-1" d="M4.36,9.26v-3a4.79,4.79,0,0,1,8.16-3.38,4.85,4.85,0,0,1,1.39,3.38v3"/><line class="cls-1" x1="9.14" y1="18.67" x2="9.14" y2="14.85"/><line class="cls-1" x1="9.14" y1="16.76" x2="16.77" y2="16.76"/></svg>