<svg id="Layer_1" data-name="Layer 1" xmlns="http://www.w3.org/2000/svg" viewBox="0 0 24 24"><defs><style>.cls-1{fill:none;stroke:#020202;stroke-miterlimit:10;stroke-width:1.91px;}</style></defs><path class="cls-1" d="M21.87,4.58A2.09,2.09,0,0,0,20,4a2.09,2.09,0,0,0-.59-1.86,2,2,0,0,0-2.89-.06c-2.13,2.13-.61,6-.61,6s3.88,1.52,6-.61A2,2,0,0,0,21.87,4.58Z"/><line class="cls-1" x1="15.82" y1="8.18" x2="13.91" y2="10.09"/><polygon class="cls-1" points="4.36 22.5 1.5 22.5 1.5 19.64 12.48 8.66 15.34 11.52 4.36 22.5"/><polyline class="cls-1" points="12.96 9.14 6.27 9.14 3.41 12"/></svg>