<svg id="Layer_1" data-name="Layer 1" xmlns="http://www.w3.org/2000/svg" viewBox="0 0 24 24"><defs><style>.cls-1{fill:none;stroke:#020202;stroke-miterlimit:10;stroke-width:1.91px;}</style></defs><path class="cls-1" d="M7.85,14.86a2.42,2.42,0,0,0-2,1,2.38,2.38,0,0,0-2-1A2.34,2.34,0,0,0,1.5,17.15c0,3.44,4.36,5.35,4.36,5.35s4.37-1.91,4.37-5.35A2.34,2.34,0,0,0,7.85,14.86Z"/><path class="cls-1" d="M20.16,15a2.37,2.37,0,0,0-2,1,2.35,2.35,0,0,0-1.95-1,2.3,2.3,0,0,0-2.34,2.26c0,3.38,4.29,5.26,4.29,5.26s4.3-1.88,4.3-5.26A2.3,2.3,0,0,0,20.16,15Z"/><path class="cls-1" d="M10.07,18.23a3.66,3.66,0,0,1,1.93-.5,3.64,3.64,0,0,1,2.06.59"/><path class="cls-1" d="M1.5,16.77,3.78,4.61A3.82,3.82,0,0,1,7.53,1.5h2.56"/><path class="cls-1" d="M22.5,16.77,20.22,4.61A3.82,3.82,0,0,0,16.47,1.5H13.91"/></svg>