<svg id="Layer_1" data-name="Layer 1" xmlns="http://www.w3.org/2000/svg" viewBox="0 0 24 24"><defs><style>.cls-1{fill:none;stroke:#020202;stroke-miterlimit:10;stroke-width:1.91px;}</style></defs><path class="cls-1" d="M15.49,10A4.18,4.18,0,0,0,12,11.87a4.16,4.16,0,0,0-7.63,2.3C4.39,20.42,12,22.5,12,22.5s7.64-2.08,7.64-8.33A4.17,4.17,0,0,0,15.49,10Z"/><line class="cls-1" x1="9.16" y1="22.5" x2="14.89" y2="22.5"/><polyline class="cls-1" points="9.16 10.05 9.16 1.5 14.89 1.5 14.89 10.05"/><line class="cls-1" x1="5.34" y1="5.32" x2="9.16" y2="5.32"/><circle class="cls-1" cx="3.43" cy="5.32" r="1.91"/><line class="cls-1" x1="12.98" y1="5.32" x2="16.8" y2="5.32"/><line class="cls-1" x1="21.57" y1="2.45" x2="23.48" y2="2.45"/><line class="cls-1" x1="20.61" y1="7.23" x2="22.52" y2="7.23"/><line class="cls-1" x1="17.75" y1="4.36" x2="19.66" y2="4.36"/></svg>