<svg id="Layer_1" data-name="Layer 1" xmlns="http://www.w3.org/2000/svg" viewBox="0 0 24 24"><defs><style>.cls-1{fill:#020202;}.cls-2{fill:none;stroke:#020202;stroke-miterlimit:10;stroke-width:1.91px;}</style></defs><path class="cls-1" d="M13.74,13a2.23,2.23,0,0,0-1.74.77A2.23,2.23,0,0,0,10.26,13a1.93,1.93,0,0,0-2.08,1.72c0,2.58,3.82,4,3.82,4s3.82-1.43,3.82-4A1.93,1.93,0,0,0,13.74,13Z"/><path class="cls-2" d="M15.82,8.18V5.32H8.18V8.18h0a6.42,6.42,0,0,0-2.86,5.35v7.06A1.9,1.9,0,0,0,7.23,22.5h9.54a1.9,1.9,0,0,0,1.91-1.91V13.53a6.42,6.42,0,0,0-2.86-5.35Z"/><rect class="cls-2" x="9.14" y="1.5" width="5.73" height="3.82"/><line class="cls-2" x1="17.73" y1="5.32" x2="6.27" y2="5.32"/></svg>