<svg id="Layer_1" data-name="Layer 1" xmlns="http://www.w3.org/2000/svg" viewBox="0 0 24 24"><defs><style>.cls-1{fill:none;stroke:#020202;stroke-miterlimit:10;stroke-width:1.91px;}</style></defs><path class="cls-1" d="M12,1.48C6.2,1.48,1.5,4.9,1.5,9.11,1.5,11.48,3,13.6,5.32,15v2.7l2.59-1.55a13.85,13.85,0,0,0,4.09.6c5.8,0,10.5-3.42,10.5-7.64S17.8,1.48,12,1.48Z"/><path class="cls-1" d="M21.13,12.88A4,4,0,0,1,22.5,15.8a4.22,4.22,0,0,1-1.91,3.36v2.36l-2.18-1.3a9,9,0,0,1-2.48.35c-3.27,0-6-1.75-6.47-4"/><path class="cls-1" d="M14,6.25A2.35,2.35,0,0,0,12,7.3,2.35,2.35,0,0,0,7.7,8.59c0,3.52,4.3,4.69,4.3,4.69s4.3-1.17,4.3-4.69A2.35,2.35,0,0,0,14,6.25Z"/></svg>