<svg id="Layer_1" data-name="Layer 1" xmlns="http://www.w3.org/2000/svg" viewBox="0 0 24 24"><defs><style>.cls-1{fill:#020202;}.cls-2{fill:none;stroke:#020202;stroke-miterlimit:10;stroke-width:1.91px;}</style></defs><path class="cls-1" d="M13.28,10.09a1.51,1.51,0,0,0-1.28.69,1.51,1.51,0,0,0-1.28-.69,1.54,1.54,0,0,0-1.53,1.53c0,2.3,2.81,3.07,2.81,3.07s2.81-.77,2.81-3.07A1.54,1.54,0,0,0,13.28,10.09Z"/><rect class="cls-2" x="5.32" y="1.5" width="13.36" height="21" rx="1.91"/><path class="cls-2" d="M13.91,2.45H10.09a.94.94,0,0,1-.95-1h5.72A.94.94,0,0,1,13.91,2.45Z"/></svg>