<svg id="Layer_1" data-name="Layer 1" xmlns="http://www.w3.org/2000/svg" viewBox="0 0 24 24"><defs><style>.cls-1{fill:none;stroke:#020202;stroke-miterlimit:10;stroke-width:1.91px;}</style></defs><path class="cls-1" d="M15.9,8.44a4.68,4.68,0,0,0-3.9,2.1,4.68,4.68,0,0,0-8.59,2.59c0,7,8.59,9.37,8.59,9.37s8.59-2.34,8.59-9.37A4.69,4.69,0,0,0,15.9,8.44Z"/><path class="cls-1" d="M6.27,1.5H9.14A2.86,2.86,0,0,1,12,4.36v1a0,0,0,0,1,0,0H9.14A2.86,2.86,0,0,1,6.27,2.45v-1A0,0,0,0,1,6.27,1.5Z"/><path class="cls-1" d="M14.86,1.5h2.86a0,0,0,0,1,0,0v1a2.86,2.86,0,0,1-2.86,2.86H12a0,0,0,0,1,0,0v-1A2.86,2.86,0,0,1,14.86,1.5Z" transform="translate(29.73 6.82) rotate(-180)"/><line class="cls-1" x1="12" y1="10.09" x2="12" y2="5.32"/></svg>