<svg id="Layer_1" data-name="Layer 1" xmlns="http://www.w3.org/2000/svg" viewBox="0 0 24 24"><defs><style>.cls-1{fill:none;stroke:#020202;stroke-miterlimit:10;stroke-width:1.91px;}</style></defs><path class="cls-1" d="M11.61,12a5.21,5.21,0,0,1-.55-.08A4.92,4.92,0,0,1,7.22,7V1.5A8.56,8.56,0,0,1,13.3,4a8.53,8.53,0,0,1,1.95,3A3.68,3.68,0,0,1,11.61,12Z"/><path class="cls-1" d="M16.78,1.5V7.24A4.77,4.77,0,0,1,11.51,12,4.92,4.92,0,0,1,7.22,7V1.5Z"/><line class="cls-1" x1="12" y1="23.5" x2="12" y2="12.02"/><path class="cls-1" d="M16.28,13.93h1.46a0,0,0,0,1,0,0v.5a4.28,4.28,0,0,1-4.28,4.28H12a0,0,0,0,1,0,0v-.5A4.28,4.28,0,0,1,16.28,13.93Z"/><path class="cls-1" d="M6.26,15.85H7.72A4.28,4.28,0,0,1,12,20.13v.5a0,0,0,0,1,0,0H10.54a4.28,4.28,0,0,1-4.28-4.28v-.5a0,0,0,0,1,0,0Z" transform="translate(18.26 36.48) rotate(-180)"/></svg>