<svg id="Layer_1" data-name="Layer 1" xmlns="http://www.w3.org/2000/svg" viewBox="0 0 24 24"><defs><style>.cls-1{fill:#020202;}.cls-2{fill:none;stroke:#020202;stroke-miterlimit:10;stroke-width:1.91px;}</style></defs><path class="cls-1" d="M13.06.5A1.28,1.28,0,0,0,12,1.07a1.28,1.28,0,0,0-2.34.71C9.66,3.69,12,4.33,12,4.33s2.34-.64,2.34-2.55A1.28,1.28,0,0,0,13.06.5Z"/><line class="cls-2" x1="23.48" y1="22.5" x2="0.52" y2="22.5"/><rect class="cls-2" x="3.39" y="15.8" width="17.22" height="6.7"/><rect class="cls-2" x="6.26" y="10.07" width="11.48" height="5.74"/><rect class="cls-2" x="9.13" y="6.24" width="5.74" height="3.83"/><path class="cls-2" d="M3.39,15.8l.86,1.51a3.83,3.83,0,0,0,6.44.33L12,15.8"/><path class="cls-2" d="M20.61,15.8l-.86,1.51a3.83,3.83,0,0,1-6.44.33L12,15.8"/><line class="cls-2" x1="6.26" y1="8.15" x2="6.26" y2="10.07"/><line class="cls-2" x1="3.39" y1="13.89" x2="3.39" y2="15.8"/><line class="cls-2" x1="17.74" y1="8.15" x2="17.74" y2="10.07"/><line class="cls-2" x1="20.61" y1="13.89" x2="20.61" y2="15.8"/><line class="cls-2" x1="13.91" y1="13.89" x2="13.91" y2="15.8"/><line class="cls-2" x1="10.09" y1="13.89" x2="10.09" y2="15.8"/><line class="cls-2" x1="12" y1="3.37" x2="12" y2="6.24"/></svg>