<svg id="Layer_1" data-name="Layer 1" xmlns="http://www.w3.org/2000/svg" viewBox="0 0 24 24"><defs><style>.cls-1{fill:#020202;}.cls-2{fill:none;stroke:#020202;stroke-miterlimit:10;stroke-width:1.91px;}</style></defs><path class="cls-1" d="M13.28,13.91A1.51,1.51,0,0,0,12,14.6a1.51,1.51,0,0,0-1.28-.69,1.54,1.54,0,0,0-1.53,1.53c0,2.3,2.81,3.07,2.81,3.07s2.81-.77,2.81-3.07A1.54,1.54,0,0,0,13.28,13.91Z"/><path class="cls-2" d="M13.91,9.14V1.5H10.09V9.14h0a6.42,6.42,0,0,0-2.86,5.35v8h9.54v-8a6.42,6.42,0,0,0-2.86-5.35Z"/><line class="cls-2" x1="8.18" y1="1.5" x2="15.82" y2="1.5"/></svg>