<svg id="Layer_1" data-name="Layer 1" xmlns="http://www.w3.org/2000/svg" viewBox="0 0 24 24"><defs><style>.cls-1{fill:none;stroke:#020202;stroke-miterlimit:10;stroke-width:2px;}</style></defs><path class="cls-1" d="M22.8,9a9.95,9.95,0,0,1-8.49,8.49l-.7-.7a6.69,6.69,0,0,0-.69-4.55,6.87,6.87,0,0,0-1.15-1.54l-2.4-2.4L13.61,4.1,16,6.5a6.33,6.33,0,0,0,1.55,1.14,6.6,6.6,0,0,0,3.22.83,6.56,6.56,0,0,0,1.32-.13Z"/><path class="cls-1" d="M12.92,12.28l-2.1,2.1-6,6a2.12,2.12,0,0,1-3-3l6-6,2.3-2.29,1.65,1.65A6.87,6.87,0,0,1,12.92,12.28Z"/><path class="cls-1" d="M19.2,5.12a2.12,2.12,0,0,1-.62,1.5l-1,1A6.33,6.33,0,0,1,16,6.5L14.36,4.85l1.22-1.23a2.12,2.12,0,0,1,3.62,1.5Z"/></svg>