<svg id="Layer_1" data-name="Layer 1" xmlns="http://www.w3.org/2000/svg" viewBox="0 0 24 24"><defs><style>.cls-1{fill:none;stroke:#020202;stroke-miterlimit:10;stroke-width:1.91px;}</style></defs><rect class="cls-1" x="2.45" y="18.68" width="19.09" height="3.82"/><path class="cls-1" d="M7.23,12h1a0,0,0,0,1,0,0v6.68a0,0,0,0,1,0,0H2.45a0,0,0,0,1,0,0V16.77A4.77,4.77,0,0,1,7.23,12Z"/><line class="cls-1" x1="6.27" y1="20.59" x2="6.27" y2="22.5"/><line class="cls-1" x1="10.09" y1="20.59" x2="10.09" y2="22.5"/><line class="cls-1" x1="13.91" y1="20.59" x2="13.91" y2="22.5"/><line class="cls-1" x1="17.73" y1="20.59" x2="17.73" y2="22.5"/><path class="cls-1" d="M21.55,18.68V6.27a1.92,1.92,0,0,0-1.91-1.91H18.59a5.16,5.16,0,0,1-4.31-2.31h0a1.26,1.26,0,0,0-1-.55h0A1.25,1.25,0,0,0,12,2.74V8.18A3.82,3.82,0,0,1,8.18,12h0"/><line class="cls-1" x1="12" y1="7.23" x2="15.82" y2="7.23"/><line class="cls-1" x1="11.09" y1="11.05" x2="15.82" y2="11.05"/><path class="cls-1" d="M16.77,18.68a4.78,4.78,0,0,1,4.78-4.77"/></svg>