<svg id="Layer_1" data-name="Layer 1" xmlns="http://www.w3.org/2000/svg" viewBox="0 0 24 24"><defs><style>.cls-1{fill:none;stroke:#020202;stroke-miterlimit:10;stroke-width:1.91px;}</style></defs><polygon class="cls-1" points="19.65 22.5 4.35 22.5 4.35 7.2 10.09 7.2 12 11.02 19.65 11.02 19.65 22.5"/><line class="cls-1" x1="0.52" y1="22.5" x2="23.48" y2="22.5"/><line class="cls-1" x1="7.22" y1="14.85" x2="9.13" y2="14.85"/><line class="cls-1" x1="7.22" y1="11.02" x2="9.13" y2="11.02"/><line class="cls-1" x1="7.22" y1="18.67" x2="9.13" y2="18.67"/><line class="cls-1" x1="11.04" y1="18.67" x2="12.96" y2="18.67"/><line class="cls-1" x1="14.87" y1="18.67" x2="16.78" y2="18.67"/><line class="cls-1" x1="11.04" y1="14.85" x2="12.96" y2="14.85"/><line class="cls-1" x1="14.87" y1="14.85" x2="16.78" y2="14.85"/><line class="cls-1" x1="6.26" y1="0.5" x2="6.26" y2="7.2"/><line class="cls-1" x1="17.74" y1="2.41" x2="17.74" y2="10.07"/><line class="cls-1" x1="12" y1="0.5" x2="12" y2="10.07"/><line class="cls-1" x1="4.35" y1="3.37" x2="12" y2="3.37"/><line class="cls-1" x1="12" y1="6.24" x2="19.65" y2="6.24"/></svg>