<svg id="Layer_1" data-name="Layer 1" xmlns="http://www.w3.org/2000/svg" viewBox="0 0 24 24"><defs><style>.cls-1{fill:none;stroke:#020202;stroke-miterlimit:10;stroke-width:1.91px;}</style></defs><path class="cls-1" d="M7.23,17.73H1.5V6.27L4.36,3.41H7.23Z"/><line class="cls-1" x1="4.36" y1="10.09" x2="1.5" y2="10.09"/><line class="cls-1" x1="4.36" y1="13.91" x2="1.5" y2="13.91"/><polyline class="cls-1" points="22.5 5.32 22.5 17.73 7.23 17.73"/><circle class="cls-1" cx="5.8" cy="20.11" r="2.39"/><circle class="cls-1" cx="18.2" cy="20.11" r="2.39"/><path class="cls-1" d="M14.86,13.91h0a4.78,4.78,0,0,1-4.77-4.77V4.36L12,1.5h5.73l1.91,2.86V9.14A4.78,4.78,0,0,1,14.86,13.91Z"/><line class="cls-1" x1="22.5" y1="8.18" x2="19.64" y2="8.18"/><line class="cls-1" x1="11.05" y1="8.18" x2="8.18" y2="8.18"/><line class="cls-1" x1="10.09" y1="5.32" x2="16.77" y2="5.32"/></svg>