<svg id="Layer_1" data-name="Layer 1" xmlns="http://www.w3.org/2000/svg" viewBox="0 0 24 24"><defs><style>.cls-1{fill:none;stroke:#020202;stroke-miterlimit:10;stroke-width:1.91px;}</style></defs><circle class="cls-1" cx="5.32" cy="18.68" r="1.91"/><circle class="cls-1" cx="18.68" cy="18.68" r="1.91"/><polyline class="cls-1" points="20.59 18.68 22.5 18.68 22.5 13.91 22.5 12.96 20.59 7.23 16.77 7.23 16.77 13.91 16.77 18.68"/><line class="cls-1" x1="19.64" y1="13.91" x2="22.5" y2="13.91"/><polyline class="cls-1" points="7.23 18.68 16.77 18.68 16.77 13.91 12.96 13.91 9.14 13.91 5.32 13.91 4.36 13.91 1.5 13.91 1.5 18.68 3.41 18.68"/><path class="cls-1" d="M10.09,13.91H7.23L1.5,10.09,3.41,3.41h6.68a3.82,3.82,0,0,1,3.82,3.82v2.86A3.82,3.82,0,0,1,10.09,13.91Z"/><line class="cls-1" x1="8.18" y1="3.41" x2="5.32" y2="12.95"/><line class="cls-1" x1="12" y1="4.36" x2="9.14" y2="13.91"/></svg>