<svg id="Layer_1" data-name="Layer 1" xmlns="http://www.w3.org/2000/svg" viewBox="0 0 24 24"><defs><style>.cls-1{fill:none;stroke:#020202;stroke-miterlimit:10;stroke-width:1.91px;}.cls-2{fill:#020202;}</style></defs><rect class="cls-1" x="5.48" y="11.56" width="7.05" height="8.77" transform="translate(-8.64 11.04) rotate(-45)"/><path class="cls-1" d="M13.65,15.6l7.86-7.86a3.38,3.38,0,0,0,1-2.39h0A3.37,3.37,0,0,0,19.13,2h0a3.34,3.34,0,0,0-2.39,1L8.87,10.83Z"/><path class="cls-1" d="M7.23,22l1.43-1.43L4.36,16.3,2.09,18.57A2,2,0,0,0,1.5,20h0a2,2,0,0,0,2,2Z"/><line class="cls-1" x1="9.14" y1="15.34" x2="2.45" y2="8.66"/><line class="cls-1" x1="10.09" y1="16.3" x2="11.05" y2="17.25"/><circle class="cls-2" cx="18.68" cy="5.8" r="0.95"/><circle class="cls-2" cx="13.91" cy="10.57" r="0.95"/></svg>