<svg id="Layer_1" data-name="Layer 1" xmlns="http://www.w3.org/2000/svg" viewBox="0 0 24 24"><defs><style>.cls-1{fill:none;stroke:#020202;stroke-miterlimit:10;stroke-width:1.91px;}</style></defs><path class="cls-1" d="M18.7,1.5H1.52V5.32H3.43v9.54H7.25V8.18a2.86,2.86,0,0,1,2.86-2.86H22.52A3.82,3.82,0,0,0,18.7,1.5Z"/><line class="cls-1" x1="13.93" y1="11.05" x2="23.48" y2="11.05"/><rect class="cls-1" x="16.8" y="11.05" width="3.82" height="3.82"/><rect class="cls-1" x="16.8" y="18.68" width="3.82" height="3.82"/><line class="cls-1" x1="23.48" y1="22.5" x2="13.93" y2="22.5"/><path class="cls-1" d="M3.43,14.86H20.61a1.91,1.91,0,0,1,1.91,1.91v1.91a0,0,0,0,1,0,0h-21a0,0,0,0,1,0,0V16.77A1.91,1.91,0,0,1,3.43,14.86Z"/></svg>