<svg id="Layer_1" data-name="Layer 1" xmlns="http://www.w3.org/2000/svg" viewBox="0 0 24 24"><defs><style>.cls-1{fill:none;stroke:#020202;stroke-miterlimit:10;stroke-width:1.91px;}</style></defs><line class="cls-1" x1="9.14" y1="6.27" x2="9.14" y2="1.5"/><line class="cls-1" x1="14.86" y1="6.27" x2="14.86" y2="1.5"/><line class="cls-1" x1="8.18" y1="10.09" x2="4.36" y2="10.09"/><line class="cls-1" x1="19.64" y1="10.09" x2="15.82" y2="10.09"/><path class="cls-1" d="M20.59,10.09h0A8.6,8.6,0,0,0,12,1.5h0a8.6,8.6,0,0,0-8.59,8.59h0a1.9,1.9,0,0,0-1.88,2.23,2,2,0,0,0,2,1.59h17a2,2,0,0,0,2-1.59A1.9,1.9,0,0,0,20.59,10.09Z"/><path class="cls-1" d="M4.36,13.91H19.64a0,0,0,0,1,0,0v1A7.64,7.64,0,0,1,12,22.5h0a7.64,7.64,0,0,1-7.64-7.64v-1A0,0,0,0,1,4.36,13.91Z"/></svg>