<svg id="Layer_1" data-name="Layer 1" xmlns="http://www.w3.org/2000/svg" viewBox="0 0 24 24"><defs><style>.cls-1{fill:none;stroke:#020202;stroke-miterlimit:10;stroke-width:1.91px;}</style></defs><rect class="cls-1" x="13.89" y="13.16" width="3.37" height="6.75" rx="1.69" transform="translate(16.25 -6.17) rotate(45)"/><rect class="cls-1" x="17.93" y="1.01" width="3.37" height="6.75" rx="1.69" transform="translate(36.59 -6.39) rotate(135)"/><path class="cls-1" d="M1.5,22.5l5.71-5.71a1.36,1.36,0,0,1,1.94,0L11,18.66a1.36,1.36,0,0,0,1.94,0h0"/><path class="cls-1" d="M18.68,5.32,15.84,8.16a1.38,1.38,0,0,0,0,1.95L17.71,12a1.38,1.38,0,0,1,0,1.95h0"/><line class="cls-1" x1="4.36" y1="16.77" x2="7.23" y2="19.64"/></svg>