<svg id="Layer_1" data-name="Layer 1" xmlns="http://www.w3.org/2000/svg" viewBox="0 0 24 24"><defs><style>.cls-1{fill:none;stroke:#020202;stroke-miterlimit:10;stroke-width:1.91px;}</style></defs><path class="cls-1" d="M7.2,1.5H18.66a3.82,3.82,0,0,1,3.82,3.82v0a3.82,3.82,0,0,1-3.82,3.82H7.2a0,0,0,0,1,0,0V1.5A0,0,0,0,1,7.2,1.5Z"/><line class="cls-1" x1="0.52" y1="5.32" x2="8.16" y2="5.32"/><path class="cls-1" d="M7.2,9.14H11a0,0,0,0,1,0,0V13a1.91,1.91,0,0,1-1.91,1.91h0A1.91,1.91,0,0,1,7.2,13V9.14A0,0,0,0,1,7.2,9.14Z"/><path class="cls-1" d="M15.8,18.68h4.77a1.91,1.91,0,0,1,1.91,1.91V22.5a0,0,0,0,1,0,0H13.89a0,0,0,0,1,0,0V20.59A1.91,1.91,0,0,1,15.8,18.68Z"/><polygon class="cls-1" points="21.52 18.68 16.75 18.68 14.84 9.14 19.61 9.14 21.52 18.68"/><line class="cls-1" x1="17.7" y1="1.5" x2="17.7" y2="4.36"/><line class="cls-1" x1="13.89" y1="1.5" x2="13.89" y2="4.36"/></svg>