<svg id="Layer_1" data-name="Layer 1" xmlns="http://www.w3.org/2000/svg" viewBox="0 0 24 24"><defs><style>.cls-1{fill:none;stroke:#020202;stroke-miterlimit:10;stroke-width:1.91px;}</style></defs><path class="cls-1" d="M5.32,17.73H7.23A3.82,3.82,0,0,1,11,21.55v0a0,0,0,0,1,0,0H1.5a0,0,0,0,1,0,0v0A3.82,3.82,0,0,1,5.32,17.73Z"/><path class="cls-1" d="M6.27,7.23H9.14A1.91,1.91,0,0,1,11,9.14v5.73a0,0,0,0,1,0,0H1.5a0,0,0,0,1,0,0V12A4.77,4.77,0,0,1,6.27,7.23Z"/><path class="cls-1" d="M11.05,9.14V13h7.07a4.8,4.8,0,0,1,1.91.4l.17.16a1.31,1.31,0,0,0,.95.4h0a1.35,1.35,0,0,0,1.35-1.35V10.49a1.34,1.34,0,0,0-1.35-1.35Z"/><line class="cls-1" x1="1.5" y1="11.05" x2="8.18" y2="11.05"/><path class="cls-1" d="M7.23,7.23V4.36A1.92,1.92,0,0,1,9.14,2.45H13a1.92,1.92,0,0,1,1.91,1.91V9.14H11.05"/><line class="cls-1" x1="6.27" y1="14.86" x2="6.27" y2="17.73"/></svg>