<svg id="Layer_1" data-name="Layer 1" xmlns="http://www.w3.org/2000/svg" viewBox="0 0 24 24"><defs><style>.cls-1{fill:none;stroke:#020202;stroke-miterlimit:10;stroke-width:1.95px;}</style></defs><path class="cls-1" d="M15.91,12,12,8.09l4.86-5.67A3.33,3.33,0,0,1,19.4,1.25h0A3.35,3.35,0,0,1,22.75,4.6h0a3.33,3.33,0,0,1-1.17,2.53Z"/><line class="cls-1" x1="10.54" y1="6.62" x2="17.38" y2="13.46"/><path class="cls-1" d="M4.92,16.66h0A2.07,2.07,0,0,1,7,18.73v2.76a0,0,0,0,1,0,0H2.85a0,0,0,0,1,0,0V18.73A2.07,2.07,0,0,1,4.92,16.66Z" transform="translate(14.93 2.11) rotate(45)"/><line class="cls-1" x1="13.96" y1="10.04" x2="7.12" y2="16.88"/></svg>