<svg id="Layer_1" data-name="Layer 1" xmlns="http://www.w3.org/2000/svg" viewBox="0 0 24 24"><defs><style>.cls-1{fill:none;stroke:#020202;stroke-miterlimit:10;stroke-width:1.91px;}</style></defs><rect class="cls-1" x="5.32" y="8.18" width="13.36" height="14.32"/><line class="cls-1" x1="20.59" y1="8.18" x2="3.41" y2="8.18"/><path class="cls-1" d="M12,1.5h0a6.68,6.68,0,0,1,6.68,6.68v0a0,0,0,0,1,0,0H5.32a0,0,0,0,1,0,0v0A6.68,6.68,0,0,1,12,1.5Z"/><path class="cls-1" d="M14.86,8.18H11.05V12a1.91,1.91,0,1,0,3.81,0v2.86a1.91,1.91,0,0,0,3.82,0V8.18Z"/><line class="cls-1" x1="14.86" y1="11.05" x2="14.86" y2="12.95"/></svg>