<svg id="Layer_1" data-name="Layer 1" xmlns="http://www.w3.org/2000/svg" viewBox="0 0 24 24"><defs><style>.cls-1{fill:none;stroke:#020202;stroke-miterlimit:10;stroke-width:1.91px;}</style></defs><path class="cls-1" d="M15.82,12,12,8.18l4.75-5.54A3.28,3.28,0,0,1,19.23,1.5h0A3.26,3.26,0,0,1,22.5,4.77h0a3.28,3.28,0,0,1-1.14,2.48Z"/><line class="cls-1" x1="10.57" y1="6.75" x2="17.25" y2="13.43"/><path class="cls-1" d="M9.88,22.5h0A1.8,1.8,0,0,1,8.61,22L2,15.39a1.8,1.8,0,0,1-.53-1.27h0a1.81,1.81,0,0,1,1.06-1.65L12,8.18,15.82,12l-4.29,9.44A1.81,1.81,0,0,1,9.88,22.5Z"/><line class="cls-1" x1="4.36" y1="12" x2="12" y2="19.64"/></svg>