<svg id="Layer_1" data-name="Layer 1" xmlns="http://www.w3.org/2000/svg" viewBox="0 0 24 24"><defs><style>.cls-1{fill:none;stroke:#020202;stroke-miterlimit:10;stroke-width:1.91px;}</style></defs><path class="cls-1" d="M21.55,8.18V22.5H14.86A2.86,2.86,0,0,1,12,19.64h0A2.86,2.86,0,0,1,9.14,22.5H2.45V8.18A2.86,2.86,0,0,0,5.32,5.32V1.5H18.68V5.32A2.86,2.86,0,0,0,21.55,8.18Z"/><polygon class="cls-1" points="12 10.09 8.18 1.5 15.82 1.5 12 10.09"/><line class="cls-1" x1="12" y1="19.64" x2="12" y2="10.09"/><line class="cls-1" x1="2.45" y1="12.95" x2="9.14" y2="12.95"/><line class="cls-1" x1="2.45" y1="17.73" x2="9.14" y2="17.73"/><line class="cls-1" x1="14.86" y1="12.95" x2="21.55" y2="12.95"/><line class="cls-1" x1="14.86" y1="17.73" x2="21.55" y2="17.73"/></svg>