<svg id="Layer_1" data-name="Layer 1" xmlns="http://www.w3.org/2000/svg" viewBox="0 0 24 24"><defs><style>.cls-1{fill:none;stroke:#020202;stroke-miterlimit:10;stroke-width:1.91px;}</style></defs><path class="cls-1" d="M14,8.44,1.5,12v3.82h21v-.94a6.7,6.7,0,0,0-6.7-6.7h0A6.76,6.76,0,0,0,14,8.44Z"/><path class="cls-1" d="M1.5,15.82V7.23A2.87,2.87,0,0,1,4.36,4.36h7.16a2.87,2.87,0,0,1,2.29,1.15l2,2.67"/><path class="cls-1" d="M15.82,12h0a2.86,2.86,0,0,1,2.86,2.86v1a0,0,0,0,1,0,0H13a0,0,0,0,1,0,0v-1A2.86,2.86,0,0,1,15.82,12Z"/><path class="cls-1" d="M5.32,15.82H18.68a3.82,3.82,0,0,1,3.82,3.82v0a0,0,0,0,1,0,0H1.5a0,0,0,0,1,0,0v0a3.82,3.82,0,0,1,3.82-3.82Z"/><line class="cls-1" x1="19.64" y1="5.32" x2="22.5" y2="8.18"/><line class="cls-1" x1="18.68" y1="9.14" x2="21.07" y2="6.75"/></svg>