<svg id="Layer_1" data-name="Layer 1" xmlns="http://www.w3.org/2000/svg" viewBox="0 0 24 24"><defs><style>.cls-1{fill:none;stroke:#020202;stroke-miterlimit:10;stroke-width:1.95px;}</style></defs><polygon class="cls-1" points="20.23 12.66 19.22 14.29 17.17 14.31 16.08 16.04 14.04 16.07 12.96 17.8 10.92 17.83 9.83 19.56 7.79 19.59 6.72 21.32 4.92 21.77 1.5 18.35 13.71 6.14 20.23 12.66"/><path class="cls-1" d="M13.71,6.14l3.22-3.22a2.36,2.36,0,0,1,1.66-.69h0a2.36,2.36,0,0,1,1.67.69l1.55,1.55a2.36,2.36,0,0,1,.69,1.67h0a2.4,2.4,0,0,1-.69,1.67L18.59,11,13.71,6.14"/></svg>