<svg id="Layer_1" data-name="Layer 1" xmlns="http://www.w3.org/2000/svg" viewBox="0 0 24 24"><defs><style>.cls-1{fill:none;stroke:#020202;stroke-miterlimit:10;stroke-width:1.91px;}</style></defs><path class="cls-1" d="M12,1.5V8.18A1.91,1.91,0,0,0,10.1,10a3.81,3.81,0,0,1-2.87-3.7A4.75,4.75,0,0,1,12,1.5Z"/><path class="cls-1" d="M16.77,6.27A3.81,3.81,0,0,1,13.9,10,1.91,1.91,0,0,0,12,8.18V1.5a4.75,4.75,0,0,1,4.77,4.77Z"/><path class="cls-1" d="M13.91,10.09a1.58,1.58,0,0,1,0,.38,1.91,1.91,0,0,1-3.74,0,1.58,1.58,0,0,1,0-.38.45.45,0,0,1,0-.12,1.9,1.9,0,0,1,3.8,0A.45.45,0,0,1,13.91,10.09Z"/><path class="cls-1" d="M10.12,9.46a5.73,5.73,0,0,0-3.85,5.4v5.73A1.93,1.93,0,0,0,8.18,22.5a1.91,1.91,0,0,0,1.91-1.91V15.45a11.26,11.26,0,0,1,1-4.63"/><path class="cls-1" d="M13.88,9.46a5.73,5.73,0,0,1,3.85,5.4v5.73a1.93,1.93,0,0,1-1.91,1.91,1.91,1.91,0,0,1-1.91-1.91V15.45a11.26,11.26,0,0,0-1-4.63"/></svg>