<svg id="Layer_1" data-name="Layer 1" xmlns="http://www.w3.org/2000/svg" viewBox="0 0 24 24"><defs><style>.cls-1{fill:none;stroke:#020202;stroke-miterlimit:10;stroke-width:1.91px;}</style></defs><path class="cls-1" d="M15.82,12,12,8.18l4.75-5.54A3.28,3.28,0,0,1,19.23,1.5h0A3.26,3.26,0,0,1,22.5,4.77h0a3.28,3.28,0,0,1-1.14,2.48Z"/><line class="cls-1" x1="10.57" y1="6.75" x2="17.25" y2="13.43"/><path class="cls-1" d="M13,13.91l-2.86-2.86L3.16,15.67a3.71,3.71,0,0,0-1.66,3.1h0A3.73,3.73,0,0,0,5.23,22.5h0a3.71,3.71,0,0,0,3.1-1.66Z"/><polygon class="cls-1" points="15.82 12 12.96 13.91 10.09 11.04 12 8.18 15.82 12"/></svg>