<svg id="Layer_1" data-name="Layer 1" xmlns="http://www.w3.org/2000/svg" viewBox="0 0 24 24"><defs><style>.cls-1{fill:none;stroke:#020202;stroke-miterlimit:10;stroke-width:1.91px;}</style></defs><path class="cls-1" d="M14.86,11.07H9.14L7.23,9.16V3.43A1.91,1.91,0,0,1,9.14,1.52h5.72a1.91,1.91,0,0,1,1.91,1.91V9.16Z"/><path class="cls-1" d="M9.14,11.07h5.73a0,0,0,0,1,0,0V13A2.86,2.86,0,0,1,12,15.84h0A2.86,2.86,0,0,1,9.14,13V11.07A0,0,0,0,1,9.14,11.07Z"/><line class="cls-1" x1="12" y1="23.48" x2="12" y2="15.84"/><line class="cls-1" x1="1.5" y1="3.43" x2="7.23" y2="3.43"/><line class="cls-1" x1="16.77" y1="3.43" x2="22.5" y2="3.43"/><line class="cls-1" x1="12" y1="6.3" x2="12" y2="11.07"/><line class="cls-1" x1="10.09" y1="6.3" x2="13.91" y2="6.3"/><line class="cls-1" x1="2.45" y1="1.52" x2="2.45" y2="5.34"/><line class="cls-1" x1="21.55" y1="1.52" x2="21.55" y2="5.34"/></svg>