<svg id="Layer_1" data-name="Layer 1" xmlns="http://www.w3.org/2000/svg" viewBox="0 0 24 24"><defs><style>.cls-1{fill:none;stroke:#020202;stroke-miterlimit:10;stroke-width:1.91px;}</style></defs><path class="cls-1" d="M12.13,3.41h-.26a1.48,1.48,0,0,0-1.26.7L1.73,18.32a1.48,1.48,0,0,0-.23.79h0A1.48,1.48,0,0,0,3,20.59H21a1.48,1.48,0,0,0,1.48-1.48h0a1.48,1.48,0,0,0-.23-.79L13.39,4.11A1.48,1.48,0,0,0,12.13,3.41Z"/><line class="cls-1" x1="12" y1="8.18" x2="12" y2="13.91"/><line class="cls-1" x1="12" y1="15.82" x2="12" y2="17.73"/></svg>