<svg id="Layer_1" data-name="Layer 1" xmlns="http://www.w3.org/2000/svg" viewBox="0 0 24 24"><defs><style>.cls-1{fill:none;stroke:#020202;stroke-miterlimit:10;stroke-width:1.91px;}</style></defs><polygon class="cls-1" points="22.5 3.41 22.5 12.31 20.59 11.04 17.73 12.96 14.86 11.04 11.99 12.96 9.14 11.04 6.27 12.96 3.41 11.04 1.5 12.31 1.5 1.5 10.09 1.5 11.96 3.41 22.5 3.41"/><path class="cls-1" d="M20.59,14.86l1.91,1.27v4.46a1.92,1.92,0,0,1-1.91,1.91H3.41A1.92,1.92,0,0,1,1.5,20.59V16.13l1.91-1.27,2.86,1.91,2.87-1.91L12,16.77l2.87-1.91,2.87,1.91Z"/><line class="cls-1" x1="1.5" y1="7.23" x2="22.5" y2="7.23"/><polyline class="cls-1" points="1.5 12.31 3.41 11.04 6.27 12.96 9.14 11.04 11.99 12.96 14.86 11.04 17.73 12.96 20.59 11.04 22.5 12.31"/><polyline class="cls-1" points="1.5 16.13 3.41 14.86 6.27 16.77 9.14 14.86 11.99 16.77 14.86 14.86 17.73 16.77 20.59 14.86 22.5 16.13"/></svg>