<svg id="Layer_1" data-name="Layer 1" xmlns="http://www.w3.org/2000/svg" viewBox="0 0 24 24"><defs><style>.cls-1{fill:none;stroke:#020202;stroke-miterlimit:10;stroke-width:1.91px;}</style></defs><line class="cls-1" x1="17.73" y1="14.86" x2="14.86" y2="14.86"/><line class="cls-1" x1="9.14" y1="14.86" x2="6.27" y2="14.86"/><polygon class="cls-1" points="20.59 6.27 20.59 22.5 3.41 22.5 3.41 1.5 15.82 1.5 20.59 6.27"/><polygon class="cls-1" points="20.59 6.27 20.59 7.23 14.86 7.23 14.86 1.5 15.82 1.5 20.59 6.27"/><path class="cls-1" d="M7.23,10.09v1A1.91,1.91,0,0,0,9.14,13"/><path class="cls-1" d="M16.77,10.09v1A1.91,1.91,0,0,1,14.86,13"/><path class="cls-1" d="M7.23,19.64v-1a1.92,1.92,0,0,1,1.91-1.91"/><path class="cls-1" d="M16.77,19.64v-1a1.92,1.92,0,0,0-1.91-1.91"/><rect class="cls-1" x="9.14" y="11.05" width="5.73" height="7.64" rx="2.86"/></svg>