<svg id="Layer_1" data-name="Layer 1" xmlns="http://www.w3.org/2000/svg" viewBox="0 0 24 24"><defs><style>.cls-1{fill:none;stroke:#020202;stroke-miterlimit:10;stroke-width:1.91px;}</style></defs><path class="cls-1" d="M9.14,16.77h3.34a1.43,1.43,0,0,0,1.43-1.43h0a1.43,1.43,0,0,0-1.43-1.43h-1a1.43,1.43,0,0,1-1.43-1.43h0a1.43,1.43,0,0,1,1.43-1.43h3.34"/><line class="cls-1" x1="12" y1="8.18" x2="12" y2="11.05"/><line class="cls-1" x1="12" y1="16.77" x2="12" y2="19.64"/><polygon class="cls-1" points="20.59 6.27 20.59 22.5 3.41 22.5 3.41 1.5 15.82 1.5 20.59 6.27"/><polygon class="cls-1" points="20.59 6.27 20.59 7.23 14.86 7.23 14.86 1.5 15.82 1.5 20.59 6.27"/></svg>