<svg id="Layer_1" data-name="Layer 1" xmlns="http://www.w3.org/2000/svg" viewBox="0 0 24 24"><defs><style>.cls-1{fill:none;stroke:#020202;stroke-miterlimit:10;stroke-width:1.91px;}</style></defs><path class="cls-1" d="M9.14,17.73h3.34a1.43,1.43,0,0,0,1.43-1.43h0a1.43,1.43,0,0,0-1.43-1.44h-1a1.43,1.43,0,0,1-1.43-1.43h0A1.43,1.43,0,0,1,11.52,12h3.34"/><line class="cls-1" x1="12" y1="10.09" x2="12" y2="12"/><line class="cls-1" x1="12" y1="17.73" x2="12" y2="19.64"/><path class="cls-1" d="M12,3.41,10.09,1.5H1.5V20.59A1.9,1.9,0,0,0,3.41,22.5H20.59a1.9,1.9,0,0,0,1.91-1.91V3.41Z"/><line class="cls-1" x1="1.5" y1="7.23" x2="22.5" y2="7.23"/></svg>