<svg id="Layer_1" data-name="Layer 1" xmlns="http://www.w3.org/2000/svg" viewBox="0 0 24 24"><defs><style>.cls-1{fill:none;stroke:#020202;stroke-miterlimit:10;stroke-width:1.91px;}</style></defs><path class="cls-1" d="M12,3.41,10.09,1.5H1.5V20.59A1.9,1.9,0,0,0,3.41,22.5H20.59a1.9,1.9,0,0,0,1.91-1.91V3.41Z"/><circle class="cls-1" cx="12" cy="14.86" r="2.86"/><line class="cls-1" x1="12" y1="12" x2="12" y2="10.09"/><line class="cls-1" x1="12" y1="19.64" x2="12" y2="17.73"/><line class="cls-1" x1="12" y1="12" x2="12" y2="10.09"/><line class="cls-1" x1="12" y1="19.64" x2="12" y2="17.73"/><line class="cls-1" x1="9.52" y1="13.43" x2="7.87" y2="12.48"/><line class="cls-1" x1="16.13" y1="17.25" x2="14.48" y2="16.3"/><line class="cls-1" x1="9.52" y1="13.43" x2="7.87" y2="12.48"/><line class="cls-1" x1="16.13" y1="17.25" x2="14.48" y2="16.3"/><line class="cls-1" x1="14.48" y1="13.43" x2="16.13" y2="12.48"/><line class="cls-1" x1="7.87" y1="17.25" x2="9.52" y2="16.3"/><line class="cls-1" x1="14.48" y1="13.43" x2="16.13" y2="12.48"/><line class="cls-1" x1="7.87" y1="17.25" x2="9.52" y2="16.3"/><line class="cls-1" x1="1.5" y1="7.23" x2="22.5" y2="7.23"/></svg>