<svg id="Layer_1" data-name="Layer 1" xmlns="http://www.w3.org/2000/svg" viewBox="0 0 24 24"><defs><style>.cls-1{fill:none;stroke:#020202;stroke-miterlimit:10;stroke-width:1.91px;}</style></defs><path class="cls-1" d="M7.23,17.73h3.34A1.43,1.43,0,0,0,12,16.3h0a1.43,1.43,0,0,0-1.43-1.44h-1a1.43,1.43,0,0,1-1.43-1.43h0A1.43,1.43,0,0,1,9.61,12H13"/><line class="cls-1" x1="10.09" y1="10.09" x2="10.09" y2="12"/><line class="cls-1" x1="10.09" y1="17.73" x2="10.09" y2="19.64"/><path class="cls-1" d="M20.59,22.5H3.41A1.92,1.92,0,0,1,1.5,20.59V7.23H18.68V20.59A1.92,1.92,0,0,0,20.59,22.5Z"/><path class="cls-1" d="M22.5,3.41V20.59a1.91,1.91,0,0,1-3.82,0V7.23H5.32V1.5h9.54l1.87,1.91Z"/></svg>