<svg id="Layer_1" data-name="Layer 1" xmlns="http://www.w3.org/2000/svg" viewBox="0 0 24 24"><defs><style>.cls-1{fill:none;stroke:#020202;stroke-miterlimit:10;stroke-width:1.91px;}</style></defs><path class="cls-1" d="M6.27,17.73a1,1,0,1,1,1,.95,1,1,0,0,1-1-.95"/><circle class="cls-1" cx="12.95" cy="16.77" r="0.95"/><polyline class="cls-1" points="13.91 16.77 13.91 11.04 8.18 12 8.18 17.73"/><path class="cls-1" d="M20.59,22.5H3.41A1.92,1.92,0,0,1,1.5,20.59V7.23H18.68V20.59A1.92,1.92,0,0,0,20.59,22.5Z"/><path class="cls-1" d="M22.5,3.41V20.59a1.91,1.91,0,0,1-3.82,0V7.23H5.32V1.5h9.54l1.87,1.91Z"/></svg>