<svg id="Layer_1" data-name="Layer 1" xmlns="http://www.w3.org/2000/svg" viewBox="0 0 24 24"><defs><style>.cls-1{fill:none;stroke:#020202;stroke-miterlimit:10;stroke-width:1.91px;}</style></defs><polygon class="cls-1" points="4.36 13.91 1.5 12 1.5 7.23 18.68 7.23 18.68 12 15.82 13.91 12.96 12 10.08 13.91 7.23 12 4.36 13.91"/><path class="cls-1" d="M20.59,22.5H3.41A1.92,1.92,0,0,1,1.5,20.59V15.82l2.86,1.91,2.87-1.91,2.85,1.91L13,15.82l2.87,1.91,2.86-1.91v4.77A1.92,1.92,0,0,0,20.59,22.5Z"/><path class="cls-1" d="M18.68,12V7.23H5.32V1.5h9.54l1.87,1.91H22.5V20.59a1.91,1.91,0,0,1-3.82,0V15.82"/><polyline class="cls-1" points="1.5 12 4.36 13.91 7.23 12 10.08 13.91 12.96 12 15.82 13.91 18.68 12"/><polyline class="cls-1" points="1.5 15.82 4.36 17.73 7.23 15.82 10.08 17.73 12.96 15.82 15.82 17.73 18.68 15.82"/></svg>