<svg id="Layer_1" data-name="Layer 1" xmlns="http://www.w3.org/2000/svg" viewBox="0 0 24 24"><defs><style>.cls-1{fill:none;stroke:#020202;stroke-miterlimit:10;stroke-width:1.91px;}</style></defs><path class="cls-1" d="M16.77,13.74a2.62,2.62,0,0,0-2.54-2.69,2.53,2.53,0,0,0-2.12,1.2A2.5,2.5,0,0,0,10,11.05a2.62,2.62,0,0,0-2.54,2.69c0,3.15,4.66,4.94,4.66,4.94S16.77,16.89,16.77,13.74Z"/><polygon class="cls-1" points="20.59 6.27 20.59 22.5 3.41 22.5 3.41 1.5 15.82 1.5 20.59 6.27"/><polygon class="cls-1" points="20.59 6.27 20.59 7.23 14.86 7.23 14.86 1.5 15.82 1.5 20.59 6.27"/></svg>