<svg id="Layer_1" data-name="Layer 1" xmlns="http://www.w3.org/2000/svg" viewBox="0 0 24 24"><defs><style>.cls-1{fill:none;stroke:#020202;stroke-miterlimit:10;stroke-width:1.91px;}</style></defs><rect class="cls-1" x="8.18" y="12.95" width="7.64" height="5.73"/><path class="cls-1" d="M12,9.14h0A1.91,1.91,0,0,1,13.91,11V13a0,0,0,0,1,0,0H10.09a0,0,0,0,1,0,0V11A1.91,1.91,0,0,1,12,9.14Z"/><polyline class="cls-1" points="15.82 2.46 15.82 2.46 20.59 2.46 20.59 22.5 3.41 22.5 3.41 2.46 8.18 2.46 8.18 2.46"/><path class="cls-1" d="M15.82,1.5V3.41a1.92,1.92,0,0,1-1.91,1.91H10.09A1.92,1.92,0,0,1,8.18,3.41V1.5Z"/></svg>