<svg id="Layer_1" data-name="Layer 1" xmlns="http://www.w3.org/2000/svg" viewBox="0 0 24 24"><defs><style>.cls-1{fill:none;stroke:#020202;stroke-miterlimit:10;stroke-width:1.91px;}</style></defs><rect class="cls-1" x="8.18" y="13.91" width="7.64" height="4.77"/><path class="cls-1" d="M12,10.09h0A1.91,1.91,0,0,1,13.91,12v1.91a0,0,0,0,1,0,0H10.09a0,0,0,0,1,0,0V12A1.91,1.91,0,0,1,12,10.09Z"/><polygon class="cls-1" points="20.59 6.27 20.59 22.5 3.41 22.5 3.41 1.5 15.82 1.5 20.59 6.27"/><polygon class="cls-1" points="20.59 6.27 20.59 7.23 14.86 7.23 14.86 1.5 15.82 1.5 20.59 6.27"/></svg>