<svg id="Layer_1" data-name="Layer 1" xmlns="http://www.w3.org/2000/svg" viewBox="0 0 24 24"><defs><style>.cls-1{fill:none;stroke:#020202;stroke-miterlimit:10;stroke-width:1.91px;}</style></defs><polyline class="cls-1" points="15.82 2.46 15.82 2.46 20.59 2.46 20.59 22.5 3.41 22.5 3.41 2.46 8.18 2.46 8.18 2.46"/><path class="cls-1" d="M15.82,1.5V3.41a1.92,1.92,0,0,1-1.91,1.91H10.09A1.92,1.92,0,0,1,8.18,3.41V1.5Z"/><path class="cls-1" d="M12,15.82V14.7a1.9,1.9,0,0,1,.56-1.35l.79-.79a1.9,1.9,0,0,0,.56-1.35v-.16A1.91,1.91,0,0,0,12,9.14h0a1.91,1.91,0,0,0-1.91,1.91"/><line class="cls-1" x1="11.05" y1="17.73" x2="12.95" y2="17.73"/></svg>