<svg id="Layer_1" data-name="Layer 1" xmlns="http://www.w3.org/2000/svg" viewBox="0 0 24 24"><defs><style>.cls-1{fill:none;stroke:#020202;stroke-miterlimit:10;stroke-width:1.91px;}</style></defs><path class="cls-1" d="M10.09,13A1.91,1.91,0,0,1,12,11.05h0A1.91,1.91,0,0,1,13.91,13v.17a1.92,1.92,0,0,1-.56,1.35l-.79.79A1.9,1.9,0,0,0,12,16.61v.16"/><path class="cls-1" d="M12,3.41,10.09,1.5H1.5V20.59A1.9,1.9,0,0,0,3.41,22.5H20.59a1.9,1.9,0,0,0,1.91-1.91V3.41Z"/><line class="cls-1" x1="1.5" y1="7.23" x2="22.5" y2="7.23"/><line class="cls-1" x1="11.05" y1="18.68" x2="12.95" y2="18.68"/></svg>