<svg id="Layer_1" data-name="Layer 1" xmlns="http://www.w3.org/2000/svg" viewBox="0 0 24 24"><defs><style>.cls-1{fill:none;stroke:#020202;stroke-miterlimit:10;stroke-width:1.91px;}</style></defs><polyline class="cls-1" points="20.59 12.26 20.59 6.27 15.82 1.5 3.41 1.5 3.41 11.74"/><polygon class="cls-1" points="20.59 6.27 20.59 7.23 14.86 7.23 14.86 1.5 15.82 1.5 20.59 6.27"/><line class="cls-1" x1="0.55" y1="12" x2="23.45" y2="12"/><path class="cls-1" d="M.55,22.5h0a2.86,2.86,0,0,0,2.86-2.86V12"/><path class="cls-1" d="M23.45,22.5h0a2.86,2.86,0,0,1-2.86-2.86V12"/><line class="cls-1" x1="7.23" y1="12" x2="7.23" y2="18.68"/><line class="cls-1" x1="12" y1="12" x2="12" y2="20.59"/><line class="cls-1" x1="16.77" y1="12" x2="16.77" y2="17.73"/><line class="cls-1" x1="7.23" y1="20.59" x2="7.23" y2="22.5"/><line class="cls-1" x1="11.05" y1="22.5" x2="12.95" y2="22.5"/><line class="cls-1" x1="15.82" y1="19.64" x2="17.73" y2="19.64"/></svg>