<svg id="Layer_1" data-name="Layer 1" xmlns="http://www.w3.org/2000/svg" viewBox="0 0 24 24"><defs><style>.cls-1{fill:none;stroke:#020202;stroke-miterlimit:10;stroke-width:1.91px;}</style></defs><polyline class="cls-1" points="15.82 2.46 15.82 2.46 20.59 2.46 20.59 22.5 3.41 22.5 3.41 2.46 8.18 2.46 8.18 2.46"/><path class="cls-1" d="M15.82,1.5V3.41a1.92,1.92,0,0,1-1.91,1.91H10.09A1.92,1.92,0,0,1,8.18,3.41V1.5Z"/><circle class="cls-1" cx="12" cy="12" r="1.91"/><path class="cls-1" d="M12,13.91h0a2.86,2.86,0,0,1,2.86,2.86v1a0,0,0,0,1,0,0H9.14a0,0,0,0,1,0,0v-1A2.86,2.86,0,0,1,12,13.91Z"/></svg>