<svg id="Layer_1" data-name="Layer 1" xmlns="http://www.w3.org/2000/svg" viewBox="0 0 24 24"><defs><style>.cls-1{fill:none;stroke:#020202;stroke-miterlimit:10;stroke-width:1.91px;}</style></defs><path class="cls-1" d="M7.93,12C8.05,7.37,9.1,1.5,11.9,1.5c2.45,0,2.88,5.15,3,8.58"/><path class="cls-1" d="M15.13,15.09c.3,2.14.75,4.22.75,5.5s.23,1.91-2,1.91c-1.65,0-4.68-3.23-5.65-7.1"/><path class="cls-1" d="M10.9,13s-3,0-3,4.78-2.09,1.7-3,0c-1-1.91-1-5.73,2-5.73S10.9,13,10.9,13Z"/><path class="cls-1" d="M10.9,13s2.74-1.39,4.66,3,2.85.71,3.07-1.24c.26-2.17-1.28-5.69-4.35-4.46S10.9,13,10.9,13Z"/><path class="cls-1" d="M11,13s1,3.82,1.91,4.78"/></svg>