<svg id="Layer_1" data-name="Layer 1" xmlns="http://www.w3.org/2000/svg" viewBox="0 0 24 24"><defs><style>.cls-1{fill:none;stroke:#020202;stroke-miterlimit:10;stroke-width:1.91px;}</style></defs><path class="cls-1" d="M13,9.14A3.81,3.81,0,0,0,9.14,5.32H5.32A3.82,3.82,0,0,0,1.5,9.14a1.91,1.91,0,0,0,1,1.64v5.77a2.13,2.13,0,0,0,2.14,2.13H9.87A2.13,2.13,0,0,0,12,16.55V10.78A1.89,1.89,0,0,0,13,9.14Z"/><path class="cls-1" d="M14.86,5.32h3.82A3.82,3.82,0,0,1,22.5,9.14a1.89,1.89,0,0,1-.95,1.64v5.76a2.14,2.14,0,0,1-2.14,2.14H14.14"/><line class="cls-1" x1="12" y1="16.54" x2="12" y2="10.78"/><line class="cls-1" x1="6.27" y1="5.32" x2="16.77" y2="5.32"/><line class="cls-1" x1="7.23" y1="18.68" x2="15.82" y2="18.68"/><line class="cls-1" x1="12" y1="11.05" x2="18.68" y2="11.05"/></svg>