<svg id="Layer_1" data-name="Layer 1" xmlns="http://www.w3.org/2000/svg" viewBox="0 0 24 24"><defs><style>.cls-1{fill:none;stroke:#020202;stroke-miterlimit:10;stroke-width:1.91px;}</style></defs><rect class="cls-1" x="5.32" y="18.68" width="17.18" height="3.82"/><rect class="cls-1" x="5.32" y="14.86" width="17.18" height="3.82"/><path class="cls-1" d="M6.27,11H22.5a0,0,0,0,1,0,0v3.82a0,0,0,0,1,0,0H5.32a0,0,0,0,1,0,0V12A1,1,0,0,1,6.27,11Z"/><path class="cls-1" d="M5.32,7.23h0A3.82,3.82,0,0,0,1.5,11.05V22.5H5.32V12a1,1,0,0,1,.95-.95H22.5V7.23Z"/><path class="cls-1" d="M11.05,4.94A2.34,2.34,0,0,1,8.66,7.23,2.34,2.34,0,0,1,6.27,4.94c0-1.27,1.07-3.44,2.39-3.44S11.05,3.67,11.05,4.94Z"/><path class="cls-1" d="M15.82,4.94a2.39,2.39,0,0,1-4.77,0c0-1.27,1.06-3.44,2.38-3.44S15.82,3.67,15.82,4.94Z"/><path class="cls-1" d="M20.59,4.94a2.39,2.39,0,0,1-4.77,0c0-1.27,1.07-3.44,2.38-3.44S20.59,3.67,20.59,4.94Z"/></svg>