<svg id="Layer_1" data-name="Layer 1" xmlns="http://www.w3.org/2000/svg" viewBox="0 0 24 24"><defs><style>.cls-1{fill:none;stroke:#020202;stroke-miterlimit:10;stroke-width:1.92px;}</style></defs><line class="cls-1" x1="0.5" y1="16.79" x2="23.5" y2="16.79"/><path class="cls-1" d="M2.42,16.79H21.58a0,0,0,0,1,0,0V17a3.65,3.65,0,0,1-3.65,3.65H6.07A3.65,3.65,0,0,1,2.42,17v-.18A0,0,0,0,1,2.42,16.79Z"/><path class="cls-1" d="M12,7.21h0a9.58,9.58,0,0,1,9.58,9.58v0a0,0,0,0,1,0,0H2.42a0,0,0,0,1,0,0v0A9.58,9.58,0,0,1,12,7.21Z"/><circle class="cls-1" cx="12" cy="5.29" r="1.92"/></svg>