<svg id="Layer_1" data-name="Layer 1" xmlns="http://www.w3.org/2000/svg" viewBox="0 0 24 24"><defs><style>.cls-1{fill:none;stroke:#020202;stroke-miterlimit:10;stroke-width:1.91px;}</style></defs><rect class="cls-1" x="1.5" y="1.5" width="15.27" height="21"/><rect class="cls-1" x="16.77" y="1.5" width="5.73" height="21"/><path class="cls-1" d="M5.32,13.91H6.75A2.39,2.39,0,0,1,9.14,16.3v1.43a0,0,0,0,1,0,0H7.7a2.39,2.39,0,0,1-2.39-2.39V13.91A0,0,0,0,1,5.32,13.91Z"/><path class="cls-1" d="M11.52,13.91H13a0,0,0,0,1,0,0v1.43a2.39,2.39,0,0,1-2.39,2.39H9.14a0,0,0,0,1,0,0V16.3A2.39,2.39,0,0,1,11.52,13.91Z" transform="translate(22.09 31.64) rotate(180)"/><path class="cls-1" d="M5.32,10.09H6.75a2.39,2.39,0,0,1,2.39,2.39v1.43a0,0,0,0,1,0,0H7.7a2.39,2.39,0,0,1-2.39-2.39V10.09A0,0,0,0,1,5.32,10.09Z"/><path class="cls-1" d="M11.52,10.09H13a0,0,0,0,1,0,0v1.43a2.39,2.39,0,0,1-2.39,2.39H9.14a0,0,0,0,1,0,0V12.48a2.39,2.39,0,0,1,2.39-2.39Z" transform="translate(22.09 24) rotate(180)"/><path class="cls-1" d="M9.61,6.27H11a0,0,0,0,1,0,0V7.7a2.39,2.39,0,0,1-2.39,2.39H7.23a0,0,0,0,1,0,0V8.66A2.39,2.39,0,0,1,9.61,6.27Z" transform="translate(21.38 7.51) rotate(135)"/><line class="cls-1" x1="9.14" y1="20.59" x2="9.14" y2="17.73"/><path class="cls-1" d="M1.5,1.5H5.32a0,0,0,0,1,0,0v1A2.86,2.86,0,0,1,2.45,5.32h-1a0,0,0,0,1,0,0V1.5A0,0,0,0,1,1.5,1.5Z"/><line class="cls-1" x1="16.77" y1="18.68" x2="22.5" y2="18.68"/><line class="cls-1" x1="16.77" y1="5.32" x2="22.5" y2="5.32"/></svg>