<svg id="Layer_1" data-name="Layer 1" xmlns="http://www.w3.org/2000/svg" viewBox="0 0 24 24"><defs><style>.cls-1{fill:none;stroke:#020202;stroke-linecap:round;stroke-linejoin:round;stroke-width:1.91px;}</style></defs><path class="cls-1" d="M8.15,17.79a15.1,15.1,0,0,0-1.06,3.14,1.94,1.94,0,0,1-3.22,1l0,0c-1.72-1.72-2.19-4.35-1.56-7.19a1.69,1.69,0,0,0,.36.23L7.58,17.6A2,2,0,0,0,8.15,17.79Z"/><path class="cls-1" d="M22,3.84l0,0a1.94,1.94,0,0,1-1,3.22,15.1,15.1,0,0,0-3.14,1.06,2,2,0,0,0-.19-.57L15,2.64a1.69,1.69,0,0,0-.23-.36C17.6,1.65,20.23,2.12,22,3.84Z"/><path class="cls-1" d="M12,15.31l-1.91,1.91a2.1,2.1,0,0,1-1.93.57,2,2,0,0,1-.57-.19L2.64,15a1.69,1.69,0,0,1-.36-.23,2.14,2.14,0,0,1-.16-3.16L3.76,10a1.94,1.94,0,0,0,.25.57,2.13,2.13,0,0,0,.75.74l5.44,3.1,1.29.74A1.94,1.94,0,0,0,12,15.31Z"/><path class="cls-1" d="M14.76,2.28a1.69,1.69,0,0,1,.23.36L17.6,7.58a2,2,0,0,1,.19.57,2.1,2.1,0,0,1-.57,1.93L15.31,12a1.94,1.94,0,0,0-.2-.5l-.74-1.29-3.1-5.44A2.13,2.13,0,0,0,10.53,4,1.94,1.94,0,0,0,10,3.76L11.6,2.12A2.14,2.14,0,0,1,14.76,2.28Z"/><path class="cls-1" d="M11.27,4.76l3.1,5.44.74,1.29a1.94,1.94,0,0,1,.2.5,2.11,2.11,0,0,1-.55,2.06l-.71.71a2.11,2.11,0,0,1-2.06.55,1.94,1.94,0,0,1-.5-.2l-1.29-.74-5.44-3.1A2.13,2.13,0,0,1,4,10.53,1.94,1.94,0,0,1,3.76,10,2.14,2.14,0,0,1,4.31,7.9L7.9,4.31A2.14,2.14,0,0,1,10,3.76a1.94,1.94,0,0,1,.57.25A2.13,2.13,0,0,1,11.27,4.76Z"/></svg>