<svg id="Layer_1" data-name="Layer 1" xmlns="http://www.w3.org/2000/svg" viewBox="0 0 24 24"><defs><style>.cls-1{fill:none;stroke:#020202;stroke-miterlimit:10;stroke-width:1.91px;}</style></defs><path class="cls-1" d="M14.81,15.46h0a3.81,3.81,0,0,0,0-.59,2.86,2.86,0,0,0-5.72,0,3.81,3.81,0,0,0,0,.59h0"/><path class="cls-1" d="M14.86,14.86a2.87,2.87,0,0,1,5.73,0L17.73,22.5H6.27L3.41,14.86a2.87,2.87,0,0,1,5.73,0"/><line class="cls-1" x1="9.14" y1="14.86" x2="10.09" y2="22.5"/><line class="cls-1" x1="14.86" y1="14.86" x2="13.91" y2="22.5"/><path class="cls-1" d="M13.65,4.36h.26a3.82,3.82,0,0,1,3.82,3.82v.17a2.86,2.86,0,0,1,1.91,2.7V13"/><path class="cls-1" d="M4.36,13v-1.9a2.86,2.86,0,0,1,1.91-2.7V8.18a3.82,3.82,0,0,1,3.82-3.82h.26"/><circle class="cls-1" cx="12" cy="3.41" r="1.91"/><line class="cls-1" x1="12.95" y1="8.18" x2="14.86" y2="8.18"/><line class="cls-1" x1="9.14" y1="9.14" x2="11.05" y2="9.14"/></svg>