<svg id="Layer_1" data-name="Layer 1" xmlns="http://www.w3.org/2000/svg" viewBox="0 0 24 24"><defs><style>.cls-1{fill:none;stroke:#020202;stroke-miterlimit:10;stroke-width:1.91px;}</style></defs><ellipse class="cls-1" cx="12" cy="17.73" rx="3.82" ry="1.91"/><path class="cls-1" d="M8.18,1.5V11.68a25.88,25.88,0,0,1-3.82-.94V1.5Z"/><path class="cls-1" d="M12,2.45V12a21.8,21.8,0,0,1-3.82-.35V2.45Z"/><path class="cls-1" d="M15.82,3.41v8.27A21.8,21.8,0,0,1,12,12V3.41Z"/><path class="cls-1" d="M21.55,10.09v1L20.17,22.5H3.83L2.45,11.05v-1c.65.24,1.29.46,1.91.65a25.88,25.88,0,0,0,3.82.94A21.8,21.8,0,0,0,12,12a21.8,21.8,0,0,0,3.82-.35,25.88,25.88,0,0,0,3.82-.94C20.26,10.55,20.9,10.33,21.55,10.09Z"/><path class="cls-1" d="M19.64,1.5v9.24a25.88,25.88,0,0,1-3.82.94V1.5Z"/></svg>