<svg id="Layer_1" data-name="Layer 1" xmlns="http://www.w3.org/2000/svg" viewBox="0 0 24 24"><defs><style>.cls-1{fill:none;stroke:#020202;stroke-miterlimit:10;stroke-width:1.91px;}</style></defs><circle class="cls-1" cx="12" cy="12" r="10.5"/><path class="cls-1" d="M15.82,12a3.82,3.82,0,0,0-7.64,0"/><path class="cls-1" d="M8.18,12a3.82,3.82,0,0,0,7.64,0"/><path class="cls-1" d="M8.18,12C4.84,13.91,4.84,9.14,1.5,12"/><path class="cls-1" d="M1.5,12c3.34-2.86,3.34,1.91,6.68,0"/><path class="cls-1" d="M22.5,12c-3.34,1.91-3.34-2.86-6.68,0"/><path class="cls-1" d="M15.82,12c3.34-2.86,3.34,1.91,6.68,0"/><circle class="cls-1" cx="12" cy="12" r="3.82"/><line class="cls-1" x1="5.32" y1="7.23" x2="7.23" y2="7.23"/><line class="cls-1" x1="9.14" y1="5.32" x2="11.05" y2="5.32"/><line class="cls-1" x1="13.91" y1="4.36" x2="15.82" y2="4.36"/><line class="cls-1" x1="16.77" y1="8.18" x2="18.68" y2="8.18"/></svg>