<svg id="Layer_1" data-name="Layer 1" xmlns="http://www.w3.org/2000/svg" viewBox="0 0 24 24"><defs><style>.cls-1{fill:none;stroke:#020202;stroke-miterlimit:10;stroke-width:1.91px;}</style></defs><path class="cls-1" d="M12,15.82a2.73,2.73,0,0,1-.17,1,2.82,2.82,0,0,1-2.52,1.89H9.14a2.86,2.86,0,0,1-2.87-2.86,2.78,2.78,0,0,1,.17-1A2.81,2.81,0,0,0,9,13h.35a2.81,2.81,0,0,0,2.52,1.89A2.78,2.78,0,0,1,12,15.82Z"/><path class="cls-1" d="M17.73,15.82a2.86,2.86,0,0,1-2.87,2.86h-.17a2.82,2.82,0,0,1-2.52-1.89,2.73,2.73,0,0,1-.17-1,2.78,2.78,0,0,1,.17-1A2.81,2.81,0,0,0,14.69,13H15a2.81,2.81,0,0,0,2.52,1.89A2.78,2.78,0,0,1,17.73,15.82Z"/><path class="cls-1" d="M14.86,19.64a2.86,2.86,0,0,1-5.72,0,2.57,2.57,0,0,1,.17-1,2.82,2.82,0,0,0,2.52-1.89h.34a2.82,2.82,0,0,0,2.52,1.89A2.57,2.57,0,0,1,14.86,19.64Z"/><path class="cls-1" d="M9.14,12A2.52,2.52,0,0,1,9,13a2.81,2.81,0,0,1-2.52,1.89H6.27a2.86,2.86,0,0,1,0-5.72h.17A2.85,2.85,0,0,0,9,11,2.52,2.52,0,0,1,9.14,12Z"/><path class="cls-1" d="M12,8.18a2.78,2.78,0,0,1-.17,1A2.84,2.84,0,0,1,9.31,11H9A2.85,2.85,0,0,1,6.44,9.15a2.78,2.78,0,0,1-.17-1,2.87,2.87,0,0,1,5.73,0Z"/><path class="cls-1" d="M14.86,12a2.52,2.52,0,0,1-.17,1,2.81,2.81,0,0,1-2.52,1.89h-.34A2.81,2.81,0,0,1,9.31,13a2.8,2.8,0,0,1,0-1.92,2.84,2.84,0,0,0,2.52-1.89h.34A2.84,2.84,0,0,0,14.69,11,2.52,2.52,0,0,1,14.86,12Z"/><path class="cls-1" d="M17.73,8.18a2.78,2.78,0,0,1-.17,1A2.85,2.85,0,0,1,15,11h-.35a2.84,2.84,0,0,1-2.52-1.89,2.78,2.78,0,0,1-.17-1,2.87,2.87,0,0,1,5.73,0Z"/><path class="cls-1" d="M20.59,12a2.86,2.86,0,0,1-2.86,2.86h-.17A2.81,2.81,0,0,1,15,13,2.65,2.65,0,0,1,15,11a2.85,2.85,0,0,0,2.52-1.89h.17A2.86,2.86,0,0,1,20.59,12Z"/><path class="cls-1" d="M8.18,1.5h0A3.82,3.82,0,0,1,12,5.32V8.18"/></svg>