<svg id="Layer_1" data-name="Layer 1" xmlns="http://www.w3.org/2000/svg" viewBox="0 0 24 24"><defs><style>.cls-1{fill:none;stroke:#020202;stroke-miterlimit:10;stroke-width:1.91px;}</style></defs><polyline class="cls-1" points="6.4 13.91 11.65 17.73 12.96 18.68 14.27 17.73 19.52 13.91"/><path class="cls-1" d="M14.27,17.73H22.5v1.91a2.86,2.86,0,0,1-2.86,2.86H4.36A2.86,2.86,0,0,1,1.5,19.64V17.73H11.65"/><path class="cls-1" d="M14.27,17.73h5.37a1.92,1.92,0,0,0,1.91-1.91h0a1.91,1.91,0,0,0-1.91-1.91H4.36a1.91,1.91,0,0,0-1.91,1.91h0a1.92,1.92,0,0,0,1.91,1.91h7.29"/><rect class="cls-1" x="2.45" y="10.09" width="19.09" height="3.82" rx="1.91"/><rect class="cls-1" x="2.45" y="10.09" width="19.09" height="3.82" rx="1.91"/><path class="cls-1" d="M9.14,1.5h5.73A7.64,7.64,0,0,1,22.5,9.14v1a0,0,0,0,1,0,0H1.5a0,0,0,0,1,0,0v-1A7.64,7.64,0,0,1,9.14,1.5Z"/><line class="cls-1" x1="5.32" y1="7.23" x2="7.23" y2="7.23"/><line class="cls-1" x1="11.05" y1="7.23" x2="12.95" y2="7.23"/><line class="cls-1" x1="16.77" y1="7.23" x2="18.68" y2="7.23"/><line class="cls-1" x1="8.18" y1="4.36" x2="10.09" y2="4.36"/><line class="cls-1" x1="13.91" y1="4.36" x2="15.82" y2="4.36"/></svg>