<svg id="Layer_1" data-name="Layer 1" xmlns="http://www.w3.org/2000/svg" viewBox="0 0 24 24"><defs><style>.cls-1{fill:none;stroke:#020202;stroke-miterlimit:10;stroke-width:1.91px;}</style></defs><path class="cls-1" d="M17.73,5.32V3.41A1.91,1.91,0,0,0,15.82,1.5H8.18A1.91,1.91,0,0,0,6.27,3.41V5.32h0A6.52,6.52,0,0,0,4.36,9.93V20.59A1.91,1.91,0,0,0,6.27,22.5H17.73a1.91,1.91,0,0,0,1.91-1.91V9.93a6.52,6.52,0,0,0-1.91-4.61Z"/><line class="cls-1" x1="6.27" y1="5.32" x2="17.73" y2="5.32"/><polygon class="cls-1" points="12 16.72 12 14.92 10.09 13.54 8.18 14.92 8.18 16.72 10.09 18.1 12 16.72"/><polygon class="cls-1" points="15.82 16.72 15.82 14.92 13.91 13.54 12 14.92 12 16.72 13.91 18.1 15.82 16.72"/><polygon class="cls-1" points="13.91 13.54 13.91 11.74 12 10.37 10.09 11.74 10.09 13.54 12 14.92 13.91 13.54"/></svg>