<svg id="Layer_1" data-name="Layer 1" xmlns="http://www.w3.org/2000/svg" viewBox="0 0 24 24"><defs><style>.cls-1{fill:none;stroke:#020202;stroke-miterlimit:10;stroke-width:1.91px;}</style></defs><path class="cls-1" d="M22,5.66a3.62,3.62,0,0,1-1.07,2.59L8.25,20.93a3.67,3.67,0,1,1-5.18-5.19l.39-.37L15.37,3.46l.37-.39A3.67,3.67,0,0,1,22,5.66Z"/><path class="cls-1" d="M15.37,3.46,3.46,15.37l-.88-.89a3.65,3.65,0,0,1,0-5.18L9.3,2.58a3.65,3.65,0,0,1,5.18,0Z"/><path class="cls-1" d="M21.43,14.7,14.7,21.43a3.66,3.66,0,0,1-5.18,0l-.88-.88L20.55,8.64l.88.88A3.66,3.66,0,0,1,21.43,14.7Z"/><path class="cls-1" d="M5.56,18c1.24-1.24,1.94-.53,3.18-1.77s.54-1.94,1.78-3.18,1.94-.54,3.18-1.78S14.24,9.29,15.48,8s1.94-.54,3.18-1.78"/></svg>