<svg id="Layer_1" data-name="Layer 1" xmlns="http://www.w3.org/2000/svg" viewBox="0 0 24 24"><defs><style>.cls-1{fill:none;stroke:#020202;stroke-miterlimit:10;stroke-width:1.91px;}</style></defs><path class="cls-1" d="M20.56,5.32a1.91,1.91,0,0,0,.33,1.07,1.89,1.89,0,0,0-1.28,1.79,1.85,1.85,0,0,0,.66,1.43,1.89,1.89,0,0,0-.1,2.78l-3,2.95A6.07,6.07,0,0,1,8.63,6.75L12.1,3.28a6.07,6.07,0,0,1,8.59,0,4.29,4.29,0,0,1,.53.61A1.88,1.88,0,0,0,20.56,5.32Z"/><line class="cls-1" x1="1.47" y1="22.5" x2="8.63" y2="15.34"/><line class="cls-1" x1="11.97" y1="7.23" x2="11.97" y2="13.91"/><line class="cls-1" x1="15.79" y1="4.36" x2="15.79" y2="11.05"/></svg>