<svg id="Layer_1" data-name="Layer 1" xmlns="http://www.w3.org/2000/svg" viewBox="0 0 24 24"><defs><style>.cls-1{fill:none;stroke:#020202;stroke-miterlimit:10;stroke-width:1.91px;}</style></defs><path class="cls-1" d="M15.82,10.09h0a3.76,3.76,0,0,0-1.45,5.46l.83,1.25a3.71,3.71,0,0,1,.62,2h0a3.66,3.66,0,0,1-3.67,3.66h-.3a3.66,3.66,0,0,1-3.67-3.66h0a3.71,3.71,0,0,1,.62-2l.83-1.25a3.76,3.76,0,0,0-1.45-5.46h0"/><path class="cls-1" d="M13.78,13h4a2.87,2.87,0,0,0,2.86-2.86A8.58,8.58,0,0,0,5.93,4a8.53,8.53,0,0,0-2.52,6.07A2.85,2.85,0,0,0,6.27,13h4"/></svg>