<svg id="Layer_1" data-name="Layer 1" xmlns="http://www.w3.org/2000/svg" viewBox="0 0 24 24"><defs><style>.cls-1{fill:none;stroke:#020202;stroke-miterlimit:10;stroke-width:1.91px;}</style></defs><polygon class="cls-1" points="19.42 22.5 4.58 22.5 2.46 18.68 21.55 18.68 19.42 22.5"/><line class="cls-1" x1="0.55" y1="18.68" x2="23.45" y2="18.68"/><rect class="cls-1" x="2.45" y="14.86" width="19.09" height="3.82" rx="1.91"/><line class="cls-1" x1="14.17" y1="11.05" x2="10.09" y2="11.05"/><path class="cls-1" d="M17.41,11.05h2.23A1.91,1.91,0,0,1,21.55,13,1.84,1.84,0,0,1,21,14.3a1.87,1.87,0,0,1-1.34.56H4.36A1.92,1.92,0,0,1,2.45,13,1.83,1.83,0,0,1,3,11.61a1.87,1.87,0,0,1,1.34-.56H6.27"/><path class="cls-1" d="M6.27,7.23H4.36A1.87,1.87,0,0,0,3,7.79a1.84,1.84,0,0,0-.57,1.35,1.92,1.92,0,0,0,1.91,1.91H6.27"/><path class="cls-1" d="M17.73,7.23h1.91a1.92,1.92,0,0,1,1.91,1.91,1.95,1.95,0,0,1-1.91,1.91H17.41"/><line class="cls-1" x1="14.17" y1="11.05" x2="10.09" y2="11.05"/><path class="cls-1" d="M17.73,7.23V10a2.1,2.1,0,0,1-1.43,1.93,1.91,1.91,0,0,1-2.39-1.82,2,2,0,0,0-1.6-1.91,1.91,1.91,0,0,0-2.22,1.88v2.75a2,2,0,0,1-1.58,2A1.92,1.92,0,0,1,6.27,13V7.23A1.91,1.91,0,0,1,8.18,5.32h7.64A1.91,1.91,0,0,1,17.73,7.23Z"/><circle class="cls-1" cx="12" cy="3.41" r="1.91"/></svg>