<svg id="Layer_1" data-name="Layer 1" xmlns="http://www.w3.org/2000/svg" viewBox="0 0 24 24"><defs><style>.cls-1{fill:none;stroke:#020202;stroke-miterlimit:10;stroke-width:1.91px;}.cls-2{fill:#020202;}</style></defs><path class="cls-1" d="M22.5,9.9v8.4l-21,4.2V14.1L13.05,1.5h1a8.37,8.37,0,0,1,8.4,8.4Z"/><path class="cls-1" d="M1.5,17.25c1.33-.08,1.77,1.76,3.2,1.48s1.09-2.36,2.59-2.66,1.91,1.76,3.41,1.46,1.09-2.36,2.58-2.65,1.91,1.75,3.41,1.46,1.1-2.37,2.6-2.67,1.88,1.56,3.21,1.48"/><circle class="cls-2" cx="13.91" cy="4.36" r="0.95"/><circle class="cls-2" cx="16.77" cy="5.32" r="0.95"/><circle class="cls-2" cx="18.68" cy="7.23" r="0.95"/><line class="cls-1" x1="1.5" y1="13.91" x2="22.5" y2="9.14"/></svg>