<svg id="Layer_1" data-name="Layer 1" xmlns="http://www.w3.org/2000/svg" viewBox="0 0 24 24"><defs><style>.cls-1{fill:none;stroke:#020202;stroke-miterlimit:10;stroke-width:1.91px;}</style></defs><line class="cls-1" x1="9.14" y1="1.5" x2="9.13" y2="1.54"/><line class="cls-1" x1="22.5" y1="14.86" x2="22.46" y2="14.87"/><path class="cls-1" d="M18.09,15.82c0,.22,0,.45,0,.66L3.7,22.38a1.58,1.58,0,0,1-.61.12h0A1.59,1.59,0,0,1,1.5,20.91h0a1.58,1.58,0,0,1,.12-.61L7.52,5.93l.66,0A9.9,9.9,0,0,1,18.09,15.82Z"/><path class="cls-1" d="M19.93,17.73h0a1.86,1.86,0,0,1-1.84-1.9h0A9.9,9.9,0,0,0,8.18,5.91h0a1.86,1.86,0,0,1-1.9-1.84h0A2.54,2.54,0,0,1,8.82,1.53h.31A14.29,14.29,0,0,1,22.46,14.87a2.46,2.46,0,0,1,0,.31A2.54,2.54,0,0,1,19.93,17.73Z"/><circle class="cls-1" cx="10.09" cy="10.09" r="0.95"/><circle class="cls-1" cx="10.09" cy="17.73" r="0.95"/><line class="cls-1" x1="12" y1="14.86" x2="14.86" y2="12.95"/><line class="cls-1" x1="5.32" y1="18.68" x2="5.32" y2="21.55"/><line class="cls-1" x1="7.23" y1="13.91" x2="10.09" y2="13.91"/></svg>