<svg id="Layer_1" data-name="Layer 1" xmlns="http://www.w3.org/2000/svg" viewBox="0 0 24 24"><defs><style>.cls-1{fill:none;stroke:#020202;stroke-miterlimit:10;stroke-width:1.92px;}</style></defs><path class="cls-1" d="M18.71,3.38H16.79a1.9,1.9,0,0,0-1.91,1.91A1.91,1.91,0,0,0,13,3.38H11A1.91,1.91,0,0,0,9.12,5.29,1.9,1.9,0,0,0,7.21,3.38H5.29A1.9,1.9,0,0,0,3.38,5.29V18.71a1.9,1.9,0,0,0,1.91,1.91H7.21a1.9,1.9,0,0,0,1.91-1.91A1.91,1.91,0,0,0,11,20.62H13a1.91,1.91,0,0,0,1.92-1.91,1.9,1.9,0,0,0,1.91,1.91h1.92a1.9,1.9,0,0,0,1.91-1.91V5.29A1.9,1.9,0,0,0,18.71,3.38Z"/><line class="cls-1" x1="6.25" y1="0.5" x2="6.25" y2="3.38"/><line class="cls-1" x1="12" y1="0.5" x2="12" y2="3.38"/><line class="cls-1" x1="17.75" y1="0.5" x2="17.75" y2="3.38"/><line class="cls-1" x1="6.25" y1="20.63" x2="6.25" y2="23.5"/><line class="cls-1" x1="12" y1="20.63" x2="12" y2="23.5"/><line class="cls-1" x1="17.75" y1="20.63" x2="17.75" y2="23.5"/><line class="cls-1" x1="9.13" y1="12.96" x2="9.13" y2="18.71"/><line class="cls-1" x1="14.88" y1="5.29" x2="14.88" y2="9.13"/><line class="cls-1" x1="14.88" y1="11.04" x2="14.88" y2="15.83"/><line class="cls-1" x1="9.13" y1="7.21" x2="9.13" y2="11.04"/><line class="cls-1" x1="14.88" y1="17.75" x2="14.88" y2="18.71"/></svg>