<svg id="Layer_1" data-name="Layer 1" xmlns="http://www.w3.org/2000/svg" viewBox="0 0 24 24"><defs><style>.cls-1{fill:none;stroke:#020202;stroke-miterlimit:10;stroke-width:1.91px;}</style></defs><path class="cls-1" d="M21.19,13.16a4.21,4.21,0,0,1,.36,1.7,4.3,4.3,0,0,1-4.3,4.3H6.75a4.29,4.29,0,0,1-4.3-4.3,4.21,4.21,0,0,1,.36-1.7"/><path class="cls-1" d="M9.14,12.61c-2.72.24-5,.71-6.33.55C2,13.08,1.5,12.75,1.5,12c0-2,3.23-4.94,7.64-5.89"/><path class="cls-1" d="M14.86,6.11C19.27,7.06,22.5,10,22.5,12c0,.75-.48,1.08-1.31,1.16-1.33.16-3.61-.31-6.33-.55"/><path class="cls-1" d="M10,4.84H14a.83.83,0,0,1,.83.83V19.16a0,0,0,0,1,0,0H9.14a0,0,0,0,1,0,0V5.67A.83.83,0,0,1,10,4.84Z"/><line class="cls-1" x1="18.68" y1="10.57" x2="18.68" y2="7.7"/><line class="cls-1" x1="5.32" y1="10.57" x2="5.32" y2="7.7"/></svg>