<svg id="Layer_1" data-name="Layer 1" xmlns="http://www.w3.org/2000/svg" viewBox="0 0 24 24"><defs><style>.cls-1{fill:none;stroke:#020202;stroke-miterlimit:10;stroke-width:1.91px;}</style></defs><path class="cls-1" d="M21.55,15.82c0,4.3-2.36,5.9-5.73,6.43A24.19,24.19,0,0,1,12,22.5a24.19,24.19,0,0,1-3.82-.25c-3.37-.53-5.73-2.13-5.73-6.43C2.45,10,6.73,1.5,12,1.5S21.55,10,21.55,15.82Z"/><path class="cls-1" d="M15.82,14.86v7.39A24.19,24.19,0,0,1,12,22.5a24.19,24.19,0,0,1-3.82-.25V14.86Z"/><line class="cls-1" x1="6.27" y1="10.09" x2="8.18" y2="10.09"/><line class="cls-1" x1="11.05" y1="7.23" x2="12.95" y2="7.23"/><line class="cls-1" x1="13.91" y1="11.05" x2="15.82" y2="11.05"/></svg>