<svg id="Layer_1" data-name="Layer 1" xmlns="http://www.w3.org/2000/svg" viewBox="0 0 24 24"><defs><style>.cls-1{fill:none;stroke:#020202;stroke-miterlimit:10;stroke-width:1.91px;}</style></defs><path class="cls-1" d="M15.17,1.5H8.83A6.38,6.38,0,0,0,2.45,7.87v.45a2.73,2.73,0,0,0,1.91,2.59v9.6a2,2,0,0,0,2,2h11.3a2,2,0,0,0,2-2v-9.6a2.73,2.73,0,0,0,1.91-2.59V7.87A6.38,6.38,0,0,0,15.17,1.5Z"/><line class="cls-1" x1="8.18" y1="16.77" x2="10.09" y2="16.77"/><line class="cls-1" x1="10.09" y1="12.95" x2="12" y2="12.95"/><line class="cls-1" x1="13.91" y1="5.32" x2="15.82" y2="5.32"/><line class="cls-1" x1="14.86" y1="9.14" x2="16.77" y2="9.14"/><line class="cls-1" x1="14.86" y1="15.82" x2="16.77" y2="15.82"/></svg>