<svg id="Layer_1" data-name="Layer 1" xmlns="http://www.w3.org/2000/svg" viewBox="0 0 24 24"><defs><style>.cls-1{fill:none;stroke:#020202;stroke-miterlimit:10;stroke-width:1.91px;}</style></defs><ellipse class="cls-1" cx="16.88" cy="7.12" rx="4.29" ry="6.68" transform="translate(-0.09 14.02) rotate(-45)"/><ellipse class="cls-1" cx="16.88" cy="7.12" rx="0.48" ry="0.95" transform="translate(-0.09 14.02) rotate(-45)"/><path class="cls-1" d="M21.61,11.84l-1.69,1.69a6.66,6.66,0,0,1-5.76,1.87,2.45,2.45,0,0,0-2.16.65l-.18.18a2.87,2.87,0,0,1-4.16-.11,3,3,0,0,1,.23-4.05L8,12A2.45,2.45,0,0,0,8.6,9.84a6.66,6.66,0,0,1,1.87-5.76l1.69-1.69"/><path class="cls-1" d="M9.8,17.07h0L8.84,18a1.92,1.92,0,0,0-.53,1.89,2,2,0,0,1-.51,2,2,2,0,0,1-3.36-.85,2.21,2.21,0,0,0-1.5-1.5,2,2,0,0,1-.85-3.36,2,2,0,0,1,2-.51A1.92,1.92,0,0,0,6,15.16l1-1"/></svg>