<svg xmlns="http://www.w3.org/2000/svg" width="19.342" height="23.067" viewBox="0 0 19.342 23.067">
  <g id="shield-star-win" transform="translate(-2.3 -0.439)">
    <path id="Path_23" data-name="Path 23" d="M12,8.18l1.05,2.2,2.36.35L13.7,12.45l.41,2.41L12,13.72,9.89,14.86l.41-2.41L8.59,10.73l2.36-.35Z" fill="none" stroke="currentColor" stroke-miterlimit="10" stroke-width="1.91"/>
    <path id="Path_24" data-name="Path 24" d="M12,22.5s8.59-2.86,8.59-7.64c0-2.86-.95-2.86-.95-5.72a11.65,11.65,0,0,1,.95-4.78l-.95-1.91H15.82A9.92,9.92,0,0,1,12,1.5a9.92,9.92,0,0,1-3.82,1H4.36l-1,1.91a11.65,11.65,0,0,1,1,4.78c0,2.86-1,2.86-1,5.72C3.41,19.64,12,22.5,12,22.5Z" fill="none" stroke="currentColor" stroke-miterlimit="10" stroke-width="1.91"/>
  </g>
</svg>
