<svg xmlns="http://www.w3.org/2000/svg" width="17.784" height="23.148" viewBox="0 0 17.784 23.148">
  <g id="star-banner" transform="translate(-3.108 -0.352)">
    <path id="Path_35" data-name="Path 35" d="M12,12.98l.6,1.26,1.35.2-.97.98.23,1.38L12,16.15l-1.21.65.23-1.38-.97-.98,1.35-.2Z" fill="none" stroke="currentColor" stroke-miterlimit="10" stroke-width="1.91"/>
    <path id="Path_36" data-name="Path 36" d="M8.17,10.11a8.73,8.73,0,0,1,3.83-1,8.73,8.73,0,0,1,3.83,1" fill="none" stroke="currentColor" stroke-miterlimit="10" stroke-width="1.91"/>
    <rect id="Rectangle_4" data-name="Rectangle 4" width="13.39" height="15.3" transform="translate(5.3 5.33)" fill="none" stroke="currentColor" stroke-miterlimit="10" stroke-width="1.91"/>
    <line id="Line_14" data-name="Line 14" x2="17.22" transform="translate(3.39 5.33)" fill="none" stroke="currentColor" stroke-miterlimit="10" stroke-width="1.91"/>
    <line id="Line_15" data-name="Line 15" y1="2.87" transform="translate(13.91 20.63)" fill="none" stroke="currentColor" stroke-miterlimit="10" stroke-width="1.91"/>
    <line id="Line_16" data-name="Line 16" y1="2.87" transform="translate(17.74 20.63)" fill="none" stroke="currentColor" stroke-miterlimit="10" stroke-width="1.91"/>
    <line id="Line_17" data-name="Line 17" y1="2.87" transform="translate(10.09 20.63)" fill="none" stroke="currentColor" stroke-miterlimit="10" stroke-width="1.91"/>
    <line id="Line_18" data-name="Line 18" y1="2.87" transform="translate(6.26 20.63)" fill="none" stroke="currentColor" stroke-miterlimit="10" stroke-width="1.91"/>
    <path id="Path_37" data-name="Path 37" d="M17.74,5.33H6.26L12,1.5Z" fill="none" stroke="currentColor" stroke-miterlimit="10" stroke-width="1.91"/>
  </g>
</svg>
