<svg xmlns="http://www.w3.org/2000/svg" width="17.405" height="23.021" viewBox="0 0 17.405 23.021">
  <g id="star-lightbulb" transform="translate(-3.19 -0.434)">
    <path id="Path_40" data-name="Path 40" d="M12,7.23l.75,1.57,1.69.25-1.22,1.22L13.51,12,12,11.19,10.49,12l.29-1.73L9.56,9.05l1.69-.25Z" fill="none" stroke="currentColor" stroke-miterlimit="10" stroke-width="1.91"/>
    <path id="Path_41" data-name="Path 41" d="M19.64,9.14A7.64,7.64,0,1,0,6.92,14.83a3.81,3.81,0,0,1,1.26,2.83v2.93a1.91,1.91,0,0,0,1.91,1.91h3.82a1.91,1.91,0,0,0,1.91-1.91V17.66a3.76,3.76,0,0,1,1.25-2.82,7.62,7.62,0,0,0,2.57-5.7Z" fill="none" stroke="currentColor" stroke-miterlimit="10" stroke-width="1.91"/>
    <line id="Line_20" data-name="Line 20" x2="7.64" transform="translate(8.18 17.73)" fill="none" stroke="currentColor" stroke-miterlimit="10" stroke-width="1.91"/>
  </g>
</svg>
