<svg id="Layer_1" data-name="Layer 1" xmlns="http://www.w3.org/2000/svg" viewBox="0 0 24 24"><defs><style>.cls-1{fill:none;stroke:#020202;stroke-miterlimit:10;stroke-width:1.91px;}</style></defs><path class="cls-1" d="M2.43,7.2c1.92-1,3.83-2.87,3.83-4.79H17.74c0,1.92,1.91,3.83,3.83,4.79"/><polyline class="cls-1" points="1.56 7.2 0.52 7.2 23.48 7.2 22.43 7.2"/><path class="cls-1" d="M2.43,11C3.7,10.39,4.35,9.11,5.3,7.2H18.7c.95,1.91,1.6,3.19,2.87,3.82"/><line class="cls-1" x1="0.52" y1="11.02" x2="23.48" y2="11.02"/><line class="cls-1" x1="6.26" y1="0.5" x2="6.26" y2="2.41"/><line class="cls-1" x1="17.74" y1="0.5" x2="17.74" y2="2.41"/><rect class="cls-1" x="4.35" y="11.02" width="15.3" height="3.83"/><polyline class="cls-1" points="1.48 22.5 4.35 14.85 19.65 14.85 22.52 22.5"/><line class="cls-1" x1="0.52" y1="22.5" x2="23.48" y2="22.5"/><path class="cls-1" d="M12,18.67h0a1.91,1.91,0,0,1,1.91,1.91V22.5a0,0,0,0,1,0,0H10.09a0,0,0,0,1,0,0V20.59A1.91,1.91,0,0,1,12,18.67Z"/></svg>