<svg id="Layer_1" data-name="Layer 1" xmlns="http://www.w3.org/2000/svg" viewBox="0 0 24 24"><defs><style>.cls-1{fill:none;stroke:#020202;stroke-miterlimit:10;stroke-width:1.91px;}</style></defs><path class="cls-1" d="M12,1.46l.05.14a4,4,0,0,0,3.78,2.73,2.83,2.83,0,0,1-.85,2,.57.57,0,0,1-.11.11A2.85,2.85,0,0,1,13,7.2H12"/><path class="cls-1" d="M12,1.46,12,1.6A4,4,0,0,1,8.17,4.33a2.83,2.83,0,0,0,.85,2,.57.57,0,0,0,.11.11A2.85,2.85,0,0,0,11,7.2h1"/><path class="cls-1" d="M14.87,13.89H9.13A1.91,1.91,0,0,1,7.22,12h0a1.92,1.92,0,0,0,1.91-1.91h5.74A1.92,1.92,0,0,0,16.78,12h0A1.91,1.91,0,0,1,14.87,13.89Z"/><path class="cls-1" d="M15.83,17.72H8.17A1.92,1.92,0,0,1,6.26,15.8h0a1.9,1.9,0,0,0,1.91-1.91h7.66a1.9,1.9,0,0,0,1.91,1.91h0A1.92,1.92,0,0,1,15.83,17.72Z"/><rect class="cls-1" x="8.17" y="17.72" width="7.65" height="4.78"/><line class="cls-1" x1="2.43" y1="22.5" x2="21.57" y2="22.5"/><line class="cls-1" x1="12" y1="19.63" x2="12" y2="22.5"/><line class="cls-1" x1="12" y1="0.5" x2="12" y2="1.46"/><line class="cls-1" x1="10.09" y1="7.2" x2="10.09" y2="10.07"/><line class="cls-1" x1="13.91" y1="7.2" x2="13.91" y2="10.07"/></svg>