<svg id="Layer_1" data-name="Layer 1" xmlns="http://www.w3.org/2000/svg" viewBox="0 0 24 24"><defs><style>.cls-1{fill:none;stroke:#020202;stroke-miterlimit:10;stroke-width:1.92px;}</style></defs><line class="cls-1" x1="6.25" y1="0.48" x2="6.25" y2="21.57"/><line class="cls-1" x1="17.75" y1="0.48" x2="17.75" y2="21.57"/><path class="cls-1" d="M17.75,1.44c0,4.4-3.1,8-5.75,8s-5.75-3.56-5.75-8"/><path class="cls-1" d="M6.25,2.1c0,4.4-2,8-5.75,8"/><path class="cls-1" d="M23.5,10.07c-3.7,0-5.75-3.57-5.75-8"/><line class="cls-1" x1="0.5" y1="13.9" x2="23.5" y2="13.9"/><line class="cls-1" x1="10.08" y1="13.9" x2="10.08" y2="8.74"/><line class="cls-1" x1="13.92" y1="13.9" x2="13.92" y2="8.74"/><line class="cls-1" x1="2.42" y1="9.11" x2="2.42" y2="13.9"/><line class="cls-1" x1="21.58" y1="9.11" x2="21.58" y2="13.9"/><polyline class="cls-1" points="6.72 20.61 6.73 20.61 6.73 20.61"/><path class="cls-1" d="M17.27,20.63a2.73,2.73,0,0,0,5.26,0"/><path class="cls-1" d="M12,20.62a2.73,2.73,0,0,0,5.26,0"/><path class="cls-1" d="M1.46,20.61a2.73,2.73,0,0,0,5.27,0"/><path class="cls-1" d="M6.73,20.61a2.73,2.73,0,0,0,5.26,0"/></svg>