<svg id="Layer_1" data-name="Layer 1" xmlns="http://www.w3.org/2000/svg" viewBox="0 0 24 24"><defs><style>.cls-1{fill:none;stroke:#020202;stroke-miterlimit:10;stroke-width:1.91px;}</style></defs><polyline class="cls-1" points="1.5 21.52 1.5 7.21 7.23 7.21 7.23 21.52"/><polyline class="cls-1" points="16.77 21.52 16.77 7.21 22.5 7.21 22.5 21.52"/><line class="cls-1" x1="7.23" y1="8.16" x2="16.77" y2="8.16"/><polyline class="cls-1" points="1.5 7.21 4.36 2.44 7.23 7.21"/><line class="cls-1" x1="4.36" y1="0.53" x2="4.36" y2="2.43"/><polyline class="cls-1" points="16.77 7.21 19.64 2.44 22.5 7.21"/><line class="cls-1" x1="19.64" y1="0.53" x2="19.64" y2="2.43"/><line class="cls-1" x1="7.23" y1="13.89" x2="16.77" y2="13.89"/><line class="cls-1" x1="1.5" y1="14.84" x2="7.23" y2="14.84"/><line class="cls-1" x1="16.77" y1="14.84" x2="22.5" y2="14.84"/><line class="cls-1" x1="4.36" y1="11.98" x2="4.36" y2="14.84"/><line class="cls-1" x1="19.64" y1="11.98" x2="19.64" y2="14.84"/><path class="cls-1" d="M17.25,20.6a2.72,2.72,0,0,0,5.24,0"/><path class="cls-1" d="M12,20.58a2.72,2.72,0,0,0,5.24,0"/><path class="cls-1" d="M1.5,20.58a2.72,2.72,0,0,0,5.25,0"/><path class="cls-1" d="M6.75,20.57a2.72,2.72,0,0,0,5.24,0"/><path class="cls-1" d="M7.23,18.66A4.77,4.77,0,0,1,12,13.89h0a4.77,4.77,0,0,1,4.77,4.77"/></svg>