<svg id="Layer_1" data-name="Layer 1" xmlns="http://www.w3.org/2000/svg" viewBox="0 0 24 24"><defs><style>.cls-1{fill:none;stroke:#020202;stroke-miterlimit:10;stroke-width:1.91px;}</style></defs><path class="cls-1" d="M2.43,13.89c1.92-1,3.83-1.91,3.83-3.82H17.74c0,1.91,1.91,2.86,3.83,3.82"/><polyline class="cls-1" points="1.48 13.89 2.44 13.89 21.57 13.89 22.52 13.89"/><path class="cls-1" d="M5.3,6.24c1.92-1,3.83-1.91,3.83-3.83h5.74c0,1.92,1.91,2.87,3.83,3.83"/><polyline class="cls-1" points="5.3 6.24 3.39 6.24 20.61 6.24 18.7 6.24"/><line class="cls-1" x1="9.13" y1="0.5" x2="9.13" y2="2.41"/><line class="cls-1" x1="14.87" y1="0.5" x2="14.87" y2="2.41"/><line class="cls-1" x1="6.26" y1="6.24" x2="6.26" y2="10.07"/><line class="cls-1" x1="10.09" y1="6.24" x2="10.09" y2="10.07"/><line class="cls-1" x1="13.91" y1="6.24" x2="13.91" y2="10.07"/><line class="cls-1" x1="17.74" y1="6.24" x2="17.74" y2="10.07"/><rect class="cls-1" x="2.43" y="17.72" width="19.13" height="4.78"/><line class="cls-1" x1="6.26" y1="19.63" x2="6.26" y2="22.5"/><line class="cls-1" x1="10.09" y1="19.63" x2="10.09" y2="22.5"/><line class="cls-1" x1="13.91" y1="19.63" x2="13.91" y2="22.5"/><line class="cls-1" x1="17.74" y1="19.63" x2="17.74" y2="22.5"/><line class="cls-1" x1="4.35" y1="13.89" x2="4.35" y2="17.72"/><line class="cls-1" x1="19.65" y1="13.89" x2="19.65" y2="17.72"/><line class="cls-1" x1="15.83" y1="13.89" x2="15.83" y2="17.72"/><line class="cls-1" x1="8.17" y1="13.89" x2="8.17" y2="17.72"/><line class="cls-1" x1="12" y1="13.89" x2="12" y2="17.72"/><line class="cls-1" x1="0.52" y1="22.5" x2="23.48" y2="22.5"/></svg>