<svg id="Layer_1" data-name="Layer 1" xmlns="http://www.w3.org/2000/svg" viewBox="0 0 24 24"><defs><style>.cls-1{fill:none;stroke:#020202;stroke-miterlimit:10;stroke-width:1.91px;}</style></defs><line class="cls-1" x1="12" y1="0.5" x2="12" y2="6.24"/><line class="cls-1" x1="10.09" y1="2.41" x2="13.91" y2="2.41"/><path class="cls-1" d="M12,6.24h0a3.83,3.83,0,0,1,3.83,3.83v1a0,0,0,0,1,0,0H8.17a0,0,0,0,1,0,0v-1A3.83,3.83,0,0,1,12,6.24Z"/><line class="cls-1" x1="6.26" y1="11.02" x2="17.74" y2="11.02"/><rect class="cls-1" x="8.17" y="11.02" width="7.65" height="5.74"/><line class="cls-1" x1="12" y1="13.89" x2="12" y2="16.76"/><rect class="cls-1" x="6.26" y="16.76" width="11.48" height="5.74"/><line class="cls-1" x1="10.09" y1="19.63" x2="10.09" y2="22.5"/><line class="cls-1" x1="13.91" y1="19.63" x2="13.91" y2="22.5"/><line class="cls-1" x1="4.35" y1="16.76" x2="19.65" y2="16.76"/><line class="cls-1" x1="2.43" y1="22.5" x2="21.57" y2="22.5"/></svg>