<svg id="Layer_1" data-name="Layer 1" xmlns="http://www.w3.org/2000/svg" viewBox="0 0 24 24"><defs><style>.cls-1{fill:none;stroke:#020202;stroke-miterlimit:10;stroke-width:1.92px;}</style></defs><rect class="cls-1" x="2.42" y="14.88" width="19.17" height="5.75"/><rect class="cls-1" x="2.42" y="9.13" width="19.17" height="5.75"/><polygon class="cls-1" points="11.04 9.13 2.42 9.13 2.42 3.38 9.13 3.38 11.04 9.13"/><line class="cls-1" x1="0.5" y1="20.63" x2="23.5" y2="20.63"/><line class="cls-1" x1="0.5" y1="14.88" x2="23.5" y2="14.88"/><polyline class="cls-1" points="23.5 9.13 21.58 9.13 12 9.13 9.13 9.13 2.42 9.13 0.5 9.13"/><polyline class="cls-1" points="18.71 20.63 16.79 14.88 14.88 14.88 12.96 9.13 11.04 9.13 9.13 3.38"/><line class="cls-1" x1="6.25" y1="6.25" x2="6.25" y2="9.13"/><line class="cls-1" x1="6.25" y1="12" x2="6.25" y2="14.88"/><line class="cls-1" x1="10.08" y1="12" x2="10.08" y2="14.88"/><line class="cls-1" x1="17.75" y1="12" x2="17.75" y2="14.88"/><line class="cls-1" x1="6.25" y1="17.75" x2="6.25" y2="20.63"/><line class="cls-1" x1="10.08" y1="17.75" x2="10.08" y2="20.63"/><line class="cls-1" x1="13.92" y1="17.75" x2="13.92" y2="20.63"/></svg>