<svg id="Layer_1" data-name="Layer 1" xmlns="http://www.w3.org/2000/svg" viewBox="0 0 24 24"><defs><style>.cls-1{fill:none;stroke:#020202;stroke-miterlimit:10;stroke-width:1.92px;}</style></defs><polygon class="cls-1" points="10.08 11.04 11.04 6.25 12.96 6.25 13.92 11.04 12.75 12 11.25 12 10.08 11.04"/><line class="cls-1" x1="8.17" y1="6.25" x2="15.83" y2="6.25"/><line class="cls-1" x1="10.08" y1="14.88" x2="13.92" y2="14.88"/><polygon class="cls-1" points="18.71 15.83 17.56 17.56 16.79 18.71 7.21 18.71 6.44 17.56 5.29 15.83 6.25 4.33 9.13 1.46 14.88 1.46 17.75 4.33 18.71 15.83"/><polygon class="cls-1" points="20.63 20.63 20.63 22.54 3.38 22.54 3.38 20.63 6.44 17.56 7.21 18.71 16.79 18.71 17.56 17.56 20.63 20.63"/><line class="cls-1" x1="0.5" y1="22.54" x2="23.5" y2="22.54"/></svg>