<svg id="Layer_1" data-name="Layer 1" xmlns="http://www.w3.org/2000/svg" viewBox="0 0 24 24"><defs><style>.cls-1{fill:none;stroke:#020202;stroke-miterlimit:10;stroke-width:1.91px;}</style></defs><path class="cls-1" d="M2.43,7.2c1.92-1,3.83-2.87,3.83-4.79H17.74c0,1.92,1.91,3.83,3.83,4.79"/><polyline class="cls-1" points="1.56 7.2 0.52 7.2 23.48 7.2 22.43 7.2"/><path class="cls-1" d="M2.43,11c1.27-.63,1-1.91,1.92-3.82h15.3c1,1.91.65,3.19,1.92,3.82"/><line class="cls-1" x1="0.52" y1="11.02" x2="23.48" y2="11.02"/><line class="cls-1" x1="6.26" y1="0.5" x2="6.26" y2="2.41"/><line class="cls-1" x1="17.74" y1="0.5" x2="17.74" y2="2.41"/><rect class="cls-1" x="3.39" y="11.02" width="17.22" height="7.65"/><rect class="cls-1" x="10.09" y="14.85" width="3.83" height="3.83"/><line class="cls-1" x1="6.26" y1="14.85" x2="6.26" y2="18.67"/><line class="cls-1" x1="17.74" y1="14.85" x2="17.74" y2="18.67"/><rect class="cls-1" x="2.43" y="18.67" width="19.13" height="3.83"/><line class="cls-1" x1="0.52" y1="22.5" x2="23.48" y2="22.5"/></svg>