<svg id="Layer_1" data-name="Layer 1" xmlns="http://www.w3.org/2000/svg" viewBox="0 0 24 24"><defs><style>.cls-1{fill:none;stroke:#020202;stroke-miterlimit:10;stroke-width:1.91px;}</style></defs><rect class="cls-1" x="4.36" y="18.68" width="15.27" height="3.82" rx="1.91"/><path class="cls-1" d="M12,10.09h0a5.73,5.73,0,0,1,5.73,5.73v2.86a0,0,0,0,1,0,0H6.27a0,0,0,0,1,0,0V15.82A5.73,5.73,0,0,1,12,10.09Z"/><rect class="cls-1" x="9.14" y="3.41" width="5.73" height="6.68" rx="2.86"/><path class="cls-1" d="M12,1.5h0a1,1,0,0,1,1,1v1a0,0,0,0,1,0,0H11a0,0,0,0,1,0,0v-1A1,1,0,0,1,12,1.5Z"/><line class="cls-1" x1="7.23" y1="18.68" x2="11.05" y2="22.5"/><line class="cls-1" x1="16.77" y1="18.68" x2="12.95" y2="22.5"/><polyline class="cls-1" points="10.09 18.68 10.09 15.82 14.98 10.93"/></svg>