<svg id="Layer_1" data-name="Layer 1" xmlns="http://www.w3.org/2000/svg" viewBox="0 0 24 24"><defs><style>.cls-1{fill:none;stroke:#020202;stroke-miterlimit:10;stroke-width:1.91px;}</style></defs><rect class="cls-1" x="1.5" y="13.91" width="9.55" height="8.59"/><line class="cls-1" x1="1.5" y1="11.05" x2="1.5" y2="13.91"/><line class="cls-1" x1="6.27" y1="11.05" x2="6.27" y2="13.91"/><line class="cls-1" x1="11.05" y1="11.05" x2="11.05" y2="13.91"/><path class="cls-1" d="M6.27,19.64h0a1,1,0,0,1,1,1V22.5a0,0,0,0,1,0,0H5.32a0,0,0,0,1,0,0V20.59a1,1,0,0,1,1-1Z"/><polyline class="cls-1" points="14.86 12 14.86 3.41 22.5 3.41 22.5 12"/><line class="cls-1" x1="14.86" y1="0.55" x2="14.86" y2="3.41"/><line class="cls-1" x1="18.68" y1="0.55" x2="18.68" y2="3.41"/><line class="cls-1" x1="22.5" y1="0.55" x2="22.5" y2="3.41"/><path class="cls-1" d="M11.05,23.45c0-3.81,11.45-5.72,11.45-11.45"/><path class="cls-1" d="M11.05,17.73c0-3.82,11.45-4.78,11.45-10.5"/><path class="cls-1" d="M11.05,9.14c1.54-1.1,3.81-2,3.81-3.82"/><line class="cls-1" x1="18.68" y1="8.18" x2="18.68" y2="12"/></svg>