<svg id="Layer_1" data-name="Layer 1" xmlns="http://www.w3.org/2000/svg" viewBox="0 0 24 24"><defs><style>.cls-1{fill:none;stroke:#020202;stroke-miterlimit:10;stroke-width:1.92px;}</style></defs><path class="cls-1" d="M9.12,17.73h0a1,1,0,0,1,1,1v3.83a0,0,0,0,1,0,0H8.17a0,0,0,0,1,0,0V18.69a1,1,0,0,1,1-1Z"/><path class="cls-1" d="M14.87,17.73h0a1,1,0,0,1,1,1v3.83a0,0,0,0,1,0,0H13.92a0,0,0,0,1,0,0V18.69A1,1,0,0,1,14.87,17.73Z"/><path class="cls-1" d="M12,6.23h0a7.67,7.67,0,0,1,7.67,7.67v8.63a0,0,0,0,1,0,0H4.33a0,0,0,0,1,0,0V13.9A7.67,7.67,0,0,1,12,6.23Z"/><line class="cls-1" x1="12" y1="0.48" x2="12" y2="6.23"/><line class="cls-1" x1="10.08" y1="2.4" x2="13.92" y2="2.4"/><line class="cls-1" x1="2.42" y1="14.85" x2="21.58" y2="14.85"/><line class="cls-1" x1="0.5" y1="22.52" x2="23.5" y2="22.52"/><line class="cls-1" x1="11.04" y1="11.98" x2="12.96" y2="11.98"/><line class="cls-1" x1="14.88" y1="11.98" x2="16.79" y2="11.98"/><line class="cls-1" x1="7.21" y1="11.98" x2="9.13" y2="11.98"/></svg>