<svg id="Layer_1" data-name="Layer 1" xmlns="http://www.w3.org/2000/svg" viewBox="0 0 24 24"><defs><style>.cls-1{fill:none;stroke:#020202;stroke-miterlimit:10;stroke-width:1.91px;}</style></defs><path class="cls-1" d="M12,19.64h0a1,1,0,0,1,1,1V22.5a0,0,0,0,1,0,0H11a0,0,0,0,1,0,0V20.59a1,1,0,0,1,1-1Z"/><polygon class="cls-1" points="18.68 22.5 5.32 22.5 5.32 20.59 6.27 19.7 6.27 16.77 17.73 16.77 17.73 19.64 18.68 20.59 18.68 22.5"/><line class="cls-1" x1="19.64" y1="16.77" x2="4.36" y2="16.77"/><rect class="cls-1" x="7.23" y="12.95" width="9.55" height="3.82"/><line class="cls-1" x1="18.68" y1="12.95" x2="5.32" y2="12.95"/><rect class="cls-1" x="8.18" y="9.14" width="7.64" height="3.82"/><line class="cls-1" x1="17.73" y1="9.14" x2="6.27" y2="9.14"/><rect class="cls-1" x="9.14" y="5.32" width="5.73" height="3.82"/><line class="cls-1" x1="16.77" y1="5.32" x2="7.23" y2="5.32"/><path class="cls-1" d="M12,1.5h0a2.86,2.86,0,0,1,2.86,2.86v1a0,0,0,0,1,0,0H9.14a0,0,0,0,1,0,0v-1A2.86,2.86,0,0,1,12,1.5Z"/><line class="cls-1" x1="0.55" y1="22.5" x2="23.45" y2="22.5"/></svg>