<svg id="Layer_1" data-name="Layer 1" xmlns="http://www.w3.org/2000/svg" viewBox="0 0 24 24"><defs><style>.cls-1{fill:none;stroke:#020202;stroke-miterlimit:10;stroke-width:1.92px;}</style></defs><path class="cls-1" d="M19.67,18.69H4.33l.35-3.86A7.35,7.35,0,0,1,12,8.15h0a7.35,7.35,0,0,1,7.32,6.68Z"/><polygon class="cls-1" points="14.88 8.15 9.13 8.15 10.08 4.31 13.92 4.31 14.88 8.15"/><line class="cls-1" x1="12" y1="0.48" x2="12" y2="4.31"/><polygon class="cls-1" points="3.38 18.69 20.63 18.69 21.58 22.52 2.42 22.52 3.38 18.69"/><line class="cls-1" x1="0.5" y1="22.52" x2="23.5" y2="22.52"/><line class="cls-1" x1="7.5" y1="15.14" x2="8.84" y2="16.48"/><line class="cls-1" x1="11.33" y1="15.14" x2="12.67" y2="16.48"/><line class="cls-1" x1="9.41" y1="11.31" x2="10.75" y2="12.65"/><line class="cls-1" x1="13.25" y1="11.31" x2="14.59" y2="12.65"/><line class="cls-1" x1="15.16" y1="15.14" x2="16.5" y2="16.48"/></svg>