<svg id="Layer_1" data-name="Layer 1" xmlns="http://www.w3.org/2000/svg" viewBox="0 0 24 24"><defs><style>.cls-1{fill:none;stroke:#020202;stroke-miterlimit:10;stroke-width:1.91px;}</style></defs><path class="cls-1" d="M8.18,16.77h0V5.32h7.64V9.14A7.64,7.64,0,0,1,8.18,16.77Z"/><path class="cls-1" d="M12,1.5h0a1.91,1.91,0,0,1,1.91,1.91V5.32a0,0,0,0,1,0,0H10.09a0,0,0,0,1,0,0V3.41A1.91,1.91,0,0,1,12,1.5Z"/><polygon class="cls-1" points="15.82 5.32 20.59 5.32 20.59 8.18 15.82 10.09 15.82 5.32"/><polygon class="cls-1" points="8.18 5.32 3.41 5.32 3.41 8.18 8.18 10.09 8.18 5.32"/><line class="cls-1" x1="0.55" y1="5.32" x2="3.41" y2="5.32"/><line class="cls-1" x1="23.45" y1="5.32" x2="20.59" y2="5.32"/><polyline class="cls-1" points="14.86 12.77 14.86 22.5 9.14 22.5 9.14 16.77"/><line class="cls-1" x1="2.45" y1="22.5" x2="21.55" y2="22.5"/></svg>