<svg id="Layer_1" data-name="Layer 1" xmlns="http://www.w3.org/2000/svg" viewBox="0 0 24 24"><defs><style>.cls-1{fill:none;stroke:#020202;stroke-miterlimit:10;stroke-width:1.91px;}</style></defs><path class="cls-1" d="M15.38,15.8l.45,6.7H8.17l1-14.35H14a1,1,0,0,1,1,.9l.19,2.8a1.92,1.92,0,0,1-1.91,2H12"/><path class="cls-1" d="M12,3.37h0a1.91,1.91,0,0,1,1.91,1.91V8.15a0,0,0,0,1,0,0H10.09a0,0,0,0,1,0,0V5.28A1.91,1.91,0,0,1,12,3.37Z"/><polyline class="cls-1" points="5.3 0.5 5.3 6.24 9.13 8.15"/><polyline class="cls-1" points="5.3 6.24 5.3 9.11 8.78 13.45"/><path class="cls-1" d="M15.83,18.67H13.91a5.73,5.73,0,0,1-5.25-3.43"/><line class="cls-1" x1="3.39" y1="3.37" x2="7.22" y2="3.37"/><line class="cls-1" x1="3.39" y1="22.5" x2="20.61" y2="22.5"/></svg>