<svg id="Layer_1" data-name="Layer 1" xmlns="http://www.w3.org/2000/svg" viewBox="0 0 24 24"><defs><style>.cls-1{fill:none;stroke:#020202;stroke-miterlimit:10;stroke-width:1.92px;}</style></defs><line class="cls-1" x1="0.5" y1="22.52" x2="23.5" y2="22.52"/><polyline class="cls-1" points="3.38 22.52 4.33 19.65 6.25 18.69 8.17 16.77 15.83 16.77 16.79 18.69 19.67 19.65 21.58 22.52"/><circle class="cls-1" cx="12" cy="7.19" r="2.87"/><path class="cls-1" d="M12,1.44v0Z"/><path class="cls-1" d="M12,12.94v0Z"/><path class="cls-1" d="M6.25,7.19h0Z"/><path class="cls-1" d="M17.75,7.19h0Z"/><path class="cls-1" d="M16.07,3.12l-.68.68.68-.68.67-.68Z"/><path class="cls-1" d="M7.93,11.25l-.67.68.67-.68.68-.67Z"/><path class="cls-1" d="M7.93,3.12l.68.68-.68-.68-.67-.68Z"/><path class="cls-1" d="M16.07,11.25l.67.68-.67-.68-.68-.67Z"/></svg>