<svg id="Layer_1" data-name="Layer 1" xmlns="http://www.w3.org/2000/svg" viewBox="0 0 24 24"><defs><style>.cls-1{fill:none;stroke:#020202;stroke-miterlimit:10;stroke-width:1.92px;}</style></defs><path class="cls-1" d="M21.58,7.22l-1.27,8.62H18.55l-.49-3.93A8.83,8.83,0,0,0,17,9l.17-.15A6.74,6.74,0,0,1,21.58,7.22Z"/><path class="cls-1" d="M18.55,15.84H13.92L12,13.93H10.73L10,9.63,9.13,4.34A9.07,9.07,0,0,1,15,6.49a9.21,9.21,0,0,1,3.08,5.42Z"/><path class="cls-1" d="M10.73,13.93H7.21l-.76-2.62L4.81,7.22A6.72,6.72,0,0,1,9.2,8.83a8.75,8.75,0,0,1,.81.8Z"/><path class="cls-1" d="M7.21,13.93H3.06l-.64-3.84A7.55,7.55,0,0,1,6.3,11.17a1,1,0,0,1,.15.14Z"/><polyline class="cls-1" points="1.46 20.17 1.46 13.93 12 13.93 13.92 15.84 22.54 15.84 22.54 20.18"/><line class="cls-1" x1="23.5" y1="19.68" x2="0.5" y2="19.68"/></svg>