<svg id="Layer_1" data-name="Layer 1" xmlns="http://www.w3.org/2000/svg" viewBox="0 0 24 24"><defs><style>.cls-1{fill:none;stroke:#020202;stroke-miterlimit:10;stroke-width:1.91px;}</style></defs><polygon class="cls-1" points="22.5 22.5 1.5 22.5 1.5 16.77 12 12.96 22.5 16.77 22.5 22.5"/><path class="cls-1" d="M12,18.68h0a1.91,1.91,0,0,1,1.91,1.91V22.5a0,0,0,0,1,0,0H10.09a0,0,0,0,1,0,0V20.59A1.91,1.91,0,0,1,12,18.68Z"/><line class="cls-1" x1="16.77" y1="18.68" x2="18.68" y2="18.68"/><line class="cls-1" x1="5.32" y1="18.68" x2="7.23" y2="18.68"/><path class="cls-1" d="M3.27,5.3h0A28.59,28.59,0,0,0,1.5,15.2v1.57"/><path class="cls-1" d="M5.12,15.46v-.27A25.83,25.83,0,0,0,3.55,5.3h0"/><circle class="cls-1" cx="3.41" cy="4.36" r="0.95"/><path class="cls-1" d="M8,3.39H8a27.17,27.17,0,0,0-1.68,9.9l0,1.71"/><path class="cls-1" d="M9.8,13.76l0-.48A24.87,24.87,0,0,0,8.33,3.39h0"/><circle class="cls-1" cx="8.18" cy="2.45" r="0.95"/><path class="cls-1" d="M22.5,16.77V15.2a28.59,28.59,0,0,0-1.77-9.9h0"/><path class="cls-1" d="M20.45,5.3h0a25.83,25.83,0,0,0-1.58,9.89v.27"/><circle class="cls-1" cx="20.59" cy="4.36" r="0.95"/><path class="cls-1" d="M17.61,15l0-1.71A27.17,27.17,0,0,0,16,3.39h0"/><path class="cls-1" d="M15.68,3.39h0a24.87,24.87,0,0,0-1.49,9.89l0,.48"/><circle class="cls-1" cx="15.82" cy="2.45" r="0.95"/></svg>