<svg id="Layer_1" data-name="Layer 1" xmlns="http://www.w3.org/2000/svg" viewBox="0 0 24 24"><defs><style>.cls-1{fill:none;stroke:#020202;stroke-miterlimit:10;stroke-width:1.91px;}</style></defs><path class="cls-1" d="M4.35,18.72H6.26a1.91,1.91,0,0,1,1.91,1.91v1.91a0,0,0,0,1,0,0H2.43a0,0,0,0,1,0,0V20.63A1.91,1.91,0,0,1,4.35,18.72Z"/><path class="cls-1" d="M17.74,18.72h1.91a1.91,1.91,0,0,1,1.91,1.91v1.91a0,0,0,0,1,0,0H15.83a0,0,0,0,1,0,0V20.63A1.91,1.91,0,0,1,17.74,18.72Z"/><path class="cls-1" d="M14.87,13l2.87-1V7.24a5.74,5.74,0,1,0-11.48,0V12l2.87,1"/><polygon class="cls-1" points="14.87 12.98 12 13.94 9.13 12.98 9.13 8.2 10.09 6.28 13.91 6.28 14.87 8.2 14.87 12.98"/><line class="cls-1" x1="12" y1="15.85" x2="12" y2="13.93"/><line class="cls-1" x1="12" y1="18.72" x2="12" y2="23.5"/><line class="cls-1" x1="23.48" y1="22.54" x2="0.52" y2="22.54"/><path class="cls-1" d="M5.3,18.72l.61-2.1a6.29,6.29,0,0,1,2.92-3.74"/><path class="cls-1" d="M15.17,12.88a7.22,7.22,0,0,1,.65.42,6.31,6.31,0,0,1,2.27,3.32l.61,2.1"/></svg>