<svg id="Layer_1" data-name="Layer 1" xmlns="http://www.w3.org/2000/svg" viewBox="0 0 24 24"><defs><style>.cls-1{fill:none;stroke:#020202;stroke-miterlimit:10;stroke-width:1.91px;}</style></defs><path class="cls-1" d="M17.74,7.67C17.74,10.05,15.17,12,12,12S6.26,10.05,6.26,7.67C6.26,3.94,12,2.8,12,.5,12,2.8,17.74,3.94,17.74,7.67Z"/><path class="cls-1" d="M16.72,5.16c.8-.58,1.45-1.12,1.45-1.79,0,1.72,4.35,2.58,4.35,5.38,0,1.78-1.95,3.23-4.35,3.23a5.22,5.22,0,0,1-2.85-.8"/><path class="cls-1" d="M7.26,5.2c-.84-.6-1.53-1.14-1.53-1.83C5.73,5.09,1.39,6,1.39,8.75,1.39,10.53,3.33,12,5.73,12a5.37,5.37,0,0,0,2.9-.82"/><line class="cls-1" x1="23.48" y1="11.98" x2="0.52" y2="11.98"/><rect class="cls-1" x="2.43" y="11.98" width="19.13" height="10.52"/><line class="cls-1" x1="0.52" y1="22.5" x2="23.48" y2="22.5"/><path class="cls-1" d="M12,15.8h0a2.87,2.87,0,0,1,2.87,2.87V22.5a0,0,0,0,1,0,0H9.13a0,0,0,0,1,0,0V18.67A2.87,2.87,0,0,1,12,15.8Z"/><line class="cls-1" x1="17.74" y1="14.85" x2="17.74" y2="16.76"/><line class="cls-1" x1="17.74" y1="17.72" x2="17.74" y2="19.63"/><line class="cls-1" x1="6.26" y1="14.85" x2="6.26" y2="16.76"/><line class="cls-1" x1="6.26" y1="17.72" x2="6.26" y2="19.63"/></svg>