<svg id="Layer_1" data-name="Layer 1" xmlns="http://www.w3.org/2000/svg" viewBox="0 0 24 24"><defs><style>.cls-1{fill:none;stroke:#020202;stroke-miterlimit:10;stroke-width:1.91px;}</style></defs><path class="cls-1" d="M7.39,22.5H4.21a1.75,1.75,0,0,1-1.76-1.75V11.84a1.75,1.75,0,0,1,1.76-1.75H5.77a1.76,1.76,0,0,1,1.72,1.44l1.62,8.91a1.55,1.55,0,0,1,0,.31h0A1.75,1.75,0,0,1,7.39,22.5Z"/><path class="cls-1" d="M19.79,22.5H16.61a1.75,1.75,0,0,1-1.75-1.75V11.84a1.75,1.75,0,0,1,1.75-1.75h1.56a1.76,1.76,0,0,1,1.73,1.44l1.62,8.91a1.55,1.55,0,0,1,0,.31h0A1.75,1.75,0,0,1,19.79,22.5Z"/><path class="cls-1" d="M17.92,10.09H7A2.68,2.68,0,0,1,4.36,7.42V5.73a2.68,2.68,0,0,1,2.3-2.65L17.54,1.53a2.34,2.34,0,0,1,.38,0h0a2.68,2.68,0,0,1,2.67,2.67V7.42A2.68,2.68,0,0,1,17.92,10.09Z"/><line class="cls-1" x1="0.55" y1="22.5" x2="23.45" y2="22.5"/></svg>