<svg id="Layer_1" data-name="Layer 1" xmlns="http://www.w3.org/2000/svg" viewBox="0 0 24 24"><defs><style>.cls-1{fill:none;stroke:#020202;stroke-miterlimit:10;stroke-width:1.92px;}</style></defs><path class="cls-1" d="M15.61,12.94a4,4,0,0,0,2.14-3.36C17.75,5.85,12,4.7,12,2.4c0,2.3-5.75,3.45-5.75,7.18a4,4,0,0,0,2.14,3.36"/><polyline class="cls-1" points="6.25 22.52 6.25 12.94 17.75 12.94 17.75 22.52"/><line class="cls-1" x1="4.33" y1="12.94" x2="19.67" y2="12.94"/><line class="cls-1" x1="21.58" y1="6.23" x2="21.58" y2="22.52"/><line class="cls-1" x1="2.42" y1="6.23" x2="2.42" y2="22.52"/><line class="cls-1" x1="0.5" y1="22.52" x2="23.5" y2="22.52"/><path class="cls-1" d="M12,18.69h0a1,1,0,0,1,1,1v2.88a0,0,0,0,1,0,0H11a0,0,0,0,1,0,0V19.65A1,1,0,0,1,12,18.69Z"/><line class="cls-1" x1="12" y1="0.48" x2="12" y2="2.4"/></svg>