<svg id="Layer_1" data-name="Layer 1" xmlns="http://www.w3.org/2000/svg" viewBox="0 0 24 24"><defs><style>.cls-1{fill:none;stroke:#020202;stroke-miterlimit:10;stroke-width:1.91px;}</style></defs><path class="cls-1" d="M12,3.37A29.14,29.14,0,0,1,5.3,22.5"/><path class="cls-1" d="M12,3.37A29.14,29.14,0,0,0,18.7,22.5"/><line class="cls-1" x1="10.09" y1="4.33" x2="13.91" y2="4.33"/><line class="cls-1" x1="7.22" y1="14.85" x2="16.78" y2="14.85"/><path class="cls-1" d="M10.09,18.67h3.83a3.83,3.83,0,0,1,3.83,3.83v0a0,0,0,0,1,0,0H6.26a0,0,0,0,1,0,0v0A3.83,3.83,0,0,1,10.09,18.67Z"/><line class="cls-1" x1="12" y1="0.5" x2="12" y2="4.33"/><line class="cls-1" x1="2.43" y1="22.5" x2="21.57" y2="22.5"/></svg>