<svg id="Layer_1" data-name="Layer 1" xmlns="http://www.w3.org/2000/svg" viewBox="0 0 24 24"><defs><style>.cls-1{fill:none;stroke:#020202;stroke-miterlimit:10;stroke-width:1.91px;}</style></defs><line class="cls-1" x1="0.52" y1="22.5" x2="23.48" y2="22.5"/><polygon class="cls-1" points="19.65 8.15 19.65 9.11 18.7 10.06 21.57 16.76 21.57 22.5 14.87 22.5 14.87 11.02 14.87 2.41 15.83 2.41 19.65 8.15"/><line class="cls-1" x1="23.48" y1="16.76" x2="14.87" y2="16.76"/><line class="cls-1" x1="14.87" y1="0.5" x2="14.87" y2="2.41"/><polygon class="cls-1" points="4.35 8.15 4.35 9.11 5.3 10.06 2.44 16.76 2.44 22.5 9.13 22.5 9.13 11.02 9.13 2.41 8.17 2.41 4.35 8.15"/><line class="cls-1" x1="0.52" y1="16.76" x2="9.13" y2="16.76"/><line class="cls-1" x1="9.13" y1="0.5" x2="9.13" y2="2.41"/></svg>