<svg id="Layer_1" data-name="Layer 1" xmlns="http://www.w3.org/2000/svg" viewBox="0 0 24 24"><defs><style>.cls-1{fill:none;stroke:#020202;stroke-miterlimit:10;stroke-width:1.91px;}</style></defs><polyline class="cls-1" points="3.41 7.23 3.41 5.32 12 1.5 20.59 5.32 20.59 7.23"/><line class="cls-1" x1="1.5" y1="7.23" x2="22.5" y2="7.23"/><line class="cls-1" x1="0.55" y1="22.5" x2="23.45" y2="22.5"/><line class="cls-1" x1="1.5" y1="19.64" x2="22.5" y2="19.64"/><line class="cls-1" x1="21.55" y1="22.5" x2="2.45" y2="22.5"/><line class="cls-1" x1="3.41" y1="10.09" x2="7.23" y2="10.09"/><line class="cls-1" x1="3.41" y1="16.77" x2="7.23" y2="16.77"/><line class="cls-1" x1="5.32" y1="10.09" x2="5.32" y2="16.77"/><line class="cls-1" x1="10.09" y1="10.09" x2="13.91" y2="10.09"/><line class="cls-1" x1="10.09" y1="16.77" x2="13.91" y2="16.77"/><line class="cls-1" x1="12" y1="10.09" x2="12" y2="16.77"/><line class="cls-1" x1="16.77" y1="10.09" x2="20.59" y2="10.09"/><line class="cls-1" x1="16.77" y1="16.77" x2="20.59" y2="16.77"/><line class="cls-1" x1="18.68" y1="10.09" x2="18.68" y2="16.77"/></svg>