<svg xmlns="http://www.w3.org/2000/svg" viewBox="0 0 24 24"><defs><style>.cls-1{fill:none;stroke:#020202;stroke-miterlimit:10;stroke-width:1.91px;}</style></defs><g id="Bacteria-2" data-name="Bacteria"><circle class="cls-1" cx="12" cy="12" r="10.5"/><path class="cls-1" d="M14.11,6.07c.8.79.39,1.2,1.19,2s1.2.4,2,1.19.39,1.2,1.19,2"/><path class="cls-1" d="M6.56,9.14c0,.95-.57.95-.57,1.9s.57,1,.57,1.91S6,13.91,6,14.86"/><path class="cls-1" d="M9,18.44c.79-.48,1.09,0,1.88-.47s.5-1,1.3-1.44,1.09,0,1.89-.47"/><line class="cls-1" x1="8.18" y1="6.27" x2="10.09" y2="6.27"/><line class="cls-1" x1="10.09" y1="12" x2="12" y2="12"/><line class="cls-1" x1="16.77" y1="15.82" x2="18.68" y2="15.82"/></g></svg>