<svg xmlns="http://www.w3.org/2000/svg" viewBox="0 0 24 24"><defs><style>.cls-1{fill:none;stroke:#020202;stroke-miterlimit:10;stroke-width:1.91px;}</style></defs><g id="plaster_cross" data-name="plaster cross"><path class="cls-1" d="M13.91,2.45h0a3.25,3.25,0,0,1,2.3-1h.17a3.25,3.25,0,0,1,2.3,1l2.87,2.87a3.25,3.25,0,0,1,.95,2.3v.17a3.25,3.25,0,0,1-.95,2.3L10.09,21.55a3.25,3.25,0,0,1-2.3.95H7.62a3.25,3.25,0,0,1-2.3-.95L2.45,18.68a3.25,3.25,0,0,1-1-2.3v-.17a3.25,3.25,0,0,1,1-2.3L13,3.41Z"/><path class="cls-1" d="M19.64,12l.95.95,1,1a3.25,3.25,0,0,1,.95,2.3v.17a3.25,3.25,0,0,1-.95,2.3l-2.87,2.87a3.25,3.25,0,0,1-2.3.95h-.17a3.25,3.25,0,0,1-2.3-.95L12,19.64"/><path class="cls-1" d="M4.36,12,2.45,10.09a3.25,3.25,0,0,1-1-2.3V7.62a3.25,3.25,0,0,1,1-2.3L5.32,2.45a3.25,3.25,0,0,1,2.3-1h.17a3.25,3.25,0,0,1,2.3,1L12,4.36"/><polygon class="cls-1" points="11.52 15.34 8.66 12.48 12.48 8.66 13.69 9.87 15.34 11.52 11.52 15.34"/><line class="cls-1" x1="4.36" y1="15.82" x2="6.27" y2="15.82"/><line class="cls-1" x1="7.23" y1="18.68" x2="9.14" y2="18.68"/><line class="cls-1" x1="14.86" y1="5.32" x2="16.77" y2="5.32"/><line class="cls-1" x1="17.73" y1="8.18" x2="19.64" y2="8.18"/></g></svg>