<svg xmlns="http://www.w3.org/2000/svg" viewBox="0 0 24 24"><defs><style>.cls-1{fill:none;stroke:#020202;stroke-miterlimit:10;stroke-width:1.92px;}</style></defs><g id="knee_join" data-name="knee join"><path class="cls-1" d="M13.92,23.5V19.67a2.88,2.88,0,0,0,0-5.75A2.87,2.87,0,0,0,11,16.79"/><path class="cls-1" d="M12,14.65a2.88,2.88,0,0,0-4.79,2.14,2.87,2.87,0,0,0,2.87,2.88V23.5"/><path class="cls-1" d="M10.08.5V4.33a2.88,2.88,0,0,0,0,5.75A2.87,2.87,0,0,0,13,7.21"/><path class="cls-1" d="M12,9.35a2.88,2.88,0,0,0,4.79-2.14,2.87,2.87,0,0,0-2.87-2.88V.5"/><line class="cls-1" x1="20.62" y1="11.04" x2="23.5" y2="11.04"/><line class="cls-1" x1="22.54" y1="5.29" x2="19.67" y2="7.21"/><line class="cls-1" x1="22.54" y1="16.79" x2="19.67" y2="14.88"/><line class="cls-1" x1="3.38" y1="11.04" x2="0.5" y2="11.04"/><line class="cls-1" x1="1.46" y1="16.79" x2="4.33" y2="14.87"/><line class="cls-1" x1="1.46" y1="5.29" x2="4.33" y2="7.21"/></g></svg>