<svg xmlns="http://www.w3.org/2000/svg" viewBox="0 0 24 24"><defs><style>.cls-1{fill:none;stroke:#020202;stroke-miterlimit:10;stroke-width:1.91px;}</style></defs><g id="syrup"><path class="cls-1" d="M4.36,5.32V7.23L1.5,10.09v10.5A1.9,1.9,0,0,0,3.41,22.5h7.64A1.9,1.9,0,0,0,13,20.59V10.09L10.09,7.23V5.32"/><rect class="cls-1" x="3.41" y="1.5" width="7.64" height="3.82"/><path class="cls-1" d="M22.5,6.65c0,2.38-1.71,3.44-3.82,3.44S14.86,9,14.86,6.65,16.57,1.5,18.68,1.5,22.5,4.28,22.5,6.65Z"/><line class="cls-1" x1="18.68" y1="10.09" x2="18.68" y2="17.73"/><path class="cls-1" d="M18.68,17.73h0a1.16,1.16,0,0,1,1.14.93l.77,3.84H16.77l.77-3.84A1.17,1.17,0,0,1,18.68,17.73Z"/><path class="cls-1" d="M9.14,15a1.91,1.91,0,0,1-3.82,0c0-1.67,1.91-3.1,1.91-3.1S9.14,13.31,9.14,15Z"/></g></svg>