<svg xmlns="http://www.w3.org/2000/svg" viewBox="0 0 24 24"><defs><style>.cls-1{fill:none;stroke:#020202;stroke-miterlimit:10;stroke-width:1.91px;}</style></defs><g id="gips"><path class="cls-1" d="M10.09,1.5v10A2.39,2.39,0,0,1,7.7,13.91h0A4.29,4.29,0,0,0,3.41,18.2h0A4.29,4.29,0,0,0,7.7,22.5h8.12a4.78,4.78,0,0,0,4.77-4.77V1.5Z"/><line class="cls-1" x1="6.27" y1="13.91" x2="14.86" y2="22.5"/><line class="cls-1" x1="11.01" y1="18.64" x2="7.19" y2="22.46"/><line class="cls-1" x1="10.09" y1="12" x2="19.64" y2="21.55"/><line class="cls-1" x1="20.59" y1="8.18" x2="13.43" y2="15.34"/><line class="cls-1" x1="20.59" y1="2.45" x2="10.57" y2="12.48"/><line class="cls-1" x1="10.09" y1="6.27" x2="16.77" y2="6.27"/><line class="cls-1" x1="15.82" y1="18.68" x2="20.59" y2="13.91"/><line class="cls-1" x1="8.4" y1="16.04" x2="4.11" y2="20.33"/></g></svg>