<svg xmlns="http://www.w3.org/2000/svg" viewBox="0 0 24 24"><defs><style>.cls-1{fill:none;stroke:#020202;stroke-miterlimit:10;stroke-width:1.91px;}</style></defs><g id="Crutch"><path class="cls-1" d="M7.46,14.63,6.27,15.82,5.09,14.63a5.7,5.7,0,0,1-1.68-4.05V1.5H9.14v9.08A5.74,5.74,0,0,1,7.46,14.63Z"/><line class="cls-1" x1="1.5" y1="1.5" x2="11.05" y2="1.5"/><line class="cls-1" x1="6.27" y1="20.59" x2="6.27" y2="14.86"/><line class="cls-1" x1="5.32" y1="22.5" x2="7.23" y2="22.5"/><line class="cls-1" x1="3.41" y1="9.14" x2="9.14" y2="9.14"/><path class="cls-1" d="M18.91,14.63l-1.18,1.19-1.19-1.19a5.74,5.74,0,0,1-1.68-4.05V1.5h5.73v9.08A5.7,5.7,0,0,1,18.91,14.63Z"/><line class="cls-1" x1="12.95" y1="1.5" x2="22.5" y2="1.5"/><line class="cls-1" x1="17.73" y1="20.59" x2="17.73" y2="14.86"/><line class="cls-1" x1="16.77" y1="22.5" x2="18.68" y2="22.5"/><line class="cls-1" x1="14.86" y1="9.14" x2="20.59" y2="9.14"/></g></svg>