<svg xmlns="http://www.w3.org/2000/svg" viewBox="0 0 24 24"><defs><style>.cls-1{fill:none;stroke:#020202;stroke-miterlimit:10;stroke-width:1.91px;}</style></defs><g id="emergency"><rect class="cls-1" x="4.35" y="18.67" width="15.3" height="3.83"/><path class="cls-1" d="M12,6.24h0A5.74,5.74,0,0,1,17.74,12v6.7a0,0,0,0,1,0,0H6.26a0,0,0,0,1,0,0V12A5.74,5.74,0,0,1,12,6.24Z"/><line class="cls-1" x1="9.13" y1="12.93" x2="14.87" y2="12.93"/><line class="cls-1" x1="12" y1="10.07" x2="12" y2="15.8"/><line class="cls-1" x1="12" y1="0.5" x2="12" y2="3.37"/><line class="cls-1" x1="20.61" y1="11.98" x2="23.48" y2="11.98"/><line class="cls-1" x1="0.52" y1="11.98" x2="3.39" y2="11.98"/><line class="cls-1" x1="3.88" y1="3.86" x2="5.91" y2="5.89"/><line class="cls-1" x1="18.09" y1="5.89" x2="20.12" y2="3.86"/></g></svg>