<svg xmlns="http://www.w3.org/2000/svg" viewBox="0 0 24 24"><defs><style>.cls-1{fill:none;stroke:#020202;stroke-miterlimit:10;stroke-width:1.91px;}</style></defs><g id="eye_drop" data-name="eye drop"><path class="cls-1" d="M8.18,10.09,6.27,14.86v5.73A1.91,1.91,0,0,0,8.18,22.5h7.64a1.91,1.91,0,0,0,1.91-1.91V14.86l-1.91-4.77"/><path class="cls-1" d="M13.91,16.89a1.91,1.91,0,0,1-3.82,0c0-1.67,1.91-3.1,1.91-3.1S13.91,15.22,13.91,16.89Z"/><rect class="cls-1" x="7.23" y="6.27" width="9.55" height="3.82"/><path class="cls-1" d="M13.91,3.91v-.5A1.91,1.91,0,0,0,12,1.5h0a1.91,1.91,0,0,0-1.91,1.91v.5a2,2,0,0,1-.2.86l-.75,1.5h5.72l-.75-1.5A2,2,0,0,1,13.91,3.91Z"/></g></svg>