<svg xmlns="http://www.w3.org/2000/svg" viewBox="0 0 24 24"><defs><style>.cls-1{fill:none;stroke:#020202;stroke-miterlimit:10;stroke-width:1.91px;}</style></defs><g id="intestine"><path class="cls-1" d="M5.32.55h0a1.9,1.9,0,0,0,1.91,1.9h8.59a3.82,3.82,0,0,1,3.82,3.82h0a3.82,3.82,0,0,1-3.82,3.82H7.23"/><path class="cls-1" d="M1.5.55h0A5.72,5.72,0,0,0,7.23,6.27h0a3.82,3.82,0,0,0-3.82,3.82h0a3.82,3.82,0,0,0,3.82,3.82H5.32A3.82,3.82,0,0,0,1.5,17.73h0a3.82,3.82,0,0,0,3.82,3.82H16.77a1.9,1.9,0,0,1,1.91,1.9h0"/><path class="cls-1" d="M6.27,10.09H18.68a3.82,3.82,0,0,1,3.82,3.82h0a3.82,3.82,0,0,1-3.82,3.82H16.77a5.72,5.72,0,0,1,5.73,5.72h0"/></g></svg>