<svg xmlns="http://www.w3.org/2000/svg" viewBox="0 0 24 24"><defs><style>.cls-1{fill:none;stroke:#020202;stroke-miterlimit:10;stroke-width:1.91px;}</style></defs><g id="kidneys"><path class="cls-1" d="M5,14.89H5A3.53,3.53,0,0,1,1.5,11.36v-6A3.82,3.82,0,0,1,5.32,1.52h0A3.82,3.82,0,0,1,9.14,5.34v.74a3.11,3.11,0,0,1,0,.43l-.58,5.24A3.53,3.53,0,0,1,5,14.89Z"/><path class="cls-1" d="M19,14.89h0a3.53,3.53,0,0,0,3.53-3.53v-6a3.82,3.82,0,0,0-3.82-3.82h0a3.82,3.82,0,0,0-3.82,3.82v.74a3.11,3.11,0,0,0,0,.43l.58,5.24A3.53,3.53,0,0,0,19,14.89Z"/><path class="cls-1" d="M6.27,8.2h0A5.73,5.73,0,0,1,12,13.93v9.55"/><path class="cls-1" d="M17.73,8.2h0A5.73,5.73,0,0,0,12,13.93v9.55"/></g></svg>