<svg xmlns="http://www.w3.org/2000/svg" viewBox="0 0 24 24"><defs><style>.cls-1{fill:none;stroke:#020202;stroke-miterlimit:10;stroke-width:1.92px;}</style></defs><g id="transfusion"><path class="cls-1" d="M6.25,11.3a2.69,2.69,0,0,0,1.86.7c2.16,0,2.16-1.92,4.32-1.92,1.79,0,2.09,1.34,3.4,1.78"/><line class="cls-1" x1="0.5" y1="2.42" x2="16.79" y2="2.42"/><line class="cls-1" x1="2.42" y1="0.5" x2="2.42" y2="23.5"/><path class="cls-1" d="M11,6.25h0A4.79,4.79,0,0,1,15.83,11v6.71a0,0,0,0,1,0,0H6.25a0,0,0,0,1,0,0V11A4.79,4.79,0,0,1,11,6.25Z" transform="translate(22.08 24) rotate(180)"/><line class="cls-1" x1="11.04" y1="2.42" x2="11.04" y2="6.25"/><path class="cls-1" d="M11,17.75h0a3.83,3.83,0,0,0,3.83,3.83h0a3.83,3.83,0,0,0,3.83-3.83V15.83a1.91,1.91,0,0,1,1.91-1.91h0a1.91,1.91,0,0,1,1.91,1.91v4.79"/><line class="cls-1" x1="21.58" y1="22.54" x2="23.5" y2="22.54"/></g></svg>