<svg xmlns="http://www.w3.org/2000/svg" viewBox="0 0 24 24"><defs><style>.cls-1{fill:none;stroke:#020202;stroke-miterlimit:10;stroke-width:1.91px;}</style></defs><g id="MRI"><path class="cls-1" d="M15.82,16.8a6.66,6.66,0,0,0,6-3.82,6.57,6.57,0,0,0,.65-2.87,6.68,6.68,0,0,0-13.36,0A6.57,6.57,0,0,0,9.79,13"/><path class="cls-1" d="M15.82,16.8a6.66,6.66,0,0,0,6-3.82,6.57,6.57,0,0,0,.65-2.87,6.68,6.68,0,0,0-13.36,0A6.57,6.57,0,0,0,9.79,13"/><path class="cls-1" d="M13.6,13A6.57,6.57,0,0,1,13,10.11a6.68,6.68,0,0,1,4.78-6.4"/><path class="cls-1" d="M13.6,13A6.57,6.57,0,0,1,13,10.11a6.68,6.68,0,0,1,4.78-6.4"/><path class="cls-1" d="M21.85,13H3.41A1.9,1.9,0,0,0,1.5,14.89V16.8H15.82"/><line class="cls-1" x1="3.41" y1="21.57" x2="3.41" y2="16.8"/><polyline class="cls-1" points="9.14 16.8 9.14 20.61 22.5 20.61 22.5 10.11"/></g></svg>