<svg xmlns="http://www.w3.org/2000/svg" viewBox="0 0 24 24"><defs><style>.cls-1{fill:none;stroke:#020202;stroke-miterlimit:10;stroke-width:1.91px;}</style></defs><g id="oxigen"><path class="cls-1" d="M5.32,5.3h0A3.82,3.82,0,0,1,9.14,9.11V22.48a0,0,0,0,1,0,0H1.5a0,0,0,0,1,0,0V9.11A3.82,3.82,0,0,1,5.32,5.3Z"/><line class="cls-1" x1="5.32" y1="0.52" x2="5.32" y2="5.3"/><path class="cls-1" d="M19.64,11v4.3a3.35,3.35,0,0,1-3.34,3.34h0A3.35,3.35,0,0,1,13,15.32V7.2A4.77,4.77,0,0,0,8.18,2.43H2.45"/><line class="cls-1" x1="9.14" y1="18.66" x2="4.36" y2="18.66"/><path class="cls-1" d="M22.5,8.64c0,1.84-1.28,2.38-2.86,2.38s-2.87-.54-2.87-2.38,1.28-4.3,2.87-4.3S22.5,6.79,22.5,8.64Z"/></g></svg>