<svg xmlns="http://www.w3.org/2000/svg" viewBox="0 0 24 24"><defs><style>.cls-1,.cls-2{fill:none;stroke:#020202;stroke-miterlimit:10;stroke-width:1.91px;}.cls-2{stroke-linecap:square;}</style></defs><g id="computer"><rect class="cls-1" x="1.5" y="1.5" width="21" height="16.23" rx="2.86"/><polygon class="cls-1" points="15.82 22.5 8.18 22.5 9.14 17.73 14.86 17.73 15.82 22.5"/><line class="cls-1" x1="18.68" y1="22.5" x2="5.32" y2="22.5"/><path class="cls-2" d="M8.18,9.14h0A2.86,2.86,0,0,1,11,12v1a0,0,0,0,1,0,0H5.32a0,0,0,0,1,0,0V12A2.86,2.86,0,0,1,8.18,9.14Z"/><circle class="cls-2" cx="8.18" cy="7.23" r="1.91"/><path class="cls-2" d="M19.64,13h0Z"/><line class="cls-1" x1="13.91" y1="7.23" x2="19.64" y2="7.23"/><line class="cls-1" x1="16.77" y1="4.36" x2="16.77" y2="10.09"/></g></svg>