<svg xmlns="http://www.w3.org/2000/svg" viewBox="0 0 24 24"><defs><style>.cls-1{fill:none;stroke:#020202;stroke-miterlimit:10;stroke-width:1.91px;}</style></defs><g id="skeleton"><path class="cls-1" d="M8.65,17.72H12a0,0,0,0,1,0,0v2.39A2.39,2.39,0,0,1,9.61,22.5h-1a2.39,2.39,0,0,1-2.39-2.39v0A2.39,2.39,0,0,1,8.65,17.72Z"/><path class="cls-1" d="M14.39,17.72h1a2.39,2.39,0,0,1,2.39,2.39V22.5a0,0,0,0,1,0,0H14.39A2.39,2.39,0,0,1,12,20.11v0A2.39,2.39,0,0,1,14.39,17.72Z" transform="translate(29.74 40.22) rotate(-180)"/><line class="cls-1" x1="12" y1="0.5" x2="12" y2="17.72"/><path class="cls-1" d="M21.57,6.24h0A6.52,6.52,0,0,0,17,4.33H7.05A6.52,6.52,0,0,0,2.43,6.24h0"/><path class="cls-1" d="M21.57,10.07h0A6.53,6.53,0,0,0,17,8.15H7.05a6.53,6.53,0,0,0-4.62,1.92h0"/><path class="cls-1" d="M19.65,13.89h0A6.53,6.53,0,0,0,15,12H9a6.53,6.53,0,0,0-4.62,1.91h0"/><path class="cls-1" d="M8.65,17.72H12a0,0,0,0,1,0,0v2.39A2.39,2.39,0,0,1,9.61,22.5h-1a2.39,2.39,0,0,1-2.39-2.39v0A2.39,2.39,0,0,1,8.65,17.72Z"/><path class="cls-1" d="M14.39,17.72h1a2.39,2.39,0,0,1,2.39,2.39V22.5a0,0,0,0,1,0,0H14.39A2.39,2.39,0,0,1,12,20.11v0A2.39,2.39,0,0,1,14.39,17.72Z" transform="translate(29.74 40.22) rotate(-180)"/><line class="cls-1" x1="12" y1="0.5" x2="12" y2="17.72"/><path class="cls-1" d="M21.57,6.24h0A6.52,6.52,0,0,0,17,4.33H7.05A6.52,6.52,0,0,0,2.43,6.24h0"/><path class="cls-1" d="M21.57,10.07h0A6.53,6.53,0,0,0,17,8.15H7.05a6.53,6.53,0,0,0-4.62,1.92h0"/><path class="cls-1" d="M19.65,13.89h0A6.53,6.53,0,0,0,15,12H9a6.53,6.53,0,0,0-4.62,1.91h0"/></g></svg>