<svg xmlns="http://www.w3.org/2000/svg" viewBox="0 0 24 24"><defs><style>.cls-1{fill:none;stroke:#020202;stroke-miterlimit:10;stroke-width:1.91px;}</style></defs><g id="backbone"><rect class="cls-1" x="8.18" y="1.5" width="7.64" height="3.82" rx="1.91"/><line class="cls-1" x1="5.32" y1="3.41" x2="8.18" y2="3.41"/><line class="cls-1" x1="15.82" y1="3.41" x2="18.68" y2="3.41"/><rect class="cls-1" x="8.18" y="5.32" width="7.64" height="3.82" rx="1.91"/><line class="cls-1" x1="5.32" y1="7.23" x2="8.18" y2="7.23"/><line class="cls-1" x1="15.82" y1="7.23" x2="18.68" y2="7.23"/><rect class="cls-1" x="8.18" y="9.14" width="7.64" height="3.82" rx="1.91"/><line class="cls-1" x1="5.32" y1="11.05" x2="8.18" y2="11.05"/><line class="cls-1" x1="15.82" y1="11.05" x2="18.68" y2="11.05"/><rect class="cls-1" x="8.18" y="12.95" width="7.64" height="3.82" rx="1.91"/><line class="cls-1" x1="5.32" y1="14.86" x2="8.18" y2="14.86"/><line class="cls-1" x1="15.82" y1="14.86" x2="18.68" y2="14.86"/><path class="cls-1" d="M10.09,16.77h3.82a1.92,1.92,0,0,1,1.91,1.91h0a1.89,1.89,0,0,1-.77,1.53L12,22.5,9,20.21a1.89,1.89,0,0,1-.77-1.53h0A1.92,1.92,0,0,1,10.09,16.77Z"/></g></svg>