<svg xmlns="http://www.w3.org/2000/svg" viewBox="0 0 24 24"><defs><style>.cls-1{fill:none;stroke:#020202;stroke-miterlimit:10;stroke-width:1.92px;}</style></defs><g id="stomach"><path class="cls-1" d="M3.38.5v1a6.63,6.63,0,0,0,2,4.74,6.66,6.66,0,0,0,4.74,2h1v.95a4.63,4.63,0,0,1-1.35,3.27L8.4,13.69a3.71,3.71,0,0,0-.84,1.21h0a6.69,6.69,0,0,0-6.1,6.67V23.5"/><path class="cls-1" d="M7.21.5v1a2.87,2.87,0,0,0,2.87,2.87h1.74A5.75,5.75,0,0,1,22.54,7.21V10a10.7,10.7,0,0,1-3.72,8.09,10.74,10.74,0,0,1-6.93,2.55h-.62a4,4,0,0,1-3.43-1.89,2.86,2.86,0,0,0-2.55,2.85V23.5"/><path class="cls-1" d="M9.39,12.69C16.72,11.33,15,15.57,22.1,13"/></g></svg>