<svg xmlns="http://www.w3.org/2000/svg" viewBox="0 0 24 24"><defs><style>.cls-1{fill:none;stroke:#020202;stroke-miterlimit:10;stroke-width:1.91px;}</style></defs><g id="uterus"><path class="cls-1" d="M3.41,9.16h0A1.91,1.91,0,0,1,1.5,7.25v-1A2.86,2.86,0,0,1,4.36,3.43h0A2.86,2.86,0,0,1,7.23,6.3h0A2.8,2.8,0,0,0,9,8.91H9a8.08,8.08,0,0,0,6,0h0A2.8,2.8,0,0,0,16.77,6.3h0a2.86,2.86,0,0,1,2.87-2.87h0A2.86,2.86,0,0,1,22.5,6.3v1a1.91,1.91,0,0,1-1.91,1.91h0"/><path class="cls-1" d="M7.23,6.3v4.4A7.59,7.59,0,0,0,8.53,15l0,0A7.37,7.37,0,0,0,11,17.16l1,.59,1.13-.65a7.3,7.3,0,0,0,1.75-1.38,7.6,7.6,0,0,0,1.89-5V6.3"/><line class="cls-1" x1="12" y1="21.57" x2="12" y2="17.75"/><circle class="cls-1" cx="20.59" cy="10.11" r="0.95"/><circle class="cls-1" cx="3.41" cy="10.11" r="0.95"/></g></svg>