<svg id="Layer_1" data-name="Layer 1" xmlns="http://www.w3.org/2000/svg" viewBox="0 0 24 24"><defs><style>.cls-1{fill:none;stroke:#020202;stroke-miterlimit:10;stroke-width:1.91px;}</style></defs><path class="cls-1" d="M1.5,5.32H7.23a0,0,0,0,1,0,0V8.18a1.91,1.91,0,0,1-1.91,1.91H3.41A1.91,1.91,0,0,1,1.5,8.18V5.32A0,0,0,0,1,1.5,5.32Z"/><rect class="cls-1" x="2.45" y="1.5" width="3.82" height="3.82"/><path class="cls-1" d="M16.77,13.91H22.5a0,0,0,0,1,0,0v2.86a1.91,1.91,0,0,1-1.91,1.91H18.68a1.91,1.91,0,0,1-1.91-1.91V13.91A0,0,0,0,1,16.77,13.91Z" transform="translate(39.27 32.59) rotate(180)"/><rect class="cls-1" x="17.73" y="18.68" width="3.82" height="3.82" transform="translate(39.27 41.18) rotate(180)"/><path class="cls-1" d="M4.36,10.09v8.59A3.82,3.82,0,0,0,8.18,22.5h0A3.82,3.82,0,0,0,12,18.68V5.32A3.82,3.82,0,0,1,15.82,1.5h0a3.82,3.82,0,0,1,3.82,3.82v8.59"/></svg>