<svg id="Layer_1" data-name="Layer 1" xmlns="http://www.w3.org/2000/svg" viewBox="0 0 24 24"><defs><style>.cls-1{fill:none;stroke:#020202;stroke-miterlimit:10;stroke-width:1.91px;}</style></defs><path class="cls-1" d="M21.55,12.52v7.12a1.92,1.92,0,0,1-1.91,1.91H3.41A1.91,1.91,0,0,1,1.5,19.64V6.27A1.91,1.91,0,0,1,3.41,4.36H12a1.67,1.67,0,0,0,0,.39v5.91A2.29,2.29,0,0,0,14.29,13h5.92A2.33,2.33,0,0,0,21.55,12.52Z"/><path class="cls-1" d="M22.5,4.75v5.91a2.28,2.28,0,0,1-.95,1.86,2.33,2.33,0,0,1-1.34.43H14.29A2.28,2.28,0,0,1,12,10.66V4.75a1.67,1.67,0,0,1,0-.39,2.29,2.29,0,0,1,2.25-1.91h5.92A2.29,2.29,0,0,1,22.5,4.75Z"/><circle class="cls-1" cx="17.25" cy="7.7" r="2.39"/><line class="cls-1" x1="16.77" y1="17.73" x2="18.68" y2="17.73"/><line class="cls-1" x1="12.95" y1="17.73" x2="14.86" y2="17.73"/><rect class="cls-1" x="4.36" y="8.18" width="4.77" height="4.77"/></svg>