<svg id="Layer_1" data-name="Layer 1" xmlns="http://www.w3.org/2000/svg" viewBox="0 0 24 24"><defs><style>.cls-1{fill:none;stroke:#020202;stroke-miterlimit:10;stroke-width:1.91px;}</style></defs><path class="cls-1" d="M8.18,2.64V7.09A11.22,11.22,0,0,1,5.32,8.16v5.77H1.5V4.86A3.33,3.33,0,0,1,4.84,1.52,8.88,8.88,0,0,1,8.18,2.64Z"/><line class="cls-1" x1="1.5" y1="4.86" x2="1.5" y2="4.39"/><path class="cls-1" d="M15.82,2.64V7.09a11.22,11.22,0,0,0,2.86,1.07v5.77H22.5V4.86a3.33,3.33,0,0,0-3.34-3.34A8.88,8.88,0,0,0,15.82,2.64Z"/><line class="cls-1" x1="22.5" y1="4.39" x2="22.5" y2="4.86"/><path class="cls-1" d="M3.41,13.93h0A4.77,4.77,0,0,0,8.18,18.7H12v4.78"/><path class="cls-1" d="M20.55,13.93h0a4.77,4.77,0,0,1-4.77,4.77H10.09"/></svg>