<svg id="Layer_1" data-name="Layer 1" xmlns="http://www.w3.org/2000/svg" viewBox="0 0 24 24"><defs><style>.cls-1{fill:none;stroke:#020202;stroke-miterlimit:10;stroke-width:1.91px;}</style></defs><ellipse class="cls-1" cx="20.59" cy="12" rx="1.91" ry="4.77"/><path class="cls-1" d="M20.59,16.77H16.77c-1,0-1.91-2.14-1.91-4.77s.86-4.77,1.91-4.77h3.82c-1.05,0-1.91,2.14-1.91,4.77S19.54,16.77,20.59,16.77Z"/><path class="cls-1" d="M15.64,16,7.23,14.86H2.93c-.79,0-1.43-1.28-1.43-2.86s.64-2.86,1.43-2.86h4.3L15.64,8"/><path class="cls-1" d="M6.75,14.86C6,14.86,5.32,13.58,5.32,12S6,9.14,6.75,9.14"/><line class="cls-1" x1="10.09" y1="12" x2="12" y2="12"/></svg>