<svg id="Layer_1" data-name="Layer 1" xmlns="http://www.w3.org/2000/svg" viewBox="0 0 24 24"><defs><style>.cls-1{fill:none;stroke:#020202;stroke-miterlimit:10;stroke-width:1.91px;}</style></defs><rect class="cls-1" x="1.5" y="9.11" width="21" height="13.36" rx="1.91"/><line class="cls-1" x1="8.18" y1="18.66" x2="15.82" y2="18.66"/><line class="cls-1" x1="5.32" y1="15.8" x2="7.23" y2="15.8"/><line class="cls-1" x1="9.14" y1="15.8" x2="11.05" y2="15.8"/><line class="cls-1" x1="12.95" y1="15.8" x2="14.86" y2="15.8"/><line class="cls-1" x1="16.77" y1="15.8" x2="18.68" y2="15.8"/><line class="cls-1" x1="5.32" y1="12.93" x2="7.23" y2="12.93"/><line class="cls-1" x1="9.14" y1="12.93" x2="11.05" y2="12.93"/><line class="cls-1" x1="12.95" y1="12.93" x2="14.86" y2="12.93"/><line class="cls-1" x1="16.77" y1="12.93" x2="18.68" y2="12.93"/><path class="cls-1" d="M8.18,9.11V3.39a1.91,1.91,0,0,1,1.91-1.91h0A1.9,1.9,0,0,1,12,3.39h0A1.91,1.91,0,0,0,13.91,5.3h0a1.92,1.92,0,0,0,1.91-1.91V.52"/></svg>