<svg id="Layer_1" data-name="Layer 1" xmlns="http://www.w3.org/2000/svg" viewBox="0 0 24 24"><defs><style>.cls-1{fill:none;stroke:#020202;stroke-miterlimit:10;stroke-width:1.91px;}</style></defs><path class="cls-1" d="M21.55,11.05a1,1,0,0,0,.95.95v6.68H1.5V12a1,1,0,0,0,0-1.91V5.32h21v4.77A1,1,0,0,0,21.55,11.05Z"/><polygon class="cls-1" points="13.91 9.14 10.09 9.14 6.27 9.14 6.27 12.96 10.09 12.96 13.91 12.96 17.73 12.96 17.73 9.14 13.91 9.14"/><line class="cls-1" x1="4.36" y1="15.82" x2="4.36" y2="18.68"/><line class="cls-1" x1="8.18" y1="15.82" x2="8.18" y2="18.68"/><line class="cls-1" x1="12" y1="15.82" x2="12" y2="18.68"/><line class="cls-1" x1="15.82" y1="15.82" x2="15.82" y2="18.68"/><line class="cls-1" x1="19.64" y1="15.82" x2="19.64" y2="18.68"/></svg>