<svg id="Layer_1" data-name="Layer 1" xmlns="http://www.w3.org/2000/svg" viewBox="0 0 24 24"><defs><style>.cls-1{fill:none;stroke:#020202;stroke-miterlimit:10;stroke-width:1.91px;}</style></defs><path class="cls-1" d="M20.59,10.09A1.92,1.92,0,0,0,22.5,12v6.68H17.73V14.86H13.91v3.82H1.5V12a1.91,1.91,0,0,0,0-3.82V5.32h21V8.18A1.92,1.92,0,0,0,20.59,10.09Z"/><line class="cls-1" x1="6.27" y1="14.86" x2="6.27" y2="18.68"/><line class="cls-1" x1="10.09" y1="14.86" x2="10.09" y2="18.68"/><line class="cls-1" x1="13.91" y1="18.68" x2="13.91" y2="14.86"/><line class="cls-1" x1="17.73" y1="18.68" x2="17.73" y2="14.86"/><polyline class="cls-1" points="1.5 14.86 6.27 14.86 10.09 14.86 13.91 14.86 17.73 14.86 22.5 14.86"/><line class="cls-1" x1="8.18" y1="8.18" x2="8.18" y2="12"/><line class="cls-1" x1="12" y1="8.18" x2="12" y2="12"/><line class="cls-1" x1="15.82" y1="8.18" x2="15.82" y2="12"/></svg>