<svg id="Layer_1" data-name="Layer 1" xmlns="http://www.w3.org/2000/svg" viewBox="0 0 24 24"><defs><style>.cls-1{fill:none;stroke:#020202;stroke-miterlimit:10;stroke-width:1.91px;}</style></defs><line class="cls-1" x1="22.5" y1="20.59" x2="22.5" y2="12.95"/><line class="cls-1" x1="1.5" y1="20.59" x2="1.5" y2="12.95"/><path class="cls-1" d="M19.64,22.5H13.91l-.07-.26a1.92,1.92,0,0,0-3.68,0l-.07.26H4.36a1.91,1.91,0,0,1-1.91-1.91V13a1.91,1.91,0,0,1,1.91-1.9H19.64A1.91,1.91,0,0,1,21.55,13v7.64A1.91,1.91,0,0,1,19.64,22.5Z"/><line class="cls-1" x1="5.32" y1="14.86" x2="7.23" y2="14.86"/><line class="cls-1" x1="5.32" y1="18.68" x2="7.23" y2="18.68"/><polyline class="cls-1" points="3.41 1.5 6.27 1.5 6.27 4.36 3.41 4.36"/><polyline class="cls-1" points="3.41 4.36 6.27 4.36 6.27 7.23 3.41 7.23"/><rect class="cls-1" x="10.09" y="4.36" width="2.86" height="2.86"/><polyline class="cls-1" points="10.09 5.79 10.09 1.5 13.91 1.5"/><rect class="cls-1" x="16.77" y="1.5" width="2.86" height="5.73"/></svg>