<svg id="Layer_1" data-name="Layer 1" xmlns="http://www.w3.org/2000/svg" viewBox="0 0 24 24"><defs><style>.cls-1{fill:none;stroke:#020202;stroke-miterlimit:10;stroke-width:1.91px;}</style></defs><path class="cls-1" d="M5.3,1.5h7.16A5.25,5.25,0,0,1,17.7,6.75v0A5.25,5.25,0,0,1,12.45,12H5.3a0,0,0,0,1,0,0V1.5a0,0,0,0,1,0,0Z"/><path class="cls-1" d="M5.3,12h9.07a5.25,5.25,0,0,1,5.25,5.25v0a5.25,5.25,0,0,1-5.25,5.25H5.3a0,0,0,0,1,0,0V12A0,0,0,0,1,5.3,12Z"/><line class="cls-1" x1="3.39" y1="1.5" x2="5.3" y2="1.5"/><line class="cls-1" x1="3.39" y1="22.5" x2="5.3" y2="22.5"/></svg>