<svg id="Layer_1" data-name="Layer 1" xmlns="http://www.w3.org/2000/svg" viewBox="0 0 24 24"><defs><style>.cls-1{fill:none;stroke:#020202;stroke-miterlimit:10;stroke-width:1.92px;}</style></defs><path class="cls-1" d="M10.56,5.77l2.72-2.72a5.43,5.43,0,0,1,3.84-1.59,5.43,5.43,0,0,1,5.42,5.42A5.43,5.43,0,0,1,21,10.72l-2.72,2.72"/><path class="cls-1" d="M5.77,10.56,3.05,13.28A5.42,5.42,0,1,0,10.72,21l2.72-2.72"/><line class="cls-1" x1="16.79" y1="7.21" x2="7.21" y2="16.79"/><line class="cls-1" x1="20.63" y1="15.83" x2="23.5" y2="15.83"/><line class="cls-1" x1="15.83" y1="20.63" x2="15.83" y2="23.5"/><line class="cls-1" x1="19.19" y1="19.19" x2="21.1" y2="21.1"/><line class="cls-1" x1="3.38" y1="8.17" x2="0.5" y2="8.17"/><line class="cls-1" x1="8.17" y1="3.38" x2="8.17" y2="0.5"/><line class="cls-1" x1="4.81" y1="4.81" x2="2.9" y2="2.9"/></svg>