<svg id="Layer_1" data-name="Layer 1" xmlns="http://www.w3.org/2000/svg" viewBox="0 0 24 24"><defs><style>.cls-1{fill:none;stroke:#020202;stroke-miterlimit:10;stroke-width:1.91px;}</style></defs><path class="cls-1" d="M18.68,1.48H5.32A3.82,3.82,0,0,0,1.5,5.3v9.54a3.82,3.82,0,0,0,3.82,3.82H9.14L12,21.52l2.86-2.86h3.82a3.82,3.82,0,0,0,3.82-3.82V5.3A3.82,3.82,0,0,0,18.68,1.48Z"/><path class="cls-1" d="M16.77,13.89h-6.2a3.34,3.34,0,0,1-3.34-3.34h0A3.34,3.34,0,0,1,10.57,7.2h4.29"/><polyline class="cls-1" points="12 4.34 14.86 7.21 12 10.07"/></svg>