<svg id="Layer_1" data-name="Layer 1" xmlns="http://www.w3.org/2000/svg" viewBox="0 0 24 24"><defs><style>.cls-1{fill:none;stroke:#020202;stroke-miterlimit:10;stroke-width:1.91px;}</style></defs><path class="cls-1" d="M1.5,5.3v9.54a3.82,3.82,0,0,0,3.82,3.82H7.23v2.86L13,18.66h5.73a3.82,3.82,0,0,0,3.82-3.82V5.3a3.82,3.82,0,0,0-3.82-3.82H5.32A3.82,3.82,0,0,0,1.5,5.3Z"/><path class="cls-1" d="M7.23,13.89h6.2a3.34,3.34,0,0,0,3.34-3.34h0A3.34,3.34,0,0,0,13.43,7.2H9.14"/><polyline class="cls-1" points="12 4.34 9.14 7.21 12 10.07"/></svg>