<svg id="Layer_1" data-name="Layer 1" xmlns="http://www.w3.org/2000/svg" viewBox="0 0 24 24"><defs><style>.cls-1{fill:none;stroke:#020202;stroke-miterlimit:10;stroke-width:1.91px;}</style></defs><path class="cls-1" d="M9.14,12.93h3.34a1.43,1.43,0,0,0,1.43-1.43h0a1.43,1.43,0,0,0-1.43-1.43h-1a1.43,1.43,0,0,1-1.43-1.43h0A1.44,1.44,0,0,1,11.52,7.2h3.34"/><line class="cls-1" x1="12" y1="5.3" x2="12" y2="7.2"/><line class="cls-1" x1="12" y1="12.93" x2="12" y2="14.84"/><path class="cls-1" d="M1.5,5.3v9.54a3.82,3.82,0,0,0,3.82,3.82H7.23v2.86L13,18.66h5.73a3.82,3.82,0,0,0,3.82-3.82V5.3a3.82,3.82,0,0,0-3.82-3.82H5.32A3.82,3.82,0,0,0,1.5,5.3Z"/></svg>