<svg id="Layer_1" data-name="Layer 1" xmlns="http://www.w3.org/2000/svg" viewBox="0 0 24 24"><defs><style>.cls-1{fill:#020202;}.cls-2{fill:none;stroke:#020202;stroke-miterlimit:10;stroke-width:1.91px;}</style></defs><path class="cls-1" d="M16.44,9.56a2.36,2.36,0,0,0-4.33-1.3,2.35,2.35,0,0,0-4.32,1.3c0,2.75,4.32,4.33,4.32,4.33S16.44,12.31,16.44,9.56Z"/><path class="cls-2" d="M18.68,1.48H5.32A3.82,3.82,0,0,0,1.5,5.3v9.54a3.82,3.82,0,0,0,3.82,3.82H9.14L12,21.52l2.86-2.86h3.82a3.82,3.82,0,0,0,3.82-3.82V5.3A3.82,3.82,0,0,0,18.68,1.48Z"/></svg>