<svg id="Layer_1" data-name="Layer 1" xmlns="http://www.w3.org/2000/svg" viewBox="0 0 24 24"><defs><style>.cls-1{fill:none;stroke:#020202;stroke-miterlimit:10;stroke-width:1.91px;}</style></defs><path class="cls-1" d="M18.68,1.48H5.32A3.82,3.82,0,0,0,1.5,5.3v9.54a3.82,3.82,0,0,0,3.82,3.82H9.14L12,21.52l2.86-2.86h3.82a3.82,3.82,0,0,0,3.82-3.82V5.3A3.82,3.82,0,0,0,18.68,1.48Z"/><rect class="cls-1" x="8.18" y="9.11" width="7.64" height="5.73"/><path class="cls-1" d="M12,5.3h0A1.91,1.91,0,0,1,13.91,7.2V9.11a0,0,0,0,1,0,0H10.09a0,0,0,0,1,0,0V7.2A1.91,1.91,0,0,1,12,5.3Z"/></svg>