<svg id="Layer_1" data-name="Layer 1" xmlns="http://www.w3.org/2000/svg" viewBox="0 0 24 24"><defs><style>.cls-1{fill:none;stroke:#020202;stroke-miterlimit:10;stroke-width:1.91px;}</style></defs><path class="cls-1" d="M14.86,5.3H5.32A3.81,3.81,0,0,0,1.5,9.11v5.73a3.82,3.82,0,0,0,3.82,3.82H7.23l2.86,2.86L13,18.66h1.91a3.82,3.82,0,0,0,3.82-3.82V9.11A3.81,3.81,0,0,0,14.86,5.3Z"/><path class="cls-1" d="M18.68,14.84A3.82,3.82,0,0,0,22.5,11V5.3a3.82,3.82,0,0,0-3.82-3.82H9.14A3.82,3.82,0,0,0,5.32,5.3"/></svg>