<svg id="Layer_1" data-name="Layer 1" xmlns="http://www.w3.org/2000/svg" viewBox="0 0 24 24"><defs><style>.cls-1{fill:none;stroke:#020202;stroke-miterlimit:10;stroke-width:1.91px;}</style></defs><path class="cls-1" d="M18.68,8.16V15.8a2.86,2.86,0,0,1-2.86,2.86H13.91v2.86L8.18,18.66H4.36A2.86,2.86,0,0,1,1.5,15.8V8.16A2.86,2.86,0,0,1,4.36,5.3H15.82A2.86,2.86,0,0,1,18.68,8.16Z"/><path class="cls-1" d="M18.68,14.84h1A2.86,2.86,0,0,0,22.5,12V4.34a2.86,2.86,0,0,0-2.86-2.86H8.18A2.86,2.86,0,0,0,5.32,4.34v1"/></svg>