<svg id="Layer_1" data-name="Layer 1" xmlns="http://www.w3.org/2000/svg" viewBox="0 0 24 24"><defs><style>.cls-1{fill:#020202;}.cls-2{fill:none;stroke:#020202;stroke-miterlimit:10;stroke-width:1.91px;}</style></defs><circle class="cls-1" cx="12" cy="12.93" r="0.95"/><path class="cls-2" d="M9,10.91a4.2,4.2,0,0,1,5.94,0"/><path class="cls-2" d="M6.8,8.68a7.36,7.36,0,0,1,10.4,0"/><path class="cls-2" d="M18.68,1.48H5.32A3.82,3.82,0,0,0,1.5,5.3v9.54a3.82,3.82,0,0,0,3.82,3.82H9.14L12,21.52l2.86-2.86h3.82a3.82,3.82,0,0,0,3.82-3.82V5.3A3.82,3.82,0,0,0,18.68,1.48Z"/></svg>