<svg id="Layer_1" data-name="Layer 1" xmlns="http://www.w3.org/2000/svg" viewBox="0 0 24 24"><defs><style>.cls-1{fill:none;stroke:#020202;stroke-miterlimit:10;stroke-width:1.91px;}</style></defs><path class="cls-1" d="M1.5,7.23V22.5H19.64a2.87,2.87,0,0,0,0-5.73H17.73V7.23Z"/><path class="cls-1" d="M17.73,1.5V16.77h1.91a2.88,2.88,0,0,1,2,.84,2.85,2.85,0,0,1,.84,2V4.36A2.87,2.87,0,0,0,19.64,1.5Z"/><polyline class="cls-1" points="13.91 18.68 5.32 18.68 5.32 10.09"/><line class="cls-1" x1="7.23" y1="12" x2="5.32" y2="12"/><line class="cls-1" x1="7.23" y1="14.86" x2="5.32" y2="14.86"/><line class="cls-1" x1="9.14" y1="16.77" x2="9.14" y2="18.68"/><line class="cls-1" x1="12" y1="16.77" x2="12" y2="18.68"/></svg>