<svg id="Layer_1" data-name="Layer 1" xmlns="http://www.w3.org/2000/svg" viewBox="0 0 24 24"><defs><style>.cls-1{fill:none;stroke:#020202;stroke-miterlimit:10;stroke-width:1.91px;}</style></defs><polyline class="cls-1" points="1.5 23.48 1.5 9.16 12 1.52 22.5 9.16 22.5 23.48"/><path class="cls-1" d="M7.23,14.89h9.55a1.91,1.91,0,0,1,1.91,1.91v3.82a0,0,0,0,1,0,0H5.32a0,0,0,0,1,0,0V16.8a1.91,1.91,0,0,1,1.91-1.91Z"/><line class="cls-1" x1="10.09" y1="17.75" x2="8.18" y2="17.75"/><line class="cls-1" x1="15.82" y1="17.75" x2="13.91" y2="17.75"/><rect class="cls-1" x="7.23" y="20.61" width="0.95" height="1.91"/><rect class="cls-1" x="15.82" y="20.61" width="0.95" height="1.91"/><path class="cls-1" d="M16.77,14.89H7.23l.59-2.38a1.9,1.9,0,0,1,1.85-1.44h4.66a1.9,1.9,0,0,1,1.85,1.44Z"/></svg>