<svg id="Layer_1" data-name="Layer 1" xmlns="http://www.w3.org/2000/svg" viewBox="0 0 24 24"><defs><style>.cls-1{fill:none;stroke:#020202;stroke-miterlimit:10;stroke-width:1.91px;}</style></defs><polygon class="cls-1" points="14.86 22.5 9.14 22.5 9.14 3.41 12 1.5 14.86 3.41 14.86 22.5"/><polygon class="cls-1" points="20.59 22.5 14.86 22.5 14.86 3.41 17.73 1.5 20.59 3.41 20.59 22.5"/><polygon class="cls-1" points="9.14 22.5 3.41 22.5 3.41 3.41 6.27 1.5 9.14 3.41 9.14 22.5"/><line class="cls-1" x1="5.32" y1="8.18" x2="7.23" y2="8.18"/><line class="cls-1" x1="11.05" y1="8.18" x2="12.95" y2="8.18"/><line class="cls-1" x1="16.77" y1="8.18" x2="18.68" y2="8.18"/><line class="cls-1" x1="5.32" y1="17.73" x2="7.23" y2="17.73"/><line class="cls-1" x1="11.05" y1="17.73" x2="12.95" y2="17.73"/><line class="cls-1" x1="16.77" y1="17.73" x2="18.68" y2="17.73"/></svg>