<svg id="Layer_1" data-name="Layer 1" xmlns="http://www.w3.org/2000/svg" viewBox="0 0 24 24"><defs><style>.cls-1{fill:none;stroke:#020202;stroke-miterlimit:10;stroke-width:1.91px;}</style></defs><polygon class="cls-1" points="1.48 1.5 1.48 5.33 3.39 5.33 3.39 9.15 20.61 9.15 20.61 5.33 22.52 5.33 22.52 1.5 1.48 1.5"/><path class="cls-1" d="M5.3,9.15H18.7a0,0,0,0,1,0,0v0A3.83,3.83,0,0,1,14.87,13H9.13A3.83,3.83,0,0,1,5.3,9.15v0A0,0,0,0,1,5.3,9.15Z"/><line class="cls-1" x1="15.83" y1="5.33" x2="3.39" y2="5.33"/><polyline class="cls-1" points="12 15.85 11.04 19.67 12.96 19.67 12 23.5"/><polyline class="cls-1" points="5.3 15.85 4.35 19.67 6.26 19.67 5.3 23.5"/><polyline class="cls-1" points="18.7 15.85 17.74 19.67 19.65 19.67 18.7 23.5"/></svg>