<svg id="Layer_1" data-name="Layer 1" xmlns="http://www.w3.org/2000/svg" viewBox="0 0 24 24"><defs><style>.cls-1{fill:none;stroke:#020202;stroke-miterlimit:10;stroke-width:1.91px;}</style></defs><path class="cls-1" d="M1.48,23.5V20.63a6.7,6.7,0,0,1,6.69-6.7h5.74a1.92,1.92,0,0,1,1.92,1.92h0a1.92,1.92,0,0,1-1.92,1.91h1l4.19-4.19A2,2,0,0,1,20.49,13h0a2,2,0,0,1,2,2h0a2,2,0,0,1-.59,1.43l-4,4a3.84,3.84,0,0,1-2.7,1.12H11A1.91,1.91,0,0,0,9.13,23.5h0"/><rect class="cls-1" x="7.22" y="7.03" width="9.57" height="6.91"/><polygon class="cls-1" points="12 1.5 6.26 7.03 17.74 7.03 12 1.5"/><rect class="cls-1" x="11.04" y="11.07" width="1.91" height="2.87"/></svg>