<svg id="Layer_1" data-name="Layer 1" xmlns="http://www.w3.org/2000/svg" viewBox="0 0 24 24"><defs><style>.cls-1{fill:none;stroke:#020202;stroke-miterlimit:10;stroke-width:1.91px;}</style></defs><path class="cls-1" d="M18.68,8.18C18.68,13.19,12,19,12,19S5.32,13.19,5.32,8.18a6.68,6.68,0,0,1,13.36,0Z"/><path class="cls-1" d="M14.86,6.27H11.52A1.43,1.43,0,0,0,10.09,7.7h0a1.43,1.43,0,0,0,1.43,1.44h1a1.43,1.43,0,0,1,1.43,1.43h0A1.43,1.43,0,0,1,12.48,12H9.14"/><line class="cls-1" x1="12" y1="4.36" x2="12" y2="6.27"/><line class="cls-1" x1="12" y1="12" x2="12" y2="13.91"/><polyline class="cls-1" points="16.52 13.91 19.64 13.91 22.5 22.5 1.5 22.5 4.36 13.91 7.49 13.91"/></svg>