<svg id="Layer_1" data-name="Layer 1" xmlns="http://www.w3.org/2000/svg" viewBox="0 0 24 24"><defs><style>.cls-1{fill:none;stroke:#020202;stroke-miterlimit:10;stroke-width:2px;}</style></defs><polyline class="cls-1" points="20 8.5 20 22.5 4 22.5 4 8.5"/><polyline class="cls-1" points="23 10.5 12 1.5 1 10.5"/><path class="cls-1" d="M8,11.5H9a3,3,0,0,1,3,3v1a0,0,0,0,1,0,0H11a3,3,0,0,1-3-3v-1A0,0,0,0,1,8,11.5Z"/><path class="cls-1" d="M15,13.5h1a0,0,0,0,1,0,0v1a3,3,0,0,1-3,3H12a0,0,0,0,1,0,0v-1A3,3,0,0,1,15,13.5Z"/><line class="cls-1" x1="12" y1="22.5" x2="12" y2="15.5"/></svg>