<svg id="Layer_1" data-name="Layer 1" xmlns="http://www.w3.org/2000/svg" viewBox="0 0 24 24"><defs><style>.cls-1{fill:none;stroke:#020202;stroke-miterlimit:10;stroke-width:1.92px;}</style></defs><polyline class="cls-1" points="0.5 17.75 8.17 17.75 8.17 21.58 0.5 21.58"/><rect class="cls-1" x="8.17" y="17.75" width="7.67" height="3.83"/><rect class="cls-1" x="4.33" y="13.92" width="7.67" height="3.83"/><rect class="cls-1" x="12" y="13.92" width="7.67" height="3.83"/><rect class="cls-1" x="4.33" y="6.25" width="7.67" height="3.83"/><rect class="cls-1" x="12" y="6.25" width="7.67" height="3.83"/><polyline class="cls-1" points="23.5 21.58 15.83 21.58 15.83 17.75 23.5 17.75"/><polyline class="cls-1" points="0.5 10.08 8.17 10.08 8.17 13.92 0.5 13.92"/><rect class="cls-1" x="8.17" y="10.08" width="7.67" height="3.83"/><polyline class="cls-1" points="23.5 13.92 15.83 13.92 15.83 10.08 23.5 10.08"/><polyline class="cls-1" points="0.5 2.42 8.17 2.42 8.17 6.25 0.5 6.25"/><rect class="cls-1" x="8.17" y="2.42" width="7.67" height="3.83"/><polyline class="cls-1" points="23.5 6.25 15.83 6.25 15.83 2.42 23.5 2.42"/></svg>