<svg id="Layer_1" data-name="Layer 1" xmlns="http://www.w3.org/2000/svg" viewBox="0 0 24 24"><defs><style>.cls-1{fill:none;stroke:#020202;stroke-miterlimit:10;stroke-width:1.89px;}</style></defs><path class="cls-1" d="M12,12.94V7.28A1.91,1.91,0,0,0,9.94,5.4a2,2,0,0,0-1.71,2v8.38l-1.31-1.3a2,2,0,0,0-1.41-.58A2,2,0,0,0,4.09,17.3l5.08,5.08"/><path class="cls-1" d="M12,12.94V6.44a2,2,0,0,1,1.42-1.93,1.87,1.87,0,0,1,1.8.5,1.83,1.83,0,0,1,.55,1.33v6.2l3.1.26a1.78,1.78,0,0,1,1.62,1.78h0a17,17,0,0,1-1.8,7.63l-.08.17"/><path class="cls-1" d="M18.17,3a4.73,4.73,0,0,1,0,6.68"/><path class="cls-1" d="M5.83,10.62a4.73,4.73,0,0,1,0-6.68"/><path class="cls-1" d="M3.45,2.56a6.69,6.69,0,0,0,0,9.44"/><path class="cls-1" d="M20.55,11.06a6.69,6.69,0,0,0,0-9.44"/></svg>