<svg id="Layer_1" data-name="Layer 1" xmlns="http://www.w3.org/2000/svg" viewBox="0 0 24 24"><defs><style>.cls-1{fill:none;stroke:#020202;stroke-miterlimit:10;stroke-width:1.89px;}</style></defs><path class="cls-1" d="M12,12.93V5.37A1.84,1.84,0,0,0,11.44,4a1.86,1.86,0,0,0-1.5-.55,2,2,0,0,0-1.72,2V15.76l-1.3-1.3a2,2,0,0,0-1.42-.59,2,2,0,0,0-1.41.59,2,2,0,0,0-.59,1.42,2,2,0,0,0,.59,1.41l5.08,5.08"/><path class="cls-1" d="M12,12.93V4.53A2,2,0,0,1,13.42,2.6a1.87,1.87,0,0,1,1.8.5,1.84,1.84,0,0,1,.56,1.33v8.09l3.09.27a1.78,1.78,0,0,1,1.63,1.77h0a17.13,17.13,0,0,1-1.8,7.64l-.09.17"/><path class="cls-1" d="M18.18,1.09a4.73,4.73,0,0,1,0,6.68"/><path class="cls-1" d="M5.82,8.72A4.74,4.74,0,0,1,5.82,2"/></svg>