<svg id="Layer_1" data-name="Layer 1" xmlns="http://www.w3.org/2000/svg" viewBox="0 0 24 24"><defs><style>.cls-1{fill:none;stroke:#020202;stroke-miterlimit:10;stroke-width:1.91px;}</style></defs><path class="cls-1" d="M13.91,12.93V6.25a1.89,1.89,0,0,0-.56-1.35,1.86,1.86,0,0,0-1.52-.55,2,2,0,0,0-1.74,2V15.8L8.77,14.48a2,2,0,0,0-1.43-.59,2,2,0,0,0-1.43,3.45l5.14,5.14"/><path class="cls-1" d="M13.91,12.93V5.4a2,2,0,0,1,1.44-1.95,1.84,1.84,0,0,1,1.81.5,1.84,1.84,0,0,1,.57,1.35v7.22l3.12.27a1.8,1.8,0,0,1,1.65,1.79h0a17.22,17.22,0,0,1-1.82,7.72l-.09.18"/><polyline class="cls-1" points="7.23 7.21 4.36 10.07 1.5 7.21"/><line class="cls-1" x1="4.36" y1="0.52" x2="4.36" y2="10.07"/></svg>