<svg id="Layer_1" data-name="Layer 1" xmlns="http://www.w3.org/2000/svg" viewBox="0 0 24 24"><defs><style>.cls-1{fill:none;stroke:#020202;stroke-miterlimit:10;stroke-width:1.91px;}</style></defs><path class="cls-1" d="M11.05,3.43A1.91,1.91,0,0,1,13,1.52h0a1.91,1.91,0,0,1,1.91,1.91"/><path class="cls-1" d="M14.86,4.39a1.91,1.91,0,0,1,1.91-1.91h0a1.9,1.9,0,0,1,1.91,1.91"/><path class="cls-1" d="M18.68,12h0a1.92,1.92,0,0,1,1.91-1.91h0A1.91,1.91,0,0,1,22.5,12v2.87a9.87,9.87,0,0,1-.71,3.68L21.3,19.8a9.87,9.87,0,0,0-.71,3.68h0"/><path class="cls-1" d="M8.18,23.48h0a4.57,4.57,0,0,0-1.35-3.26L2.09,15.48a2,2,0,0,1-.59-1.43,2.07,2.07,0,0,1,.59-1.44,2,2,0,0,1,2.87,0l2.27,2.28V4.39A1.9,1.9,0,0,1,9.14,2.48h0a1.91,1.91,0,0,1,1.91,1.91V12"/><line class="cls-1" x1="11.05" y1="12.02" x2="11.05" y2="3.43"/><line class="cls-1" x1="14.86" y1="12.02" x2="14.86" y2="3.43"/><line class="cls-1" x1="18.68" y1="12.02" x2="18.68" y2="4.39"/></svg>