<svg id="Layer_1" data-name="Layer 1" xmlns="http://www.w3.org/2000/svg" viewBox="0 0 24 24"><defs><style>.cls-1{fill:none;stroke:#020202;stroke-miterlimit:10;stroke-width:1.91px;}</style></defs><path class="cls-1" d="M7.24,22.52,2.09,17.38a2,2,0,0,1,1.44-3.47,2,2,0,0,1,1.43.6l1.32,1.32V6.37A2,2,0,0,1,8,4.35a1.94,1.94,0,0,1,2.08,1.91V12l5.05.72a1.92,1.92,0,0,1,1.64,1.9h0A17.25,17.25,0,0,1,15,22.34l-.09.18"/><path class="cls-1" d="M10.11,10.64a4.54,4.54,0,0,0,1.47-1,4.79,4.79,0,1,0-6.77,0,4.54,4.54,0,0,0,1.47,1"/><path class="cls-1" d="M20,5.14l-.33.16-.32-.16a2.86,2.86,0,0,1-1.59-2.57V1.48h3.83V2.57A2.88,2.88,0,0,1,20,5.14Z"/><line class="cls-1" x1="15.85" y1="1.48" x2="23.5" y2="1.48"/><path class="cls-1" d="M19.35,5.47l.32-.17.33.17A2.87,2.87,0,0,1,21.59,8v1.1H17.76V8A2.85,2.85,0,0,1,19.35,5.47Z"/><line class="cls-1" x1="23.5" y1="9.13" x2="15.85" y2="9.13"/></svg>