<svg id="Layer_1" data-name="Layer 1" xmlns="http://www.w3.org/2000/svg" viewBox="0 0 24 24"><defs><style>.cls-1{fill:none;stroke:#020202;stroke-miterlimit:10;stroke-width:1.91px;}</style></defs><polyline class="cls-1" points="19.64 7.23 22.5 4.36 19.64 1.5"/><polyline class="cls-1" points="4.36 7.23 1.5 4.36 4.36 1.5"/><polyline class="cls-1" points="15.56 4.36 15.82 4.36 22.5 4.36"/><polyline class="cls-1" points="12.29 4.36 10.1 4.36 8.18 4.36 1.5 4.36"/><path class="cls-1" d="M12,13V6.27a1.87,1.87,0,0,0-.56-1.34,1.89,1.89,0,0,0-1.52-.56,2,2,0,0,0-1.74,2v9.44L6.86,14.5a2,2,0,0,0-1.43-.59,2,2,0,0,0-2,2A2,2,0,0,0,4,17.36L9.14,22.5"/><path class="cls-1" d="M12,13V5.42a2,2,0,0,1,1.44-1.95,1.92,1.92,0,0,1,2.38,1.85v7.22l3.13.27a1.8,1.8,0,0,1,1.64,1.8h0a17.25,17.25,0,0,1-1.82,7.72l-.09.17"/></svg>