<svg id="Layer_1" data-name="Layer 1" xmlns="http://www.w3.org/2000/svg" viewBox="0 0 24 24"><defs><style>.cls-1{fill:none;stroke:#020202;stroke-miterlimit:10;stroke-width:1.9px;}</style></defs><path class="cls-1" d="M6.3,22.93l-.52-.53A11.18,11.18,0,0,1,2.5,14.49h0a4.87,4.87,0,0,1,1.42-3.44h0A4.86,4.86,0,0,1,7.37,9.62H9.15a1.91,1.91,0,0,1,1.9,1.9h0a1.9,1.9,0,0,1-1.9,1.89H6.3"/><path class="cls-1" d="M6.3,13.43l.34.13a7,7,0,0,1,4.41,6.51h0"/><path class="cls-1" d="M18.22,22.4a11.18,11.18,0,0,0,3.28-7.91"/><rect class="cls-1" x="13.9" y="9.62" width="3.8" height="6.65" rx="1.9"/><rect class="cls-1" x="17.7" y="10.57" width="3.8" height="5.7" rx="1.9"/><path class="cls-1" d="M10.1,9.62V3A1.91,1.91,0,0,1,12,1.07h0A1.91,1.91,0,0,1,13.9,3v9.51"/></svg>