<svg id="Layer_1" data-name="Layer 1" xmlns="http://www.w3.org/2000/svg" viewBox="0 0 24 24"><defs><style>.cls-1{fill:none;stroke:#020202;stroke-miterlimit:10;stroke-width:1.91px;}</style></defs><path class="cls-1" d="M8.2,23.5V21.59L5.49,18.88a3.82,3.82,0,0,1-1.12-2.7V12.64a2.52,2.52,0,0,1,1.31-2.27,2.38,2.38,0,0,1,2.52.22"/><path class="cls-1" d="M11.07,10.11v-1h0A2.87,2.87,0,0,0,8.2,12v3.83"/><path class="cls-1" d="M18.72,23.5V20.63l.08-.17a17.18,17.18,0,0,0,1.83-7.74h0A2.85,2.85,0,0,0,18,9.88L14.89,9.7V3.41a1.91,1.91,0,0,0-2.38-1.85,2,2,0,0,0-1.44,2v6.59"/></svg>