<svg id="Layer_1" data-name="Layer 1" xmlns="http://www.w3.org/2000/svg" viewBox="0 0 24 24"><defs><style>.cls-1{fill:none;stroke:#020202;stroke-miterlimit:10;stroke-width:1.91px;}</style></defs><path class="cls-1" d="M11.05,22.5,5.91,17.36a2,2,0,0,1-.59-1.43,2,2,0,0,1,2-2,2,2,0,0,1,1.43.59l1.32,1.32V6.38a2,2,0,0,1,1.74-2,1.89,1.89,0,0,1,1.52.56,1.87,1.87,0,0,1,.56,1.34V12l5,.72a1.91,1.91,0,0,1,1.64,1.89h0a17.18,17.18,0,0,1-1.82,7.71l-.09.18"/><polyline class="cls-1" points="19.64 7.23 22.5 4.36 19.64 1.5"/><line class="cls-1" x1="15.82" y1="4.36" x2="22.5" y2="4.36"/><polyline class="cls-1" points="4.36 7.23 1.5 4.36 4.36 1.5"/><line class="cls-1" x1="8.18" y1="4.36" x2="1.5" y2="4.36"/></svg>