<svg id="Layer_1" data-name="Layer 1" xmlns="http://www.w3.org/2000/svg" viewBox="0 0 24 24"><defs><style>.cls-1{fill:none;stroke:#020202;stroke-miterlimit:10;stroke-width:1.91px;}</style></defs><path class="cls-1" d="M13,22.52,7.82,17.39A2,2,0,0,1,7.23,16a2.07,2.07,0,0,1,.59-1.44,2,2,0,0,1,1.43-.59,2,2,0,0,1,1.43.59L12,15.84V6.4a2,2,0,0,1,1.74-2A1.87,1.87,0,0,1,15.25,5a1.84,1.84,0,0,1,.57,1.35V12l5,.72a1.91,1.91,0,0,1,1.64,1.89h0a17.25,17.25,0,0,1-1.82,7.72l-.09.17"/><polyline class="cls-1" points="1.5 5.34 4.36 2.48 7.23 5.34"/><line class="cls-1" x1="4.36" y1="12.02" x2="4.36" y2="2.48"/></svg>