<svg id="Layer_1" data-name="Layer 1" xmlns="http://www.w3.org/2000/svg" viewBox="0 0 24 24"><defs><style>.cls-1{fill:none;stroke:#020202;stroke-miterlimit:10;stroke-width:1.91px;}</style></defs><path class="cls-1" d="M.78,15.06,5.24,10.6a1.74,1.74,0,0,1,1.24-.51,1.79,1.79,0,0,1,1.24.51,1.81,1.81,0,0,1,.51,1.24,1.76,1.76,0,0,1-.51,1.25L6.58,14.86h7.57a1.43,1.43,0,0,1,1.43,1.44h0a1.43,1.43,0,0,1-1.43,1.43H9.89L9.26,21a1.65,1.65,0,0,1-1.64,1.42h0A15,15,0,0,1,.94,20.8l-.16-.08"/><path class="cls-1" d="M9.89,17.73,9.26,21A1.67,1.67,0,0,1,7.62,22.5h0A14.54,14.54,0,0,1,.94,20.88L.78,20.8"/><path class="cls-1" d="M23.22,8.94,18.76,13.4a1.74,1.74,0,0,1-1.24.51,1.79,1.79,0,0,1-1.24-.51,1.81,1.81,0,0,1-.51-1.24,1.76,1.76,0,0,1,.51-1.25l1.14-1.77H9.85A1.43,1.43,0,0,1,8.42,7.7h0A1.43,1.43,0,0,1,9.85,6.27h4.26l.63-3.22a1.65,1.65,0,0,1,1.64-1.42h0A15,15,0,0,1,23.06,3.2l.16.08"/><path class="cls-1" d="M14.11,6.27,14.74,3A1.67,1.67,0,0,1,16.38,1.5h0a14.54,14.54,0,0,1,6.68,1.62l.16.08"/></svg>