<svg id="Layer_1" data-name="Layer 1" xmlns="http://www.w3.org/2000/svg" viewBox="0 0 24 24"><defs><style>.cls-1{fill:none;stroke:#020202;stroke-miterlimit:10;stroke-width:1.86px;}</style></defs><path class="cls-1" d="M11.14,22.23l-5-5a2,2,0,0,1,0-2.8,2,2,0,0,1,1.4-.58,2,2,0,0,1,1.4.58l1.28,1.29V4.63a1.94,1.94,0,0,1,1.7-2,1.87,1.87,0,0,1,2,1.86V12l4.92.7a1.87,1.87,0,0,1,1.6,1.85h0a17,17,0,0,1-1.77,7.53l-.09.17"/><path class="cls-1" d="M7.84,1.23a4.67,4.67,0,0,0,0,6.6"/><path class="cls-1" d="M16.3,7.83a4.69,4.69,0,0,0,0-6.6"/></svg>