<svg id="Layer_1" data-name="Layer 1" xmlns="http://www.w3.org/2000/svg" viewBox="0 0 24 24"><defs><style>.cls-1{fill:none;stroke:#020202;stroke-miterlimit:10;stroke-width:1.88px;}</style></defs><path class="cls-1" d="M8.26,23.32V21.44L5.6,18.78a3.79,3.79,0,0,1-1.1-2.66V11.69A2.48,2.48,0,0,1,5.79,9.46a2.34,2.34,0,0,1,2.47.22"/><path class="cls-1" d="M12,11.09V4.5a1.84,1.84,0,0,0-.56-1.33A1.82,1.82,0,0,0,10,2.63a2,2,0,0,0-1.72,2V15.79"/><path class="cls-1" d="M18.62,23.32V20.5l.08-.17a17,17,0,0,0,1.8-7.61h0A1.77,1.77,0,0,0,18.88,11l-3.09-.27V3.56a1.88,1.88,0,0,0-2.34-1.82A2,2,0,0,0,12,3.66v7.43"/></svg>