<svg id="Layer_1" data-name="Layer 1" xmlns="http://www.w3.org/2000/svg" viewBox="0 0 24 24"><defs><style>.cls-1{fill:none;stroke:#020202;stroke-miterlimit:10;stroke-width:1.91px;}</style></defs><path class="cls-1" d="M13.91,13V6.27a1.87,1.87,0,0,0-.56-1.34,1.9,1.9,0,0,0-1.52-.56,2,2,0,0,0-1.74,2v9.44L8.77,14.5a2,2,0,0,0-1.43-.59,2,2,0,0,0-2,2,2,2,0,0,0,.59,1.43l5.14,5.14"/><path class="cls-1" d="M13.91,13V5.42a2,2,0,0,1,1.44-1.95,1.92,1.92,0,0,1,2.38,1.85v7.22l3.12.27a1.8,1.8,0,0,1,1.65,1.8h0a17.25,17.25,0,0,1-1.82,7.72l-.09.17"/><polyline class="cls-1" points="7.23 9.14 4.36 12 1.5 9.14"/><polyline class="cls-1" points="1.5 4.36 4.36 1.5 7.23 4.36"/><line class="cls-1" x1="4.36" y1="2.45" x2="4.36" y2="12"/></svg>