<svg id="Layer_1" data-name="Layer 1" xmlns="http://www.w3.org/2000/svg" viewBox="0 0 24 24"><defs><style>.cls-1{fill:none;stroke:#020202;stroke-miterlimit:10;stroke-width:1.91px;}</style></defs><path class="cls-1" d="M13.91,13V6.3a1.91,1.91,0,0,0-2.08-1.9,2,2,0,0,0-1.74,2v9.44L8.77,14.52a2,2,0,0,0-1.43-.59,2,2,0,0,0-1.43.59A2.07,2.07,0,0,0,5.32,16a2,2,0,0,0,.59,1.43l5.14,5.13"/><path class="cls-1" d="M13.91,13V5.45a2,2,0,0,1,1.44-2,1.92,1.92,0,0,1,2.38,1.85v7.23l3.12.27a1.79,1.79,0,0,1,1.65,1.79h0a17.25,17.25,0,0,1-1.82,7.72l-.09.17"/><polyline class="cls-1" points="1.5 5.34 4.36 2.48 7.23 5.34"/><line class="cls-1" x1="4.36" y1="12.02" x2="4.36" y2="2.48"/></svg>