<svg id="Layer_1" data-name="Layer 1" xmlns="http://www.w3.org/2000/svg" viewBox="0 0 24 24"><defs><style>.cls-1{fill:none;stroke:#020202;stroke-miterlimit:10;stroke-width:1.83px;}</style></defs><path class="cls-1" d="M12.87,22,8,17.13a1.91,1.91,0,0,1-.57-1.37,1.94,1.94,0,0,1,3.31-1.37L12,15.65v-9A1.89,1.89,0,0,1,13.62,4.7a1.84,1.84,0,0,1,2,1.82V12l4.82.69A1.83,1.83,0,0,1,22,14.5h0a16.54,16.54,0,0,1-1.74,7.37l-.09.17"/><polyline class="cls-1" points="10.13 5.61 6.48 5.61 6.48 1.96"/><polyline class="cls-1" points="1 7.43 4.65 7.43 4.65 11.09"/><line class="cls-1" x1="4.65" y1="7.43" x2="1" y2="11.09"/><line class="cls-1" x1="6.48" y1="5.61" x2="10.13" y2="1.96"/></svg>