<svg id="Layer_1" data-name="Layer 1" xmlns="http://www.w3.org/2000/svg" viewBox="0 0 24 24"><defs><style>.cls-1{fill:none;stroke:#020202;stroke-miterlimit:10;stroke-width:1.91px;}</style></defs><path class="cls-1" d="M14.86,7.23v3.82l-.47,2.86-.8,4.77L13,22.5h-1.9l-.64-3.82-.8-4.77-.47-2.86V7.23a2.86,2.86,0,1,1,5.72,0Z"/><path class="cls-1" d="M7.23,1.5h9.54"/><line class="cls-1" x1="12" y1="1.5" x2="12" y2="4.36"/><polygon class="cls-1" points="10.41 18.68 11.04 22.5 6.27 22.5 6.27 19.64 10.41 18.68"/><polygon class="cls-1" points="17.73 19.64 17.73 22.5 12.96 22.5 13.59 18.68 17.73 19.64"/><polygon class="cls-1" points="9.61 13.91 1.5 12.96 1.5 9.14 9.14 8.18 9.14 11.04 9.61 13.91"/><polygon class="cls-1" points="22.5 9.14 22.5 12.96 14.39 13.91 14.86 11.04 14.86 8.18 22.5 9.14"/></svg>