<svg id="Layer_1" data-name="Layer 1" xmlns="http://www.w3.org/2000/svg" viewBox="0 0 24 24"><defs><style>.cls-1{fill:none;stroke:#020202;stroke-miterlimit:10;stroke-width:1.92px;}</style></defs><path class="cls-1" d="M.5,16.79H18.71A3.82,3.82,0,0,0,22.54,13,9.59,9.59,0,0,0,13,3.38H.5"/><circle class="cls-1" cx="3.38" cy="18.71" r="1.92"/><circle class="cls-1" cx="13.92" cy="18.71" r="1.92"/><circle class="cls-1" cx="17.75" cy="18.71" r="1.92"/><path class="cls-1" d="M22.54,13H15.83A3.84,3.84,0,0,1,12,9.12a1.93,1.93,0,0,1,1.92-1.91h6.7A9.55,9.55,0,0,1,22.54,13Z"/><path class="cls-1" d="M.5,7.21H6.25A1.92,1.92,0,0,1,8.17,9.12h0A1.92,1.92,0,0,1,6.25,11H.5"/><line class="cls-1" x1="3.38" y1="7.21" x2="3.38" y2="11.04"/><line class="cls-1" x1="0.5" y1="20.63" x2="23.5" y2="20.63"/></svg>