<svg id="Layer_1" data-name="Layer 1" xmlns="http://www.w3.org/2000/svg" viewBox="0 0 24 24"><defs><style>.cls-1{fill:none;stroke:#020202;stroke-miterlimit:10;stroke-width:1.91px;}.cls-2{fill:#020202;}</style></defs><rect class="cls-1" x="4.36" y="4.36" width="15.27" height="14.32"/><path class="cls-1" d="M7.23,1.5h9.55a2.86,2.86,0,0,1,2.86,2.86v0a0,0,0,0,1,0,0H4.36a0,0,0,0,1,0,0v0A2.86,2.86,0,0,1,7.23,1.5Z"/><path class="cls-1" d="M4.36,18.68H8.18a0,0,0,0,1,0,0v2.86a1,1,0,0,1-1,1H5.32a1,1,0,0,1-1-1V18.68A0,0,0,0,1,4.36,18.68Z"/><path class="cls-1" d="M15.82,18.68h3.82a0,0,0,0,1,0,0v2.86a1,1,0,0,1-1,1H16.77a1,1,0,0,1-1-1V18.68A0,0,0,0,1,15.82,18.68Z"/><rect class="cls-1" x="19.64" y="5.32" width="2.86" height="5.73" rx="1.43"/><rect class="cls-1" x="1.5" y="5.32" width="2.86" height="5.73" rx="1.43"/><circle class="cls-2" cx="7.7" cy="15.34" r="1.43"/><circle class="cls-2" cx="16.3" cy="15.34" r="1.43"/><line class="cls-1" x1="10.09" y1="15.82" x2="13.91" y2="15.82"/><line class="cls-1" x1="4.36" y1="12" x2="19.64" y2="12"/></svg>