<svg id="Layer_1" data-name="Layer 1" xmlns="http://www.w3.org/2000/svg" viewBox="0 0 24 24"><defs><style>.cls-1{fill:none;stroke:#020202;stroke-miterlimit:10;stroke-width:1.91px;}</style></defs><polyline class="cls-1" points="3.89 19.64 1.5 19.64 1.5 14.86 10.09 14.86"/><polyline class="cls-1" points="14.86 14.86 14.86 19.64 10.09 19.64 7.71 19.64"/><path class="cls-1" d="M16.77,19.64H14.86V8.18h3.67a2.86,2.86,0,0,1,2.71,2l1.26,3.77v5.73H20.59"/><circle class="cls-1" cx="18.68" cy="19.64" r="1.91"/><circle class="cls-1" cx="5.8" cy="19.64" r="1.91"/><line class="cls-1" x1="17.73" y1="13.91" x2="22.5" y2="13.91"/><polyline class="cls-1" points="10.09 14.86 1.5 14.86 1.5 4.36 12.96 4.36 14.86 2.46 21.55 2.46 21.55 4.36 21.55 8.18 18.53 8.18 14.86 8.18 14.86 10.09 14.86 14.86"/><rect class="cls-1" x="10.09" y="10.09" width="4.77" height="9.55"/></svg>