<svg id="Layer_1" data-name="Layer 1" xmlns="http://www.w3.org/2000/svg" viewBox="0 0 24 24"><defs><style>.cls-1{fill:none;stroke:#020202;stroke-miterlimit:10;stroke-width:1.91px;}</style></defs><path class="cls-1" d="M13.91,5.32H8.18a1.93,1.93,0,0,0-1.53.76L4.36,9.14l-2.86.95v6.68H4.36a1.91,1.91,0,0,1,3.82,0h6.68a1.91,1.91,0,0,1,3.82,0H22.5V12.34a1.91,1.91,0,0,0-1.2-1.77L17.73,9.14,15.44,6.08A1.91,1.91,0,0,0,13.91,5.32Z"/><circle class="cls-1" cx="16.77" cy="16.77" r="1.91"/><circle class="cls-1" cx="6.27" cy="16.77" r="1.91"/><line class="cls-1" x1="20.1" y1="10.09" x2="7.23" y2="10.09"/><line class="cls-1" x1="20.59" y1="13.91" x2="22.5" y2="13.91"/><line class="cls-1" x1="12" y1="7.23" x2="12" y2="10.09"/></svg>