<svg id="Layer_1" data-name="Layer 1" xmlns="http://www.w3.org/2000/svg" viewBox="0 0 24 24"><defs><style>.cls-1{fill:none;stroke:#020202;stroke-miterlimit:10;stroke-width:1.91px;}.cls-2{fill:#020202;}</style></defs><path class="cls-1" d="M2.45,17.73H7.23a0,0,0,0,1,0,0v2.86a1,1,0,0,1-1,1H3.41a1,1,0,0,1-1-1V17.73A0,0,0,0,1,2.45,17.73Z"/><path class="cls-1" d="M16.77,17.73h4.77a0,0,0,0,1,0,0v2.86a1,1,0,0,1-1,1H17.73a1,1,0,0,1-1-1V17.73A0,0,0,0,1,16.77,17.73Z"/><path class="cls-1" d="M5.32,9.14H18.68A3.82,3.82,0,0,1,22.5,13v4.77a0,0,0,0,1,0,0H1.5a0,0,0,0,1,0,0V13A3.82,3.82,0,0,1,5.32,9.14Z"/><path class="cls-1" d="M16.29,2.45H7.71A1.91,1.91,0,0,0,5.88,3.84L4.36,9.14H19.64l-1.52-5.3A1.91,1.91,0,0,0,16.29,2.45Z"/><circle class="cls-2" cx="4.84" cy="13.43" r="1.43"/><circle class="cls-2" cx="19.16" cy="13.43" r="1.43"/><path class="cls-1" d="M14.86,13.91h0Z"/><line class="cls-1" x1="22.5" y1="7.23" x2="19.09" y2="7.23"/><line class="cls-1" x1="4.91" y1="7.23" x2="1.5" y2="7.23"/></svg>