<svg id="Layer_1" data-name="Layer 1" xmlns="http://www.w3.org/2000/svg" viewBox="0 0 24 24"><defs><style>.cls-1{fill:none;stroke:#020202;stroke-miterlimit:10;stroke-width:1.91px;}</style></defs><circle class="cls-1" cx="6.27" cy="19.64" r="1.91"/><circle class="cls-1" cx="17.73" cy="19.64" r="1.91"/><path class="cls-1" d="M19.64,19.64H22.5V13.91L21,7.71A1.9,1.9,0,0,0,19.1,6.27H15.82V19.64"/><polyline class="cls-1" points="8.18 19.64 15.82 19.64 15.82 14.86 1.5 14.86 1.5 19.64 4.36 19.64"/><polyline class="cls-1" points="15.82 12.96 18.68 13.91 19.64 13.91 22.5 13.91"/><path class="cls-1" d="M3.41,2.45V7.23L4.36,9v.64a1.44,1.44,0,0,1-1.43,1.44h0A1.44,1.44,0,0,1,1.5,9.61V9.14"/><polygon class="cls-1" points="15.82 14.86 9.14 14.86 11.04 11.04 15.82 11.04 15.82 14.86"/><polyline class="cls-1" points="1.5 2.46 6.27 2.46 11.04 11.04"/></svg>