<svg id="Layer_1" data-name="Layer 1" xmlns="http://www.w3.org/2000/svg" viewBox="0 0 24 24"><defs><style>.cls-1{fill:none;stroke:#020202;stroke-miterlimit:10;stroke-width:1.91px;}</style></defs><circle class="cls-1" cx="6.27" cy="19.64" r="1.91"/><circle class="cls-1" cx="17.73" cy="19.64" r="1.91"/><path class="cls-1" d="M4.36,19.64H1.5V4.36A1.91,1.91,0,0,1,3.41,2.45H18.68a1.91,1.91,0,0,1,1.91,1.91v9.55l1.91,2.86v2.87H19.64"/><line class="cls-1" x1="15.82" y1="19.64" x2="8.18" y2="19.64"/><polyline class="cls-1" points="20.59 11.04 20.59 13.91 5.32 13.91 5.32 11.04"/><polyline class="cls-1" points="20.59 5.32 20.59 8.18 5.32 8.18 5.32 5.32"/><line class="cls-1" x1="9.14" y1="5.32" x2="9.14" y2="8.18"/><line class="cls-1" x1="9.14" y1="11.05" x2="9.14" y2="13.91"/><line class="cls-1" x1="12.95" y1="5.32" x2="12.95" y2="8.18"/><line class="cls-1" x1="12.95" y1="11.05" x2="12.95" y2="13.91"/><line class="cls-1" x1="16.77" y1="5.32" x2="16.77" y2="8.18"/><line class="cls-1" x1="16.77" y1="11.05" x2="16.77" y2="13.91"/></svg>