<svg id="Layer_1" data-name="Layer 1" xmlns="http://www.w3.org/2000/svg" viewBox="0 0 24 24"><defs><style>.cls-1{fill:none;stroke:#020202;stroke-miterlimit:10;stroke-width:1.89px;}</style></defs><circle class="cls-1" cx="3.5" cy="19.61" r="1.89"/><circle class="cls-1" cx="12.97" cy="19.61" r="1.89"/><path class="cls-1" d="M14.87,11.08v8.53a1.9,1.9,0,1,0-3.79,0H5.39a1.89,1.89,0,1,0-3.78,0V13.92h8.52A2.85,2.85,0,0,1,13,11.08Z"/><path class="cls-1" d="M14.87,11.08H13a2.85,2.85,0,0,0-2.84,2.84H1.61V3.5H7.29A7.58,7.58,0,0,1,14.87,11.08Z"/><line class="cls-1" x1="4.45" y1="10.13" x2="4.45" y2="13.92"/><line class="cls-1" x1="11.5" y1="11.5" x2="9.66" y2="9.66"/><line class="cls-1" x1="11.08" y1="8.24" x2="8.71" y2="10.61"/><rect class="cls-1" x="14.87" y="13.92" width="3.79" height="5.68"/><polyline class="cls-1" points="18.66 19.61 18.66 13.92 18.66 3.5"/><line class="cls-1" x1="23.39" y1="19.61" x2="18.66" y2="19.61"/></svg>