<svg id="Layer_1" data-name="Layer 1" xmlns="http://www.w3.org/2000/svg" viewBox="0 0 24 24"><defs><style>.cls-1{fill:none;stroke:#020202;stroke-miterlimit:10;stroke-width:1.92px;}</style></defs><path class="cls-1" d="M23.5,1.46h0Z"/><path class="cls-1" d="M7.21,8.17h9.58A2.88,2.88,0,0,1,19.67,11v11.5a0,0,0,0,1,0,0H4.33a0,0,0,0,1,0,0V11A2.88,2.88,0,0,1,7.21,8.17Z"/><polygon class="cls-1" points="12.96 5.29 11.04 5.29 8.17 1.46 15.83 1.46 12.96 5.29"/><line class="cls-1" x1="12" y1="8.17" x2="12" y2="5.29"/><rect class="cls-1" x="9.13" y="12.96" width="5.75" height="9.58"/><line class="cls-1" x1="4.33" y1="16.79" x2="9.13" y2="16.79"/><line class="cls-1" x1="14.88" y1="16.79" x2="19.67" y2="16.79"/><line class="cls-1" x1="9.13" y1="12.96" x2="4.33" y2="12.96"/><line class="cls-1" x1="18.71" y1="12.96" x2="13.92" y2="12.96"/></svg>