<svg id="Layer_1" data-name="Layer 1" xmlns="http://www.w3.org/2000/svg" viewBox="0 0 24 24"><defs><style>.cls-1{fill:none;stroke:#020202;stroke-miterlimit:10;stroke-width:1.91px;}</style></defs><circle class="cls-1" cx="6.24" cy="16.78" r="1.91"/><circle class="cls-1" cx="17.72" cy="16.78" r="1.91"/><polyline class="cls-1" points="8.15 16.78 13.89 16.78 13.89 12 10.06 12 6.24 12 2.41 12 1.46 12 1.46 16.78 4.33 16.78"/><polyline class="cls-1" points="19.63 16.78 22.5 16.78 22.5 12 20.59 11.04 18.67 5.3 13.89 5.3 13.89 8.17 13.89 12 13.89 16.78 15.8 16.78"/><line class="cls-1" x1="20.59" y1="11.04" x2="16.76" y2="11.04"/><line class="cls-1" x1="10.07" y1="8.17" x2="10.07" y2="12"/><line class="cls-1" x1="6.24" y1="8.17" x2="6.24" y2="12"/><line class="cls-1" x1="2.41" y1="8.17" x2="2.41" y2="12"/><line class="cls-1" x1="13.89" y1="8.17" x2="0.5" y2="8.17"/></svg>