<svg id="Layer_1" data-name="Layer 1" xmlns="http://www.w3.org/2000/svg" viewBox="0 0 24 24"><defs><style>.cls-1{fill:none;stroke:#020202;stroke-miterlimit:10;stroke-width:1.91px;}</style></defs><path class="cls-1" d="M3.41,5.36H20.59A1.91,1.91,0,0,1,22.5,7.27v9.55a0,0,0,0,1,0,0H1.5a0,0,0,0,1,0,0V7.27A1.91,1.91,0,0,1,3.41,5.36Z"/><circle class="cls-1" cx="3.41" cy="18.73" r="1.91"/><circle class="cls-1" cx="7.23" cy="18.73" r="1.91"/><circle class="cls-1" cx="16.77" cy="18.73" r="1.91"/><circle class="cls-1" cx="20.59" cy="18.73" r="1.91"/><line class="cls-1" x1="1.5" y1="11.09" x2="22.5" y2="11.09"/><line class="cls-1" x1="6.27" y1="5.36" x2="6.27" y2="11.09"/><line class="cls-1" x1="12" y1="5.36" x2="12" y2="11.09"/><line class="cls-1" x1="17.73" y1="5.36" x2="17.73" y2="11.09"/></svg>