<svg id="Layer_1" data-name="Layer 1" xmlns="http://www.w3.org/2000/svg" viewBox="0 0 24 24"><defs><style>.cls-1{fill:none;stroke:#020202;stroke-miterlimit:10;stroke-width:1.91px;}</style></defs><path class="cls-1" d="M13.11,16.55,7.45,10.89l7.27-7.27a7.24,7.24,0,0,1,7.41-1.75h0a7.24,7.24,0,0,1-1.75,7.41Z"/><ellipse class="cls-1" cx="14.85" cy="9.09" rx="0.94" ry="0.91"/><polygon class="cls-1" points="9.57 17.26 6.74 14.43 8.16 11.6 12.4 15.84 9.57 17.26"/><path class="cls-1" d="M12.88,14.11h0a4,4,0,0,1,4,4v3a0,0,0,0,1,0,0h0a4,4,0,0,1-4-4v-3A0,0,0,0,1,12.88,14.11Z" transform="translate(16.81 -5.36) rotate(45)"/><path class="cls-1" d="M8.39,5.62h0a0,0,0,0,1,0,0v3a4,4,0,0,1-4,4h0a0,0,0,0,1,0,0v-3a4,4,0,0,1,4-4Z" transform="translate(4.46 20.1) rotate(-135)"/><path class="cls-1" d="M3.73,16.27A3,3,0,0,1,8,16a3,3,0,0,1-.27,4.27C5.45,22.55,1.5,22.5,1.5,22.5S1.45,18.55,3.73,16.27Z"/></svg>