<svg id="Layer_1" data-name="Layer 1" xmlns="http://www.w3.org/2000/svg" viewBox="0 0 24 24"><defs><style>.cls-1{fill:none;stroke:#020202;stroke-miterlimit:10;stroke-width:1.91px;}</style></defs><polyline class="cls-1" points="3.89 18.68 2.93 18.68 1.5 18.68 1.5 13.91 12.96 13.91 12.96 18.68 10.57 18.68"/><path class="cls-1" d="M15.82,18.68H13V6.27H17a1.91,1.91,0,0,1,1.89,1.64l.72,5"/><circle class="cls-1" cx="17.73" cy="18.68" r="1.91"/><circle class="cls-1" cx="4.84" cy="18.68" r="1.91"/><circle class="cls-1" cx="8.66" cy="18.68" r="1.91"/><line class="cls-1" x1="15.82" y1="12.95" x2="19.64" y2="12.95"/><polyline class="cls-1" points="19.64 12.96 22.5 13.91 22.5 18.68 19.64 18.68"/><polyline class="cls-1" points="10.09 3.41 12.96 3.41 12.96 8.18"/><polygon class="cls-1" points="12.96 13.91 9.14 13.91 10.09 9.14 12.96 9.14 12.96 13.91"/></svg>