<svg id="Layer_1" data-name="Layer 1" xmlns="http://www.w3.org/2000/svg" viewBox="0 0 24 24"><defs><style>.cls-1{fill:none;stroke:#020202;stroke-miterlimit:10;stroke-width:1.91px;}</style></defs><circle class="cls-1" cx="16.77" cy="17.8" r="1.91"/><circle class="cls-1" cx="6.27" cy="17.8" r="1.91"/><line class="cls-1" x1="20.59" y1="14.93" x2="22.5" y2="14.93"/><line class="cls-1" x1="12" y1="12.07" x2="12" y2="9.2"/><path class="cls-1" d="M17.73,11.11h0a3.27,3.27,0,0,1-2.31,1H9.14a1.91,1.91,0,0,1-1.91-1.91h-1l-1.91.95-2.86,1V17.8H4.36a1.91,1.91,0,0,1,3.82,0h6.68a1.91,1.91,0,0,1,3.82,0H22.5V14.32a1.92,1.92,0,0,0-1.2-1.78l-3.57-1.43L15.82,7.3"/></svg>