<svg id="Layer_1" data-name="Layer 1" xmlns="http://www.w3.org/2000/svg" viewBox="0 0 24 24"><defs><style>.cls-1{fill:none;stroke:#020202;stroke-miterlimit:10;stroke-width:1.91px;}</style></defs><path class="cls-1" d="M13.91,10.09H8.18a1.93,1.93,0,0,0-1.53.76L4.36,13.91l-2.86.95v5.73H4.36a1.91,1.91,0,0,1,3.82,0h6.68a1.91,1.91,0,0,1,3.82,0H22.5V15.82l-4.77-1.91-2.29-3.06A1.91,1.91,0,0,0,13.91,10.09Z"/><circle class="cls-1" cx="16.77" cy="20.59" r="1.91"/><circle class="cls-1" cx="6.27" cy="20.59" r="1.91"/><line class="cls-1" x1="20.1" y1="14.86" x2="7.23" y2="14.86"/><line class="cls-1" x1="20.59" y1="17.73" x2="22.5" y2="17.73"/><line class="cls-1" x1="12" y1="14.86" x2="12" y2="12"/><path class="cls-1" d="M11,6.27h0A1.91,1.91,0,0,1,13,8.18v1.91a0,0,0,0,1,0,0H9.14a0,0,0,0,1,0,0V8.18A1.91,1.91,0,0,1,11,6.27Z"/><line class="cls-1" x1="5.32" y1="7.23" x2="7.23" y2="7.23"/><line class="cls-1" x1="14.86" y1="7.23" x2="16.77" y2="7.23"/><line class="cls-1" x1="7" y1="3.18" x2="8.35" y2="4.53"/><line class="cls-1" x1="13.75" y1="4.53" x2="15.1" y2="3.18"/><line class="cls-1" x1="11.05" y1="3.41" x2="11.05" y2="1.5"/></svg>