<svg id="Layer_1" data-name="Layer 1" xmlns="http://www.w3.org/2000/svg" viewBox="0 0 24 24"><defs><style>.cls-1{fill:none;stroke:#020202;stroke-miterlimit:10;stroke-width:1.91px;}</style></defs><path class="cls-1" d="M14.86,19.64H9.14a1.91,1.91,0,0,1-1.91-1.91V8.18a7.64,7.64,0,0,1,3-6.11h0A2.89,2.89,0,0,1,12,1.5h0a2.89,2.89,0,0,1,1.72.57h0a7.64,7.64,0,0,1,3,6.11v9.55A1.91,1.91,0,0,1,14.86,19.64Z"/><path class="cls-1" d="M12,6.27h0a1.91,1.91,0,0,1,1.91,1.91v0a0,0,0,0,1,0,0H10.09a0,0,0,0,1,0,0v0A1.91,1.91,0,0,1,12,6.27Z"/><polygon class="cls-1" points="7.23 18.68 1.5 18.68 1.5 16.77 7.23 11.04 7.23 18.68"/><polygon class="cls-1" points="16.77 18.68 22.5 18.68 22.5 16.77 16.77 11.04 16.77 18.68"/><polygon class="cls-1" points="13.91 22.5 10.09 22.5 9.14 19.64 14.86 19.64 13.91 22.5"/><line class="cls-1" x1="12" y1="14.86" x2="12" y2="19.64"/></svg>