<svg id="Layer_1" data-name="Layer 1" xmlns="http://www.w3.org/2000/svg" viewBox="0 0 24 24"><defs><style>.cls-1{fill:none;stroke:#020202;stroke-miterlimit:10;stroke-width:1.91px;}</style></defs><rect class="cls-1" x="1.5" y="15.82" width="12.41" height="3.82" rx="1.91"/><path class="cls-1" d="M15.82,19.64h3.82a2.87,2.87,0,0,0,2.86-2.87h0"/><line class="cls-1" x1="18.68" y1="14.86" x2="18.68" y2="19.64"/><path class="cls-1" d="M18.68,15.82H3.41A1.91,1.91,0,0,1,1.5,13.91V12a1.91,1.91,0,0,1,1.91-1.91H16.77l3.06,2.29a1.91,1.91,0,0,1,.76,1.53h0A1.91,1.91,0,0,1,18.68,15.82Z"/><polyline class="cls-1" points="12 10.09 12 4.36 13.91 4.36 16.77 10.09"/><line class="cls-1" x1="3.41" y1="6.27" x2="3.41" y2="10.09"/><line class="cls-1" x1="9.14" y1="7.23" x2="12" y2="10.09"/></svg>