<svg id="Layer_1" data-name="Layer 1" xmlns="http://www.w3.org/2000/svg" viewBox="0 0 24 24"><defs><style>.cls-1{fill:none;stroke:#020202;stroke-miterlimit:10;stroke-width:1.91px;}</style></defs><path class="cls-1" d="M22.5,15.82a5.73,5.73,0,0,1-5.08,5.69,4.63,4.63,0,0,1-.65,0H14.4a19.48,19.48,0,0,1-6-1l-.44-.14A19.56,19.56,0,0,1,1.72,17l-.22-.18V14.86l.22-.18A20,20,0,0,1,14.4,10.09h2.37A5.74,5.74,0,0,1,22.5,15.82Z"/><path class="cls-1" d="M7.92,11.19a19.53,19.53,0,0,0-6.2,3.49l-.22.18V9.14h1Z"/><path class="cls-1" d="M7.92,20.45,2.45,22.5h-1V16.77l.22.18A19.56,19.56,0,0,0,7.92,20.45Z"/><polyline class="cls-1" points="8.52 11 10.09 6.27 17.73 6.27 19.18 10.63"/><polyline class="cls-1" points="16.77 1.5 13.91 1.5 13.91 6.27"/><path class="cls-1" d="M11.05,15.82h0Z"/><path class="cls-1" d="M16.77,15.82h0Z"/></svg>