<svg id="Layer_1" data-name="Layer 1" xmlns="http://www.w3.org/2000/svg" viewBox="0 0 24 24"><defs><style>.cls-1{fill:none;stroke:#020202;stroke-miterlimit:10;stroke-width:1.91px;}</style></defs><path class="cls-1" d="M17.73,20.59H15.25A17.44,17.44,0,0,1,4.36,16.77h0V14.86h0a17.43,17.43,0,0,1,10.89-3.81h2.48a4.77,4.77,0,0,1,4.77,4.77h0A4.78,4.78,0,0,1,17.73,20.59Z"/><line class="cls-1" x1="1.5" y1="12.95" x2="1.5" y2="18.68"/><line class="cls-1" x1="1.5" y1="15.82" x2="4.36" y2="15.82"/><circle class="cls-1" cx="15.82" cy="15.82" r="1.91"/><polyline class="cls-1" points="9.69 11.96 11.04 7.23 14 7.23 16.77 7.23 17.87 11.05"/><polyline class="cls-1" points="9.88 11.89 6.27 10.09 4.36 10.09 4.36 14.86 4.36 16.77 4.36 21.55 6.27 21.55 9.88 19.74"/><polyline class="cls-1" points="16.77 2.46 13.91 2.46 13.91 7.23"/></svg>