<svg id="Layer_1" data-name="Layer 1" xmlns="http://www.w3.org/2000/svg" viewBox="0 0 24 24"><defs><style>.cls-1{fill:none;stroke:#020202;stroke-miterlimit:10;stroke-width:1.91px;}</style></defs><circle class="cls-1" cx="6.27" cy="20.61" r="1.91"/><circle class="cls-1" cx="17.73" cy="20.61" r="1.91"/><path class="cls-1" d="M4.36,20.61H1.5V14.93l.75-6A1.91,1.91,0,0,1,4.14,7.25H19.86a1.9,1.9,0,0,1,1.89,1.67l.75,6v5.72H19.64"/><line class="cls-1" x1="15.82" y1="20.61" x2="8.18" y2="20.61"/><polyline class="cls-1" points="22.5 14.89 22.5 15.84 16.77 15.84 16.77 11.07 22.02 11.07"/><rect class="cls-1" x="6.27" y="11.07" width="10.5" height="4.77"/><line class="cls-1" x1="12" y1="20.61" x2="12" y2="11.07"/><path class="cls-1" d="M20.59,2.48h0a18.66,18.66,0,0,1-5.88,1H3.41"/><line class="cls-1" x1="14.86" y1="3.43" x2="16.77" y2="7.25"/><line class="cls-1" x1="8.18" y1="3.43" x2="10.09" y2="7.25"/><line class="cls-1" x1="6.27" y1="3.43" x2="5.32" y2="5.34"/></svg>