<svg id="Layer_1" data-name="Layer 1" xmlns="http://www.w3.org/2000/svg" viewBox="0 0 24 24"><defs><style>.cls-1{fill:none;stroke:#020202;stroke-miterlimit:10;stroke-width:1.91px;}</style></defs><path class="cls-1" d="M17.59,19.64H4.5a2.86,2.86,0,0,1-3-2.7v-.33a2.86,2.86,0,0,1,3-2.7H17.59a2.86,2.86,0,0,1,3,2.7v.33A2.86,2.86,0,0,1,17.59,19.64Z"/><polyline class="cls-1" points="2.46 14.63 2.46 14.32 2.46 12 4.36 9.14 17.73 9.14 19.64 12 19.64 14.32 19.64 14.63"/><line class="cls-1" x1="10.09" y1="16.77" x2="12" y2="16.77"/><line class="cls-1" x1="14.86" y1="16.77" x2="16.77" y2="16.77"/><line class="cls-1" x1="5.32" y1="16.77" x2="7.23" y2="16.77"/><polygon class="cls-1" points="15.82 9.14 6.27 9.14 8.18 4.36 13.91 4.36 15.82 9.14"/><line class="cls-1" x1="14.86" y1="6.27" x2="22.5" y2="6.27"/><line class="cls-1" x1="22.5" y1="4.36" x2="22.5" y2="8.18"/></svg>