<svg id="Layer_1" data-name="Layer 1" xmlns="http://www.w3.org/2000/svg" viewBox="0 0 24 24"><defs><style>.cls-1{fill:none;stroke:#020202;stroke-miterlimit:10;stroke-width:1.91px;}</style></defs><path class="cls-1" d="M13.91,6.25H8.18A1.93,1.93,0,0,0,6.65,7L4.36,10.07,1.5,11V17.7H4.36a1.91,1.91,0,0,1,3.82,0h6.68a1.91,1.91,0,0,1,3.82,0H22.5V13.27a1.91,1.91,0,0,0-1.2-1.77l-3.57-1.43L15.44,7A1.91,1.91,0,0,0,13.91,6.25Z"/><circle class="cls-1" cx="16.77" cy="17.7" r="1.91"/><circle class="cls-1" cx="6.27" cy="17.7" r="1.91"/><line class="cls-1" x1="20.1" y1="11.02" x2="7.23" y2="11.02"/><line class="cls-1" x1="20.59" y1="14.84" x2="22.5" y2="14.84"/><line class="cls-1" x1="12" y1="3.39" x2="12" y2="6.25"/></svg>