<svg id="Layer_1" data-name="Layer 1" xmlns="http://www.w3.org/2000/svg" viewBox="0 0 24 24"><defs><style>.cls-1{fill:none;stroke:#020202;stroke-miterlimit:10;stroke-width:1.91px;}</style></defs><path class="cls-1" d="M8.17,5.33h7.65A2.87,2.87,0,0,1,18.7,8.2v9.57a0,0,0,0,1,0,0H5.3a0,0,0,0,1,0,0V8.2A2.87,2.87,0,0,1,8.17,5.33Z"/><line class="cls-1" x1="6.26" y1="23.5" x2="8.17" y2="17.76"/><line class="cls-1" x1="15.83" y1="17.76" x2="17.74" y2="23.5"/><line class="cls-1" x1="7.22" y1="21.59" x2="17.74" y2="21.59"/><line class="cls-1" x1="12" y1="12.02" x2="12" y2="5.33"/><line class="cls-1" x1="8.17" y1="14.89" x2="10.09" y2="14.89"/><line class="cls-1" x1="13.91" y1="14.89" x2="15.83" y2="14.89"/><line class="cls-1" x1="5.3" y1="12.02" x2="18.7" y2="12.02"/><line class="cls-1" x1="10.09" y1="5.33" x2="10.09" y2="1.5"/><line class="cls-1" x1="13.91" y1="5.33" x2="13.91" y2="1.5"/><polyline class="cls-1" points="17.74 2.46 16.78 1.5 7.22 1.5 6.26 2.46"/></svg>