<svg id="Layer_1" data-name="Layer 1" xmlns="http://www.w3.org/2000/svg" viewBox="0 0 24 24"><defs><style>.cls-1{fill:none;stroke:#020202;stroke-miterlimit:10;stroke-width:1.91px;}</style></defs><path class="cls-1" d="M11,8.18h8.59A2.86,2.86,0,0,1,22.5,11v0a2.86,2.86,0,0,1-2.86,2.86H11a0,0,0,0,1,0,0V8.18a0,0,0,0,1,0,0Z"/><polygon class="cls-1" points="9.14 1.5 1.5 1.5 1.5 9.14 1.5 13.91 11.04 13.91 11.04 8.18 9.14 1.5"/><polyline class="cls-1" points="1.5 20.59 1.5 13.91 20.59 13.91 22.5 18.68 22.5 19.64 18.68 19.64"/><line class="cls-1" x1="12.95" y1="19.64" x2="6.27" y2="19.64"/><circle class="cls-1" cx="15.82" cy="19.64" r="2.86"/><circle class="cls-1" cx="4.36" cy="19.64" r="2.86"/><rect class="cls-1" x="14.86" y="4.36" width="3.82" height="3.82"/><line class="cls-1" x1="12" y1="1.5" x2="1.5" y2="1.5"/><line class="cls-1" x1="4.36" y1="8.18" x2="11.05" y2="8.18"/></svg>