<svg id="Layer_1" data-name="Layer 1" xmlns="http://www.w3.org/2000/svg" viewBox="0 0 24 24"><defs><style>.cls-1{fill:none;stroke:#020202;stroke-miterlimit:10;stroke-width:1.91px;}</style></defs><path class="cls-1" d="M9.15,5.3V8.17H1.5V5.3a3.83,3.83,0,0,1,7.65,0Z"/><path class="cls-1" d="M22.54,16.78a1.93,1.93,0,0,1-1.91,1.92H1.5V8.17H13.93a8.59,8.59,0,0,1,8.61,8.61Z"/><polyline class="cls-1" points="23.5 22.52 1.5 22.52 1.5 18.7"/><path class="cls-1" d="M22.33,14.87H15.85A2.86,2.86,0,0,1,13,12V8.17h.95A8.61,8.61,0,0,1,22.33,14.87Z"/><line class="cls-1" x1="9.15" y1="11.04" x2="9.15" y2="13.91"/><line class="cls-1" x1="5.33" y1="11.04" x2="5.33" y2="13.91"/><circle class="cls-1" cx="3.41" cy="20.61" r="1.91"/><circle class="cls-1" cx="7.24" cy="20.61" r="1.91"/><circle class="cls-1" cx="14.89" cy="20.61" r="1.91"/><circle class="cls-1" cx="18.72" cy="20.61" r="1.91"/></svg>