<svg id="Layer_1" data-name="Layer 1" xmlns="http://www.w3.org/2000/svg" viewBox="0 0 24 24"><defs><style>.cls-1{fill:none;stroke:#020202;stroke-miterlimit:10;stroke-width:1.91px;}</style></defs><path class="cls-1" d="M22.5,13.91a1.93,1.93,0,0,1-1.91,1.91H3.41A1.92,1.92,0,0,1,1.5,13.91,1.91,1.91,0,0,1,3.41,12H20.59A1.92,1.92,0,0,1,22.5,13.91Z"/><path class="cls-1" d="M12,3.41h0A7.64,7.64,0,0,1,19.64,11v1a0,0,0,0,1,0,0H4.36a0,0,0,0,1,0,0V11A7.64,7.64,0,0,1,12,3.41Z"/><path class="cls-1" d="M15.82,15.82v.95A3.85,3.85,0,0,1,15,19.18a3.81,3.81,0,0,1-5.92,0,3.85,3.85,0,0,1-.86-2.41v-.95Z"/><path class="cls-1" d="M15,19.18a3.89,3.89,0,0,0,1.81.46,3.82,3.82,0,0,0,3.82-3.82"/><path class="cls-1" d="M3.41,15.82a3.82,3.82,0,0,0,3.82,3.82A3.89,3.89,0,0,0,9,19.18"/></svg>