<svg id="Layer_1" data-name="Layer 1" xmlns="http://www.w3.org/2000/svg" viewBox="0 0 24 24"><defs><style>.cls-1{fill:none;stroke:#020202;stroke-miterlimit:10;stroke-width:1.91px;}</style></defs><line class="cls-1" x1="4.36" y1="2.45" x2="18.68" y2="2.45"/><circle class="cls-1" cx="8.66" cy="19.16" r="2.39"/><circle class="cls-1" cx="18.2" cy="19.16" r="2.39"/><line class="cls-1" x1="15.82" y1="18.68" x2="11.05" y2="18.68"/><path class="cls-1" d="M7.23,18.68H4.36V11.05L5.79,7.47a1.92,1.92,0,0,1,1.78-1.2h8.09a2.86,2.86,0,0,1,2.72,2L19.64,12,22.5,13v5.73H20.59"/><polyline class="cls-1" points="9.14 6.27 10.09 12 19.64 12"/><line class="cls-1" x1="13.91" y1="6.27" x2="14.86" y2="12"/><line class="cls-1" x1="1.5" y1="11.05" x2="1.5" y2="16.77"/><line class="cls-1" x1="8.18" y1="2.45" x2="8.18" y2="6.27"/><line class="cls-1" x1="14.86" y1="2.45" x2="14.86" y2="6.27"/></svg>