<svg id="Layer_1" data-name="Layer 1" xmlns="http://www.w3.org/2000/svg" viewBox="0 0 24 24"><defs><style>.cls-1{fill:none;stroke:#020202;stroke-miterlimit:10;stroke-width:1.91px;}</style></defs><path class="cls-1" d="M14.13,2.45h2.64a2.86,2.86,0,0,1,2.87,2.87"/><path class="cls-1" d="M4.36,5.32A2.86,2.86,0,0,1,7.23,2.45H9.87"/><path class="cls-1" d="M14.86,4.36a2.72,2.72,0,0,1-.43,1.5,2.84,2.84,0,0,1-4.86,0,2.72,2.72,0,0,1-.43-1.5,2.86,2.86,0,1,1,5.72,0Z"/><path class="cls-1" d="M13.91,16.77v3.82a1.91,1.91,0,1,1-3.82,0V16.77Z"/><path class="cls-1" d="M17.73,11.05v4.77a2.86,2.86,0,0,1-2.87,2.86h-.95V16.77H10.09v1.91H9.14a2.86,2.86,0,0,1-2.87-2.86V11.05a5.73,5.73,0,0,1,3.3-5.19,2.84,2.84,0,0,0,4.86,0A5.59,5.59,0,0,1,16.05,7,5.67,5.67,0,0,1,17.73,11.05Z"/><path class="cls-1" d="M12,13h0a2.86,2.86,0,0,1,2.86,2.86v1a0,0,0,0,1,0,0H9.14a0,0,0,0,1,0,0v-1A2.86,2.86,0,0,1,12,13Z"/></svg>