<svg id="Layer_1" data-name="Layer 1" xmlns="http://www.w3.org/2000/svg" viewBox="0 0 24 24"><defs><style>.cls-1{fill:none;stroke:#020202;stroke-miterlimit:10;stroke-width:1.91px;}</style></defs><path class="cls-1" d="M5.47,15.09a2.72,2.72,0,0,0-1.11-.23,2.87,2.87,0,1,0,2.87,2.87"/><circle class="cls-1" cx="19.64" cy="17.73" r="2.86"/><path class="cls-1" d="M16.77,17.73V8.18h1.91l.16.16a9.24,9.24,0,0,1,2.71,6.52H19.64"/><path class="cls-1" d="M18.68,4.36h1.91a0,0,0,0,1,0,0V8.18a0,0,0,0,1,0,0H18.68a1.91,1.91,0,0,1-1.91-1.91v0A1.91,1.91,0,0,1,18.68,4.36Z"/><path class="cls-1" d="M13.91,3.41h.95a1.9,1.9,0,0,1,1.91,1.91V8.18"/><line class="cls-1" x1="1.5" y1="7.23" x2="3.41" y2="9.14"/><path class="cls-1" d="M10.09,17.73V12l.56-.56a1.37,1.37,0,0,0,.4-1A1.35,1.35,0,0,0,9.7,9.14H3.41l-.33.47A9.52,9.52,0,0,0,1.5,14.86H5.32l.15.23,1.76,2.64h9.54"/></svg>