<svg id="Layer_1" data-name="Layer 1" xmlns="http://www.w3.org/2000/svg" viewBox="0 0 24 24"><defs><style>.cls-1{fill:none;stroke:#020202;stroke-miterlimit:10;stroke-width:1.91px;}</style></defs><path class="cls-1" d="M22.5,10.09a5.67,5.67,0,0,1-1.68,4.05,5.59,5.59,0,0,1-3.4,1.64,4.63,4.63,0,0,1-.65,0H14.4a19.48,19.48,0,0,1-6-1l-.44-.14a19.53,19.53,0,0,1-6.2-3.49l-.22-.18V9.14L1.72,9A20,20,0,0,1,14.4,4.36h2.37A5.74,5.74,0,0,1,22.5,10.09Z"/><path class="cls-1" d="M7.92,5.46A19.73,19.73,0,0,0,1.72,9l-.22.19V3.41h1Z"/><path class="cls-1" d="M7.92,14.72l-5.47,2h-1V11.05l.22.18A19.53,19.53,0,0,0,7.92,14.72Z"/><path class="cls-1" d="M17.42,15.78l-1.6,4.81H10.09L8.18,14.86h.18a19.48,19.48,0,0,0,6,1h2.37A4.63,4.63,0,0,0,17.42,15.78Z"/><line class="cls-1" x1="1.5" y1="10.09" x2="22.5" y2="10.09"/></svg>