<svg xmlns="http://www.w3.org/2000/svg" viewBox="0 0 24 24"><defs><style>.cls-1{fill:none;stroke:#020202;stroke-miterlimit:10;stroke-width:1.92px;}</style></defs><g id="roll_brush" data-name="roll brush"><path class="cls-1" d="M17.74,16.79h1a3.82,3.82,0,0,0,3.83-3.57,2.35,2.35,0,0,0,0-.26A3.84,3.84,0,0,0,18.7,9.12h-1V7.2A5.75,5.75,0,0,0,12,1.45h-.21A5.71,5.71,0,0,0,7,4.42l-.13.26A6.49,6.49,0,0,0,6.25,7.2h0A4.78,4.78,0,0,0,1.44,12a1.34,1.34,0,0,0,0,.2,4.79,4.79,0,0,0,4.78,4.59"/><rect class="cls-1" x="9.11" y="13.92" width="5.75" height="8.63" rx="2.88"/><line class="cls-1" x1="8.15" y1="22.55" x2="10.07" y2="20.63"/><line class="cls-1" x1="15.83" y1="22.55" x2="13.91" y2="20.63"/><line class="cls-1" x1="15.83" y1="13.92" x2="13.91" y2="15.83"/><line class="cls-1" x1="8.15" y1="13.92" x2="10.07" y2="15.83"/><polyline class="cls-1" points="16.78 17.75 14.87 17.75 9.11 17.75 7.19 17.75"/></g></svg>