<svg xmlns="http://www.w3.org/2000/svg" viewBox="0 0 24 24"><defs><style>.cls-1{fill:none;stroke:#020202;stroke-miterlimit:10;stroke-width:1.92px;}</style></defs><g id="roll_brush" data-name="roll brush"><path class="cls-1" d="M15.83,17.75h2.88a3.86,3.86,0,0,0,3.83-3.58,2.26,2.26,0,0,0,0-.26,3.84,3.84,0,0,0-3.84-3.84h-1V8.16A5.77,5.77,0,0,0,12,2.4h-.22A5.73,5.73,0,0,0,7,5.37a2.1,2.1,0,0,0-.13.26,6.5,6.5,0,0,0-.57,2.53h0A4.78,4.78,0,0,0,1.45,13a1.34,1.34,0,0,0,0,.2,4.79,4.79,0,0,0,4.78,4.6H8.16"/><circle class="cls-1" cx="12" cy="17.75" r="3.84"/><line class="cls-1" x1="14.71" y1="15.03" x2="9.28" y2="20.46"/></g></svg>