<svg xmlns="http://www.w3.org/2000/svg" viewBox="0 0 24 24"><defs><style>.cls-1{fill:none;stroke:#020202;stroke-miterlimit:10;stroke-width:1.92px;}</style></defs><g id="roll_brush" data-name="roll brush"><rect class="cls-1" x="8.17" y="15.83" width="7.67" height="5.75"/><path class="cls-1" d="M14.88,15.83H9.12V13.92A2.87,2.87,0,0,1,12,11h0a2.88,2.88,0,0,1,2.88,2.88Z"/><path class="cls-1" d="M15.84,17.75h2.88a3.82,3.82,0,0,0,3.82-3.58,2.09,2.09,0,0,0,0-.25,3.83,3.83,0,0,0-3.83-3.84h-1V8.16A5.77,5.77,0,0,0,12,2.41h-.21A5.69,5.69,0,0,0,7,5.38c0,.09-.1.17-.14.26a6.67,6.67,0,0,0-.56,2.52h0A4.78,4.78,0,0,0,1.45,13a1.41,1.41,0,0,0,0,.2,4.8,4.8,0,0,0,4.79,4.59h1"/></g></svg>