<svg xmlns="http://www.w3.org/2000/svg" viewBox="0 0 24 24"><defs><style>.cls-1{fill:none;stroke:#020202;stroke-miterlimit:10;stroke-width:1.92px;}</style></defs><g id="roll_brush" data-name="roll brush"><path class="cls-1" d="M13.17,6.72h-.65V5.4a3.94,3.94,0,0,0-1.15-2.79A3.88,3.88,0,0,0,8.59,1.45H8.45a3.91,3.91,0,0,0-3.29,2l-.09.18A4.56,4.56,0,0,0,4.68,5.4h0a3.23,3.23,0,0,0-2.31,1,3.31,3.31,0,0,0-1,2.33.66.66,0,0,0,0,.14A3.28,3.28,0,0,0,4.67,12h8.5A2.64,2.64,0,0,0,15,11.23a2.75,2.75,0,0,0,.76-1.69,1.09,1.09,0,0,0,0-.18A2.63,2.63,0,0,0,13.17,6.72Z"/><rect class="cls-1" x="13.87" y="14.87" width="8.63" height="3.84" rx="1.92"/><rect class="cls-1" x="13.87" y="18.71" width="8.63" height="3.84" rx="1.92"/><polyline class="cls-1" points="13.87 20.63 8.11 20.63 8.11 12"/><line class="cls-1" x1="13.87" y1="16.79" x2="8.11" y2="16.79"/></g></svg>