<svg xmlns="http://www.w3.org/2000/svg" viewBox="0 0 24 24"><defs><style>.cls-1{fill:none;stroke:#020202;stroke-miterlimit:10;stroke-width:1.92px;}</style></defs><g id="roll_brush" data-name="roll brush"><path class="cls-1" d="M17.5,8.16h-.72V6.24a4.61,4.61,0,0,0-4.61-4.6H12A4.57,4.57,0,0,0,8.15,4,2.12,2.12,0,0,0,8,4.23a5,5,0,0,0-.45,2h0a3.84,3.84,0,0,0-3.84,3.84.86.86,0,0,0,0,.16,3.85,3.85,0,0,0,3.83,3.68H17.5a2.9,2.9,0,0,0,2.87-2.69V11A2.87,2.87,0,0,0,17.5,8.16Z"/><circle class="cls-1" cx="11.98" cy="20.63" r="1.92"/><line class="cls-1" x1="11.98" y1="13.92" x2="11.98" y2="18.71"/><line class="cls-1" x1="10.06" y1="20.63" x2="0.47" y2="20.63"/><line class="cls-1" x1="23.49" y1="20.63" x2="13.9" y2="20.63"/></g></svg>