<svg xmlns="http://www.w3.org/2000/svg" viewBox="0 0 24 24"><defs><style>.cls-1{fill:none;stroke:#020202;stroke-miterlimit:10;stroke-width:1.92px;}</style></defs><g id="roll_brush" data-name="roll brush"><line class="cls-1" x1="18.72" y1="16.81" x2="18.72" y2="20.64"/><line class="cls-1" x1="14.88" y1="16.81" x2="14.88" y2="20.64"/><line class="cls-1" x1="11.04" y1="16.81" x2="11.04" y2="20.64"/><path class="cls-1" d="M22.55,14.89v7.67H5.29a3.84,3.84,0,1,1,0-7.67Z"/><path class="cls-1" d="M22.55,14.89v7.67H5.29a3.84,3.84,0,1,1,0-7.67Z"/><polyline class="cls-1" points="1.45 18.72 1.45 1.46 9.13 1.46 9.13 9.46"/><path class="cls-1" d="M20.54,8.9l-6,6H5.29A3.87,3.87,0,0,0,2.57,16L15.11,3.48Z"/><line class="cls-1" x1="4.33" y1="18.72" x2="6.25" y2="18.72"/><line class="cls-1" x1="3.37" y1="5.3" x2="7.21" y2="5.3"/><line class="cls-1" x1="3.37" y1="9.13" x2="7.21" y2="9.13"/><line class="cls-1" x1="13.92" y1="7.22" x2="16.8" y2="10.09"/><line class="cls-1" x1="11.04" y1="10.09" x2="13.92" y2="12.97"/></g></svg>