<svg xmlns="http://www.w3.org/2000/svg" viewBox="0 0 24 24"><defs><style>.cls-1{fill:none;stroke:#020202;stroke-miterlimit:10;stroke-width:1.92px;}</style></defs><g id="roll_brush" data-name="roll brush"><path class="cls-1" d="M17.48,6.49a3.47,3.47,0,0,1,.16.71,5.12,5.12,0,0,1,.09,1v1.92h1a3.84,3.84,0,0,1,3.84,3.84,2.09,2.09,0,0,1,0,.25,3.84,3.84,0,0,1-3.83,3.58H6.22"/><path class="cls-1" d="M3.34,16.78a4.72,4.72,0,0,1-1.9-3.62,1.41,1.41,0,0,1,0-.2,4.78,4.78,0,0,1,4.79-4.8h0a6.49,6.49,0,0,1,.57-2.52c0-.09.08-.17.13-.26a5.7,5.7,0,0,1,4.83-3H12a5.67,5.67,0,0,1,3.83,1.47"/><line class="cls-1" x1="22.53" y1="1.45" x2="1.43" y2="22.55"/></g></svg>