<svg xmlns="http://www.w3.org/2000/svg" viewBox="0 0 24 24"><defs><style>.cls-1{fill:none;stroke:#020202;stroke-miterlimit:10;stroke-width:1.92px;}</style></defs><g id="roll_brush" data-name="roll brush"><rect class="cls-1" x="9.12" y="14.92" width="5.75" height="3.84"/><path class="cls-1" d="M12,11.08h0A1.92,1.92,0,0,1,13.91,13v1.92a0,0,0,0,1,0,0H10.08a0,0,0,0,1,0,0V13A1.92,1.92,0,0,1,12,11.08Z"/><rect class="cls-1" x="1.45" y="1.49" width="21.1" height="21.1"/><polygon class="cls-1" points="22.55 7.25 16.27 7.25 14.35 7.25 1.45 7.25 1.45 1.49 22.55 1.49 22.55 7.25"/><line class="cls-1" x1="4.32" y1="4.37" x2="6.24" y2="4.37"/><line class="cls-1" x1="8.16" y1="4.37" x2="10.08" y2="4.37"/><line class="cls-1" x1="12" y1="4.37" x2="13.91" y2="4.37"/></g></svg>