<svg xmlns="http://www.w3.org/2000/svg" viewBox="0 0 24 24"><defs><style>.cls-1{fill:none;stroke:#020202;stroke-miterlimit:10;stroke-width:1.92px;}</style></defs><g id="roll_brush" data-name="roll brush"><rect class="cls-1" x="5.28" y="1.48" width="13.43" height="6.71"/><rect class="cls-1" x="5.28" y="8.19" width="13.43" height="6.71"/><rect class="cls-1" x="5.28" y="14.91" width="13.43" height="6.71"/><path class="cls-1" d="M18.71,4.36h0a3.84,3.84,0,0,1,3.84,3.83h0A3.84,3.84,0,0,1,18.71,12h0"/><path class="cls-1" d="M18.71,12h0a3.84,3.84,0,0,1,3.84,3.84h0a3.83,3.83,0,0,1-3.84,3.83h0"/><path class="cls-1" d="M5.28,19.7h0a3.82,3.82,0,0,1-3.83-3.83h0A3.83,3.83,0,0,1,5.28,12h0"/><path class="cls-1" d="M5.28,12h0A3.83,3.83,0,0,1,1.45,8.19h0A3.83,3.83,0,0,1,5.28,4.36h0"/><line class="cls-1" x1="8.16" y1="4.36" x2="10.08" y2="4.36"/><line class="cls-1" x1="8.16" y1="11.07" x2="10.08" y2="11.07"/><line class="cls-1" x1="8.16" y1="17.78" x2="10.08" y2="17.78"/><line class="cls-1" x1="15.83" y1="4.36" x2="12.95" y2="4.36"/><line class="cls-1" x1="15.83" y1="11.07" x2="12.95" y2="11.07"/><line class="cls-1" x1="15.83" y1="17.78" x2="12.95" y2="17.78"/></g></svg>