<svg xmlns="http://www.w3.org/2000/svg" viewBox="0 0 24 24"><defs><style>.cls-1{fill:none;stroke:#020202;stroke-miterlimit:10;stroke-width:1.92px;}</style></defs><g id="roll_brush" data-name="roll brush"><path class="cls-1" d="M22.51,4.36c0,.87-1.38,1.63-3.58,2.16a30.79,30.79,0,0,1-7,.72,30.89,30.89,0,0,1-7-.72C2.79,6,1.41,5.23,1.41,4.36,1.41,2.77,6.14,1.49,12,1.49S22.51,2.77,22.51,4.36Z"/><path class="cls-1" d="M22.51,4.36V12c0,.86-1.38,1.63-3.58,2.15a30.23,30.23,0,0,1-7,.72,30.32,30.32,0,0,1-7-.72C2.79,13.67,1.41,12.9,1.41,12V4.36C1.41,5.23,2.79,6,5,6.52a30.89,30.89,0,0,0,7,.72,30.79,30.79,0,0,0,7-.72C21.13,6,22.51,5.23,22.51,4.36Z"/><path class="cls-1" d="M22.51,12v7.67c0,.86-1.38,1.63-3.58,2.16a30.79,30.79,0,0,1-7,.72,30.89,30.89,0,0,1-7-.72c-2.19-.53-3.57-1.3-3.57-2.16V12c0,.86,1.38,1.63,3.57,2.15a30.32,30.32,0,0,0,7,.72,30.23,30.23,0,0,0,7-.72C21.13,13.67,22.51,12.9,22.51,12Z"/><line class="cls-1" x1="11" y1="11.08" x2="12.92" y2="11.08"/><line class="cls-1" x1="14.83" y1="11.08" x2="16.75" y2="11.08"/><line class="cls-1" x1="7.16" y1="11.08" x2="9.08" y2="11.08"/><line class="cls-1" x1="11" y1="18.75" x2="12.92" y2="18.75"/><line class="cls-1" x1="14.83" y1="18.75" x2="16.75" y2="18.75"/><line class="cls-1" x1="7.16" y1="18.75" x2="9.08" y2="18.75"/></g></svg>