<svg xmlns="http://www.w3.org/2000/svg" viewBox="0 0 24 24"><defs><style>.cls-1{fill:none;stroke:#020202;stroke-miterlimit:10;stroke-width:1.92px;}</style></defs><g id="roll_brush" data-name="roll brush"><path class="cls-1" d="M22.52,13a2.35,2.35,0,0,1,0,.26,3.82,3.82,0,0,1-3.83,3.57H16.77V13c0,1-2.15,1.92-4.8,1.92S7.17,14,7.17,13v3.83h-1A4.8,4.8,0,0,1,1.43,12.2a1.41,1.41,0,0,1,0-.2,4.78,4.78,0,0,1,4.8-4.8h0A6.68,6.68,0,0,1,6.8,4.68l.13-.26a5.71,5.71,0,0,1,4.83-3H12A5.75,5.75,0,0,1,17.72,7.2V9.12h1A3.84,3.84,0,0,1,22.52,13Z"/><ellipse class="cls-1" cx="11.97" cy="12.96" rx="4.8" ry="1.92"/><path class="cls-1" d="M16.77,13v3.83c0,1.06-2.15,1.92-4.8,1.92s-4.8-.86-4.8-1.92V13c0,1,2.15,1.92,4.8,1.92S16.77,14,16.77,13Z"/><ellipse class="cls-1" cx="11.97" cy="12.96" rx="4.8" ry="1.92"/><path class="cls-1" d="M16.77,16.79v3.84a1.27,1.27,0,0,1-.65,1,7.88,7.88,0,0,1-4.15,1,7.88,7.88,0,0,1-4.15-1,1.25,1.25,0,0,1-.65-1V16.79c0,1.06,2.15,1.92,4.8,1.92S16.77,17.85,16.77,16.79Z"/></g></svg>