<svg id="Layer_1" data-name="Layer 1" xmlns="http://www.w3.org/2000/svg" viewBox="0 0 24 24"><defs><style>.cls-1{fill:none;stroke:#020202;stroke-miterlimit:10;stroke-width:1.92px;}</style></defs><circle class="cls-1" cx="12" cy="11.04" r="1.92"/><path class="cls-1" d="M9.12,15.83h0A2.88,2.88,0,0,1,12,13h0a2.87,2.87,0,0,1,2.87,2.87h0"/><polyline class="cls-1" points="14.4 2.9 12 5.29 9.6 2.9"/><line class="cls-1" x1="12" y1="0.5" x2="12" y2="5.29"/><polyline class="cls-1" points="9.6 21.1 12 18.71 14.4 21.1"/><line class="cls-1" x1="12" y1="23.5" x2="12" y2="18.71"/><polyline class="cls-1" points="21.1 14.4 18.71 12 21.1 9.6"/><line class="cls-1" x1="23.5" y1="12" x2="18.71" y2="12"/><polyline class="cls-1" points="2.9 9.6 5.29 12 2.9 14.4"/><line class="cls-1" x1="0.5" y1="12" x2="5.29" y2="12"/></svg>