<svg id="Layer_1" data-name="Layer 1" xmlns="http://www.w3.org/2000/svg" viewBox="0 0 24 24"><defs><style>.cls-1{fill:none;stroke:#020202;stroke-miterlimit:10;stroke-width:1.91px;}</style></defs><path class="cls-1" d="M18.68,19.61l-.05,0a16.09,16.09,0,0,0-11.4-4.73h0V7.2h0a16.08,16.08,0,0,0,11.4-4.72l.05,0Z"/><line class="cls-1" x1="18.68" y1="0.52" x2="18.68" y2="21.52"/><polygon class="cls-1" points="18.68 8.16 22.5 9.11 22.5 12.93 18.68 13.89 18.68 8.16"/><path class="cls-1" d="M5.32,7.2H7.23a0,0,0,0,1,0,0v7.64a0,0,0,0,1,0,0H5.32A3.82,3.82,0,0,1,1.5,11v0A3.82,3.82,0,0,1,5.32,7.2Z"/><path class="cls-1" d="M8.18,14.84l1.34,5.34a1.86,1.86,0,0,1-1.8,2.3h0a1.86,1.86,0,0,1-1.8-1.41L4.36,14.84"/></svg>