<svg id="Layer_1" data-name="Layer 1" xmlns="http://www.w3.org/2000/svg" viewBox="0 0 24 24"><defs><style>.cls-1,.cls-2{fill:none;stroke:#020202;stroke-miterlimit:10;stroke-width:1.82px;}.cls-1{stroke-linecap:square;}</style></defs><circle class="cls-1" cx="12" cy="7.5" r="5.45"/><path class="cls-2" d="M2,23A10,10,0,0,1,12,13h0A10,10,0,0,1,22,23"/><polygon class="cls-1" points="9.27 12.96 12 22.05 7.46 20.23 8.36 18.41 6.54 17.5 7.46 13.86 9.27 12.96"/><polygon class="cls-1" points="14.73 12.96 12 22.05 16.55 20.23 15.64 18.41 17.45 17.5 16.55 13.86 14.73 12.96"/><path class="cls-2" d="M6.71,14.46a4.51,4.51,0,0,1-1.56-1,4.58,4.58,0,0,1-1.33-3.22A2.73,2.73,0,0,0,6.55,7.5"/><path class="cls-2" d="M17.45,7.5a2.73,2.73,0,0,0,2.73,2.73,4.58,4.58,0,0,1-1.33,3.22,4.51,4.51,0,0,1-1.56,1"/><line class="cls-2" x1="6.55" y1="6.59" x2="17.45" y2="6.59"/></svg>