<svg id="Layer_1" data-name="Layer 1" xmlns="http://www.w3.org/2000/svg" viewBox="0 0 24 24"><defs><style>.cls-1{fill:none;stroke:#020202;stroke-miterlimit:10;stroke-width:1.91px;}</style></defs><path class="cls-1" d="M15.82,14.89h1.91a0,0,0,0,1,0,0V18.7a0,0,0,0,1,0,0H15.82a1.91,1.91,0,0,1-1.91-1.91v0A1.91,1.91,0,0,1,15.82,14.89Z"/><polygon class="cls-1" points="17.73 14.89 22.5 12.98 22.5 20.61 17.73 18.7 17.73 14.89"/><line class="cls-1" x1="17.73" y1="23.48" x2="15.82" y2="18.7"/><path class="cls-1" d="M20.16,13.91A9.56,9.56,0,1,0,16,19.21"/><path class="cls-1" d="M3.79,4.86A9.58,9.58,0,0,0,7.5,7.52a9.35,9.35,0,0,0,3.55.68,9.3,9.3,0,0,0,3.54-.68A9.58,9.58,0,0,0,18.3,4.86"/><path class="cls-1" d="M3.79,17.27A9.55,9.55,0,0,1,7.5,14.62a9.45,9.45,0,0,1,7.09,0,7,7,0,0,1,.74.33"/><path class="cls-1" d="M14.42,15.5c.07-.29.12-.58.17-.88a22.07,22.07,0,0,0,.27-3.55,22.07,22.07,0,0,0-.27-3.55c-.57-3.52-1.94-6-3.54-6s-3,2.48-3.55,6a22.07,22.07,0,0,0-.27,3.55,22.07,22.07,0,0,0,.27,3.55c.57,3.51,1.94,6,3.55,6,1.16,0,2.21-1.3,2.91-3.38"/></svg>