<svg id="Layer_1" data-name="Layer 1" xmlns="http://www.w3.org/2000/svg" viewBox="0 0 24 24"><defs><style>.cls-1{fill:none;stroke:#020202;stroke-miterlimit:10;stroke-width:1.91px;}</style></defs><circle class="cls-1" cx="12" cy="3.43" r="1.91"/><path class="cls-1" d="M9.14,8.2h0A2.86,2.86,0,0,1,12,5.34h0A2.86,2.86,0,0,1,14.86,8.2h0"/><circle class="cls-1" cx="19.64" cy="18.7" r="1.91"/><path class="cls-1" d="M16.77,23.48h0a2.87,2.87,0,0,1,2.87-2.87h0a2.87,2.87,0,0,1,2.86,2.87h0"/><circle class="cls-1" cx="4.36" cy="18.7" r="1.91"/><path class="cls-1" d="M1.5,23.48h0a2.87,2.87,0,0,1,2.86-2.87h0a2.87,2.87,0,0,1,2.87,2.87h0"/><line class="cls-1" x1="12" y1="9.16" x2="12" y2="13.93"/><polyline class="cls-1" points="8.18 16.8 12 13.93 15.82 16.8"/></svg>