<svg id="Layer_1" data-name="Layer 1" xmlns="http://www.w3.org/2000/svg" viewBox="0 0 24 24"><defs><style>.cls-1{fill:none;stroke:#020202;stroke-miterlimit:10;stroke-width:1.91px;}.cls-2{fill:#020202;}</style></defs><circle class="cls-1" cx="12" cy="18.7" r="1.91"/><path class="cls-1" d="M9.14,23.48h0A2.87,2.87,0,0,1,12,20.61h0a2.87,2.87,0,0,1,2.86,2.87h0"/><circle class="cls-1" cx="19.64" cy="18.7" r="1.91"/><path class="cls-1" d="M16.77,23.48h0a2.87,2.87,0,0,1,2.87-2.87h0a2.87,2.87,0,0,1,2.86,2.87h0"/><circle class="cls-1" cx="4.36" cy="18.7" r="1.91"/><path class="cls-1" d="M1.5,23.48h0a2.87,2.87,0,0,1,2.86-2.87h0a2.87,2.87,0,0,1,2.87,2.87h0"/><path class="cls-1" d="M1.5,3.43V8.2a1.9,1.9,0,0,0,1.91,1.91H5.32V12l2.86-1.91h1.91L12,12l1.91-1.91h1.91L18.68,12V10.11h1.91A1.9,1.9,0,0,0,22.5,8.2V3.43a1.91,1.91,0,0,0-1.91-1.91H3.41A1.91,1.91,0,0,0,1.5,3.43Z"/><path class="cls-2" d="M12.87,4.39a1.1,1.1,0,0,0-.87.42,1.1,1.1,0,0,0-.87-.42,1,1,0,0,0-1,1C10.09,6.77,12,7.25,12,7.25s1.91-.48,1.91-1.91A1,1,0,0,0,12.87,4.39Z"/><path class="cls-2" d="M18.6,4.39a1.07,1.07,0,0,0-.87.42,1.1,1.1,0,0,0-.87-.42,1,1,0,0,0-1,1c0,1.43,1.91,1.91,1.91,1.91s1.91-.48,1.91-1.91A1,1,0,0,0,18.6,4.39Z"/><path class="cls-2" d="M7.14,4.39a1.1,1.1,0,0,0-.87.42,1.07,1.07,0,0,0-.87-.42,1,1,0,0,0-1,1c0,1.43,1.91,1.91,1.91,1.91s1.91-.48,1.91-1.91A1,1,0,0,0,7.14,4.39Z"/></svg>