<svg id="Layer_1" data-name="Layer 1" xmlns="http://www.w3.org/2000/svg" viewBox="0 0 24 24"><defs><style>.cls-1,.cls-2{fill:none;stroke:#020202;stroke-miterlimit:10;stroke-width:1.91px;}.cls-2{stroke-linecap:square;}</style></defs><path class="cls-1" d="M5.32,3.41H18.68a1.91,1.91,0,0,1,1.91,1.91V16.77a0,0,0,0,1,0,0H3.41a0,0,0,0,1,0,0V5.32A1.91,1.91,0,0,1,5.32,3.41Z"/><path class="cls-1" d="M1.5,16.77h21a0,0,0,0,1,0,0v1.91a1.91,1.91,0,0,1-1.91,1.91H3.41A1.91,1.91,0,0,1,1.5,18.68V16.77A0,0,0,0,1,1.5,16.77Z"/><polyline class="cls-2" points="8.18 12 11.04 9.14 12.96 11.04 15.82 8.18"/></svg>