<svg id="Layer_1" data-name="Layer 1" xmlns="http://www.w3.org/2000/svg" viewBox="0 0 24 24"><defs><style>.cls-1{fill:none;stroke:#020202;stroke-miterlimit:10;stroke-width:1.91px;}</style></defs><circle class="cls-1" cx="12" cy="3.41" r="1.91"/><path class="cls-1" d="M9.14,8.18h0A2.86,2.86,0,0,1,12,5.32h0a2.86,2.86,0,0,1,2.86,2.86h0"/><circle class="cls-1" cx="19.64" cy="3.41" r="1.91"/><path class="cls-1" d="M16.77,8.18h0a2.86,2.86,0,0,1,2.87-2.86h0A2.86,2.86,0,0,1,22.5,8.18h0"/><circle class="cls-1" cx="4.36" cy="3.41" r="1.91"/><path class="cls-1" d="M1.5,8.18h0A2.86,2.86,0,0,1,4.36,5.32h0A2.86,2.86,0,0,1,7.23,8.18h0"/><path class="cls-1" d="M18.68,11.05v4.77A6.68,6.68,0,0,1,12,22.5h0a6.68,6.68,0,0,1-6.68-6.68V11.05H9.14v4.77A2.86,2.86,0,0,0,12,18.68h0a2.86,2.86,0,0,0,2.86-2.86V11.05Z"/><line class="cls-1" x1="5.32" y1="14.86" x2="9.14" y2="14.86"/><line class="cls-1" x1="14.86" y1="14.86" x2="18.68" y2="14.86"/></svg>