<svg id="Layer_1" data-name="Layer 1" xmlns="http://www.w3.org/2000/svg" viewBox="0 0 24 24"><defs><style>.cls-1{fill:none;stroke:#020202;stroke-miterlimit:10;stroke-width:1.92px;}</style></defs><circle class="cls-1" cx="5.77" cy="16.31" r="2.4"/><path class="cls-1" d="M1.46,23.5V23a4.31,4.31,0,0,1,4.31-4.31h0A4.31,4.31,0,0,1,10.09,23v.48"/><polyline class="cls-1" points="16.68 15.72 19.67 12.73 22.66 15.72"/><path class="cls-1" d="M19.67,13v2.87a5.75,5.75,0,0,1-5.75,5.75h0"/><polyline class="cls-1" points="9.24 8.28 6.25 11.27 3.26 8.28"/><path class="cls-1" d="M6.25,11V8.17A5.75,5.75,0,0,1,12,2.42h0"/><path class="cls-1" d="M16.79,8.17h3.36a1.45,1.45,0,0,0,1.44-1.44h0a1.45,1.45,0,0,0-1.44-1.44h-1a1.44,1.44,0,0,1-1.44-1.44h0a1.44,1.44,0,0,1,1.44-1.43h3.35"/><line class="cls-1" x1="19.67" y1="0.5" x2="19.67" y2="2.42"/><line class="cls-1" x1="19.67" y1="8.17" x2="19.67" y2="10.08"/></svg>