<svg id="Layer_1" data-name="Layer 1" xmlns="http://www.w3.org/2000/svg" viewBox="0 0 24 24"><defs><style>.cls-1{fill:none;stroke:#020202;stroke-miterlimit:10;stroke-width:1.91px;}</style></defs><circle class="cls-1" cx="12" cy="12" r="1.91"/><path class="cls-1" d="M9.14,16.77h0A2.86,2.86,0,0,1,12,13.91h0a2.86,2.86,0,0,1,2.86,2.86h0"/><circle class="cls-1" cx="20.59" cy="3.41" r="1.91"/><circle class="cls-1" cx="3.41" cy="20.59" r="1.91"/><circle class="cls-1" cx="20.11" cy="20.11" r="2.39"/><circle class="cls-1" cx="3.89" cy="3.89" r="2.39"/><line class="cls-1" x1="7.95" y1="16.05" x2="4.75" y2="19.25"/><line class="cls-1" x1="19.25" y1="4.75" x2="16.05" y2="7.95"/><path class="cls-1" d="M17.73,12a5.74,5.74,0,1,1-1.68-4A5.69,5.69,0,0,1,17.73,12Z"/><line class="cls-1" x1="18.42" y1="18.42" x2="16.05" y2="16.05"/><line class="cls-1" x1="7.95" y1="7.95" x2="5.58" y2="5.58"/></svg>