<svg id="Layer_1" data-name="Layer 1" xmlns="http://www.w3.org/2000/svg" viewBox="0 0 24 24"><defs><style>.cls-1{fill:none;stroke:#020202;stroke-miterlimit:10;stroke-width:1.91px;}</style></defs><circle class="cls-1" cx="5.78" cy="16.33" r="2.39"/><path class="cls-1" d="M1.48,23.5V23a4.29,4.29,0,0,1,4.3-4.3h0a4.29,4.29,0,0,1,4.3,4.3v.48"/><polyline class="cls-1" points="15.71 16.69 18.69 13.7 21.68 16.69"/><path class="cls-1" d="M18.69,13.93V16.8A5.74,5.74,0,0,1,13,22.54h0"/><polyline class="cls-1" points="7.33 8.31 4.34 11.3 1.36 8.31"/><path class="cls-1" d="M4.35,11.07V8.2a5.73,5.73,0,0,1,5.73-5.74h0"/><rect class="cls-1" x="12.95" y="1.5" width="9.57" height="8.61"/><line class="cls-1" x1="17.74" y1="4.37" x2="17.74" y2="1.5"/></svg>