<svg id="Layer_1" data-name="Layer 1" xmlns="http://www.w3.org/2000/svg" viewBox="0 0 24 24"><defs><style>.cls-1{fill:none;stroke:#020202;stroke-miterlimit:10;stroke-width:1.91px;}</style></defs><path class="cls-1" d="M3.41,7.23H20.59a0,0,0,0,1,0,0V18.68a3.82,3.82,0,0,1-3.82,3.82H7.23a3.82,3.82,0,0,1-3.82-3.82V7.23A0,0,0,0,1,3.41,7.23Z"/><path class="cls-1" d="M7.23,10.09V6.27A4.77,4.77,0,0,1,12,1.5h0a4.77,4.77,0,0,1,4.77,4.77v3.82"/><circle class="cls-1" cx="8.66" cy="13.43" r="0.48"/><circle class="cls-1" cx="15.34" cy="18.2" r="0.48"/><line class="cls-1" x1="14.86" y1="12" x2="9.14" y2="19.64"/></svg>