<svg id="Layer_1" data-name="Layer 1" xmlns="http://www.w3.org/2000/svg" viewBox="0 0 24 24"><defs><style>.cls-1{fill:none;stroke:#020202;stroke-miterlimit:10;stroke-width:1.91px;}</style></defs><circle class="cls-1" cx="12" cy="18.72" r="1.91"/><path class="cls-1" d="M9.13,23.5h0A2.88,2.88,0,0,1,12,20.63h0a2.88,2.88,0,0,1,2.87,2.87h0"/><circle class="cls-1" cx="19.65" cy="18.72" r="1.91"/><path class="cls-1" d="M16.78,23.5h0a2.88,2.88,0,0,1,2.87-2.87h0a2.87,2.87,0,0,1,2.87,2.87h0"/><circle class="cls-1" cx="4.35" cy="18.72" r="1.91"/><path class="cls-1" d="M1.48,23.5h0a2.87,2.87,0,0,1,2.87-2.87h0A2.88,2.88,0,0,1,7.22,23.5h0"/><rect class="cls-1" x="3.39" y="1.5" width="17.22" height="12.43"/><polygon class="cls-1" points="13.91 7.72 11.04 9.15 11.04 6.28 13.91 7.72"/><line class="cls-1" x1="0.52" y1="1.5" x2="23.48" y2="1.5"/></svg>