<svg id="Layer_1" data-name="Layer 1" xmlns="http://www.w3.org/2000/svg" viewBox="0 0 24 24"><defs><style>.cls-1{fill:none;stroke:#020202;stroke-miterlimit:10;stroke-width:1.91px;}</style></defs><path class="cls-1" d="M22.53,9.23l-2.87-5-.5.29a2.87,2.87,0,0,1-4.3-2.48V1.5H9.14v.58a2.87,2.87,0,0,1-4.3,2.48l-.5-.29-2.87,5L2,9.52a2.86,2.86,0,0,1,0,5l-.51.29,2.87,5,.5-.29a2.87,2.87,0,0,1,4.3,2.48v.58h5.72v-.58a2.87,2.87,0,0,1,4.3-2.48l.5.29,2.87-5L22,14.48a2.86,2.86,0,0,1,0-5Z"/><circle class="cls-1" cx="12" cy="10.09" r="2.86"/><path class="cls-1" d="M7.23,19.23v-1.5a4.77,4.77,0,1,1,9.54,0v1.5"/></svg>