<svg id="Layer_1" data-name="Layer 1" xmlns="http://www.w3.org/2000/svg" viewBox="0 0 24 24"><defs><style>.cls-1{fill:none;stroke:#020202;stroke-miterlimit:10;stroke-width:1.95px;}</style></defs><path class="cls-1" d="M2.23,5.4H5.16a2,2,0,0,1,2,2h0a2,2,0,0,1-1.95,2H3.21"/><path class="cls-1" d="M2.23,13.22H5.16a2,2,0,0,0,2-2h0a2,2,0,0,0-1.95-2H3.21"/><circle class="cls-1" cx="12" cy="11.27" r="1.95"/><path class="cls-1" d="M10.05,11.27v-2A3.91,3.91,0,0,1,14,5.4h0"/><rect class="cls-1" x="16.89" y="5.4" width="3.91" height="7.82" rx="1.95"/><line class="cls-1" x1="22.75" y1="2.47" x2="22.75" y2="4.43"/><path class="cls-1" d="M1.25,15.18c0,1.92,3.91,3.9,8.85,3.85"/><path class="cls-1" d="M14,19c4.89.06,8.8-1.93,8.8-3.84"/><polyline class="cls-1" points="7.6 16.52 10.11 19.02 7.6 21.53"/></svg>