<svg id="Layer_1" data-name="Layer 1" xmlns="http://www.w3.org/2000/svg" viewBox="0 0 24 24"><defs><style>.cls-1{fill:none;stroke:#020202;stroke-miterlimit:10;stroke-width:1.95px;}</style></defs><path class="cls-1" d="M2.2,3.94H5.13a2,2,0,0,1,2,1.95h0a2,2,0,0,1-1.95,2H3.18"/><path class="cls-1" d="M2.2,11.76H5.13a2,2,0,0,0,2-2h0a2,2,0,0,0-1.95-2H3.18"/><circle class="cls-1" cx="11.97" cy="9.8" r="1.95"/><path class="cls-1" d="M10,9.8v-2a3.91,3.91,0,0,1,3.9-3.91h0"/><rect class="cls-1" x="16.86" y="3.94" width="3.91" height="7.82" rx="1.95"/><line class="cls-1" x1="22.72" y1="1.01" x2="22.72" y2="2.96"/><path class="cls-1" d="M1.22,14.69c0,1.92,2,5.86,8.85,5.8"/><polyline class="cls-1" points="7.57 17.99 10.07 20.49 7.57 22.99"/><path class="cls-1" d="M13.93,20.49c6.89.06,8.85-3.88,8.85-5.8"/><polyline class="cls-1" points="16.43 17.99 13.93 20.49 16.43 22.99"/></svg>