<svg id="Layer_1" data-name="Layer 1" xmlns="http://www.w3.org/2000/svg" viewBox="0 0 24 24"><defs><style>.cls-1{fill:none;stroke:#020202;stroke-miterlimit:10;stroke-width:1.95px;}</style></defs><path class="cls-1" d="M6,2V6.87C3,6.35,1.1,5.45,1.1,4.41S3,2.48,6,2Z"/><path class="cls-1" d="M22.6,4.41c0,1-2,1.94-4.89,2.46V2C20.65,2.48,22.6,3.38,22.6,4.41Z"/><path class="cls-1" d="M1.1,19.07C1.1,20.69,5.91,22,11.85,22S22.6,20.69,22.6,19.07"/><path class="cls-1" d="M1.1,14.18c0,1.63,4.81,2.93,10.75,2.93s10.75-1.3,10.75-2.93"/><path class="cls-1" d="M1.1,9.3c0,1.62,4.81,2.93,10.75,2.93S22.6,10.92,22.6,9.3"/><path class="cls-1" d="M6,4.41V6.87a34.39,34.39,0,0,0,5.87.47,34.18,34.18,0,0,0,5.86-.47V4.41"/><line class="cls-1" x1="1.1" y1="19.07" x2="1.1" y2="4.41"/><line class="cls-1" x1="22.6" y1="19.07" x2="22.6" y2="4.41"/></svg>