<svg id="Layer_1" data-name="Layer 1" xmlns="http://www.w3.org/2000/svg" viewBox="0 0 24 24"><defs><style>.cls-1{fill:none;stroke:#020202;stroke-miterlimit:10;stroke-width:1.95px;}</style></defs><path class="cls-1" d="M18.84,12A7.52,7.52,0,0,1,12,15.91,7.52,7.52,0,0,1,5.16,12,7.52,7.52,0,0,1,12,8.09,7.52,7.52,0,0,1,18.84,12Z"/><circle class="cls-1" cx="12" cy="12" r="0.98"/><polyline class="cls-1" points="1.25 7.12 1.25 1.25 7.12 1.25"/><polyline class="cls-1" points="22.75 16.89 22.75 22.75 16.89 22.75"/><polyline class="cls-1" points="7.12 22.75 1.25 22.75 1.25 16.89"/><polyline class="cls-1" points="16.89 1.25 22.75 1.25 22.75 7.12"/><line class="cls-1" x1="1.25" y1="1.25" x2="7.11" y2="7.11"/><line class="cls-1" x1="1.25" y1="22.75" x2="7.11" y2="16.89"/><line class="cls-1" x1="16.89" y1="7.11" x2="21.77" y2="2.23"/><line class="cls-1" x1="22.75" y1="22.75" x2="16.89" y2="16.89"/></svg>