<svg id="Layer_1" data-name="Layer 1" xmlns="http://www.w3.org/2000/svg" viewBox="0 0 24 24"><defs><style>.cls-1{fill:none;stroke:#020202;stroke-miterlimit:10;stroke-width:1.95px;}</style></defs><path class="cls-1" d="M16.89,6.14h3.9a2,2,0,0,1,2,2v7.82a2,2,0,0,1-2,1.95H14.93l-1.42-2.12a1.81,1.81,0,0,0-3,0L9.07,17.86H3.21a2,2,0,0,1-2-1.95V8.09a2,2,0,0,1,2-1.95H16.89Z"/><line class="cls-1" x1="4.18" y1="10.05" x2="6.14" y2="10.05"/><line class="cls-1" x1="4.18" y1="13.95" x2="6.14" y2="13.95"/><path class="cls-1" d="M16.61,9.89h.06a.32.32,0,0,1,.32.32v2.45a0,0,0,0,1,0,0H16.3a0,0,0,0,1,0,0V10.2A.32.32,0,0,1,16.61,9.89Z" transform="translate(-3.09 15.07) rotate(-45)"/><path class="cls-1" d="M17.76,9.89h.69a0,0,0,0,1,0,0v2.43a.33.33,0,0,1-.33.33h0a.33.33,0,0,1-.33-.33V9.89A0,0,0,0,1,17.76,9.89Z" transform="translate(22.94 32.04) rotate(-135)"/></svg>