<svg id="Layer_1" data-name="Layer 1" xmlns="http://www.w3.org/2000/svg" viewBox="0 0 24 24"><defs><style>.cls-1{fill:none;stroke:#020202;stroke-miterlimit:10;stroke-width:1.95px;}</style></defs><path class="cls-1" d="M18.34,4.21A4.86,4.86,0,0,0,14,6.14H10A4.86,4.86,0,0,0,5.66,4.21,5,5,0,0,0,1.25,9.28v7A3.5,3.5,0,0,0,8,17.61c.42-1.05.94-2.37,1.42-3.66h5.16c.48,1.29,1,2.61,1.42,3.66a3.5,3.5,0,0,0,6.75-1.29v-7A5,5,0,0,0,18.34,4.21Z"/><path class="cls-1" d="M18.84,12h0Z"/><path class="cls-1" d="M18.84,8.09h0Z"/><path class="cls-1" d="M20.79,10.05h0Z"/><path class="cls-1" d="M16.89,10.05h0Z"/><path class="cls-1" d="M7.11,12h0Z"/><path class="cls-1" d="M7.11,8.09h0Z"/><path class="cls-1" d="M9.07,10.05h0Z"/><path class="cls-1" d="M5.16,10.05h0Z"/></svg>