<svg id="Layer_1" data-name="Layer 1" xmlns="http://www.w3.org/2000/svg" viewBox="0 0 24 24"><defs><style>.cls-1{fill:none;stroke:#020202;stroke-miterlimit:10;stroke-width:1.82px;}</style></defs><path class="cls-1" d="M21.75,6.15a4.47,4.47,0,0,1-1.32,3.18l-11,11A4.5,4.5,0,1,1,3.07,14l11-11a4.5,4.5,0,0,1,7.68,3.18Z"/><path class="cls-1" d="M21.75,6.15a4.47,4.47,0,0,1-1.32,3.18l-6,6A4.5,4.5,0,1,1,8.07,9l6-6a4.5,4.5,0,0,1,7.68,3.18Z"/><circle class="cls-1" cx="17.2" cy="6.19" r="0.91"/><line class="cls-1" x1="12.66" y1="9.83" x2="14.48" y2="9.83"/><line class="cls-1" x1="12.66" y1="12.56" x2="14.48" y2="12.56"/><line class="cls-1" x1="9.93" y1="9.83" x2="11.75" y2="9.83"/><line class="cls-1" x1="9.93" y1="12.56" x2="11.75" y2="12.56"/></svg>