<svg id="Layer_1" data-name="Layer 1" xmlns="http://www.w3.org/2000/svg" viewBox="0 0 24 24"><defs><style>.cls-1{fill:none;stroke:#020202;stroke-miterlimit:10;stroke-width:1.83px;}</style></defs><path class="cls-1" d="M6.84,5.15A5.46,5.46,0,0,1,12,1.5a5.39,5.39,0,0,1,3.87,1.61,5.26,5.26,0,0,1,1.29,2"/><path class="cls-1" d="M17.48,5.15V9.72H12.91a1,1,0,0,0-1.82,0H6.52V5.15Z"/><path class="cls-1" d="M17.4,9.72a5.48,5.48,0,0,1-10.8,0"/><path class="cls-1" d="M2,22.5C2,18,6.45,14.28,12,14.28S22,18,22,22.5"/><line class="cls-1" x1="4.7" y1="6.98" x2="6.52" y2="6.98"/><line class="cls-1" x1="17.48" y1="6.98" x2="19.3" y2="6.98"/></svg>