<svg id="Layer_1" data-name="Layer 1" xmlns="http://www.w3.org/2000/svg" viewBox="0 0 24 24"><defs><style>.cls-1{fill:none;stroke:#020202;stroke-miterlimit:10;stroke-width:1.95px;}</style></defs><path class="cls-1" d="M2.23,1.25H5.16a2,2,0,0,1,2,2h0a2,2,0,0,1-1.95,2H3.21"/><path class="cls-1" d="M2.23,9.07H5.16a2,2,0,0,0,2-2h0A2,2,0,0,0,5.16,5.16H3.21"/><circle class="cls-1" cx="12" cy="7.11" r="1.95"/><path class="cls-1" d="M10.05,7.11V5.16A3.91,3.91,0,0,1,14,1.25h0"/><rect class="cls-1" x="16.89" y="1.25" width="3.91" height="7.82" rx="1.95"/><path class="cls-1" d="M9.07,14H5.16L1.25,18.84h0a3.91,3.91,0,0,0,3.91,3.91H18.84a3.91,3.91,0,0,0,3.91-3.91h0L18.84,14H14.93"/><line class="cls-1" x1="1.25" y1="18.84" x2="22.75" y2="18.84"/><line class="cls-1" x1="12" y1="15.91" x2="12" y2="11.02"/></svg>