<svg id="Layer_1" data-name="Layer 1" xmlns="http://www.w3.org/2000/svg" viewBox="0 0 24 24"><defs><style>.cls-1{fill:none;stroke:#020202;stroke-miterlimit:10;stroke-width:1.95px;}</style></defs><path class="cls-1" d="M6.14,17.59A34.11,34.11,0,0,1,12,17.11a34.11,34.11,0,0,1,5.86.48"/><line class="cls-1" x1="22.73" y1="20.04" x2="22.73" y2="4.43"/><line class="cls-1" x1="1.27" y1="20.04" x2="1.27" y2="4.43"/><path class="cls-1" d="M1.27,20c0,1,1.94,1.93,4.87,2.46V6.89C3.21,6.36,1.27,5.46,1.27,4.43,1.27,2.81,6.07,1.5,12,1.5S22.73,2.81,22.73,4.43c0,1-1.94,1.93-4.87,2.46V22.5c2.93-.53,4.87-1.42,4.87-2.46"/><polygon class="cls-1" points="12.98 10.28 11.02 11.26 11.02 9.31 12.98 10.28 12.98 10.28"/></svg>