<svg id="Layer_1" data-name="Layer 1" xmlns="http://www.w3.org/2000/svg" viewBox="0 0 24 24"><defs><style>.cls-1{fill:none;stroke:#020202;stroke-miterlimit:10;stroke-width:1.95px;}</style></defs><path class="cls-1" d="M14.93,4.18c0,1.62-1.31,1-2.93,1s-2.93.64-2.93-1a2.93,2.93,0,0,1,5.86,0Z"/><path class="cls-1" d="M14.93,19.82a2.93,2.93,0,0,1-5.86,0c0-1.62,1.31-1,2.93-1S14.93,18.2,14.93,19.82Z"/><path class="cls-1" d="M22.75,12a2.93,2.93,0,0,1-2.93,2.93c-1.62,0-1-1.31-1-2.93s-.64-2.93,1-2.93A2.93,2.93,0,0,1,22.75,12Z"/><path class="cls-1" d="M5.16,12c0,1.62.64,2.93-1,2.93a2.93,2.93,0,0,1,0-5.86C5.8,9.07,5.16,10.38,5.16,12Z"/><path class="cls-1" d="M3.69,9.11A8.83,8.83,0,0,1,9.11,3.69h0"/><path class="cls-1" d="M20.31,14.88h0a8.83,8.83,0,0,1-5.42,5.42h0"/><path class="cls-1" d="M9.12,20.31h0a8.83,8.83,0,0,1-5.42-5.42"/><path class="cls-1" d="M20.31,9.12h0a8.83,8.83,0,0,0-5.42-5.42h0"/><circle class="cls-1" cx="12" cy="12" r="2.93"/></svg>