<svg id="Layer_1" data-name="Layer 1" xmlns="http://www.w3.org/2000/svg" viewBox="0 0 24 24"><defs><style>.cls-1{fill:none;stroke:#020202;stroke-miterlimit:10;stroke-width:1.95px;}</style></defs><path class="cls-1" d="M18.18,3.21A10.75,10.75,0,0,1,12,22.75"/><path class="cls-1" d="M5.82,20.79A10.75,10.75,0,0,1,12,1.25"/><polyline class="cls-1" points="18.84 7.12 17.86 3.21 21.77 3.21"/><polyline class="cls-1" points="5.16 16.89 6.14 20.79 2.23 20.79"/><path class="cls-1" d="M18.84,12A7.52,7.52,0,0,1,12,15.91,7.52,7.52,0,0,1,5.16,12,7.52,7.52,0,0,1,12,8.09,7.52,7.52,0,0,1,18.84,12Z"/><circle class="cls-1" cx="12" cy="12" r="0.98"/></svg>