<svg id="Layer_1" data-name="Layer 1" xmlns="http://www.w3.org/2000/svg" viewBox="0 0 24 24"><defs><style>.cls-1{fill:none;stroke:#020202;stroke-miterlimit:10;stroke-width:1.95px;}</style></defs><polygon class="cls-1" points="12.98 12 11.02 12.98 11.02 11.02 12.98 12 12.98 12"/><circle class="cls-1" cx="12" cy="12" r="7.82"/><path class="cls-1" d="M13.73,6.45c.6-.52,1.17-1,1.74-1.46C19,2.17,21.8.69,22.55,1.45S21.83,5,19,8.53"/><path class="cls-1" d="M8.53,19C5,21.83,2.2,23.31,1.45,22.55S2.17,19,5,15.47c.73-.9,1.53-1.84,2.41-2.81"/><path class="cls-1" d="M5,8.53C2.17,5,.69,2.2,1.45,1.45S5,2.17,8.53,5c.57.45,1.14.94,1.74,1.46"/><path class="cls-1" d="M16.6,12.66c.88,1,1.69,1.92,2.41,2.81,2.82,3.53,4.3,6.33,3.54,7.08S19,21.83,15.47,19"/></svg>