<svg id="Layer_1" data-name="Layer 1" xmlns="http://www.w3.org/2000/svg" viewBox="0 0 24 24"><defs><style>.cls-1{fill:none;stroke:#020202;stroke-miterlimit:10;stroke-width:1.95px;}</style></defs><path class="cls-1" d="M22.75,8.58v6.84a2,2,0,0,1-2,2H14.93l-1.41-2.11A1.83,1.83,0,0,0,12,14.44h0a1.83,1.83,0,0,0-1.52.82L9.07,17.37H3.21a2,2,0,0,1-2-2V8.58a2,2,0,0,1,2-1.95H20.79A2,2,0,0,1,22.75,8.58Z"/><line class="cls-1" x1="4.18" y1="10.05" x2="6.14" y2="10.05"/><line class="cls-1" x1="4.18" y1="13.95" x2="6.14" y2="13.95"/></svg>