<svg id="Layer_1" data-name="Layer 1" xmlns="http://www.w3.org/2000/svg" viewBox="0 0 24 24"><defs><style>.cls-1{fill:none;stroke:#020202;stroke-miterlimit:10;stroke-width:1.95px;}</style></defs><path class="cls-1" d="M16.89,11h3.9a2,2,0,0,1,2,2v7.81a2,2,0,0,1-2,2H14.93l-1.42-2.12a1.81,1.81,0,0,0-3,0L9.07,22.75H3.21a2,2,0,0,1-2-2V13a2,2,0,0,1,2-2H16.89Z"/><line class="cls-1" x1="4.18" y1="14.93" x2="6.14" y2="14.93"/><line class="cls-1" x1="4.18" y1="18.84" x2="6.14" y2="18.84"/><path class="cls-1" d="M12,1.25h0A9.77,9.77,0,0,1,21.77,11v0a0,0,0,0,1,0,0H2.23a0,0,0,0,1,0,0v0A9.77,9.77,0,0,1,12,1.25Z"/><path class="cls-1" d="M3,7.3a9.71,9.71,0,0,1,6.1-2.14h5.86A9.71,9.71,0,0,1,21,7.3"/></svg>