<svg id="Layer_1" data-name="Layer 1" xmlns="http://www.w3.org/2000/svg" viewBox="0 0 24 24"><defs><style>.cls-1{fill:none;stroke:#020202;stroke-miterlimit:10;stroke-width:1.95px;}</style></defs><path class="cls-1" d="M4.18,6.2C2.37,5.67,1.25,5,1.25,4.18,1.25,3,3.64,2.05,7.11,1.57V6.79"/><path class="cls-1" d="M19.82,6.2c1.81-.53,2.93-1.24,2.93-2,0-1.14-2.39-2.13-5.86-2.61V6.79"/><path class="cls-1" d="M4.18,17.8c-1.81.53-2.93,1.24-2.93,2C1.25,21,3.64,22,7.11,22.43V17.21"/><path class="cls-1" d="M19.82,17.8c1.81.53,2.93,1.24,2.93,2,0,1.14-2.39,2.13-5.86,2.61V17.21"/><line class="cls-1" x1="1.25" y1="19.82" x2="1.25" y2="4.18"/><path class="cls-1" d="M7.11,4.18V6.79A35,35,0,0,0,12,7.11a35,35,0,0,0,4.89-.32V4.18"/><path class="cls-1" d="M7.11,19.82V17.21A35,35,0,0,1,12,16.89a35,35,0,0,1,4.89.32v2.61"/><line class="cls-1" x1="22.75" y1="19.82" x2="22.75" y2="4.18"/><path class="cls-1" d="M16.89,6.79V17.21A35,35,0,0,0,12,16.89a35,35,0,0,0-4.89.32V6.79A35,35,0,0,0,12,7.11,35,35,0,0,0,16.89,6.79Z"/></svg>