<svg id="Layer_1" data-name="Layer 1" xmlns="http://www.w3.org/2000/svg" viewBox="0 0 24 24"><defs><style>.cls-1{fill:none;stroke:#020202;stroke-miterlimit:10;stroke-width:1.95px;}</style></defs><path class="cls-1" d="M16.89,9.07h3.9a2,2,0,0,1,2,1.95v7.82a2,2,0,0,1-2,1.95H14.93l-1.42-2.12a1.81,1.81,0,0,0-3,0L9.07,20.79H3.21a2,2,0,0,1-2-1.95V11a2,2,0,0,1,2-1.95H16.89Z"/><circle class="cls-1" cx="17.86" cy="14.93" r="1.95"/><line class="cls-1" x1="4.18" y1="12.98" x2="6.14" y2="12.98"/><line class="cls-1" x1="4.18" y1="16.89" x2="6.14" y2="16.89"/><path class="cls-1" d="M21.77,9.07H2.23L5.16,3.21a14.14,14.14,0,0,0,6.84,2,14.14,14.14,0,0,0,6.84-1.95Z"/></svg>