<svg id="Layer_1" data-name="Layer 1" xmlns="http://www.w3.org/2000/svg" viewBox="0 0 24 24"><defs><style>.cls-1{fill:none;stroke:#020202;stroke-miterlimit:10;stroke-width:1.95px;}</style></defs><path class="cls-1" d="M8.53,19C5,21.83,2.2,23.31,1.45,22.55S2.17,19,5,15.47A69,69,0,0,1,10,10c.68-.69,1.36-1.34,2-2,1.2-1.11,2.37-2.13,3.47-3C19,2.17,21.8.69,22.55,1.45S21.83,5,19,8.53"/><path class="cls-1" d="M15.47,19c3.53,2.82,6.33,4.3,7.08,3.54S21.83,19,19,15.47c-.88-1.1-1.9-2.27-3-3.47-.63-.67-1.28-1.35-2-2s-1.36-1.34-2-2C10.8,6.89,9.63,5.87,8.53,5,5,2.17,2.2.69,1.45,1.45S2.17,5,5,8.53"/><circle class="cls-1" cx="12" cy="12" r="7.82"/></svg>