<svg id="Layer_1" data-name="Layer 1" xmlns="http://www.w3.org/2000/svg" viewBox="0 0 24 24"><defs><style>.cls-1{fill:none;stroke:#020202;stroke-miterlimit:10;stroke-width:1.95px;}</style></defs><path class="cls-1" d="M6.14,17.84A34.11,34.11,0,0,1,12,17.36a34.11,34.11,0,0,1,5.86.48"/><line class="cls-1" x1="22.75" y1="20.3" x2="22.75" y2="10.52"/><line class="cls-1" x1="1.25" y1="20.3" x2="1.25" y2="10.52"/><path class="cls-1" d="M1.25,20.3c0,1,2,1.93,4.89,2.46V13c-2.94-.53-4.89-1.43-4.89-2.47C1.25,8.9,6.06,7.59,12,7.59S22.75,8.9,22.75,10.52c0,1-1.95,1.94-4.89,2.47v9.77c2.94-.53,4.89-1.43,4.89-2.46"/><polyline class="cls-1" points="19.33 1.24 21.77 3.69 19.33 6.13"/><polyline class="cls-1" points="4.67 6.13 2.23 3.69 4.67 1.24"/><line class="cls-1" x1="5.16" y1="3.68" x2="7.11" y2="3.68"/><line class="cls-1" x1="9.07" y1="3.68" x2="11.02" y2="3.68"/><line class="cls-1" x1="12.98" y1="3.68" x2="14.93" y2="3.68"/><line class="cls-1" x1="16.89" y1="3.68" x2="18.84" y2="3.68"/></svg>