<svg id="Layer_1" data-name="Layer 1" xmlns="http://www.w3.org/2000/svg" viewBox="0 0 24 24"><defs><style>.cls-1{fill:none;stroke:#020202;stroke-miterlimit:10;stroke-width:1.95px;}</style></defs><path class="cls-1" d="M22.75,13v7.81a2,2,0,0,1-2,2H14.93l-1.41-2.12A1.82,1.82,0,0,0,12,19.82h0a1.82,1.82,0,0,0-1.52.81L9.07,22.75H3.21a2,2,0,0,1-2-2V13a2,2,0,0,1,2-2H20.79A2,2,0,0,1,22.75,13Z"/><path class="cls-1" d="M12,1.25h0A9.77,9.77,0,0,1,21.77,11v0a0,0,0,0,1,0,0H2.23a0,0,0,0,1,0,0v0A9.77,9.77,0,0,1,12,1.25Z"/><line class="cls-1" x1="12" y1="2.23" x2="12" y2="11.02"/><circle class="cls-1" cx="6.14" cy="16.89" r="0.98"/><circle class="cls-1" cx="17.86" cy="16.89" r="0.98"/></svg>