<svg id="Layer_1" data-name="Layer 1" xmlns="http://www.w3.org/2000/svg" viewBox="0 0 24 24"><defs><style>.cls-1{fill:none;stroke:#020202;stroke-miterlimit:10;stroke-width:1.83px;}</style></defs><line class="cls-1" x1="17.48" y1="15.83" x2="17.48" y2="15.83"/><path class="cls-1" d="M17.48,22.5V15.83a7.84,7.84,0,0,0,2.25-3.37"/><path class="cls-1" d="M4.64,6.07a8.23,8.23,0,0,1,6.45-4.52"/><path class="cls-1" d="M3.78,15.2v1.6a3,3,0,0,0,3,3,3,3,0,0,0,1.32-.31l1.2-.6V22.5"/><ellipse class="cls-1" cx="17.93" cy="5.61" rx="1.84" ry="5.51" transform="translate(1.29 14.32) rotate(-45)"/><ellipse class="cls-1" cx="17.93" cy="5.61" rx="5.51" ry="1.84" transform="translate(1.29 14.32) rotate(-45)"/><polygon class="cls-1" points="10.17 11.54 8.35 11.54 4.7 14.28 1.96 14.28 1.96 6.07 10.17 6.07 10.17 11.54"/></svg>