<svg id="Layer_1" data-name="Layer 1" xmlns="http://www.w3.org/2000/svg" viewBox="0 0 24 24"><defs><style>.cls-1{fill:none;stroke:#020202;stroke-miterlimit:10;stroke-width:1.95px;}</style></defs><path class="cls-1" d="M17.86,7.74h2.93a2,2,0,0,1,2,1.95v7.82a2,2,0,0,1-2,2H14.93l-1.42-2.12a1.8,1.8,0,0,0-3,0L9.07,19.47H3.21a2,2,0,0,1-2-2V9.69a2,2,0,0,1,2-1.95H6.14"/><line class="cls-1" x1="4.18" y1="11.65" x2="6.14" y2="11.65"/><line class="cls-1" x1="4.18" y1="15.56" x2="6.14" y2="15.56"/><circle class="cls-1" cx="12" cy="7.74" r="2.93"/><line class="cls-1" x1="12" y1="2.85" x2="12" y2="4.81"/><line class="cls-1" x1="12" y1="10.67" x2="12" y2="12.63"/><line class="cls-1" x1="7.77" y1="5.3" x2="9.46" y2="6.27"/><line class="cls-1" x1="14.54" y1="9.21" x2="16.23" y2="10.18"/><line class="cls-1" x1="16.23" y1="5.3" x2="14.54" y2="6.27"/><line class="cls-1" x1="9.46" y1="9.21" x2="7.77" y2="10.18"/></svg>