<svg id="Layer_1" data-name="Layer 1" xmlns="http://www.w3.org/2000/svg" viewBox="0 0 24 24"><defs><style>.cls-1{fill:none;stroke:#020202;stroke-miterlimit:10;stroke-width:1.91px;}</style></defs><line class="cls-1" x1="0.55" y1="18.68" x2="23.45" y2="18.68"/><circle class="cls-1" cx="5.32" cy="20.59" r="1.91"/><circle class="cls-1" cx="18.68" cy="20.59" r="1.91"/><path class="cls-1" d="M12,1.5h0A9.55,9.55,0,0,1,21.55,11v7.64a0,0,0,0,1,0,0H2.45a0,0,0,0,1,0,0V11A9.55,9.55,0,0,1,12,1.5Z"/><rect class="cls-1" x="6.27" y="10.09" width="11.45" height="8.59" rx="1.91"/><polygon class="cls-1" points="14.86 10.09 9.14 10.09 10.09 7.23 13.91 7.23 14.86 10.09"/><line class="cls-1" x1="9.14" y1="12.95" x2="9.14" y2="18.68"/><line class="cls-1" x1="14.86" y1="12.95" x2="14.86" y2="18.68"/></svg>