<svg id="Layer_1" data-name="Layer 1" xmlns="http://www.w3.org/2000/svg" viewBox="0 0 24 24"><defs><style>.cls-1{fill:none;stroke:#020202;stroke-miterlimit:10;stroke-width:1.91px;}</style></defs><path class="cls-1" d="M16,1.5H8A6.52,6.52,0,0,0,3.41,3.41h0A6.52,6.52,0,0,0,1.5,8v8.75H5.32V22.5H18.68V16.77H22.5V8a6.52,6.52,0,0,0-1.91-4.61h0A6.52,6.52,0,0,0,16,1.5Z"/><line class="cls-1" x1="5.32" y1="6.27" x2="5.32" y2="16.77"/><line class="cls-1" x1="18.68" y1="6.27" x2="18.68" y2="16.77"/><line class="cls-1" x1="8.18" y1="1.5" x2="13.91" y2="14.86"/><line class="cls-1" x1="15.82" y1="1.5" x2="12" y2="10.41"/><line class="cls-1" x1="18.68" y1="14.86" x2="5.32" y2="14.86"/><line class="cls-1" x1="13.91" y1="22.5" x2="13.91" y2="14.86"/></svg>