<svg id="Layer_1" data-name="Layer 1" xmlns="http://www.w3.org/2000/svg" viewBox="0 0 24 24"><defs><style>.cls-1{fill:none;stroke:#020202;stroke-miterlimit:10;stroke-width:1.91px;}</style></defs><line class="cls-1" x1="2.45" y1="23.45" x2="2.45" y2="20.59"/><rect class="cls-1" x="1.5" y="15.82" width="21" height="4.77"/><path class="cls-1" d="M6.52,11h11a4.07,4.07,0,0,1,4.07,4.07v.7a0,0,0,0,1,0,0H2.45a0,0,0,0,1,0,0v-.7A4.07,4.07,0,0,1,6.52,11Z"/><path class="cls-1" d="M7.23,7.23H9.14A2.86,2.86,0,0,1,12,10.09v1a0,0,0,0,1,0,0H4.36a0,0,0,0,1,0,0v-1A2.86,2.86,0,0,1,7.23,7.23Z"/><path class="cls-1" d="M14.86,7.23h1.91a2.86,2.86,0,0,1,2.86,2.86v1a0,0,0,0,1,0,0H12a0,0,0,0,1,0,0v-1A2.86,2.86,0,0,1,14.86,7.23Z"/><rect class="cls-1" x="4.36" y="3.41" width="15.27" height="7.64"/><line class="cls-1" x1="21.55" y1="23.45" x2="21.55" y2="20.59"/><line class="cls-1" x1="4.36" y1="0.55" x2="4.36" y2="3.41"/><line class="cls-1" x1="19.64" y1="0.55" x2="19.64" y2="3.41"/></svg>