<svg id="Layer_1" data-name="Layer 1" xmlns="http://www.w3.org/2000/svg" viewBox="0 0 24 24"><defs><style>.cls-1{fill:none;stroke:#020202;stroke-miterlimit:10;stroke-width:1.91px;}</style></defs><path class="cls-1" d="M8.18,9.14V1.5H4.36V9.14l-.31.21A5.73,5.73,0,0,0,1.5,14.11V22.5h9.55V14.11A5.73,5.73,0,0,0,8.5,9.35Z"/><line class="cls-1" x1="2.45" y1="1.5" x2="10.09" y2="1.5"/><path class="cls-1" d="M14.86,8.18H22.5a0,0,0,0,1,0,0V13a3.82,3.82,0,0,1-3.82,3.82h0A3.82,3.82,0,0,1,14.86,13V8.18A0,0,0,0,1,14.86,8.18Z"/><line class="cls-1" x1="18.68" y1="22.5" x2="18.68" y2="16.77"/><line class="cls-1" x1="21.55" y1="22.5" x2="15.82" y2="22.5"/><rect class="cls-1" x="1.5" y="14.86" width="5.73" height="3.82"/></svg>