<svg id="Layer_1" data-name="Layer 1" xmlns="http://www.w3.org/2000/svg" viewBox="0 0 24 24"><defs><style>.cls-1{fill:none;stroke:#020202;stroke-miterlimit:10;stroke-width:1.82px;}</style></defs><path class="cls-1" d="M10.14,5.64h0a4.55,4.55,0,0,1,4.55,4.55V22a0,0,0,0,1,0,0H5.59a0,0,0,0,1,0,0V10.18A4.55,4.55,0,0,1,10.14,5.64Z"/><rect class="cls-1" x="5.59" y="12.91" width="9.09" height="4.55"/><rect class="cls-1" x="8.32" y="2" width="3.64" height="3.64"/><polygon class="cls-1" points="21.95 5.64 16.5 4.73 16.5 2.91 21.95 2 21.95 5.64"/><line class="cls-1" x1="11.95" y1="3.82" x2="16.5" y2="3.82"/><polyline class="cls-1" points="8.32 3.82 3.8 3.82 1.04 7.46"/></svg>