<svg id="Layer_1" data-name="Layer 1" xmlns="http://www.w3.org/2000/svg" viewBox="0 0 24 24"><defs><style>.cls-1{fill:none;stroke:#020202;stroke-miterlimit:10;stroke-width:1.91px;}</style></defs><path class="cls-1" d="M19.64,1.5H4.36L2.45,5.32V7.23a1.91,1.91,0,0,0,3.82,0,1.91,1.91,0,0,0,3.82,0,1.91,1.91,0,0,0,3.82,0,1.91,1.91,0,1,0,3.82,0,1.91,1.91,0,1,0,3.82,0V5.32Z"/><path class="cls-1" d="M12,13.91h0a3.82,3.82,0,0,1,3.82,3.82v1a0,0,0,0,1,0,0H8.18a0,0,0,0,1,0,0v-1A3.82,3.82,0,0,1,12,13.91Z"/><line class="cls-1" x1="12" y1="12" x2="12" y2="13.91"/><line class="cls-1" x1="6.27" y1="18.68" x2="17.73" y2="18.68"/><line class="cls-1" x1="0.55" y1="22.5" x2="23.45" y2="22.5"/><line class="cls-1" x1="3.41" y1="8.18" x2="3.41" y2="22.5"/><line class="cls-1" x1="20.59" y1="8.18" x2="20.59" y2="22.5"/><line class="cls-1" x1="2.45" y1="5.32" x2="21.55" y2="5.32"/><line class="cls-1" x1="6.27" y1="5.32" x2="6.27" y2="7.23"/><line class="cls-1" x1="10.09" y1="5.32" x2="10.09" y2="7.23"/><line class="cls-1" x1="13.91" y1="5.32" x2="13.91" y2="7.23"/><line class="cls-1" x1="17.73" y1="5.32" x2="17.73" y2="7.23"/></svg>