<svg id="Layer_1" data-name="Layer 1" xmlns="http://www.w3.org/2000/svg" viewBox="0 0 24 24"><defs><style>.cls-1{fill:none;stroke:#020202;stroke-miterlimit:10;stroke-width:1.91px;}</style></defs><path class="cls-1" d="M7.23,1.5h9.55a1.91,1.91,0,0,1,1.91,1.91V22.5a0,0,0,0,1,0,0H5.32a0,0,0,0,1,0,0V3.41A1.91,1.91,0,0,1,7.23,1.5Z"/><path class="cls-1" d="M7.23,1.5h9.55a1.91,1.91,0,0,1,1.91,1.91v6.68a0,0,0,0,1,0,0H5.32a0,0,0,0,1,0,0V3.41A1.91,1.91,0,0,1,7.23,1.5Z"/><line class="cls-1" x1="8.18" y1="4.36" x2="8.18" y2="7.23"/><line class="cls-1" x1="8.18" y1="12.95" x2="8.18" y2="15.82"/></svg>