<svg id="Layer_1" data-name="Layer 1" xmlns="http://www.w3.org/2000/svg" viewBox="0 0 24 24"><defs><style>.cls-1{fill:none;stroke:#020202;stroke-miterlimit:10;stroke-width:1.91px;}</style></defs><path class="cls-1" d="M20.61,4.36H18a17.16,17.16,0,0,1-8-2.2A5.73,5.73,0,1,0,7.25,13a5.6,5.6,0,0,0,2.9-.79,16.26,16.26,0,0,1,8.29-2.07h2.17Z"/><line class="cls-1" x1="20.61" y1="2.45" x2="20.61" y2="12"/><circle class="cls-1" cx="7.25" cy="7.23" r="1.91"/><line class="cls-1" x1="11.07" y1="7.23" x2="14.89" y2="7.23"/><path class="cls-1" d="M4.67,12.33l1.22,5.48a2.32,2.32,0,0,0,2.28,1.83,2.36,2.36,0,0,0,.75-.13,2.32,2.32,0,0,0,1.52-2.71l-1-4.3"/><path class="cls-1" d="M8.92,19.51l.5,1.24A2.77,2.77,0,0,0,12,22.5h.12a2.78,2.78,0,0,0,2.78-2.78V17.25a2.38,2.38,0,0,1,2.38-2.39h0a2.39,2.39,0,0,1,2.39,2.39h0A3.33,3.33,0,0,0,23,20.59h.48"/></svg>