<svg id="Layer_1" data-name="Layer 1" xmlns="http://www.w3.org/2000/svg" viewBox="0 0 24 24"><defs><style>.cls-1{fill:none;stroke:#020202;stroke-miterlimit:10;stroke-width:1.91px;}</style></defs><line class="cls-1" x1="0.55" y1="22.5" x2="23.45" y2="22.5"/><path class="cls-1" d="M12,13.91h0a7.64,7.64,0,0,1,7.64,7.64v1a0,0,0,0,1,0,0H4.36a0,0,0,0,1,0,0v-1A7.64,7.64,0,0,1,12,13.91Z"/><line class="cls-1" x1="12" y1="12" x2="12" y2="13.91"/><circle class="cls-1" cx="12" cy="11.05" r="0.95"/><path class="cls-1" d="M4.36,3.41C7.67,5.7,3,6.84,6.27,9.13"/><path class="cls-1" d="M11.05,1.5c3.3,2.29-1.4,3.44,1.9,5.73"/><path class="cls-1" d="M17.73,3.41c3.3,2.29-1.4,3.44,1.91,5.73"/></svg>