<svg id="Layer_1" data-name="Layer 1" xmlns="http://www.w3.org/2000/svg" viewBox="0 0 24 24"><defs><style>.cls-1{fill:none;stroke:#020202;stroke-miterlimit:10;stroke-width:1.91px;}</style></defs><path class="cls-1" d="M16.41,12.13a3.32,3.32,0,0,0-.9-.13H4.67A3.17,3.17,0,0,0,1.5,15.17v.34a3.17,3.17,0,0,0,3.17,3.17h6.38"/><rect class="cls-1" x="3.41" y="6.27" width="13.36" height="5.73" rx="2.86"/><rect class="cls-1" x="5.32" y="1.5" width="9.55" height="4.77" rx="2.39"/><path class="cls-1" d="M20.59,16.77H22.5a0,0,0,0,1,0,0v1.91a3.82,3.82,0,0,1-3.82,3.82H16.77a0,0,0,0,1,0,0V20.59A3.82,3.82,0,0,1,20.59,16.77Z"/><path class="cls-1" d="M19,17.13a3.81,3.81,0,0,0-.89-4l-1.35-1.35-.36.36-1,1a3.79,3.79,0,0,0-.89,4"/><path class="cls-1" d="M14.86,16.77h1.91a0,0,0,0,1,0,0v1.91A3.82,3.82,0,0,1,13,22.5H11a0,0,0,0,1,0,0V20.59A3.82,3.82,0,0,1,14.86,16.77Z" transform="translate(-5.73 33.55) rotate(-90)"/></svg>