<svg id="Layer_1" data-name="Layer 1" xmlns="http://www.w3.org/2000/svg" viewBox="0 0 24 24"><defs><style>.cls-1{fill:none;stroke:#020202;stroke-miterlimit:10;stroke-width:1.91px;}</style></defs><path class="cls-1" d="M18.68,14.86h2.08a1.74,1.74,0,0,0,1.74-1.73,1.76,1.76,0,0,0-1-1.6L12,7.23l-9.48,4.3a1.76,1.76,0,0,0-1,1.6,1.74,1.74,0,0,0,1.74,1.73H5.32"/><path class="cls-1" d="M12,7.23V7a2.54,2.54,0,0,1,1.13-2,1.91,1.91,0,1,0-3-1.54"/><path class="cls-1" d="M7.23,13h9.55a1.91,1.91,0,0,1,1.91,1.91V22.5a0,0,0,0,1,0,0H5.32a0,0,0,0,1,0,0V14.86A1.91,1.91,0,0,1,7.23,13Z"/></svg>