<svg id="Layer_1" data-name="Layer 1" xmlns="http://www.w3.org/2000/svg" viewBox="0 0 24 24"><defs><style>.cls-1{fill:none;stroke:#020202;stroke-miterlimit:10;stroke-width:1.91px;}</style></defs><circle class="cls-1" cx="7.2" cy="20.59" r="1.91"/><circle class="cls-1" cx="19.61" cy="20.59" r="1.91"/><polyline class="cls-1" points="4.34 18.68 4.34 1.5 0.52 1.5"/><rect class="cls-1" x="4.34" y="6.27" width="18.14" height="12.41"/><path class="cls-1" d="M13.89,1.5h0A3.82,3.82,0,0,1,17.7,5.32v1a0,0,0,0,1,0,0H10.07a0,0,0,0,1,0,0v-1A3.82,3.82,0,0,1,13.89,1.5Z"/><path class="cls-1" d="M4.34,12.48c1.51,0,1.51.95,3,.95s1.51-.95,3-.95,1.51.95,3,.95,1.51-.95,3-.95,1.52.95,3,.95,1.51-.95,3-.95"/><line class="cls-1" x1="10.07" y1="9.14" x2="10.07" y2="12"/><line class="cls-1" x1="16.75" y1="9.14" x2="16.75" y2="12"/></svg>