<svg id="Layer_1" data-name="Layer 1" xmlns="http://www.w3.org/2000/svg" viewBox="0 0 24 24"><defs><style>.cls-1{fill:none;stroke:#020202;stroke-miterlimit:10;stroke-width:1.91px;}</style></defs><path class="cls-1" d="M7.23,13.91h9.55a0,0,0,0,1,0,0v0A4.77,4.77,0,0,1,12,18.68h0a4.77,4.77,0,0,1-4.77-4.77v0A0,0,0,0,1,7.23,13.91Z"/><line class="cls-1" x1="12" y1="22.5" x2="12" y2="18.68"/><path class="cls-1" d="M10.09,13.91V11.05A1.91,1.91,0,0,1,12,9.14h0a1.91,1.91,0,0,1,1.91,1.91"/><line class="cls-1" x1="5.32" y1="13.91" x2="18.68" y2="13.91"/><polyline class="cls-1" points="15.82 16.77 22.5 16.77 22.5 1.5 1.5 1.5 1.5 16.77 8.18 16.77"/><line class="cls-1" x1="6.27" y1="4.36" x2="4.36" y2="6.27"/><line class="cls-1" x1="10.09" y1="5.32" x2="5.32" y2="10.09"/><line class="cls-1" x1="0.55" y1="22.5" x2="23.45" y2="22.5"/></svg>