<svg id="Layer_1" data-name="Layer 1" xmlns="http://www.w3.org/2000/svg" viewBox="0 0 24 24"><defs><style>.cls-1{fill:none;stroke:#020202;stroke-miterlimit:10;stroke-width:1.91px;}</style></defs><path class="cls-1" d="M5.28,7.2H18.67a1.91,1.91,0,0,1,1.91,1.91v6.7a0,0,0,0,1,0,0H5.28a0,0,0,0,1,0,0V7.2A0,0,0,0,1,5.28,7.2Z"/><circle class="cls-1" cx="5.28" cy="20.59" r="1.91"/><circle class="cls-1" cx="20.59" cy="20.59" r="1.91"/><line class="cls-1" x1="5.28" y1="18.67" x2="5.28" y2="15.8"/><line class="cls-1" x1="20.59" y1="18.67" x2="20.59" y2="15.8"/><polyline class="cls-1" points="5.28 8.15 5.28 3.37 0.5 1.46"/><path class="cls-1" d="M12.93,2.41h0a3.83,3.83,0,0,1,3.83,3.83v1a0,0,0,0,1,0,0H9.11a0,0,0,0,1,0,0v-1a3.83,3.83,0,0,1,3.83-3.83Z"/><line class="cls-1" x1="12.93" y1="0.5" x2="12.93" y2="2.41"/></svg>