<svg id="Layer_1" data-name="Layer 1" xmlns="http://www.w3.org/2000/svg" viewBox="0 0 24 24"><defs><style>.cls-1{fill:none;stroke:#020202;stroke-miterlimit:10;stroke-width:1.91px;}</style></defs><path class="cls-1" d="M2.45,8.18V6.75A3.35,3.35,0,0,1,5.8,3.41,3.36,3.36,0,0,1,9.14,6.75V8.18"/><path class="cls-1" d="M9.14,13v4.3a3.35,3.35,0,0,1-6.69,0V13"/><path class="cls-1" d="M14.86,8.18V6.75A3.35,3.35,0,0,1,18.2,3.41a3.36,3.36,0,0,1,3.35,3.34V8.18"/><path class="cls-1" d="M21.55,13v4.3a3.35,3.35,0,0,1-6.69,0V13"/><rect class="cls-1" x="1.5" y="8.18" width="8.59" height="4.77"/><rect class="cls-1" x="13.91" y="8.18" width="8.59" height="4.77"/></svg>