<svg id="Layer_1" data-name="Layer 1" xmlns="http://www.w3.org/2000/svg" viewBox="0 0 24 24"><defs><style>.cls-1{fill:none;stroke:#020202;stroke-miterlimit:10;stroke-width:1.91px;}</style></defs><path class="cls-1" d="M18.68,22.5c0-1.75-.95-1.75-.95-3.5s.95-1.75.95-3.5-.95-1.74-.95-3.49.95-1.75.95-3.5S17.73,6.76,17.73,5s.95-1.75.95-3.5H22.5v21Z"/><line class="cls-1" x1="0.55" y1="22.5" x2="23.45" y2="22.5"/><path class="cls-1" d="M2.57,9a2.86,2.86,0,0,1,0,4.05"/><path class="cls-1" d="M6,5.65a7.64,7.64,0,0,1,0,10.8"/><path class="cls-1" d="M9.32,2.27a12.4,12.4,0,0,1,0,17.55"/></svg>