<svg id="Layer_1" data-name="Layer 1" xmlns="http://www.w3.org/2000/svg" viewBox="0 0 24 24"><defs><style>.cls-1{fill:none;stroke:#020202;stroke-miterlimit:10;stroke-width:1.91px;}</style></defs><path class="cls-1" d="M5.32,4.36v-1A1.9,1.9,0,0,1,7.23,1.5h0A1.91,1.91,0,0,1,9.14,3.41V13"/><path class="cls-1" d="M13,1.5a1.9,1.9,0,0,1,1.91,1.91V13"/><line class="cls-1" x1="9.14" y1="10.09" x2="14.86" y2="10.09"/><line class="cls-1" x1="9.14" y1="6.27" x2="14.86" y2="6.27"/><polyline class="cls-1" points="14.86 5.32 22.5 5.32 22.5 22.5 1.5 22.5 1.5 5.32 7.23 5.32"/><path class="cls-1" d="M4.36,14.86c1.75,0,1.75,1,3.5,1s1.75-1,3.5-1,1.75,1,3.5,1"/><path class="cls-1" d="M10.09,18.68c1.75,0,1.75,1,3.5,1s1.75-1,3.5-1,1.75,1,3.5,1"/></svg>