<svg id="Layer_1" data-name="Layer 1" xmlns="http://www.w3.org/2000/svg" viewBox="0 0 24 24"><defs><style>.cls-1{fill:none;stroke:#020202;stroke-miterlimit:10;stroke-width:1.91px;}</style></defs><circle class="cls-1" cx="6.27" cy="18.7" r="1.91"/><circle class="cls-1" cx="16.77" cy="18.7" r="1.91"/><line class="cls-1" x1="14.86" y1="18.7" x2="8.18" y2="18.7"/><path class="cls-1" d="M18.68,18.7H22.5V14.54A1.91,1.91,0,0,0,21,12.67l-2.32-.47a1.55,1.55,0,0,1-.51-.18,1.83,1.83,0,0,1-.82-.83l-.17-.35A4.8,4.8,0,0,0,12.87,8.2H9.16a5.7,5.7,0,0,0-5.27,3.57A1.92,1.92,0,0,1,2.12,13H1.5V18.7H4.36"/><line class="cls-1" x1="18.13" y1="12.02" x2="10.09" y2="12.02"/><polygon class="cls-1" points="12.96 8.21 9.14 8.21 10.09 4.39 12 4.39 12.96 8.21"/></svg>