<svg id="Layer_1" data-name="Layer 1" xmlns="http://www.w3.org/2000/svg" viewBox="0 0 24 24"><defs><style>.cls-1{fill:none;stroke:#020202;stroke-miterlimit:10;stroke-width:1.91px;}</style></defs><path class="cls-1" d="M16.89,22.5H7.11A1.81,1.81,0,0,1,5.3,20.7h0v-.23l1-14.23H17.74l1,14.23v.23h0A1.81,1.81,0,0,1,16.89,22.5Z"/><path class="cls-1" d="M9.13,2.41h5.74a2.87,2.87,0,0,1,2.87,2.87v1a0,0,0,0,1,0,0H6.26a0,0,0,0,1,0,0v-1A2.87,2.87,0,0,1,9.13,2.41Z"/><path class="cls-1" d="M18.34,15.8h1.31a1.92,1.92,0,0,0,1.92-1.91V9.11A1.92,1.92,0,0,0,19.65,7.2H17.8"/><polyline class="cls-1" points="6.26 6.24 2.44 6.24 2.44 7.2 5.77 14.11"/><line class="cls-1" x1="12" y1="0.5" x2="12" y2="2.41"/><rect class="cls-1" x="10.09" y="10.07" width="3.83" height="8.61" rx="1.91"/></svg>