<svg id="Layer_1" data-name="Layer 1" xmlns="http://www.w3.org/2000/svg" viewBox="0 0 24 24"><defs><style>.cls-1{fill:none;stroke:#020202;stroke-miterlimit:10;stroke-width:1.91px;}</style></defs><path class="cls-1" d="M5.8,13h.48a0,0,0,0,1,0,0v8.59a0,0,0,0,1,0,0H5.8a4.3,4.3,0,0,1-4.3-4.3v0A4.3,4.3,0,0,1,5.8,13Z"/><path class="cls-1" d="M17.73,13h.48a4.3,4.3,0,0,1,4.3,4.3v0a4.3,4.3,0,0,1-4.3,4.3h-.48a0,0,0,0,1,0,0V13a0,0,0,0,1,0,0Z"/><path class="cls-1" d="M3.41,13.91V11.05A8.6,8.6,0,0,1,12,2.45h0a8.6,8.6,0,0,1,8.59,8.6v2.86"/></svg>