<svg id="Layer_1" data-name="Layer 1" xmlns="http://www.w3.org/2000/svg" viewBox="0 0 24 24"><defs><style>.cls-1{fill:none;stroke:#020202;stroke-miterlimit:10;stroke-width:1.91px;}</style></defs><circle class="cls-1" cx="12" cy="12" r="10.5"/><polyline class="cls-1" points="14.86 5.32 17.73 8.18 14.86 11.04"/><polyline class="cls-1" points="14.86 12.96 17.73 15.82 14.86 18.68"/><path class="cls-1" d="M5.32,8.18h2A1.93,1.93,0,0,1,8.84,9l.54.72.54.74"/><path class="cls-1" d="M12.29,13.6l.49.67.59.78a1.9,1.9,0,0,0,1.52.77h2.84"/><path class="cls-1" d="M17.73,8.18H14.9A1.92,1.92,0,0,0,13.37,9l-4.53,6.1a1.91,1.91,0,0,1-1.53.77h-2"/></svg>