<svg id="Layer_1" data-name="Layer 1" xmlns="http://www.w3.org/2000/svg" viewBox="0 0 24 24"><defs><style>.cls-1{fill:none;stroke:#020202;stroke-miterlimit:10;stroke-width:1.91px;}</style></defs><circle class="cls-1" cx="12" cy="9.12" r="1.91"/><path class="cls-1" d="M7.28,13.84a6.68,6.68,0,0,1,0-9.45"/><path class="cls-1" d="M16.72,4.39a6.68,6.68,0,0,1,0,9.45"/><path class="cls-1" d="M4.58,16.54a10.48,10.48,0,0,1,0-14.85"/><path class="cls-1" d="M19.42,1.69a10.48,10.48,0,0,1,0,14.85"/><path class="cls-1" d="M12,11h0a2.86,2.86,0,0,1,2.86,2.86h0a16.18,16.18,0,0,1-1.7,7.23l-.21.41h-1.9l-.21-.41a16.18,16.18,0,0,1-1.7-7.23h0A2.86,2.86,0,0,1,12,11Z"/></svg>