<svg id="Layer_1" data-name="Layer 1" xmlns="http://www.w3.org/2000/svg" viewBox="0 0 24 24"><defs><style>.cls-1{fill:none;stroke:#020202;stroke-miterlimit:10;stroke-width:1.91px;}</style></defs><rect class="cls-1" x="6.27" y="14.89" width="11.45" height="6.68"/><path class="cls-1" d="M19.64,11.07h1A1.91,1.91,0,0,1,22.5,13v6.68a1.91,1.91,0,0,1-1.91,1.91H17.73a0,0,0,0,1,0,0V13a1.91,1.91,0,0,1,1.91-1.91Z"/><path class="cls-1" d="M3.41,11.07h1A1.91,1.91,0,0,1,6.27,13v8.59a0,0,0,0,1,0,0H3.41A1.91,1.91,0,0,1,1.5,19.66V13A1.91,1.91,0,0,1,3.41,11.07Z"/><path class="cls-1" d="M4.36,11.07V4.39A2.87,2.87,0,0,1,7.23,1.52h9.54a2.87,2.87,0,0,1,2.87,2.87v6.68"/><line class="cls-1" x1="4.36" y1="23.48" x2="4.36" y2="21.57"/><line class="cls-1" x1="19.64" y1="23.48" x2="19.64" y2="21.57"/><line class="cls-1" x1="8.18" y1="5.34" x2="10.09" y2="5.34"/><line class="cls-1" x1="13.91" y1="5.34" x2="15.82" y2="5.34"/><line class="cls-1" x1="8.18" y1="9.16" x2="10.09" y2="9.16"/><line class="cls-1" x1="13.91" y1="9.16" x2="15.82" y2="9.16"/></svg>