<svg id="Layer_1" data-name="Layer 1" xmlns="http://www.w3.org/2000/svg" viewBox="0 0 24 24"><defs><style>.cls-1{fill:none;stroke:#020202;stroke-miterlimit:10;stroke-width:1.91px;}</style></defs><path class="cls-1" d="M1.5,16.77H19.64a2.86,2.86,0,0,1,2.86,2.86v1a0,0,0,0,1,0,0H1.5a0,0,0,0,1,0,0V16.77A0,0,0,0,1,1.5,16.77Z"/><path class="cls-1" d="M3.15,13.91H6.53a1.65,1.65,0,0,1,1.65,1.65v1.21a0,0,0,0,1,0,0H1.5a0,0,0,0,1,0,0V15.56A1.65,1.65,0,0,1,3.15,13.91Z"/><line class="cls-1" x1="10.09" y1="16.77" x2="10.09" y2="20.59"/><polyline class="cls-1" points="1.5 23.45 1.5 9.14 22.5 9.14 22.5 23.45"/><path class="cls-1" d="M1.5,5.32H19.64A2.86,2.86,0,0,1,22.5,8.18v1a0,0,0,0,1,0,0H1.5a0,0,0,0,1,0,0V5.32A0,0,0,0,1,1.5,5.32Z"/><path class="cls-1" d="M3.15,2.45H6.53A1.65,1.65,0,0,1,8.18,4.11V5.32a0,0,0,0,1,0,0H1.5a0,0,0,0,1,0,0V4.11A1.65,1.65,0,0,1,3.15,2.45Z"/><line class="cls-1" x1="10.09" y1="5.32" x2="10.09" y2="9.14"/><line class="cls-1" x1="1.5" y1="0.55" x2="1.5" y2="5.32"/><line class="cls-1" x1="22.5" y1="3.41" x2="22.5" y2="9.14"/></svg>