<svg id="Layer_1" data-name="Layer 1" xmlns="http://www.w3.org/2000/svg" viewBox="0 0 24 24"><defs><style>.cls-1{fill:none;stroke:#020202;stroke-miterlimit:10;stroke-width:1.93px;}</style></defs><path class="cls-1" d="M18.76,8.14v5.8A3.86,3.86,0,0,1,14.9,17.8H9.1a3.86,3.86,0,0,1-3.86-3.86V8.14"/><path class="cls-1" d="M13,3.07a1,1,0,1,1-1.94,0c0-.53,1-1.45,1-1.45S13,2.54,13,3.07Z"/><path class="cls-1" d="M19.72,6a1,1,0,1,1-1.93,0c0-.53,1-1.45,1-1.45S19.72,5.44,19.72,6Z"/><path class="cls-1" d="M6.21,6A1,1,0,1,1,4.28,6c0-.53,1-1.45,1-1.45S6.21,5.44,6.21,6Z"/><line class="cls-1" x1="12" y1="5.25" x2="12" y2="22.63"/><line class="cls-1" x1="3.31" y1="13.94" x2="7.17" y2="13.94"/><line class="cls-1" x1="10.07" y1="12" x2="13.93" y2="12"/><line class="cls-1" x1="16.83" y1="13.94" x2="20.69" y2="13.94"/><line class="cls-1" x1="8.14" y1="22.63" x2="15.86" y2="22.63"/></svg>