<svg id="Layer_1" data-name="Layer 1" xmlns="http://www.w3.org/2000/svg" viewBox="0 0 24 24"><defs><style>.cls-1{fill:none;stroke:#020202;stroke-miterlimit:10;stroke-width:1.91px;}</style></defs><path class="cls-1" d="M8.18,1.5h7.64a0,0,0,0,1,0,0v1A2.86,2.86,0,0,1,13,5.32H11A2.86,2.86,0,0,1,8.18,2.45v-1A0,0,0,0,1,8.18,1.5Z"/><line class="cls-1" x1="12" y1="5.32" x2="12" y2="17.73"/><line class="cls-1" x1="19.64" y1="1.5" x2="4.36" y2="1.5"/><path class="cls-1" d="M12,17.73v.95A3.82,3.82,0,0,1,8.18,22.5h0a3.82,3.82,0,0,1-3.82-3.82v-.95"/><path class="cls-1" d="M19.64,17.73v.95a3.82,3.82,0,0,1-3.82,3.82h0A3.82,3.82,0,0,1,12,18.68v-.95"/><polygon class="cls-1" points="7.23 17.73 1.5 17.73 2.46 12.96 6.27 12.96 7.23 17.73"/><polygon class="cls-1" points="22.5 17.73 16.77 17.73 17.73 12.96 21.55 12.96 22.5 17.73"/></svg>