<svg id="Layer_1" data-name="Layer 1" xmlns="http://www.w3.org/2000/svg" viewBox="0 0 24 24"><defs><style>.cls-1{fill:none;stroke:#020202;stroke-miterlimit:10;stroke-width:1.91px;}</style></defs><path class="cls-1" d="M8.18,1.5h7.64a0,0,0,0,1,0,0v1A2.86,2.86,0,0,1,13,5.32H11A2.86,2.86,0,0,1,8.18,2.45v-1a0,0,0,0,1,0,0Z"/><path class="cls-1" d="M12,12h0a5.73,5.73,0,0,1,5.73,5.73v1a0,0,0,0,1,0,0H6.27a0,0,0,0,1,0,0v-1A5.73,5.73,0,0,1,12,12Z"/><path class="cls-1" d="M14.69,18.68a2.55,2.55,0,0,1,.17,1,2.86,2.86,0,0,1-5.72,0,2.55,2.55,0,0,1,.17-1"/><line class="cls-1" x1="12" y1="5.32" x2="12" y2="12"/><line class="cls-1" x1="19.64" y1="1.5" x2="4.36" y2="1.5"/></svg>