<svg id="Layer_1" data-name="Layer 1" xmlns="http://www.w3.org/2000/svg" viewBox="0 0 24 24"><defs><style>.cls-1{fill:none;stroke:#020202;stroke-miterlimit:10;stroke-width:1.91px;}</style></defs><path class="cls-1" d="M8.18,1.5h7.64a0,0,0,0,1,0,0v1A2.86,2.86,0,0,1,13,5.32H11A2.86,2.86,0,0,1,8.18,2.45v-1A0,0,0,0,1,8.18,1.5Z"/><line class="cls-1" x1="12" y1="5.32" x2="12" y2="17.73"/><line class="cls-1" x1="19.64" y1="1.5" x2="4.36" y2="1.5"/><path class="cls-1" d="M12,17.73v.95A3.82,3.82,0,0,1,8.18,22.5h0a3.82,3.82,0,0,1-3.82-3.82v-.95"/><path class="cls-1" d="M19.64,17.73v.95a3.82,3.82,0,0,1-3.82,3.82h0A3.82,3.82,0,0,1,12,18.68v-.95"/><path class="cls-1" d="M4.36,13.91h0a2.86,2.86,0,0,1,2.86,2.86v1a0,0,0,0,1,0,0H1.5a0,0,0,0,1,0,0v-1A2.86,2.86,0,0,1,4.36,13.91Z"/><line class="cls-1" x1="4.36" y1="10.09" x2="4.36" y2="12"/><path class="cls-1" d="M19.64,13.91h0a2.86,2.86,0,0,1,2.86,2.86v1a0,0,0,0,1,0,0H16.77a0,0,0,0,1,0,0v-1A2.86,2.86,0,0,1,19.64,13.91Z"/><line class="cls-1" x1="19.64" y1="10.09" x2="19.64" y2="12"/></svg>