<svg id="Layer_1" data-name="Layer 1" xmlns="http://www.w3.org/2000/svg" viewBox="0 0 24 24"><defs><style>.cls-1{fill:none;stroke:#020202;stroke-miterlimit:10;stroke-width:1.91px;}</style></defs><path class="cls-1" d="M11,18.68h5.73a3.82,3.82,0,0,1,3.82,3.82v0a0,0,0,0,1,0,0H7.23a0,0,0,0,1,0,0v0A3.82,3.82,0,0,1,11,18.68Z"/><path class="cls-1" d="M16.77,18.68V5.32A3.82,3.82,0,0,0,13,1.5H12A3.82,3.82,0,0,0,8.18,5.32h0"/><path class="cls-1" d="M8.18,5.32h0A4.77,4.77,0,0,1,13,10.09v1a0,0,0,0,1,0,0H3.41a0,0,0,0,1,0,0v-1A4.77,4.77,0,0,1,8.18,5.32Z"/><line class="cls-1" x1="11.05" y1="16.77" x2="11.05" y2="18.68"/></svg>