<svg id="Layer_1" data-name="Layer 1" xmlns="http://www.w3.org/2000/svg" viewBox="0 0 24 24"><defs><style>.cls-1{fill:none;stroke:#020202;stroke-miterlimit:10;stroke-width:1.91px;}</style></defs><rect class="cls-1" x="2.45" y="5.32" width="19.09" height="17.18"/><path class="cls-1" d="M12,11h0a5.73,5.73,0,0,1,5.73,5.73V22.5a0,0,0,0,1,0,0H6.27a0,0,0,0,1,0,0V16.77A5.73,5.73,0,0,1,12,11Z"/><line class="cls-1" x1="0.55" y1="5.32" x2="23.45" y2="5.32"/><rect class="cls-1" x="3.41" y="1.5" width="17.18" height="3.82"/><path class="cls-1" d="M14.86,19.64a2.86,2.86,0,0,1-5.72,0c0-1.59,2.86-4.3,2.86-4.3S14.86,18.05,14.86,19.64Z"/><line class="cls-1" x1="0.55" y1="22.5" x2="23.45" y2="22.5"/></svg>