<svg id="Layer_1" data-name="Layer 1" xmlns="http://www.w3.org/2000/svg" viewBox="0 0 24 24"><defs><style>.cls-1{fill:none;stroke:#020202;stroke-miterlimit:10;stroke-width:1.92px;}</style></defs><path class="cls-1" d="M2.42,12H21.58a0,0,0,0,1,0,0v1a2.87,2.87,0,0,1-2.87,2.87H5.29A2.87,2.87,0,0,1,2.42,13V12A0,0,0,0,1,2.42,12Z"/><rect class="cls-1" x="5.29" y="2.42" width="13.42" height="4.79"/><polyline class="cls-1" points="18.71 0.5 18.71 12 5.29 12 5.29 0.5"/><polyline class="cls-1" points="23.5 9.13 21.58 9.13 21.58 12 2.42 12 2.42 9.13 0.5 9.13"/><polyline class="cls-1" points="18.71 15.83 5.29 22.54 5.29 23.5"/><polyline class="cls-1" points="5.29 15.83 18.71 22.54 18.71 23.5"/></svg>