<svg id="Layer_1" data-name="Layer 1" xmlns="http://www.w3.org/2000/svg" viewBox="0 0 24 24"><defs><style>.cls-1{fill:none;stroke:#020202;stroke-miterlimit:10;stroke-width:1.91px;}</style></defs><path class="cls-1" d="M10.09,18.68h3.82a3.82,3.82,0,0,1,3.82,3.82v0a0,0,0,0,1,0,0H6.27a0,0,0,0,1,0,0v0A3.82,3.82,0,0,1,10.09,18.68Z"/><path class="cls-1" d="M7.23,5.32h9.55a2.86,2.86,0,0,1,2.86,2.86v1.91a0,0,0,0,1,0,0H4.36a0,0,0,0,1,0,0V8.18A2.86,2.86,0,0,1,7.23,5.32Z"/><path class="cls-1" d="M10.09,1.5h3.82a2.86,2.86,0,0,1,2.86,2.86v1a0,0,0,0,1,0,0H7.23a0,0,0,0,1,0,0v-1A2.86,2.86,0,0,1,10.09,1.5Z"/><line class="cls-1" x1="12" y1="18.68" x2="12" y2="10.09"/><line class="cls-1" x1="15.82" y1="13.91" x2="15.82" y2="10.09"/></svg>