<svg id="Layer_1" data-name="Layer 1" xmlns="http://www.w3.org/2000/svg" viewBox="0 0 24 24"><defs><style>.cls-1{fill:none;stroke:#020202;stroke-miterlimit:10;stroke-width:1.91px;}</style></defs><rect class="cls-1" x="6.27" y="13.91" width="11.45" height="4.77"/><path class="cls-1" d="M19.64,10.09h1A1.91,1.91,0,0,1,22.5,12V22.5a0,0,0,0,1,0,0H17.73a0,0,0,0,1,0,0V12A1.91,1.91,0,0,1,19.64,10.09Z"/><path class="cls-1" d="M3.41,10.09h1A1.91,1.91,0,0,1,6.27,12V22.5a0,0,0,0,1,0,0H1.5a0,0,0,0,1,0,0V12A1.91,1.91,0,0,1,3.41,10.09Z"/><path class="cls-1" d="M4.36,10.09V4.36A2.87,2.87,0,0,1,7.23,1.5h9.54a2.87,2.87,0,0,1,2.87,2.86v5.73"/><line class="cls-1" x1="8.18" y1="5.32" x2="10.09" y2="5.32"/><line class="cls-1" x1="13.91" y1="5.32" x2="15.82" y2="5.32"/><line class="cls-1" x1="8.18" y1="9.14" x2="10.09" y2="9.14"/><line class="cls-1" x1="13.91" y1="9.14" x2="15.82" y2="9.14"/><rect class="cls-1" x="6.27" y="18.68" width="11.45" height="3.82"/></svg>