<svg id="Layer_1" data-name="Layer 1" xmlns="http://www.w3.org/2000/svg" viewBox="0 0 24 24"><defs><style>.cls-1{fill:none;stroke:#020202;stroke-miterlimit:10;stroke-width:1.91px;}</style></defs><rect class="cls-1" x="5.32" y="12" width="13.36" height="3.82"/><polygon class="cls-1" points="6.27 15.82 17.73 15.82 16.77 22.5 7.23 22.5 6.27 15.82"/><path class="cls-1" d="M20.21,5.22h0A8.76,8.76,0,0,1,17,12H13.44a8.67,8.67,0,0,0,1.13-4.3c0-.14,0-.27,0-.42h0a8.82,8.82,0,0,1,5.64-2Z"/><path class="cls-1" d="M14.57,7.7A8.67,8.67,0,0,1,13.44,12H10.56A8.81,8.81,0,0,1,9.44,7.28h0A8.78,8.78,0,0,1,12,1.5a8.78,8.78,0,0,1,2.56,5.77h0C14.57,7.43,14.57,7.56,14.57,7.7Z"/><path class="cls-1" d="M10.56,12H7A8.76,8.76,0,0,1,3.79,5.23h0A8.82,8.82,0,0,1,9.44,7.27h0A8.81,8.81,0,0,0,10.56,12Z"/></svg>