<svg id="Layer_1" data-name="Layer 1" xmlns="http://www.w3.org/2000/svg" viewBox="0 0 24 24"><defs><style>.cls-1{fill:none;stroke:#020202;stroke-miterlimit:10;stroke-width:1.91px;}</style></defs><line class="cls-1" x1="0.55" y1="22.5" x2="23.45" y2="22.5"/><path class="cls-1" d="M12,1.5h0a0,0,0,0,1,0,0V13a0,0,0,0,1,0,0H2.45a0,0,0,0,1,0,0V11A9.55,9.55,0,0,1,12,1.5Z"/><path class="cls-1" d="M12,1.5h0A9.55,9.55,0,0,1,21.55,11V13a0,0,0,0,1,0,0H12a0,0,0,0,1,0,0V1.5A0,0,0,0,1,12,1.5Z"/><rect class="cls-1" x="2.45" y="12.95" width="9.55" height="9.55"/><rect class="cls-1" x="12" y="12.95" width="9.55" height="9.55"/></svg>