<svg id="Layer_1" data-name="Layer 1" xmlns="http://www.w3.org/2000/svg" viewBox="0 0 24 24"><defs><style>.cls-1{fill:none;stroke:#020202;stroke-miterlimit:10;stroke-width:1.91px;}</style></defs><path class="cls-1" d="M16.8,23.5V5.33A3.82,3.82,0,0,0,13,1.5H12A3.82,3.82,0,0,0,8.2,5.33h0"/><path class="cls-1" d="M8.2,5.33h0A4.78,4.78,0,0,1,13,10.11v1a0,0,0,0,1,0,0H3.41a0,0,0,0,1,0,0v-1A4.78,4.78,0,0,1,8.2,5.33Z"/><circle class="cls-1" cx="16.8" cy="18.72" r="0.96"/><line class="cls-1" x1="4.37" y1="13.93" x2="4.37" y2="15.85"/><line class="cls-1" x1="8.2" y1="13.93" x2="8.2" y2="15.85"/><line class="cls-1" x1="12.02" y1="13.93" x2="12.02" y2="15.85"/><line class="cls-1" x1="4.37" y1="17.76" x2="4.37" y2="19.67"/><line class="cls-1" x1="8.2" y1="17.76" x2="8.2" y2="19.67"/><line class="cls-1" x1="12.02" y1="17.76" x2="12.02" y2="19.67"/><line class="cls-1" x1="4.37" y1="21.59" x2="4.37" y2="23.5"/><line class="cls-1" x1="8.2" y1="21.59" x2="8.2" y2="23.5"/><line class="cls-1" x1="12.02" y1="21.59" x2="12.02" y2="23.5"/><line class="cls-1" x1="21.59" y1="18.72" x2="17.76" y2="18.72"/></svg>