<svg id="Layer_1" data-name="Layer 1" xmlns="http://www.w3.org/2000/svg" viewBox="0 0 24 24"><defs><style>.cls-1{fill:none;stroke:#020202;stroke-miterlimit:10;stroke-width:1.91px;}</style></defs><path class="cls-1" d="M1.5,14.86h21a0,0,0,0,1,0,0v1.91a5.73,5.73,0,0,1-5.73,5.73H7.23A5.73,5.73,0,0,1,1.5,16.77V14.86A0,0,0,0,1,1.5,14.86Z"/><path class="cls-1" d="M1.5,14.86V3.41A1.9,1.9,0,0,1,3.41,1.5H5.32A1.91,1.91,0,0,1,7.23,3.41V5.32"/><line class="cls-1" x1="4.36" y1="5.32" x2="10.09" y2="5.32"/><rect class="cls-1" x="11.05" y="14.86" width="5.73" height="3.82"/><line class="cls-1" x1="1.5" y1="11.05" x2="3.41" y2="11.05"/></svg>