<svg id="Layer_1" data-name="Layer 1" xmlns="http://www.w3.org/2000/svg" viewBox="0 0 24 24"><defs><style>.cls-1{fill:none;stroke:#020202;stroke-miterlimit:10;stroke-width:1.91px;}</style></defs><path class="cls-1" d="M3.66,10.11H20.34a2.16,2.16,0,0,1,2.16,2.16V16.8a0,0,0,0,1,0,0H1.5a0,0,0,0,1,0,0V12.28A2.16,2.16,0,0,1,3.66,10.11Z"/><path class="cls-1" d="M4.59,1.52H19.41a2.13,2.13,0,0,1,2.13,2.13v6.46a0,0,0,0,1,0,0H2.45a0,0,0,0,1,0,0V3.66A2.13,2.13,0,0,1,4.59,1.52Z"/><path class="cls-1" d="M9.51,6.3h5a2.28,2.28,0,0,1,2.28,2.28v1.54a0,0,0,0,1,0,0H7.23a0,0,0,0,1,0,0V8.58A2.28,2.28,0,0,1,9.51,6.3Z"/><rect class="cls-1" x="1.5" y="16.8" width="21" height="3.82"/><line class="cls-1" x1="2.45" y1="23.48" x2="2.45" y2="20.61"/><line class="cls-1" x1="21.55" y1="23.48" x2="21.55" y2="20.61"/></svg>