<svg id="Layer_1" data-name="Layer 1" xmlns="http://www.w3.org/2000/svg" viewBox="0 0 24 24"><defs><style>.cls-1{fill:none;stroke:currentColor;stroke-miterlimit:10;stroke-width:1.91px;}</style></defs><circle class="cls-1" cx="12" cy="7.23" r="1.91"/><path class="cls-1" d="M9.14,13.91A2.86,2.86,0,0,1,12,11.05h0a2.86,2.86,0,0,1,2.86,2.86"/><path class="cls-1" d="M19.64,9.14A7.64,7.64,0,1,0,6.92,14.83a3.81,3.81,0,0,1,1.26,2.83v2.93a1.91,1.91,0,0,0,1.91,1.91h3.82a1.91,1.91,0,0,0,1.91-1.91V17.66a3.76,3.76,0,0,1,1.25-2.82A7.62,7.62,0,0,0,19.64,9.14Z"/><line class="cls-1" x1="8.18" y1="17.73" x2="15.82" y2="17.73"/></svg>