<svg id="Layer_1" data-name="Layer 1" xmlns="http://www.w3.org/2000/svg" viewBox="0 0 24 24"><defs><style>.cls-1{fill:none;stroke:#020202;stroke-miterlimit:10;stroke-width:1.91px;}</style></defs><path class="cls-1" d="M22.5,12A22.79,22.79,0,0,0,19.64,1.5H4.36A22.79,22.79,0,0,0,1.5,12,22.79,22.79,0,0,0,4.36,22.5H19.64A22.79,22.79,0,0,0,22.5,12Z"/><path class="cls-1" d="M15.82,12A38.34,38.34,0,0,0,14.29,1.5H9.71A38.34,38.34,0,0,0,8.18,12,38.34,38.34,0,0,0,9.71,22.5h4.58A38.34,38.34,0,0,0,15.82,12Z"/><line class="cls-1" x1="2.45" y1="5.32" x2="21.55" y2="5.32"/><line class="cls-1" x1="2.45" y1="18.68" x2="21.55" y2="18.68"/></svg>