<svg id="Layer_1" data-name="Layer 1" xmlns="http://www.w3.org/2000/svg" viewBox="0 0 24 24"><defs><style>.cls-1{fill:none;stroke:#020202;stroke-miterlimit:10;stroke-width:1.91px;}</style></defs><path class="cls-1" d="M16.77,7.23V20.59a1.9,1.9,0,0,1-1.91,1.91H5.32a1.9,1.9,0,0,1-1.91-1.91V7.23H6.27a1,1,0,0,1,1,.95V9.61a1.43,1.43,0,1,0,2.86,0V8.18a1,1,0,0,1,1-.95Z"/><path class="cls-1" d="M16.77,9.14h2.86A1.91,1.91,0,0,1,21.55,11v3.82a1.91,1.91,0,0,1-1.91,1.91H16.77a0,0,0,0,1,0,0V9.14A0,0,0,0,1,16.77,9.14Z"/><line class="cls-1" x1="8.18" y1="11.05" x2="8.18" y2="19.64"/><line class="cls-1" x1="12" y1="11.05" x2="12" y2="19.64"/><path class="cls-1" d="M11.05,7.23H16.3a1.44,1.44,0,0,0,0-2.87H14.86A1.92,1.92,0,0,0,13,2.45a1.78,1.78,0,0,0-.64.13A2.83,2.83,0,0,0,7.59,3a1.84,1.84,0,0,0-1.32-.54A1.92,1.92,0,0,0,4.36,4.36H3.89a1.44,1.44,0,1,0,0,2.87H6.27"/></svg>