<svg id="Layer_1" data-name="Layer 1" xmlns="http://www.w3.org/2000/svg" viewBox="0 0 24 24"><defs><style>.cls-1{fill:none;stroke:#020202;stroke-miterlimit:10;stroke-width:1.91px;}</style></defs><path class="cls-1" d="M18.68,13.91V8.18A6.68,6.68,0,0,0,12,1.5h0A6.68,6.68,0,0,0,5.32,8.18v5.73A3.82,3.82,0,0,1,1.5,17.73h21A3.82,3.82,0,0,1,18.68,13.91Z"/><path class="cls-1" d="M14.13,17.73a2.8,2.8,0,0,1,.73,1.91,2.86,2.86,0,0,1-5.72,0,2.8,2.8,0,0,1,.73-1.91"/><line class="cls-1" x1="5.32" y1="12" x2="18.68" y2="12"/></svg>