<svg id="Layer_1" data-name="Layer 1" xmlns="http://www.w3.org/2000/svg" viewBox="0 0 24 24"><defs><style>.cls-1{fill:none;stroke:#020202;stroke-miterlimit:10;stroke-width:1.91px;}</style></defs><path class="cls-1" d="M9.14,20.9a4.3,4.3,0,1,1-3.34-7H6a4.31,4.31,0,0,1,3.1,1.59"/><circle class="cls-1" cx="12.48" cy="18.2" r="4.3"/><path class="cls-1" d="M13.15,14a4.64,4.64,0,0,0,.44-.82,4.42,4.42,0,0,0,.32-1.63,3.08,3.08,0,0,0,0-.53A4.12,4.12,0,0,0,13,8.84a4.29,4.29,0,0,0-7.64,2.68A4.37,4.37,0,0,0,6,13.92"/><path class="cls-1" d="M14.2,14.27a8.61,8.61,0,0,1-.61-1.12"/><path class="cls-1" d="M16.37,10.23a7.65,7.65,0,0,1,6.13,7.5H20.59a7.64,7.64,0,0,1-4.18-1.25"/><path class="cls-1" d="M13,8.84A7.64,7.64,0,0,1,20.59,1.5V3.41a7.62,7.62,0,0,1-4.22,6.82,7.28,7.28,0,0,1-2.5.76"/><line class="cls-1" x1="11.05" y1="18.68" x2="12.95" y2="18.68"/><line class="cls-1" x1="3.41" y1="18.68" x2="5.32" y2="18.68"/><line class="cls-1" x1="8.18" y1="12" x2="10.09" y2="12"/></svg>