<svg id="Layer_1" data-name="Layer 1" xmlns="http://www.w3.org/2000/svg" viewBox="0 0 24 24"><defs><style>.cls-1{fill:none;stroke:#020202;stroke-miterlimit:10;stroke-width:2px;}</style></defs><path class="cls-1" d="M18,13.5a9.39,9.39,0,0,1-6,9,9.39,9.39,0,0,1-6-9,6,6,0,0,1,4.35-5.77,5.6,5.6,0,0,1,1.3-.21,2,2,0,0,1,.35,0,2,2,0,0,1,.35,0,5.6,5.6,0,0,1,1.3.21A6,6,0,0,1,18,13.5Z"/><path class="cls-1" d="M13.65,7.73a4,4,0,0,0,.51-3.41,3.93,3.93,0,0,0-1-1.65L12,1.5,10.83,2.67a3.93,3.93,0,0,0-1,1.65,4,4,0,0,0,.51,3.41"/><path class="cls-1" d="M12.35,7.52a5.6,5.6,0,0,1,1.3.21,6,6,0,0,1,2.18,1.15A4,4,0,0,0,18,5.33V3.67H16.34a4,4,0,0,0-2.18.65"/><path class="cls-1" d="M8.17,8.88A4,4,0,0,1,6,5.33V3.67H7.66a4,4,0,0,1,2.18.65"/><line class="cls-1" x1="6" y1="12.5" x2="11" y2="12.5"/><line class="cls-1" x1="12" y1="16.5" x2="18" y2="16.5"/></svg>