<svg id="Layer_1" data-name="Layer 1" xmlns="http://www.w3.org/2000/svg" viewBox="0 0 24 24"><defs><style>.cls-1{fill:none;stroke:#020202;stroke-miterlimit:10;stroke-width:1.91px;}</style></defs><polyline class="cls-1" points="19.65 14.85 19.65 22.5 4.35 22.5 4.35 14.85"/><polyline class="cls-1" points="1.48 16.76 12 11.02 22.52 16.76"/><polyline class="cls-1" points="5.3 10.06 12 6.24 18.7 10.06"/><line class="cls-1" x1="7.22" y1="13.63" x2="7.22" y2="8.97"/><line class="cls-1" x1="16.78" y1="13.63" x2="16.78" y2="8.97"/><path class="cls-1" d="M12,16.76h0a1.91,1.91,0,0,1,1.91,1.91V22.5a0,0,0,0,1,0,0H10.09a0,0,0,0,1,0,0V18.67A1.91,1.91,0,0,1,12,16.76Z"/><line class="cls-1" x1="12" y1="0.5" x2="12" y2="6.24"/><line class="cls-1" x1="10.09" y1="2.41" x2="13.91" y2="2.41"/></svg>