<svg id="Layer_1" data-name="Layer 1" xmlns="http://www.w3.org/2000/svg" viewBox="0 0 24 24"><defs><style>.cls-1{fill:none;stroke:#020202;stroke-miterlimit:10;stroke-width:1.91px;}</style></defs><ellipse class="cls-1" cx="5.32" cy="15.82" rx="3.82" ry="6.68"/><path class="cls-1" d="M9.14,9.14c2.11,0,3.81,3,3.81,6.68s-1.7,6.68-3.81,6.68"/><path class="cls-1" d="M11.86,8.46h0c1.78.17,3.8,2.17,4.87,5A8.37,8.37,0,0,1,17,19.53"/><path class="cls-1" d="M14.41,6.6a5,5,0,0,1,4.26,1.7,5.36,5.36,0,0,1,1.1,1.75"/><path class="cls-1" d="M16.79,3.67h0a3,3,0,0,1,3.09,1,3.39,3.39,0,0,1,.88,1.8"/><path class="cls-1" d="M5.32,22.5h4.77A9.55,9.55,0,0,0,19.64,13V12A14.3,14.3,0,0,1,22.5,3.41h0V1.5h0a8.6,8.6,0,0,0-7.3,4.05h0A7.65,7.65,0,0,1,8.72,9.14H5.32"/></svg>