<svg id="Layer_1" data-name="Layer 1" xmlns="http://www.w3.org/2000/svg" viewBox="0 0 24 24"><defs><style>.cls-1{fill:none;stroke:#020202;stroke-miterlimit:10;stroke-width:1.91px;}</style></defs><path class="cls-1" d="M11.72,22.48a2,2,0,0,0,.56,0"/><path class="cls-1" d="M7.27,10.38C7.55,4,9.57,1.5,12,1.5S16.45,4,16.73,10.38"/><path class="cls-1" d="M5.32,10.09h0A6.68,6.68,0,0,1,12,16.77V22.5a0,0,0,0,1,0,0h0a6.68,6.68,0,0,1-6.68-6.68V10.09A0,0,0,0,1,5.32,10.09Z"/><path class="cls-1" d="M18.68,10.09h0a0,0,0,0,1,0,0v5.73A6.68,6.68,0,0,1,12,22.5h0a0,0,0,0,1,0,0V16.77A6.68,6.68,0,0,1,18.68,10.09Z" transform="translate(30.68 32.59) rotate(180)"/><line class="cls-1" x1="10.09" y1="6.27" x2="12" y2="6.27"/><line class="cls-1" x1="12" y1="9.14" x2="13.91" y2="9.14"/></svg>