<svg id="Layer_1" data-name="Layer 1" xmlns="http://www.w3.org/2000/svg" viewBox="0 0 24 24"><defs><style>.cls-1{fill:none;stroke:#020202;stroke-miterlimit:10;stroke-width:1.91px;}</style></defs><circle class="cls-1" cx="5.32" cy="18.7" r="3.82"/><path class="cls-1" d="M5.32,14.89H18.68A3.82,3.82,0,0,1,22.5,18.7h0a3.82,3.82,0,0,1-3.82,3.82H5.32"/><path class="cls-1" d="M16.77,10.11a4.77,4.77,0,1,1-9.54,0c0-2.83,1.68-4.37,3-5.93l.78,1.16L12,2.48S16.77,5.34,16.77,10.11Z"/><path class="cls-1" d="M13.91,12.79a1.91,1.91,0,0,1-3.82,0c0-1.91,1.91-3.44,1.91-3.44S13.91,10.88,13.91,12.79Z"/></svg>