<svg id="Layer_1" data-name="Layer 1" xmlns="http://www.w3.org/2000/svg" viewBox="0 0 24 24"><defs><style>.cls-1{fill:none;stroke:#020202;stroke-miterlimit:10;stroke-width:1.91px;}</style></defs><path class="cls-1" d="M22.52,15.45c0,2.37-4.71,3.22-10.52,3.22S1.48,17.82,1.48,15.45,6.19,10.07,12,10.07,22.52,13.07,22.52,15.45Z"/><line class="cls-1" x1="17.01" y1="10.12" x2="15.91" y2="14.51"/><line class="cls-1" x1="12.18" y1="10.29" x2="11.09" y2="14.68"/><line class="cls-1" x1="7.36" y1="10.45" x2="6.26" y2="14.85"/><path class="cls-1" d="M1.48,18.67h21a0,0,0,0,1,0,0v0A3.83,3.83,0,0,1,18.7,22.5H5.3a3.83,3.83,0,0,1-3.83-3.83v0a0,0,0,0,1,0,0Z"/><path class="cls-1" d="M7.22.5c0,1.11-1,1.11-1,2.23s1,1.12,1,2.23-1,1.12-1,2.24"/><path class="cls-1" d="M13,1.46c0,1.11-1,1.11-1,2.23s1,1.11,1,2.23S12,7,12,8.15"/><path class="cls-1" d="M18.7.5c0,1.11-1,1.11-1,2.23s1,1.12,1,2.23-1,1.12-1,2.24"/></svg>