<svg id="Layer_1" data-name="Layer 1" xmlns="http://www.w3.org/2000/svg" viewBox="0 0 24 24"><defs><style>.cls-1{fill:none;stroke:#020202;stroke-miterlimit:10;stroke-width:1.91px;}</style></defs><rect class="cls-1" x="6.27" y="18.68" width="11.45" height="3.82"/><path class="cls-1" d="M13.91,8.9V5.32H10.09V8.9a3.62,3.62,0,0,1-.71,2.15L7.94,13a3.62,3.62,0,0,0-.71,2.15h0a3.58,3.58,0,0,0,3.58,3.58h2.38a3.58,3.58,0,0,0,3.58-3.58h0A3.62,3.62,0,0,0,16.06,13l-1.44-1.9A3.62,3.62,0,0,1,13.91,8.9Z"/><path class="cls-1" d="M13.91,16.77a1.91,1.91,0,1,1-3.82,0C10.09,14.86,12,13,12,13S13.91,14.86,13.91,16.77Z"/><path class="cls-1" d="M17.73,18.68l2.86-2.86V9.14A7.64,7.64,0,0,0,13,1.5h-1.9A7.64,7.64,0,0,0,3.41,9.14v6.68l2.86,2.86"/></svg>