<svg id="Layer_1" data-name="Layer 1" xmlns="http://www.w3.org/2000/svg" viewBox="0 0 24 24"><defs><style>.cls-1{fill:none;stroke:#020202;stroke-miterlimit:10;stroke-width:1.91px;}</style></defs><path class="cls-1" d="M22.52,7.24V9.53a5.34,5.34,0,0,1-3,4.82,4.21,4.21,0,0,1,1.11,2.83v1.54H16.2A4.19,4.19,0,0,1,12,14.89H12A4.19,4.19,0,0,1,7.8,18.72H3.39V17.18A4.21,4.21,0,0,1,4.5,14.35a5.34,5.34,0,0,1-3-4.82V7.24H6.63a4.94,4.94,0,0,1,1,.09A9.81,9.81,0,0,1,12,1.5a9.81,9.81,0,0,1,4.42,5.83,4.94,4.94,0,0,1,.95-.09Z"/><line class="cls-1" x1="12" y1="7.24" x2="12" y2="23.5"/><line class="cls-1" x1="6.26" y1="11.07" x2="12" y2="14.89"/><line class="cls-1" x1="16.78" y1="11.07" x2="12" y2="13.93"/></svg>