<svg id="Layer_1" data-name="Layer 1" xmlns="http://www.w3.org/2000/svg" viewBox="0 0 24 24"><defs><style>.cls-1{fill:none;stroke:#020202;stroke-miterlimit:10;stroke-width:1.91px;}</style></defs><rect class="cls-1" x="3.43" y="8.18" width="17.18" height="3.82"/><path class="cls-1" d="M4.62,8.18a7.87,7.87,0,0,1,2-3.49,7.63,7.63,0,0,1,9.92-.76,8,8,0,0,1,.89.76,7.76,7.76,0,0,1,2,3.49"/><path class="cls-1" d="M16.54,3.93a8.53,8.53,0,0,1,6-2.43v1a8.54,8.54,0,0,1-2.18,5.73"/><path class="cls-1" d="M5.68,19.12a9.43,9.43,0,0,0,.94,1.15,7.64,7.64,0,0,0,11.74-1.15"/><path class="cls-1" d="M3.43,12H7.25a0,0,0,0,1,0,0v.4a3.42,3.42,0,0,1-3.42,3.42h-.4a0,0,0,0,1,0,0V12A0,0,0,0,1,3.43,12Z"/><path class="cls-1" d="M16.8,12h.4a3.42,3.42,0,0,1,3.42,3.42v.4a0,0,0,0,1,0,0H16.8a0,0,0,0,1,0,0V12A0,0,0,0,1,16.8,12Z" transform="translate(37.41 27.82) rotate(-180)"/><circle class="cls-1" cx="4.39" cy="17.73" r="1.91"/><circle class="cls-1" cx="19.66" cy="17.73" r="1.91"/><path class="cls-1" d="M5.64,19.16a1.88,1.88,0,0,1,.66,1.43,1.91,1.91,0,1,1-3.82,0,1.88,1.88,0,0,1,.66-1.43"/><path class="cls-1" d="M20.91,19.16a1.88,1.88,0,0,1,.66,1.43,1.91,1.91,0,0,1-3.82,0,1.88,1.88,0,0,1,.66-1.43"/></svg>