<svg id="Layer_1" data-name="Layer 1" xmlns="http://www.w3.org/2000/svg" viewBox="0 0 24 24"><defs><style>.cls-1{fill:none;stroke:#020202;stroke-miterlimit:10;stroke-width:1.91px;}</style></defs><polyline class="cls-1" points="10.09 7.23 1.5 7.23 1.5 11.04 12 11.04 22.5 11.04 22.5 7.23 13.91 7.23"/><path class="cls-1" d="M10.09,1.5h3.82a0,0,0,0,1,0,0V9.14A1.91,1.91,0,0,1,12,11h0a1.91,1.91,0,0,1-1.91-1.91V1.5a0,0,0,0,1,0,0Z"/><path class="cls-1" d="M18,22.5H6A1.9,1.9,0,0,1,4.1,20.9L2.45,11.05h19.1L19.9,20.9A1.9,1.9,0,0,1,18,22.5Z"/><line class="cls-1" x1="3.41" y1="14.86" x2="20.59" y2="14.86"/><line class="cls-1" x1="3.41" y1="18.68" x2="20.59" y2="18.68"/></svg>