<svg id="Layer_1" data-name="Layer 1" xmlns="http://www.w3.org/2000/svg" viewBox="0 0 24 24"><defs><style>.cls-1{fill:none;stroke:#020202;stroke-miterlimit:10;stroke-width:1.92px;}</style></defs><path class="cls-1" d="M5.29,15.83V9.12A1.92,1.92,0,0,0,3.38,7.21h0A1.92,1.92,0,0,0,1.46,9.12v7.29A3.79,3.79,0,0,0,2.3,18.8l3,3.74v1"/><path class="cls-1" d="M7.21,17.75,5.89,16.43A2,2,0,0,1,5.29,15h0a2,2,0,0,1,2-2h0a2,2,0,0,1,1.44.59L11.4,16.2a2,2,0,0,1,.6,1.43V23.5"/><path class="cls-1" d="M18.71,15.83V9.12a1.92,1.92,0,0,1,1.91-1.91h0a1.92,1.92,0,0,1,1.91,1.91v7.29a3.79,3.79,0,0,1-.84,2.39l-3,3.74v1"/><path class="cls-1" d="M16.79,17.75l1.32-1.32a2,2,0,0,0,.6-1.44h0a2,2,0,0,0-2-2h0a2,2,0,0,0-1.44.59L12.6,16.2a2,2,0,0,0-.6,1.43V23.5"/><line class="cls-1" x1="12" y1="0.5" x2="12" y2="11.04"/><line class="cls-1" x1="8.17" y1="4.01" x2="15.83" y2="4.01"/></svg>