<svg id="Layer_1" data-name="Layer 1" xmlns="http://www.w3.org/2000/svg" viewBox="0 0 24 24"><defs><style>.cls-1{fill:none;stroke:#020202;stroke-miterlimit:10;stroke-width:1.91px;}</style></defs><path class="cls-1" d="M3.39,16.76v-1A8.61,8.61,0,0,1,12,7.2h0a8.61,8.61,0,0,1,8.61,8.6v1"/><path class="cls-1" d="M9.13,16.76v-1c0-4.75,1.29-8.6,2.87-8.6h0c1.58,0,2.87,3.85,2.87,8.6v1"/><path class="cls-1" d="M14.87,16.76a2.87,2.87,0,0,1,2.87-2.87h0a2.88,2.88,0,0,1,2.87,2.87"/><path class="cls-1" d="M9.13,16.76A2.88,2.88,0,0,1,12,13.89h0a2.88,2.88,0,0,1,2.87,2.87"/><path class="cls-1" d="M3.39,16.76a2.88,2.88,0,0,1,2.87-2.87h0a2.87,2.87,0,0,1,2.87,2.87"/><line class="cls-1" x1="12" y1="5.28" x2="12" y2="7.2"/><path class="cls-1" d="M12,13.89v6.84a1.77,1.77,0,0,1-1.77,1.77h0a1.77,1.77,0,0,1-1.59-1l-.47-.93"/><line class="cls-1" x1="1.48" y1="0.5" x2="1.48" y2="2.41"/><line class="cls-1" x1="4.35" y1="4.33" x2="4.35" y2="6.24"/><line class="cls-1" x1="9.13" y1="2.41" x2="9.13" y2="4.33"/><line class="cls-1" x1="14.87" y1="0.5" x2="14.87" y2="2.41"/><line class="cls-1" x1="18.7" y1="4.33" x2="18.7" y2="6.24"/><line class="cls-1" x1="22.52" y1="2.41" x2="22.52" y2="4.33"/></svg>