<svg id="Layer_1" data-name="Layer 1" xmlns="http://www.w3.org/2000/svg" viewBox="0 0 24 24"><defs><style>.cls-1{fill:none;stroke:#020202;stroke-miterlimit:10;stroke-width:1.92px;}</style></defs><path class="cls-1" d="M3.38,1.46h0A5.75,5.75,0,0,1,9.13,7.21v8.63a0,0,0,0,1,0,0H3.38a0,0,0,0,1,0,0V1.46A0,0,0,0,1,3.38,1.46Z"/><polyline class="cls-1" points="3.38 23.5 3.38 15.83 7.21 15.83 7.21 23.5"/><polyline class="cls-1" points="14.88 23.5 14.88 11.04 18.71 11.04 18.71 23.5"/><path class="cls-1" d="M13,7.21h7.67a0,0,0,0,1,0,0v1A2.87,2.87,0,0,1,17.75,11H15.83A2.88,2.88,0,0,1,13,8.17v-1A0,0,0,0,1,13,7.21Z"/><line class="cls-1" x1="16.79" y1="0.5" x2="16.79" y2="7.21"/><line class="cls-1" x1="12.96" y1="0.5" x2="12.96" y2="7.21"/><line class="cls-1" x1="20.63" y1="0.5" x2="20.63" y2="7.21"/></svg>