<svg id="Layer_1" data-name="Layer 1" xmlns="http://www.w3.org/2000/svg" viewBox="0 0 24 24"><defs><style>.cls-1{fill:none;stroke:#020202;stroke-miterlimit:10;stroke-width:1.91px;}</style></defs><path class="cls-1" d="M9.14,5.09V4.36A2.86,2.86,0,0,1,12,1.5a2.87,2.87,0,0,1,2.86,2.86v.73"/><path class="cls-1" d="M9.14,18.91v.73a2.86,2.86,0,0,0,5.72,0v-.73"/><path class="cls-1" d="M18.91,14.86h.73a2.86,2.86,0,0,0,0-5.72h-.73"/><path class="cls-1" d="M5.09,14.86H4.36a2.86,2.86,0,1,1,0-5.72h.73"/><path class="cls-1" d="M9.14,5.09V4.36A2.86,2.86,0,0,1,12,1.5a2.87,2.87,0,0,1,2.86,2.86v.73"/><path class="cls-1" d="M9.14,18.91v.73a2.86,2.86,0,0,0,5.72,0v-.73"/><path class="cls-1" d="M18.91,14.86h.73a2.86,2.86,0,0,0,0-5.72h-.73"/><path class="cls-1" d="M5.09,14.86H4.36a2.86,2.86,0,1,1,0-5.72h.73"/><path class="cls-1" d="M14.86,5.09l.52-.52a2.86,2.86,0,0,1,4.88,2,2.82,2.82,0,0,1-.83,2l-.52.52"/><path class="cls-1" d="M5.09,14.86l-.52.52a2.86,2.86,0,0,0,4,4l.52-.52"/><path class="cls-1" d="M14.86,18.91l.52.52a2.82,2.82,0,0,0,2,.83,2.86,2.86,0,0,0,2-4.88l-.52-.52"/><path class="cls-1" d="M5.09,9.14l-.52-.52a2.86,2.86,0,0,1,4-4l.52.52"/><path class="cls-1" d="M14.86,5.09l.52-.52a2.86,2.86,0,0,1,4.88,2,2.82,2.82,0,0,1-.83,2l-.52.52"/><path class="cls-1" d="M5.09,14.86l-.52.52a2.86,2.86,0,0,0,4,4l.52-.52"/><path class="cls-1" d="M14.86,18.91l.52.52a2.82,2.82,0,0,0,2,.83,2.86,2.86,0,0,0,2-4.88l-.52-.52"/><path class="cls-1" d="M5.09,9.14l-.52-.52a2.86,2.86,0,0,1,4-4l.52.52"/><circle class="cls-1" cx="12" cy="12" r="6.68"/><line class="cls-1" x1="10.09" y1="6.27" x2="10.09" y2="17.73"/><line class="cls-1" x1="13.91" y1="6.27" x2="13.91" y2="17.73"/><line class="cls-1" x1="17.73" y1="10.09" x2="6.27" y2="10.09"/><line class="cls-1" x1="17.73" y1="13.91" x2="6.27" y2="13.91"/></svg>