<svg id="Layer_1" data-name="Layer 1" xmlns="http://www.w3.org/2000/svg" viewBox="0 0 24 24"><defs><style>.cls-1{fill:none;stroke:#020202;stroke-miterlimit:10;stroke-width:1.88px;}</style></defs><path class="cls-1" d="M14.82,8.26a2.76,2.76,0,0,1-.94,2.09v8.27A1.88,1.88,0,0,1,12,20.5H4.47a1.89,1.89,0,0,1-1.88-1.88V10.35a2.76,2.76,0,0,1-.94-2.09A3.76,3.76,0,0,1,5.41,4.5h5.65a3.61,3.61,0,0,1,.94.12A3.75,3.75,0,0,1,14.82,8.26Z"/><path class="cls-1" d="M22.35,8.26a2.76,2.76,0,0,1-.94,2.09v8.27a1.89,1.89,0,0,1-1.88,1.88H12a1.88,1.88,0,0,0,1.88-1.88V10.35a2.76,2.76,0,0,0,.94-2.09A3.75,3.75,0,0,0,12,4.62a3.61,3.61,0,0,0-.94-.12h7.53A3.76,3.76,0,0,1,22.35,8.26Z"/><line class="cls-1" x1="5.41" y1="16.74" x2="7.29" y2="16.74"/><line class="cls-1" x1="9.18" y1="12.97" x2="11.06" y2="12.97"/><line class="cls-1" x1="5.41" y1="9.21" x2="7.29" y2="9.21"/></svg>