<svg id="Layer_1" data-name="Layer 1" xmlns="http://www.w3.org/2000/svg" viewBox="0 0 24 24"><defs><style>.cls-1{fill:none;stroke:#020202;stroke-miterlimit:10;stroke-width:1.91px;}</style></defs><path class="cls-1" d="M19.65,8.67h0a1.43,1.43,0,0,0-1.43-1.43h0A1.43,1.43,0,0,1,16.78,5.8h0a4.3,4.3,0,0,0-4.3-4.3h-1a4.3,4.3,0,0,0-4.3,4.3h0A1.43,1.43,0,0,1,5.78,7.24h0A1.43,1.43,0,0,0,4.35,8.67h0a2,2,0,0,0,1.36,1.89l.37.13a1.66,1.66,0,0,1,1.14,1.58h0a1.66,1.66,0,0,1-1.67,1.66h0a1.47,1.47,0,0,0-1.36,2h0A4.42,4.42,0,0,0,8.3,18.72h7.4a4.42,4.42,0,0,0,4.11-2.78h0a1.47,1.47,0,0,0-1.36-2h0a1.66,1.66,0,0,1-1.67-1.66h0a1.66,1.66,0,0,1,1.14-1.58l.37-.13A2,2,0,0,0,19.65,8.67Z"/><line class="cls-1" x1="12" y1="6.28" x2="12" y2="23.5"/><line class="cls-1" x1="9.13" y1="8.2" x2="12" y2="10.11"/><line class="cls-1" x1="9.13" y1="13.93" x2="12" y2="15.85"/><line class="cls-1" x1="12" y1="12.98" x2="14.87" y2="10.11"/></svg>