<svg id="Layer_1" data-name="Layer 1" xmlns="http://www.w3.org/2000/svg" viewBox="0 0 24 24"><defs><style>.cls-1{fill:none;stroke:#020202;stroke-miterlimit:10;stroke-width:1.91px;}</style></defs><path class="cls-1" d="M17.26,16.8H18.7a3.82,3.82,0,0,0,1.95-7.1,3.82,3.82,0,0,0-5-5.63,3.81,3.81,0,0,0-7.2,0A3.82,3.82,0,0,0,3.35,9.7,3.82,3.82,0,0,0,5.3,16.8H6.74"/><path class="cls-1" d="M14.49,10.59a4.79,4.79,0,0,1,3.25,4.3c0,2.64-2.57,4.78-5.74,4.78s-5.74-2.14-5.74-4.78a4.79,4.79,0,0,1,3.25-4.3"/><circle class="cls-1" cx="12" cy="9.15" r="2.87"/><line class="cls-1" x1="10.09" y1="23.5" x2="10.09" y2="19.67"/><line class="cls-1" x1="13.91" y1="23.5" x2="13.91" y2="19.67"/><line class="cls-1" x1="12" y1="14.89" x2="12" y2="12.02"/></svg>