<svg id="Layer_1" data-name="Layer 1" xmlns="http://www.w3.org/2000/svg" viewBox="0 0 24 24"><defs><style>.cls-1{fill:none;stroke:#020202;stroke-miterlimit:10;stroke-width:1.91px;}</style></defs><path class="cls-1" d="M17.92,12.85a12.37,12.37,0,0,1,4.58,9.63H7.7a6.21,6.21,0,1,1,0-12.41h2.39a12.31,12.31,0,0,1,3.51.5"/><path class="cls-1" d="M17.73,9.11l.95,1-.46,1.85a7.36,7.36,0,0,1-1.92,3.4h0a2.71,2.71,0,0,1-3.82,0h0a2.69,2.69,0,0,1,0-3.82h0a7.24,7.24,0,0,1,3.39-1.92Z"/><line class="cls-1" x1="21.55" y1="6.25" x2="18.2" y2="9.59"/><line class="cls-1" x1="20.59" y1="5.3" x2="22.5" y2="7.2"/><path class="cls-1" d="M5.32.52c0,1.12-1,1.12-1,2.23s1,1.11,1,2.23-1,1.11-1,2.22"/><path class="cls-1" d="M11.05,1.48c0,1.11-1,1.11-1,2.22s1,1.12,1,2.23-1,1.11-1,2.23"/><path class="cls-1" d="M16.77.52c0,1.12-.95,1.12-.95,2.23s.95,1.11.95,2.23-.95,1.11-.95,2.22"/></svg>