<svg id="Layer_1" data-name="Layer 1" xmlns="http://www.w3.org/2000/svg" viewBox="0 0 24 24"><defs><style>.cls-1{fill:none;stroke:#020202;stroke-miterlimit:10;stroke-width:1.91px;}</style></defs><path class="cls-1" d="M10.06,3.1h2.7a4,4,0,0,1,4,4V8.5a0,0,0,0,1,0,0h-2.7a4,4,0,0,1-4-4V3.1A0,0,0,0,1,10.06,3.1Z" transform="translate(8.03 -7.8) rotate(45)"/><path class="cls-1" d="M18.88,7.87h2.7a0,0,0,0,1,0,0V9.22a4,4,0,0,1-4,4h-2.7a0,0,0,0,1,0,0V11.92a4,4,0,0,1,4-4Z" transform="translate(23.6 30.91) rotate(-135)"/><path class="cls-1" d="M6.24,6.91h2.7a4,4,0,0,1,4,4v1.35a0,0,0,0,1,0,0h-2.7a4,4,0,0,1-4-4V6.91a0,0,0,0,1,0,0Z" transform="translate(9.61 -3.98) rotate(45)"/><path class="cls-1" d="M15.06,11.69h2.7a0,0,0,0,1,0,0V13a4,4,0,0,1-4,4H11a0,0,0,0,1,0,0V15.74A4,4,0,0,1,15.06,11.69Z" transform="translate(14.39 34.73) rotate(-135)"/><path class="cls-1" d="M2.42,10.73h2.7a4,4,0,0,1,4,4v1.35a0,0,0,0,1,0,0H6.47a4,4,0,0,1-4-4V10.73A0,0,0,0,1,2.42,10.73Z" transform="translate(11.2 -0.16) rotate(45)"/><path class="cls-1" d="M11.24,15.5h2.7a0,0,0,0,1,0,0v1.35a4,4,0,0,1-4,4H7.19a0,0,0,0,1,0,0V19.55A4,4,0,0,1,11.24,15.5Z" transform="translate(5.17 38.55) rotate(-135)"/><path class="cls-1" d="M16.77,1.5h1.68a4,4,0,0,1,4,4V7.23a0,0,0,0,1,0,0H20.82a4,4,0,0,1-4-4V1.5A0,0,0,0,1,16.77,1.5Z" transform="translate(24 -15.27) rotate(90)"/><line class="cls-1" x1="1.5" y1="22.5" x2="6.27" y2="17.73"/></svg>