<svg id="Layer_1" data-name="Layer 1" xmlns="http://www.w3.org/2000/svg" viewBox="0 0 24 24"><defs><style>.cls-1{fill:none;stroke:currentColor;stroke-miterlimit:10;stroke-width:1.91px;}</style></defs><path class="cls-1" d="M11,21.59h-.95L6.26,17.76H4.35a2.87,2.87,0,0,0-2.87,2.87V23.5"/><circle class="cls-1" cx="4.35" cy="13.93" r="1.91"/><path class="cls-1" d="M13,21.59h.95l3.83-3.83h1.91a2.87,2.87,0,0,1,2.87,2.87V23.5"/><circle class="cls-1" cx="19.65" cy="13.93" r="1.91"/><path class="cls-1" d="M15.83,5.33a3.83,3.83,0,0,0-4.75-3.72A3.81,3.81,0,0,0,9.71,8.37a.91.91,0,0,1,.38.71V13h3.82V9.06a.86.86,0,0,1,.37-.68A3.81,3.81,0,0,0,15.83,5.33Z"/><line class="cls-1" x1="10.09" y1="10.11" x2="13.91" y2="10.11"/></svg>