<svg id="Layer_1" data-name="Layer 1" xmlns="http://www.w3.org/2000/svg" viewBox="0 0 24 24"><defs><style>.cls-1{fill:none;stroke:#020202;stroke-miterlimit:10;stroke-width:1.91px;}</style></defs><circle class="cls-1" cx="16.3" cy="3.89" r="0.48"/><circle class="cls-1" cx="6.27" cy="17.73" r="0.95"/><path class="cls-1" d="M10.09,14.89V5.32a3.82,3.82,0,0,0-7.64,0v9.57a4.77,4.77,0,1,0,8.6,2.84A4.74,4.74,0,0,0,10.09,14.89Z"/><line class="cls-1" x1="6.27" y1="10.09" x2="6.27" y2="16.77"/><line class="cls-1" x1="10.09" y1="6.27" x2="12.95" y2="6.27"/><line class="cls-1" x1="10.09" y1="10.09" x2="12.95" y2="10.09"/><line class="cls-1" x1="10.09" y1="13.91" x2="12.95" y2="13.91"/><path class="cls-1" d="M22.5,10.09A1.9,1.9,0,0,1,20.59,12h0a1.91,1.91,0,0,1-1.91-1.91V7.23a1.91,1.91,0,0,1,1.91-1.91h0A1.9,1.9,0,0,1,22.5,7.23"/></svg>