<svg id="Layer_1" data-name="Layer 1" xmlns="http://www.w3.org/2000/svg" viewBox="0 0 24 24"><defs><style>.cls-1{fill:none;stroke:#020202;stroke-miterlimit:10;stroke-width:1.85px;}</style></defs><circle class="cls-1" cx="17.54" cy="17.52" r="0.93"/><path class="cls-1" d="M21.24,14.77V5.48a3.71,3.71,0,1,0-7.41,0v9.29a4.56,4.56,0,0,0-.93,2.75,4.64,4.64,0,1,0,9.27,0A4.56,4.56,0,0,0,21.24,14.77Z"/><line class="cls-1" x1="17.54" y1="12.89" x2="17.54" y2="16.6"/><line class="cls-1" x1="9.2" y1="19.38" x2="9.2" y2="11.96"/><line class="cls-1" x1="9.2" y1="8.26" x2="9.2" y2="0.84"/><polyline class="cls-1" points="11.98 2.7 9.2 5.48 6.42 2.7"/><polyline class="cls-1" points="6.42 17.52 9.2 14.74 11.98 17.52"/><line class="cls-1" x1="9.2" y1="19.38" x2="9.2" y2="11.96"/><line class="cls-1" x1="9.2" y1="8.26" x2="9.2" y2="0.84"/><polyline class="cls-1" points="11.98 2.7 9.2 5.48 6.42 2.7"/><polyline class="cls-1" points="6.42 17.52 9.2 14.74 11.98 17.52"/><polyline class="cls-1" points="10.8 11.04 13.21 12.43 13.83 12.79"/><line class="cls-1" x1="7.59" y1="9.18" x2="1.17" y2="5.48"/><polyline class="cls-1" points="4.17 4 5.18 7.79 1.39 8.81"/><polyline class="cls-1" points="10.8 11.04 13.21 12.43 13.83 12.79"/><line class="cls-1" x1="7.59" y1="9.18" x2="1.17" y2="5.48"/><polyline class="cls-1" points="4.17 4 5.18 7.79 1.39 8.81"/><line class="cls-1" x1="7.59" y1="11.04" x2="1.17" y2="14.74"/><polyline class="cls-1" points="10.8 9.18 13.21 7.79 13.83 7.43"/><polyline class="cls-1" points="4.17 16.23 5.18 12.43 1.39 11.41"/><line class="cls-1" x1="7.59" y1="11.04" x2="1.17" y2="14.74"/><polyline class="cls-1" points="10.8 9.18 13.21 7.79 13.83 7.43"/><polyline class="cls-1" points="4.17 16.23 5.18 12.43 1.39 11.41"/><path class="cls-1" d="M11.05,10.11A1.85,1.85,0,0,1,9.2,12,1.87,1.87,0,0,1,7.59,11a1.85,1.85,0,0,1,0-1.86,1.86,1.86,0,0,1,3.21,0A1.85,1.85,0,0,1,11.05,10.11Z"/></svg>