<svg id="Layer_1" data-name="Layer 1" xmlns="http://www.w3.org/2000/svg" viewBox="0 0 24 24"><defs><style>.cls-1{fill:none;stroke:#020202;stroke-miterlimit:10;stroke-width:1.92px;}</style></defs><path class="cls-1" d="M18.67,16.77a3.3,3.3,0,0,0-2.18-2.66,2.86,2.86,0,0,0-1.14-.21h-.57a5.13,5.13,0,0,0,.1-1,4.79,4.79,0,0,0-4.8-4.79,5.49,5.49,0,0,0-.58,0,4.8,4.8,0,0,0-4.21,4.76,3.82,3.82,0,0,0-3.83,3.83"/><path class="cls-1" d="M16.49,14.11a4.8,4.8,0,1,0-7-5.93"/><line class="cls-1" x1="13.92" y1="0.48" x2="13.92" y2="2.4"/><line class="cls-1" x1="23.5" y1="10.06" x2="21.58" y2="10.06"/><line class="cls-1" x1="20.69" y1="3.29" x2="19.34" y2="4.64"/><line class="cls-1" x1="8.5" y1="4.64" x2="7.14" y2="3.29"/><line class="cls-1" x1="0.5" y1="18.69" x2="5.29" y2="18.69"/><line class="cls-1" x1="7.21" y1="18.69" x2="16.79" y2="18.69"/><line class="cls-1" x1="2.42" y1="22.52" x2="10.08" y2="22.52"/><line class="cls-1" x1="12" y1="22.52" x2="21.58" y2="22.52"/><line class="cls-1" x1="18.71" y1="18.69" x2="23.5" y2="18.69"/></svg>