<svg id="Layer_1" data-name="Layer 1" xmlns="http://www.w3.org/2000/svg" viewBox="0 0 24 24"><defs><style>.cls-1{fill:none;stroke:#020202;stroke-miterlimit:10;stroke-width:1.91px;}</style></defs><circle class="cls-1" cx="17.72" cy="17.74" r="0.96"/><path class="cls-1" d="M21.54,14.9V5.3a3.83,3.83,0,0,0-7.65,0v9.6a4.74,4.74,0,0,0-1,2.84,4.79,4.79,0,0,0,9.57,0A4.67,4.67,0,0,0,21.54,14.9Z"/><line class="cls-1" x1="17.72" y1="5.3" x2="17.72" y2="16.78"/><line class="cls-1" x1="11.98" y1="0.52" x2="11.98" y2="2.43"/><line class="cls-1" x1="11.98" y1="21.57" x2="11.98" y2="23.48"/><line class="cls-1" x1="2.41" y1="12" x2="0.5" y2="12"/><line class="cls-1" x1="11.98" y1="0.52" x2="11.98" y2="2.43"/><line class="cls-1" x1="11.98" y1="21.57" x2="11.98" y2="23.48"/><line class="cls-1" x1="2.41" y1="12" x2="0.5" y2="12"/><line class="cls-1" x1="5.21" y1="18.76" x2="3.86" y2="20.12"/><line class="cls-1" x1="5.21" y1="5.24" x2="3.86" y2="3.88"/><line class="cls-1" x1="5.21" y1="18.76" x2="3.86" y2="20.12"/><line class="cls-1" x1="5.21" y1="5.24" x2="3.86" y2="3.88"/><path class="cls-1" d="M13,18.61a5.92,5.92,0,0,1-1,.09A6.7,6.7,0,0,1,12,5.3a6.63,6.63,0,0,1,1.91.28"/></svg>