<svg id="Layer_1" data-name="Layer 1" xmlns="http://www.w3.org/2000/svg" viewBox="0 0 24 24"><defs><style>.cls-1{fill:none;stroke:#020202;stroke-miterlimit:10;stroke-width:1.91px;}</style></defs><path class="cls-1" d="M19.64,16.52A4.29,4.29,0,0,0,18.2,8.18h-.56a6,6,0,0,0,.09-.95,5.73,5.73,0,0,0-11.46,0,4.78,4.78,0,0,0-1.91,9.15"/><path class="cls-1" d="M5.31,18.68c1.67,0,1.67-.95,3.34-.95s1.67.95,3.34.95,1.67-.95,3.34-.95,1.68.95,3.35.95"/><path class="cls-1" d="M5.31,22.5c1.67,0,1.67-.95,3.34-.95s1.67.95,3.34.95,1.67-.95,3.34-.95,1.68.95,3.35.95"/></svg>