<svg id="Layer_1" data-name="Layer 1" xmlns="http://www.w3.org/2000/svg" viewBox="0 0 24 24"><defs><style>.cls-1{fill:none;stroke:#020202;stroke-miterlimit:10;stroke-width:1.92px;}</style></defs><path class="cls-1" d="M18.67,15.83a3.31,3.31,0,0,0-2.18-2.66A3,3,0,0,0,15.35,13h-.57a5,5,0,0,0,.1-1,4.79,4.79,0,0,0-4.8-4.79,3.69,3.69,0,0,0-.58,0A4.79,4.79,0,0,0,5.29,12a3.83,3.83,0,0,0-3.83,3.83"/><line class="cls-1" x1="0.5" y1="17.75" x2="5.29" y2="17.75"/><line class="cls-1" x1="7.21" y1="17.75" x2="16.79" y2="17.75"/><line class="cls-1" x1="2.42" y1="21.58" x2="10.08" y2="21.58"/><line class="cls-1" x1="12" y1="21.58" x2="21.58" y2="21.58"/><line class="cls-1" x1="18.71" y1="17.75" x2="23.5" y2="17.75"/><path class="cls-1" d="M11.11,7.31a5.72,5.72,0,0,1,5.67-4.89,6,6,0,0,1,.75.05A4.11,4.11,0,0,0,22.46,9a5.72,5.72,0,0,1-4.85,4.8"/></svg>