<svg id="Layer_1" data-name="Layer 1" xmlns="http://www.w3.org/2000/svg" viewBox="0 0 24 24"><defs><style>.cls-1{fill:none;stroke:#020202;stroke-miterlimit:10;stroke-width:1.91px;}</style></defs><path class="cls-1" d="M12,20.59h3.35a3.35,3.35,0,1,0,0-6.7H14.8a5.9,5.9,0,0,0,.09-1,4.78,4.78,0,0,0-9.56,0,3.83,3.83,0,0,0,0,7.66H8.2"/><path class="cls-1" d="M16.51,14.1a4.79,4.79,0,1,0-7-5.91"/><line class="cls-1" x1="13.93" y1="0.5" x2="13.93" y2="2.41"/><line class="cls-1" x1="23.5" y1="10.07" x2="21.59" y2="10.07"/><line class="cls-1" x1="20.7" y1="3.3" x2="19.35" y2="4.65"/><line class="cls-1" x1="8.52" y1="4.65" x2="7.17" y2="3.3"/><path class="cls-1" d="M12,20.59a1.91,1.91,0,1,1-3.82,0c0-1.92,1.91-3.83,1.91-3.83S12,18.67,12,20.59Z"/></svg>