<svg id="Layer_1" data-name="Layer 1" xmlns="http://www.w3.org/2000/svg" viewBox="0 0 24 24"><defs><style>.cls-1{fill:none;stroke:#020202;stroke-miterlimit:10;stroke-width:1.91px;}</style></defs><path class="cls-1" d="M14.89,20.61h.48a3.35,3.35,0,0,0,0-6.7H14.8a5.88,5.88,0,0,0,.09-.95,4.78,4.78,0,1,0-9.56,0,3.83,3.83,0,1,0,0,7.65"/><path class="cls-1" d="M16.51,14.12a4.79,4.79,0,1,0-7-5.91"/><line class="cls-1" x1="13.93" y1="0.52" x2="13.93" y2="2.43"/><line class="cls-1" x1="23.5" y1="10.09" x2="21.59" y2="10.09"/><line class="cls-1" x1="20.7" y1="3.32" x2="19.35" y2="4.68"/><line class="cls-1" x1="8.52" y1="4.68" x2="7.17" y2="3.32"/><line class="cls-1" x1="7.24" y1="22.52" x2="7.24" y2="17.74"/><line class="cls-1" x1="10.11" y1="23.48" x2="10.11" y2="18.7"/><line class="cls-1" x1="12.98" y1="22.52" x2="12.98" y2="17.74"/></svg>