<svg id="Layer_1" data-name="Layer 1" xmlns="http://www.w3.org/2000/svg" viewBox="0 0 24 24"><defs><style>.cls-1{fill:none;stroke:#020202;stroke-miterlimit:10;stroke-width:1.91px;}</style></defs><path class="cls-1" d="M5.32,16.7a4.77,4.77,0,0,1,.95-9.45,5.73,5.73,0,0,1,11.46,0,6,6,0,0,1-.09.95h.56a4.3,4.3,0,0,1,.48,8.57"/><circle class="cls-1" cx="12" cy="16.8" r="1.91"/><line class="cls-1" x1="12" y1="10.11" x2="12" y2="14.89"/><line class="cls-1" x1="10.09" y1="12.02" x2="13.91" y2="12.02"/><line class="cls-1" x1="12" y1="23.48" x2="12" y2="18.7"/><line class="cls-1" x1="13.91" y1="21.57" x2="10.09" y2="21.57"/><line class="cls-1" x1="6.21" y1="13.45" x2="10.35" y2="15.84"/><line class="cls-1" x1="6.91" y1="16.06" x2="8.82" y2="12.76"/><line class="cls-1" x1="17.79" y1="20.14" x2="13.65" y2="17.75"/><line class="cls-1" x1="17.09" y1="17.53" x2="15.18" y2="20.84"/><line class="cls-1" x1="17.79" y1="13.45" x2="13.65" y2="15.84"/><line class="cls-1" x1="17.09" y1="16.06" x2="15.18" y2="12.76"/><line class="cls-1" x1="6.21" y1="20.14" x2="10.35" y2="17.75"/><line class="cls-1" x1="6.91" y1="17.53" x2="8.82" y2="20.84"/></svg>