<svg id="Layer_1" data-name="Layer 1" xmlns="http://www.w3.org/2000/svg" viewBox="0 0 24 24"><defs><style>.cls-1{fill:none;stroke:#020202;stroke-miterlimit:10;stroke-width:1.92px;}</style></defs><path class="cls-1" d="M1.46,16.79A3.82,3.82,0,0,1,5.29,13a4.8,4.8,0,0,1,9.59,0,5.13,5.13,0,0,1-.1,1h.57a3.34,3.34,0,0,1,1.44,6.37"/><path class="cls-1" d="M16.49,14.13a4.8,4.8,0,1,0-7-5.92"/><line class="cls-1" x1="13.92" y1="0.5" x2="13.92" y2="2.42"/><line class="cls-1" x1="23.5" y1="10.08" x2="21.58" y2="10.08"/><line class="cls-1" x1="20.69" y1="3.31" x2="19.34" y2="4.66"/><line class="cls-1" x1="8.5" y1="4.66" x2="7.14" y2="3.31"/><path class="cls-1" d="M12,21.58a1.92,1.92,0,0,1,1.92,1.92"/><line class="cls-1" x1="3.38" y1="21.58" x2="12" y2="21.58"/><path class="cls-1" d="M7.21,16.79a1.92,1.92,0,1,1,1.91,1.92H.5"/></svg>