<svg id="Layer_1" data-name="Layer 1" xmlns="http://www.w3.org/2000/svg" viewBox="0 0 24 24"><defs><style>.cls-1{fill:none;stroke:#020202;stroke-miterlimit:10;stroke-width:1.92px;}</style></defs><path class="cls-1" d="M11.11,7.31a5.72,5.72,0,0,1,5.67-4.89,4.57,4.57,0,0,1,.75.05A4.1,4.1,0,0,0,22.45,9a5.7,5.7,0,0,1-4.84,4.8"/><path class="cls-1" d="M3.37,19.15A3.83,3.83,0,0,1,5.29,12a4.79,4.79,0,0,1,9.58,0,5,5,0,0,1-.09,1h.57a3.36,3.36,0,0,1,3.36,3.35,3.32,3.32,0,0,1-1.92,3"/><line class="cls-1" x1="10.56" y1="16.79" x2="8.16" y2="21.58"/><line class="cls-1" x1="14.39" y1="16.79" x2="12" y2="21.58"/><line class="cls-1" x1="6.75" y1="16.76" x2="4.33" y2="21.58"/></svg>