<svg id="Layer_1" data-name="Layer 1" xmlns="http://www.w3.org/2000/svg" viewBox="0 0 24 24"><defs><style>.cls-1{fill:none;stroke:#020202;stroke-miterlimit:10;stroke-width:1.92px;}</style></defs><line class="cls-1" x1="12" y1="0.48" x2="12" y2="2.4"/><line class="cls-1" x1="22.54" y1="11.02" x2="20.63" y2="11.02"/><line class="cls-1" x1="3.38" y1="11.02" x2="1.46" y2="11.02"/><line class="cls-1" x1="12" y1="0.48" x2="12" y2="2.4"/><line class="cls-1" x1="22.54" y1="11.02" x2="20.63" y2="11.02"/><line class="cls-1" x1="3.38" y1="11.02" x2="1.46" y2="11.02"/><line class="cls-1" x1="5.9" y1="4.92" x2="4.55" y2="3.57"/><line class="cls-1" x1="5.9" y1="4.92" x2="4.55" y2="3.57"/><line class="cls-1" x1="19.45" y1="3.57" x2="18.1" y2="4.92"/><line class="cls-1" x1="19.45" y1="3.57" x2="18.1" y2="4.92"/><line class="cls-1" x1="0.5" y1="14.85" x2="23.5" y2="14.85"/><line class="cls-1" x1="2.42" y1="18.69" x2="21.58" y2="18.69"/><line class="cls-1" x1="5.29" y1="22.52" x2="18.71" y2="22.52"/><path class="cls-1" d="M16.27,14.85A5.66,5.66,0,0,0,17.75,11a5.75,5.75,0,0,0-11.5,0,5.66,5.66,0,0,0,1.48,3.83"/></svg>