<svg id="Layer_1" data-name="Layer 1" xmlns="http://www.w3.org/2000/svg" viewBox="0 0 24 24"><defs><style>.cls-1{fill:none;stroke:#020202;stroke-miterlimit:10;stroke-width:1.91px;}</style></defs><ellipse class="cls-1" cx="12" cy="4.39" rx="10.5" ry="2.86"/><path class="cls-1" d="M5.59,6.65c-.78.45-1.23,1-1.23,1.55,0,1.16,1.81,2.15,4.42,2.6a19,19,0,0,0,3.22.27,13.93,13.93,0,0,0,6.32-1.26h0c.82-.46,1.31-1,1.31-1.61s-.45-1.1-1.23-1.55"/><path class="cls-1" d="M18.32,9.81h0c1.38.52,2.26,1.32,2.26,2.21,0,1.3-1.86,2.39-4.41,2.74a11.51,11.51,0,0,1-1.79.13,12.37,12.37,0,0,1-3.25-.42c-1.77-.51-3-1.42-3-2.45a1.7,1.7,0,0,1,.6-1.22"/><path class="cls-1" d="M16.18,14.76h0a1.44,1.44,0,0,1,.58,1.08c0,1.05-1.5,1.91-3.34,1.91s-3.34-.86-3.34-1.91a1.67,1.67,0,0,1,1-1.37h0"/><path class="cls-1" d="M13.91,23.48C13.91,21,12,20.74,12,19.39s.33-1.64,1.91-1.64"/></svg>