<svg id="Layer_1" data-name="Layer 1" xmlns="http://www.w3.org/2000/svg" viewBox="0 0 24 24"><defs><style>.cls-1{fill:none;stroke:#020202;stroke-miterlimit:10;stroke-width:1.91px;}</style></defs><path class="cls-1" d="M20.25,9.64A8.08,8.08,0,0,1,20.59,12H1.5a9.91,9.91,0,0,1,9.55-9.55,9.26,9.26,0,0,1,6.16,2.45"/><path class="cls-1" d="M11.05,12v8.59A1.91,1.91,0,0,0,13,22.48h0a1.91,1.91,0,0,0,1.91-1.91h0"/><line class="cls-1" x1="11.05" y1="0.52" x2="11.05" y2="2.43"/><path class="cls-1" d="M22.5,6.85a2.87,2.87,0,0,1-5.73,0c0-2.87,2.87-5,2.87-5S22.5,4,22.5,6.85Z"/></svg>