<svg id="Layer_1" data-name="Layer 1" xmlns="http://www.w3.org/2000/svg" viewBox="0 0 24 24"><defs><style>.cls-1{fill:none;stroke:#020202;stroke-miterlimit:10;stroke-width:1.91px;}</style></defs><polyline class="cls-1" points="11.04 19.61 1.5 19.61 1.5 3.39 20.59 3.39 20.59 9.11"/><line class="cls-1" x1="11.05" y1="0.52" x2="11.05" y2="5.3"/><line class="cls-1" x1="6.27" y1="0.52" x2="6.27" y2="5.3"/><line class="cls-1" x1="15.82" y1="0.52" x2="15.82" y2="5.3"/><line class="cls-1" x1="8.18" y1="8.16" x2="10.09" y2="8.16"/><line class="cls-1" x1="12" y1="8.16" x2="13.91" y2="8.16"/><line class="cls-1" x1="15.82" y1="8.16" x2="17.73" y2="8.16"/><line class="cls-1" x1="4.36" y1="11.98" x2="6.27" y2="11.98"/><line class="cls-1" x1="8.18" y1="11.98" x2="10.09" y2="11.98"/><line class="cls-1" x1="4.36" y1="15.8" x2="6.27" y2="15.8"/><line class="cls-1" x1="8.18" y1="15.8" x2="10.09" y2="15.8"/><line class="cls-1" x1="12" y1="11.98" x2="13.91" y2="11.98"/><ellipse class="cls-1" cx="17.73" cy="18.66" rx="4.77" ry="3.82"/><path class="cls-1" d="M20.11,11h1.43a0,0,0,0,1,0,0v1.43a2.39,2.39,0,0,1-2.39,2.39H17.73a0,0,0,0,1,0,0V13.41A2.39,2.39,0,0,1,20.11,11Z"/><path class="cls-1" d="M14.86,11h0a2.86,2.86,0,0,1,2.87,2.87v.95"/></svg>