<svg id="Layer_1" data-name="Layer 1" xmlns="http://www.w3.org/2000/svg" viewBox="0 0 24 24"><defs><style>.cls-1{fill:none;stroke:#020202;stroke-miterlimit:10;stroke-width:1.91px;}</style></defs><polyline class="cls-1" points="12.32 11.98 11.04 15.8 12.96 15.8 11.68 19.63"/><path class="cls-1" d="M16.78,10.07V22.5H7.22V10.07l.89-.45A1.85,1.85,0,0,0,9.13,8h0a1.85,1.85,0,0,0-.54-1.31l-.42-.41V4.33h0a1.92,1.92,0,0,0,1.92-1.92h3.82a1.92,1.92,0,0,0,1.92,1.92h0V6.24l-.42.41A1.85,1.85,0,0,0,14.87,8h0a1.85,1.85,0,0,0,1,1.66Z"/><line class="cls-1" x1="12" y1="0.5" x2="12" y2="2.41"/></svg>