<svg id="Layer_1" data-name="Layer 1" xmlns="http://www.w3.org/2000/svg" viewBox="0 0 24 24"><defs><style>.cls-1{fill:none;stroke:#020202;stroke-miterlimit:10;stroke-width:1.91px;}</style></defs><path class="cls-1" d="M16.77,17.73V9.14A3.82,3.82,0,0,0,13,5.32H5.32A3.82,3.82,0,0,0,1.5,9.14v9.54A3.82,3.82,0,0,0,5.32,22.5H13a3.66,3.66,0,0,0,1.33-.25"/><rect class="cls-1" x="3.41" y="1.5" width="11.45" height="3.82"/><rect class="cls-1" x="12.95" y="17.73" width="9.55" height="4.77" rx="2.39" transform="translate(35.45 40.23) rotate(-180)"/><line class="cls-1" x1="17.73" y1="17.73" x2="17.73" y2="22.5"/><polyline class="cls-1" points="9.46 12 8.18 15.82 10.09 15.82 8.82 19.64"/><line class="cls-1" x1="2.45" y1="9.14" x2="13.91" y2="9.14"/></svg>