<svg id="Layer_1" data-name="Layer 1" xmlns="http://www.w3.org/2000/svg" viewBox="0 0 24 24"><defs><style>.cls-1{fill:none;stroke:#020202;stroke-miterlimit:10;stroke-width:1.91px;}</style></defs><path class="cls-1" d="M6.27,14.86l-2.4,1.65a1.43,1.43,0,0,1-.83.26H3A1.46,1.46,0,0,1,1.5,15.31V8.69A1.46,1.46,0,0,1,3,7.23H3a1.47,1.47,0,0,1,.81.24L6.27,9.14Z"/><path class="cls-1" d="M17.73,9.14l2.4-1.65A1.43,1.43,0,0,1,21,7.23H21A1.46,1.46,0,0,1,22.5,8.69v6.62A1.46,1.46,0,0,1,21,16.77h0a1.47,1.47,0,0,1-.81-.24l-2.49-1.67Z"/><line class="cls-1" x1="8.18" y1="10.09" x2="15.82" y2="10.09"/><line class="cls-1" x1="8.18" y1="13.91" x2="15.82" y2="13.91"/></svg>