<svg id="Layer_1" data-name="Layer 1" xmlns="http://www.w3.org/2000/svg" viewBox="0 0 24 24"><defs><style>.cls-1{fill:none;stroke:#020202;stroke-miterlimit:10;stroke-width:1.91px;}</style></defs><path class="cls-1" d="M22.5,12A10.5,10.5,0,0,1,2.75,17h0a10.31,10.31,0,0,1-1.2-4c0-.31,0-.61,0-.92A10.5,10.5,0,0,1,12,1.5c.31,0,.61,0,.92,0a10.31,10.31,0,0,1,4,1.2h0A10.46,10.46,0,0,1,22.5,12Z"/><path class="cls-1" d="M17,2.74h0a10.35,10.35,0,0,1,1.24,5A10.49,10.49,0,0,1,7.7,18.2,10.35,10.35,0,0,1,2.75,17h0"/><path class="cls-1" d="M12.92,1.54c0,.3,0,.61,0,.91A10.49,10.49,0,0,1,2.45,13c-.3,0-.61,0-.91,0"/></svg>