<svg id="Layer_1" data-name="Layer 1" xmlns="http://www.w3.org/2000/svg" viewBox="0 0 24 24"><defs><style>.cls-1{fill:none;stroke:#020202;stroke-miterlimit:10;stroke-width:1.91px;}</style></defs><path class="cls-1" d="M9.14,9.14h5.73a7.64,7.64,0,0,1,7.64,7.64v4.77a0,0,0,0,1,0,0H1.5a0,0,0,0,1,0,0V16.77A7.64,7.64,0,0,1,9.14,9.14Z"/><path class="cls-1" d="M3.59,11.52a7.61,7.61,0,0,0,5.55,2.39h5.72a7.61,7.61,0,0,0,5.55-2.39"/><path class="cls-1" d="M6.27,10.09V8.18A5.74,5.74,0,0,1,12,2.45h0a5.74,5.74,0,0,1,5.73,5.73v1.91"/><path class="cls-1" d="M6.15,21.55a3.77,3.77,0,0,0,.12-1,3.82,3.82,0,0,0-3.82-3.82,3.35,3.35,0,0,0-1,.13"/><path class="cls-1" d="M22.5,16.9a3.35,3.35,0,0,0-.95-.13,3.82,3.82,0,0,0-3.82,3.82,3.77,3.77,0,0,0,.12,1"/></svg>