<svg id="Layer_1" data-name="Layer 1" xmlns="http://www.w3.org/2000/svg" viewBox="0 0 24 24"><defs><style>.cls-1{fill:none;stroke:#020202;stroke-miterlimit:10;stroke-width:1.91px;}</style></defs><rect class="cls-1" x="5.32" y="5.27" width="13.36" height="13.36" rx="1.91"/><polygon class="cls-1" points="18.68 7.18 22.5 8.14 22.5 15.77 18.68 16.73 18.68 7.18"/><polygon class="cls-1" points="5.32 16.73 1.5 15.77 1.5 8.14 5.32 7.18 5.32 16.73"/><line class="cls-1" x1="10.09" y1="3.36" x2="10.09" y2="5.27"/><line class="cls-1" x1="13.91" y1="3.36" x2="13.91" y2="5.27"/><path class="cls-1" d="M13.74,8.83A2.08,2.08,0,0,0,12,9.76a2.08,2.08,0,0,0-3.82,1.15C8.18,14,12,15.08,12,15.08s3.82-1,3.82-4.17A2.08,2.08,0,0,0,13.74,8.83Z"/></svg>