<svg id="Layer_1" data-name="Layer 1" xmlns="http://www.w3.org/2000/svg" viewBox="0 0 24 24"><defs><style>.cls-1{fill:none;stroke:#020202;stroke-miterlimit:10;stroke-width:1.91px;}</style></defs><path class="cls-1" d="M2.45,14.86H6.27a0,0,0,0,1,0,0v5.73A1.91,1.91,0,0,1,4.36,22.5h0a1.91,1.91,0,0,1-1.91-1.91V14.86a0,0,0,0,1,0,0Z"/><line class="cls-1" x1="0.55" y1="14.86" x2="8.18" y2="14.86"/><path class="cls-1" d="M17.73,14.86h3.82a0,0,0,0,1,0,0v5.73a1.91,1.91,0,0,1-1.91,1.91h0a1.91,1.91,0,0,1-1.91-1.91V14.86A0,0,0,0,1,17.73,14.86Z"/><line class="cls-1" x1="15.82" y1="14.86" x2="23.45" y2="14.86"/><path class="cls-1" d="M4.36,14.86V6.27h0A4.78,4.78,0,0,1,9.14,1.5h11A2.39,2.39,0,0,1,22.5,3.89h0a2.39,2.39,0,0,1-2.39,2.38h-10A1.92,1.92,0,0,0,8.18,8.18h0a1.91,1.91,0,0,0,1.91,1.91h6.68A2.87,2.87,0,0,1,19.64,13v1.91"/></svg>