<svg id="Layer_1" data-name="Layer 1" xmlns="http://www.w3.org/2000/svg" viewBox="0 0 24 24"><defs><style>.cls-1{fill:none;stroke:#020202;stroke-miterlimit:10;stroke-width:1.91px;}</style></defs><path class="cls-1" d="M12,.55V4.36A3.82,3.82,0,0,1,8.18,8.18H6.27A4.78,4.78,0,0,1,1.5,3.41V.55"/><path class="cls-1" d="M22.5.55V3.41a4.78,4.78,0,0,1-4.77,4.77H15.82A3.82,3.82,0,0,1,12,4.36V.55"/><path class="cls-1" d="M12,10.09v1A1.9,1.9,0,0,1,10.09,13H8.6a1.9,1.9,0,0,1-1.81-1.3l-.52-1.56"/><path class="cls-1" d="M12,10.09v1A1.9,1.9,0,0,0,13.91,13H15.4a1.9,1.9,0,0,0,1.81-1.3l.52-1.56"/><path class="cls-1" d="M12,14.86v1a1.91,1.91,0,0,1-1.91,1.91H8.6a1.91,1.91,0,0,1-1.81-1.31l-.52-1.56"/><path class="cls-1" d="M12,14.86v1a1.91,1.91,0,0,0,1.91,1.91H15.4a1.91,1.91,0,0,0,1.81-1.31l.52-1.56"/><line class="cls-1" x1="12" y1="20.59" x2="12" y2="15.82"/><line class="cls-1" x1="12" y1="21.55" x2="12" y2="23.45"/><path class="cls-1" d="M1.5,4.36h0a18,18,0,0,1,1.91,8.09h0a24,24,0,0,0,1.91,8.14"/><path class="cls-1" d="M3.41,12.45c0,3.78-1,8.14-1,11"/><path class="cls-1" d="M22.5,4.36h0a18,18,0,0,0-1.91,8.09h0a24,24,0,0,1-1.91,8.14"/><path class="cls-1" d="M20.59,12.45c0,3.78,1,8.14,1,11"/><line class="cls-1" x1="7.23" y1="5.32" x2="9.14" y2="5.32"/><line class="cls-1" x1="14.86" y1="5.32" x2="16.77" y2="5.32"/></svg>