<svg id="Layer_1" data-name="Layer 1" xmlns="http://www.w3.org/2000/svg" viewBox="0 0 24 24"><defs><style>.cls-1{fill:none;stroke:#020202;stroke-miterlimit:10;stroke-width:1.91px;}</style></defs><polyline class="cls-1" points="11.04 20.59 1.5 20.59 1.5 1.5 16.77 1.5 16.77 9.14"/><line class="cls-1" x1="4.36" y1="5.32" x2="6.27" y2="5.32"/><line class="cls-1" x1="8.18" y1="5.32" x2="13.91" y2="5.32"/><line class="cls-1" x1="4.36" y1="9.14" x2="6.27" y2="9.14"/><line class="cls-1" x1="8.18" y1="9.14" x2="13.91" y2="9.14"/><line class="cls-1" x1="4.36" y1="12.95" x2="6.27" y2="12.95"/><line class="cls-1" x1="8.18" y1="12.95" x2="13.91" y2="12.95"/><ellipse class="cls-1" cx="17.73" cy="18.68" rx="4.77" ry="3.82"/><path class="cls-1" d="M20.11,11h1.43a0,0,0,0,1,0,0v1.43a2.39,2.39,0,0,1-2.39,2.39H17.73a0,0,0,0,1,0,0V13.43A2.39,2.39,0,0,1,20.11,11Z"/><path class="cls-1" d="M14.86,11.05h0a2.86,2.86,0,0,1,2.87,2.86v.95"/></svg>