<svg id="Layer_1" data-name="Layer 1" xmlns="http://www.w3.org/2000/svg" viewBox="0 0 24 24"><defs><style>.cls-1{fill:none;stroke:#020202;stroke-miterlimit:10;stroke-width:1.91px;}</style></defs><path class="cls-1" d="M14.86,14.86a6.68,6.68,0,1,1-13.36,0A6.53,6.53,0,0,1,2.15,12a6.67,6.67,0,0,1,12.06,0A6.53,6.53,0,0,1,14.86,14.86Z"/><path class="cls-1" d="M11.05,14.86a2.87,2.87,0,1,1-5.73,0,2.77,2.77,0,0,1,.28-1.22,2.86,2.86,0,0,1,5.17,0A2.77,2.77,0,0,1,11.05,14.86Z"/><path class="cls-1" d="M22.5,2.45V8.18H8.18a6.66,6.66,0,0,0-6,3.82,6.53,6.53,0,0,0-.65,2.86V9.14a5,5,0,0,1,.08-1,6.66,6.66,0,0,1,6.6-5.73Z"/><line class="cls-1" x1="18.68" y1="2.45" x2="18.68" y2="6.27"/><line class="cls-1" x1="14.86" y1="2.45" x2="14.86" y2="5.32"/><line class="cls-1" x1="11.05" y1="2.45" x2="11.05" y2="6.27"/><line class="cls-1" x1="7.23" y1="2.45" x2="7.23" y2="5.32"/></svg>