<svg id="Layer_1" data-name="Layer 1" xmlns="http://www.w3.org/2000/svg" viewBox="0 0 24 24"><defs><style>.cls-1{fill:none;stroke:#020202;stroke-miterlimit:10;stroke-width:1.91px;}</style></defs><path class="cls-1" d="M3.39,14.86h18.3c2.74-6.68-2.76-5.34,0-13.36H3.39A1.92,1.92,0,0,0,1.48,3.41V14.86"/><path class="cls-1" d="M16,14.86C18.71,8.18,13.2,9.52,16,1.5"/><path class="cls-1" d="M12.14,14.86c2.75-6.68-2.76-5.34,0-13.36"/><path class="cls-1" d="M3.39,18.68H19.61a1.91,1.91,0,0,1,1.91,1.91h0a1.9,1.9,0,0,1-1.91,1.91H.52"/><path class="cls-1" d="M3.39,14.86A1.84,1.84,0,0,0,2,15.43a1.87,1.87,0,0,0-.56,1.34V14.86"/><line class="cls-1" x1="19.61" y1="14.86" x2="3.39" y2="14.86"/><path class="cls-1" d="M1.48,16.77a1.92,1.92,0,0,0,1.91,1.91H19.61"/></svg>