<svg id="Layer_1" data-name="Layer 1" xmlns="http://www.w3.org/2000/svg" viewBox="0 0 24 24"><defs><style>.cls-1{fill:none;stroke:#020202;stroke-miterlimit:10;stroke-width:1.91px;}</style></defs><path class="cls-1" d="M2.44,23.48A14.69,14.69,0,0,1,4,16.9c.34-.74.71-1.43,1-2.12a10.16,10.16,0,0,0,1.27-4.69A29.68,29.68,0,0,0,4.35.52"/><path class="cls-1" d="M21.57,23.48A14.62,14.62,0,0,0,20.09,17c-.36-.76-.73-1.47-1.07-2.17a10.16,10.16,0,0,1-1.28-4.69A29.54,29.54,0,0,1,19.66.52"/><path class="cls-1" d="M20.09,17l-6.38,5a2.75,2.75,0,0,1-1.7.58h0a2.77,2.77,0,0,1-1.72-.6L4,16.9c.34-.74.71-1.43,1-2.12a28.24,28.24,0,0,0,14,0C19.36,15.48,19.73,16.19,20.09,17Z"/><line class="cls-1" x1="12" y1="8.17" x2="12" y2="10.09"/><polyline class="cls-1" points="1.09 7.78 3.4 10.09 1.09 12.4"/><polyline class="cls-1" points="23.09 12.4 20.78 10.09 23.09 7.78"/></svg>