<svg id="Layer_1" data-name="Layer 1" xmlns="http://www.w3.org/2000/svg" viewBox="0 0 24 24"><defs><style>.cls-1{fill:none;stroke:#020202;stroke-miterlimit:10;stroke-width:1.91px;}</style></defs><path class="cls-1" d="M22.5,9.76h0a1.29,1.29,0,0,1-1.29,1.29H2.79A1.29,1.29,0,0,1,1.5,9.76h0a1.29,1.29,0,0,1,.48-1L10.3,2.1A2.69,2.69,0,0,1,12,1.5h0a2.69,2.69,0,0,1,1.7.6L22,8.75A1.29,1.29,0,0,1,22.5,9.76Z"/><polygon class="cls-1" points="18.57 11.04 5.44 11.04 12 6.27 18.57 11.04"/><path class="cls-1" d="M20.59,13a1.91,1.91,0,0,1-1.91,1.91H5.32A1.92,1.92,0,0,1,3.41,13,1.87,1.87,0,0,1,4,11.61a1.89,1.89,0,0,1,1.35-.56H18.68A1.91,1.91,0,0,1,20.59,13Z"/><path class="cls-1" d="M5.32,14.86H9.14v3.82H5.32a1.92,1.92,0,0,1-1.91-1.91,1.93,1.93,0,0,1,1.91-1.91Z"/><path class="cls-1" d="M20.59,16.77a1.91,1.91,0,0,1-1.91,1.91H14.86V14.86h3.82A1.92,1.92,0,0,1,20.59,16.77Z"/><path class="cls-1" d="M5.32,18.68H9.14V22.5H5.32A1.91,1.91,0,0,1,4,19.24,1.89,1.89,0,0,1,5.32,18.68Z"/><path class="cls-1" d="M20.59,20.59a1.91,1.91,0,0,1-1.91,1.91H14.86V18.68h3.82A1.92,1.92,0,0,1,20.59,20.59Z"/><rect class="cls-1" x="9.14" y="14.86" width="5.73" height="7.64"/><line class="cls-1" x1="0.55" y1="22.5" x2="23.45" y2="22.5"/></svg>