<svg id="Layer_1" data-name="Layer 1" xmlns="http://www.w3.org/2000/svg" viewBox="0 0 24 24"><defs><style>.cls-1{fill:none;stroke:#020202;stroke-miterlimit:10;stroke-width:2px;}</style></defs><polyline class="cls-1" points="15 1 12 4 9 1"/><polyline class="cls-1" points="9 23 12 20 15 23"/><line class="cls-1" x1="12" y1="4" x2="12" y2="20"/><circle class="cls-1" cx="12" cy="7" r="1"/><circle class="cls-1" cx="12" cy="17" r="1"/><polyline class="cls-1" points="3.97 3.9 5.07 8 0.97 9.1"/><polyline class="cls-1" points="20.03 20.1 18.93 16 23.03 14.9"/><line class="cls-1" x1="5.07" y1="8" x2="18.93" y2="16"/><circle class="cls-1" cx="7.67" cy="9.5" r="1"/><circle class="cls-1" cx="16.33" cy="14.5" r="1"/><polyline class="cls-1" points="20.03 3.9 18.93 8 23.03 9.1"/><polyline class="cls-1" points="3.97 20.1 5.07 16 0.97 14.9"/><line class="cls-1" x1="18.93" y1="8" x2="5.07" y2="16"/><circle class="cls-1" cx="16.33" cy="9.5" r="1"/><circle class="cls-1" cx="7.67" cy="14.5" r="1"/><line class="cls-1" x1="2" y1="12" x2="4" y2="12"/><line class="cls-1" x1="20" y1="12" x2="22" y2="12"/><line class="cls-1" x1="7" y1="20.66" x2="8" y2="18.93"/><line class="cls-1" x1="16" y1="5.07" x2="17" y2="3.34"/><line class="cls-1" x1="17" y1="20.66" x2="16" y2="18.93"/><line class="cls-1" x1="8" y1="5.07" x2="7" y2="3.34"/></svg>