<svg id="Layer_1" data-name="Layer 1" xmlns="http://www.w3.org/2000/svg" viewBox="0 0 24 24"><defs><style>.cls-1{fill:none;stroke:#020202;stroke-miterlimit:10;stroke-width:1.91px;}</style></defs><path class="cls-1" d="M11,18.68H22.5a0,0,0,0,1,0,0v1.91a1.91,1.91,0,0,1-1.91,1.91H13A1.91,1.91,0,0,1,11,20.59V18.68A0,0,0,0,1,11,18.68Z"/><path class="cls-1" d="M22.5,10.57v8.11H11.05L9.33,16.39a5.12,5.12,0,0,1-.81-1.53A5.61,5.61,0,0,1,8.18,13a1.83,1.83,0,0,1,.57-1.34,1.87,1.87,0,0,1,1.34-.56,1.89,1.89,0,0,1,1.35.56A1.87,1.87,0,0,1,12,13V10.57a5.25,5.25,0,1,1,10.5,0Z"/><line class="cls-1" x1="12" y1="14.86" x2="12" y2="12.95"/><path class="cls-1" d="M11.05,18.68H6.27a1.92,1.92,0,0,1-1.91-1.91V14.86H8.52a5.12,5.12,0,0,0,.81,1.53Z"/><path class="cls-1" d="M15.67,5.56a5.25,5.25,0,0,0-3.67,5V13a1.87,1.87,0,0,0-.56-1.34,1.89,1.89,0,0,0-1.35-.56,1.87,1.87,0,0,0-1.34.56A1.83,1.83,0,0,0,8.18,13a5.61,5.61,0,0,0,.34,1.91H4.36L2.65,12.57A5.67,5.67,0,0,1,1.5,9.14,1.91,1.91,0,0,1,3.41,7.23a1.87,1.87,0,0,1,1.34.56,1.84,1.84,0,0,1,.57,1.35V6.75a5.25,5.25,0,0,1,9-3.71A5,5,0,0,1,15.67,5.56Z"/><line class="cls-1" x1="5.32" y1="11.05" x2="5.32" y2="9.14"/></svg>