<svg id="Layer_1" data-name="Layer 1" xmlns="http://www.w3.org/2000/svg" viewBox="0 0 24 24"><defs><style>.cls-1{fill:none;stroke:#020202;stroke-miterlimit:10;stroke-width:1.91px;}</style></defs><path class="cls-1" d="M1.5,7.23H16.77a0,0,0,0,1,0,0V18.56a3.94,3.94,0,0,1-3.94,3.94H5.44A3.94,3.94,0,0,1,1.5,18.56V7.23a0,0,0,0,1,0,0Z"/><path class="cls-1" d="M19.64,8.18h0A2.86,2.86,0,0,1,22.5,11v1.38a5.3,5.3,0,0,1-5.3,5.3h-.42a0,0,0,0,1,0,0V11A2.86,2.86,0,0,1,19.64,8.18Z"/><path class="cls-1" d="M3.41,1.5c1.91,1.53-1,2.29,1,3.82"/><path class="cls-1" d="M13,1.5c1.91,1.53-.95,2.29,1,3.82"/><path class="cls-1" d="M8.18,1.5c1.91,1.53-.95,2.29,1,3.82"/><line class="cls-1" x1="9.14" y1="12" x2="9.14" y2="17.73"/><polyline class="cls-1" points="11.04 10.09 9.14 12 7.23 10.09"/><polyline class="cls-1" points="7.23 19.64 9.14 17.73 11.04 19.64"/><line class="cls-1" x1="12" y1="14.86" x2="6.27" y2="14.86"/><polyline class="cls-1" points="13.91 16.77 12 14.86 13.91 12.96"/><polyline class="cls-1" points="4.36 12.96 6.27 14.86 4.36 16.77"/><circle class="cls-1" cx="9.14" cy="14.86" r="0.95"/></svg>