<svg id="Layer_1" data-name="Layer 1" xmlns="http://www.w3.org/2000/svg" viewBox="0 0 24 24"><defs><style>.cls-1{fill:none;stroke:#020202;stroke-miterlimit:10;stroke-width:1.91px;}</style></defs><path class="cls-1" d="M12,1.5h0A10.5,10.5,0,0,1,22.5,12V22.5a0,0,0,0,1,0,0H1.5a0,0,0,0,1,0,0V12A10.5,10.5,0,0,1,12,1.5Z"/><path class="cls-1" d="M17.73,16.77a5.73,5.73,0,0,1-11.46,0C6.27,12,12,7.23,12,7.23S17.73,12,17.73,16.77Z"/><path class="cls-1" d="M14.74,19.44a2.74,2.74,0,0,1-5.48,0c0-2.29,2.74-4.58,2.74-4.58S14.74,17.15,14.74,19.44Z"/></svg>