<svg id="Layer_1" data-name="Layer 1" xmlns="http://www.w3.org/2000/svg" viewBox="0 0 24 24"><defs><style>.cls-1{fill:none;stroke:#020202;stroke-miterlimit:10;stroke-width:1.91px;}</style></defs><line class="cls-1" x1="18.25" y1="7.23" x2="5.75" y2="7.23"/><polyline class="cls-1" points="20.59 9.38 20.59 11.04 20.59 14.86 20.59 22.5 14.86 22.5 9.14 22.5 3.41 22.5 3.41 14.86 3.41 11.04 3.41 9.38"/><rect class="cls-1" x="9.14" y="14.86" width="5.73" height="7.64"/><line class="cls-1" x1="3.41" y1="18.68" x2="9.14" y2="18.68"/><line class="cls-1" x1="14.86" y1="18.68" x2="20.59" y2="18.68"/><line class="cls-1" x1="3.41" y1="14.86" x2="9.14" y2="14.86"/><line class="cls-1" x1="14.86" y1="14.86" x2="20.59" y2="14.86"/><line class="cls-1" x1="3.41" y1="11.05" x2="20.59" y2="11.05"/><polyline class="cls-1" points="23.45 12 12 1.5 0.55 12"/><polyline class="cls-1" points="16.77 5.87 16.77 1.5 20.59 1.5 20.59 9.38"/><line class="cls-1" x1="0.55" y1="22.5" x2="23.45" y2="22.5"/></svg>