<svg id="Layer_1" data-name="Layer 1" xmlns="http://www.w3.org/2000/svg" viewBox="0 0 24 24"><defs><style>.cls-1{fill:none;stroke:#020202;stroke-miterlimit:10;stroke-width:1.91px;}</style></defs><path class="cls-1" d="M3.89,12h0a2.39,2.39,0,0,1,2.39,2.39v4.3a0,0,0,0,1,0,0H1.5a0,0,0,0,1,0,0v-4.3A2.39,2.39,0,0,1,3.89,12Z"/><path class="cls-1" d="M3.89,12H7.7a2.39,2.39,0,0,1,2.39,2.39v4.3H3.41"/><path class="cls-1" d="M5.32,12A8.59,8.59,0,0,1,22.5,12v6.69H5.32"/><line class="cls-1" x1="7.23" y1="7.18" x2="21.55" y2="7.18"/><line class="cls-1" x1="11.05" y1="11" x2="22.5" y2="11"/><line class="cls-1" x1="10.09" y1="14.82" x2="20.59" y2="14.82"/><line class="cls-1" x1="15.82" y1="18.64" x2="15.82" y2="14.82"/><line class="cls-1" x1="18.68" y1="14.82" x2="18.68" y2="11"/><line class="cls-1" x1="15.82" y1="11" x2="15.82" y2="7.18"/><line class="cls-1" x1="12.95" y1="7.18" x2="12.95" y2="3.36"/><line class="cls-1" x1="12.95" y1="14.82" x2="12.95" y2="11"/></svg>