<svg id="Layer_1" data-name="Layer 1" xmlns="http://www.w3.org/2000/svg" viewBox="0 0 24 24"><defs><style>.cls-1{fill:none;stroke:#020202;stroke-miterlimit:10;stroke-width:1.91px;}</style></defs><path class="cls-1" d="M15.89,5.32H8.11A5.59,5.59,0,0,0,3.24,8,13,13,0,0,0,1.5,14.54v6.05H5.32A1.9,1.9,0,0,0,7.23,22.5h9.54a1.9,1.9,0,0,0,1.91-1.91H22.5V14.54A13,13,0,0,0,20.76,8,5.59,5.59,0,0,0,15.89,5.32Z"/><rect class="cls-1" x="8.18" y="1.5" width="7.64" height="3.82"/><line class="cls-1" x1="5.32" y1="10.09" x2="5.32" y2="20.59"/><line class="cls-1" x1="18.68" y1="10.09" x2="18.68" y2="20.59"/><polyline class="cls-1" points="5.32 11.04 7.54 12.96 9.77 11.04 11.99 12.96 14.22 11.04 16.45 12.96 18.68 11.04"/><polyline class="cls-1" points="5.32 15.82 7.54 17.73 9.77 15.82 11.99 17.73 14.22 15.82 16.45 17.73 18.68 15.82"/></svg>