<svg id="Layer_1" data-name="Layer 1" xmlns="http://www.w3.org/2000/svg" viewBox="0 0 24 24"><defs><style>.cls-1{fill:none;stroke:#020202;stroke-miterlimit:10;stroke-width:1.91px;}</style></defs><path class="cls-1" d="M16.74,6.79a4.43,4.43,0,0,0-.07-1.49,4.77,4.77,0,0,0-9.44,1,4.89,4.89,0,0,0,0,.54,9.16,9.16,0,0,1-1,5.66,6.66,6.66,0,0,0-.9,3.07,6.78,6.78,0,0,0,6.57,7,6.68,6.68,0,0,0,6.79-6.68,6.55,6.55,0,0,0-1-3.46A8.84,8.84,0,0,1,16.74,6.79Z"/><line class="cls-1" x1="7.23" y1="10.09" x2="2.45" y2="17.73"/><line class="cls-1" x1="16.77" y1="10.09" x2="21.55" y2="17.73"/><line class="cls-1" x1="5.32" y1="22.5" x2="18.68" y2="22.5"/><line class="cls-1" x1="12" y1="7.23" x2="12" y2="10.09"/></svg>