<svg id="Layer_1" data-name="Layer 1" xmlns="http://www.w3.org/2000/svg" viewBox="0 0 24 24"><defs><style>.cls-1{fill:none;stroke:#020202;stroke-miterlimit:10;stroke-width:1.91px;}</style></defs><path class="cls-1" d="M18.68,17.73H5.32L10.73,2.4A1.35,1.35,0,0,1,12,1.5h0a1.35,1.35,0,0,1,1.27.9Z"/><polyline class="cls-1" points="8.39 9.01 10.09 11.04 12 9.14 12.96 10.09 15.05 7.47"/><line class="cls-1" x1="12" y1="17.73" x2="12" y2="22.5"/><line class="cls-1" x1="23.45" y1="22.5" x2="0.55" y2="22.5"/><line class="cls-1" x1="0.55" y1="1.5" x2="2.45" y2="1.5"/><line class="cls-1" x1="4.36" y1="5.32" x2="6.27" y2="5.32"/><line class="cls-1" x1="1.5" y1="10.09" x2="3.41" y2="10.09"/><line class="cls-1" x1="21.55" y1="11.05" x2="23.45" y2="11.05"/><line class="cls-1" x1="17.73" y1="6.27" x2="19.64" y2="6.27"/><line class="cls-1" x1="19.64" y1="1.5" x2="21.55" y2="1.5"/></svg>