<svg id="Layer_1" data-name="Layer 1" xmlns="http://www.w3.org/2000/svg" viewBox="0 0 24 24"><defs><style>.cls-1{fill:none;stroke:#020202;stroke-miterlimit:10;stroke-width:1.91px;}</style></defs><path class="cls-1" d="M9.61,1.5h11V13h-11a2.39,2.39,0,0,0-2.38,2.39V3.89A2.39,2.39,0,0,1,9.61,1.5Z"/><path class="cls-1" d="M9.61,13h9.07v7.16a2.39,2.39,0,0,0-2.38-2.38H9.61a2.39,2.39,0,0,1,0-4.78Z"/><line class="cls-1" x1="23.45" y1="12.95" x2="20.59" y2="12.95"/><line class="cls-1" x1="23.45" y1="9.14" x2="20.59" y2="9.14"/><line class="cls-1" x1="23.45" y1="5.32" x2="20.59" y2="5.32"/><line class="cls-1" x1="23.45" y1="1.5" x2="20.59" y2="1.5"/><path class="cls-1" d="M3.41,11.05H7.23v4.29a2.39,2.39,0,0,0,2.38,2.39H16.3a2.39,2.39,0,0,1,0,4.77H3.41Z"/><line class="cls-1" x1="3.41" y1="11.05" x2="0.55" y2="11.05"/><line class="cls-1" x1="0.55" y1="14.86" x2="3.41" y2="14.86"/><line class="cls-1" x1="0.55" y1="18.68" x2="3.41" y2="18.68"/><line class="cls-1" x1="0.55" y1="22.5" x2="3.41" y2="22.5"/></svg>