<svg id="Layer_1" data-name="Layer 1" xmlns="http://www.w3.org/2000/svg" viewBox="0 0 24 24"><defs><style>.cls-1{fill:none;stroke:#020202;stroke-miterlimit:10;stroke-width:1.91px;}</style></defs><path class="cls-1" d="M7.23,10.09h9.55a3.82,3.82,0,0,1,3.82,3.82V22.5a0,0,0,0,1,0,0H3.41a0,0,0,0,1,0,0V13.91A3.82,3.82,0,0,1,7.23,10.09Z"/><rect class="cls-1" x="9.14" y="14.86" width="5.73" height="7.64"/><line class="cls-1" x1="3.41" y1="17.73" x2="9.14" y2="17.73"/><line class="cls-1" x1="14.86" y1="17.73" x2="20.59" y2="17.73"/><path class="cls-1" d="M12,6.27h0a2.86,2.86,0,0,1,2.86,2.86v1a0,0,0,0,1,0,0H9.14a0,0,0,0,1,0,0v-1A2.86,2.86,0,0,1,12,6.27Z"/><line class="cls-1" x1="12" y1="2.45" x2="12" y2="6.27"/><line class="cls-1" x1="23.45" y1="1.5" x2="0.55" y2="4.36"/></svg>