<svg id="Layer_1" data-name="Layer 1" xmlns="http://www.w3.org/2000/svg" viewBox="0 0 24 24"><defs><style>.cls-1{fill:none;stroke:#020202;stroke-miterlimit:10;stroke-width:1.92px;}</style></defs><line class="cls-1" x1="21.58" y1="0.5" x2="21.58" y2="23.5"/><line class="cls-1" x1="19.67" y1="20.63" x2="23.5" y2="20.63"/><line class="cls-1" x1="2.42" y1="0.5" x2="2.42" y2="23.5"/><line class="cls-1" x1="0.5" y1="20.63" x2="4.33" y2="20.63"/><path class="cls-1" d="M8.17,1.46h0a1.92,1.92,0,0,1,1.92,1.92V22.54a0,0,0,0,1,0,0H6.25a0,0,0,0,1,0,0V3.37A1.92,1.92,0,0,1,8.17,1.46Z"/><path class="cls-1" d="M15.83,1.46h0a1.92,1.92,0,0,1,1.92,1.92V22.54a0,0,0,0,1,0,0H13.92a0,0,0,0,1,0,0V3.37a1.92,1.92,0,0,1,1.92-1.92Z"/><rect class="cls-1" x="6.25" y="10.08" width="3.83" height="5.75" rx="1.92"/><rect class="cls-1" x="13.92" y="10.08" width="3.83" height="5.75" rx="1.92"/></svg>