<svg id="Layer_1" data-name="Layer 1" xmlns="http://www.w3.org/2000/svg" viewBox="0 0 24 24"><defs><style>.cls-1{fill:none;stroke:#020202;stroke-miterlimit:10;stroke-width:1.91px;}</style></defs><rect class="cls-1" x="3.41" y="5.32" width="10.5" height="17.18"/><path class="cls-1" d="M13.91,14.86h1.91a5.73,5.73,0,0,1,5.73,5.73V22.5a0,0,0,0,1,0,0H13.91a0,0,0,0,1,0,0V14.86A0,0,0,0,1,13.91,14.86Z"/><rect class="cls-1" x="2.45" y="1.5" width="12.41" height="3.82" rx="1.91"/><line class="cls-1" x1="10.09" y1="9.14" x2="13.91" y2="9.14"/><line class="cls-1" x1="10.09" y1="12.95" x2="13.91" y2="12.95"/><path class="cls-1" d="M3.41,16.77h0A5.73,5.73,0,0,1,9.14,22.5v0a0,0,0,0,1,0,0H3.41a0,0,0,0,1,0,0V16.77A0,0,0,0,1,3.41,16.77Z"/></svg>