<svg id="Layer_1" data-name="Layer 1" xmlns="http://www.w3.org/2000/svg" viewBox="0 0 24 24"><defs><style>.cls-1{fill:none;stroke:#020202;stroke-miterlimit:10;stroke-width:1.91px;}</style></defs><path class="cls-1" d="M16.77,17.73a4.77,4.77,0,1,1-6.72-4.37,3.73,3.73,0,0,0,3.9,0A4.8,4.8,0,0,1,16.77,17.73Z"/><path class="cls-1" d="M15.82,10.09A3.82,3.82,0,1,1,9.48,7.23h5A3.8,3.8,0,0,1,15.82,10.09Z"/><line class="cls-1" x1="9.14" y1="7.23" x2="6.27" y2="7.23"/><line class="cls-1" x1="17.73" y1="7.23" x2="14.86" y2="7.23"/><rect class="cls-1" x="9.14" y="1.5" width="5.73" height="5.73"/><line class="cls-1" x1="12" y1="18.68" x2="12" y2="13.91"/><line class="cls-1" x1="20.59" y1="11.05" x2="16.3" y2="15.34"/><polyline class="cls-1" points="23.45 11.04 20.59 11.04 20.59 8.18"/><line class="cls-1" x1="3.41" y1="11.05" x2="7.7" y2="15.34"/><polyline class="cls-1" points="0.55 11.04 3.41 11.04 3.41 8.18"/></svg>