<svg id="Layer_1" data-name="Layer 1" xmlns="http://www.w3.org/2000/svg" viewBox="0 0 24 24"><defs><style>.cls-1{fill:none;stroke:#020202;stroke-miterlimit:10;stroke-width:1.91px;}</style></defs><path class="cls-1" d="M12,8.18V1.5H1.48V15.82a2.86,2.86,0,0,0,2.86,2.86H16.75a2.86,2.86,0,0,0,2.86-2.86h0a5.73,5.73,0,0,0-5.72-5.73h0A1.9,1.9,0,0,1,12,8.18Z"/><line class="cls-1" x1="11.98" y1="4.36" x2="11.98" y2="1.5"/><path class="cls-1" d="M1.48,1.5V12a2.86,2.86,0,0,0,2.86,2.86H16.75a2.85,2.85,0,0,0,2.41-1.3"/><path class="cls-1" d="M.52,22.5H18.66a3.82,3.82,0,0,0,3.82-3.82h0"/><line class="cls-1" x1="8.16" y1="5.32" x2="11.98" y2="5.32"/><line class="cls-1" x1="8.16" y1="9.14" x2="11.98" y2="9.14"/><line class="cls-1" x1="4.34" y1="18.68" x2="4.34" y2="22.5"/><line class="cls-1" x1="16.75" y1="18.68" x2="16.75" y2="22.5"/></svg>