<svg id="Layer_1" data-name="Layer 1" xmlns="http://www.w3.org/2000/svg" viewBox="0 0 24 24"><defs><style>.cls-1{fill:none;stroke:#020202;stroke-miterlimit:10;stroke-width:1.91px;}</style></defs><polyline class="cls-1" points="12 22.5 12 16.77 12 14.86"/><polyline class="cls-1" points="12 9.14 12 7.23 12 1.5"/><line class="cls-1" x1="9.14" y1="1.5" x2="14.86" y2="1.5"/><line class="cls-1" x1="9.14" y1="22.5" x2="14.86" y2="22.5"/><polyline class="cls-1" points="14.86 4.36 12 7.23 9.14 4.36"/><polyline class="cls-1" points="9.14 19.64 12 16.77 14.86 19.64"/><polyline class="cls-1" points="21.1 17.25 16.13 14.39 14.48 13.43"/><polyline class="cls-1" points="9.52 10.57 7.87 9.61 2.9 6.75"/><line class="cls-1" x1="1.47" y1="9.23" x2="4.34" y2="4.27"/><line class="cls-1" x1="19.66" y1="19.73" x2="22.53" y2="14.77"/><polyline class="cls-1" points="6.82 5.7 7.87 9.61 3.96 10.66"/><polyline class="cls-1" points="17.18 18.3 16.13 14.39 20.05 13.34"/><polyline class="cls-1" points="2.9 17.25 7.87 14.39 9.52 13.43"/><polyline class="cls-1" points="14.48 10.57 16.13 9.61 21.1 6.75"/><line class="cls-1" x1="22.53" y1="9.23" x2="19.66" y2="4.27"/><line class="cls-1" x1="4.34" y1="19.73" x2="1.47" y2="14.77"/><polyline class="cls-1" points="17.18 5.7 16.13 9.61 20.05 10.66"/><polyline class="cls-1" points="6.82 18.3 7.87 14.39 3.96 13.34"/><path class="cls-1" d="M14.86,12a2.88,2.88,0,0,1-.38,1.43,2.87,2.87,0,0,1-5,0,2.88,2.88,0,0,1,0-2.86,2.87,2.87,0,0,1,5,0A2.88,2.88,0,0,1,14.86,12Z"/></svg>