<svg id="Layer_1" data-name="Layer 1" xmlns="http://www.w3.org/2000/svg" viewBox="0 0 24 24"><defs><style>.cls-1{fill:none;stroke:#020202;stroke-miterlimit:10;stroke-width:1.92px;}</style></defs><line class="cls-1" x1="18.72" y1="0.5" x2="18.72" y2="6.25"/><line class="cls-1" x1="16.23" y1="4.81" x2="21.21" y2="1.94"/><line class="cls-1" x1="21.21" y1="4.81" x2="16.23" y2="1.94"/><line class="cls-1" x1="3.86" y1="3.85" x2="3.86" y2="9.6"/><line class="cls-1" x1="1.37" y1="8.17" x2="6.35" y2="5.29"/><line class="cls-1" x1="6.35" y1="8.17" x2="1.37" y2="5.29"/><line class="cls-1" x1="12.01" y1="9.13" x2="12.01" y2="14.88"/><line class="cls-1" x1="9.52" y1="13.44" x2="14.5" y2="10.56"/><line class="cls-1" x1="14.5" y1="13.44" x2="9.52" y2="10.56"/><line class="cls-1" x1="8.18" y1="17.75" x2="8.18" y2="23.5"/><line class="cls-1" x1="5.69" y1="22.06" x2="10.67" y2="19.19"/><line class="cls-1" x1="10.67" y1="22.06" x2="5.69" y2="19.19"/><line class="cls-1" x1="20.64" y1="15.83" x2="20.64" y2="21.58"/><line class="cls-1" x1="18.15" y1="20.15" x2="23.13" y2="17.27"/><line class="cls-1" x1="23.13" y1="20.15" x2="18.15" y2="17.27"/></svg>