<svg id="Layer_1" data-name="Layer 1" xmlns="http://www.w3.org/2000/svg" viewBox="0 0 24 24"><defs><style>.cls-1{fill:none;stroke:#020202;stroke-miterlimit:10;stroke-width:1.91px;}</style></defs><path class="cls-1" d="M14.39,1.5A7.16,7.16,0,0,0,7.23,8.66v1.91a2.39,2.39,0,0,0-4.78,0,8,8,0,0,0,2.37,5.7l2.41,2.41H21.55v-10A7.17,7.17,0,0,0,14.39,1.5Z"/><path class="cls-1" d="M7.23,18.68H21.55a0,0,0,0,1,0,0v2.86a1,1,0,0,1-1,1H8.18a1,1,0,0,1-1-1V18.68A0,0,0,0,1,7.23,18.68Z"/><line class="cls-1" x1="7.23" y1="12.95" x2="7.23" y2="10.09"/></svg>