<svg id="Layer_1" data-name="Layer 1" xmlns="http://www.w3.org/2000/svg" viewBox="0 0 24 24"><defs><style>.cls-1{fill:none;stroke:#020202;stroke-miterlimit:10;stroke-width:1.91px;}</style></defs><path class="cls-1" d="M20.8,18l-6.89.77-.2-.41a1.92,1.92,0,0,0-3.42,0l-.2.41L3.2,18a1.91,1.91,0,0,1-1.7-1.9V9.18A1.91,1.91,0,0,1,3.41,7.27H20.59A1.91,1.91,0,0,1,22.5,9.18v6.88A1.91,1.91,0,0,1,20.8,18Z"/><line class="cls-1" x1="4.36" y1="10.14" x2="8.18" y2="13.95"/><line class="cls-1" x1="10.09" y1="10.14" x2="13.91" y2="13.95"/><line class="cls-1" x1="15.82" y1="10.14" x2="19.64" y2="13.95"/></svg>