<svg id="Layer_1" data-name="Layer 1" xmlns="http://www.w3.org/2000/svg" viewBox="0 0 24 24"><defs><style>.cls-1{fill:none;stroke:#020202;stroke-miterlimit:10;stroke-width:1.91px;}</style></defs><path class="cls-1" d="M12,5.33h0a8.61,8.61,0,0,1,8.61,8.61v1a0,0,0,0,1,0,0H3.39a0,0,0,0,1,0,0v-1A8.61,8.61,0,0,1,12,5.33Z"/><path class="cls-1" d="M12,5.33h0a8.61,8.61,0,0,1,8.61,8.61v1a0,0,0,0,1,0,0H3.39a0,0,0,0,1,0,0v-1A8.61,8.61,0,0,1,12,5.33Z"/><path class="cls-1" d="M14.53,5.71a2.75,2.75,0,0,0,.34-1.34,2.87,2.87,0,1,0-5.74,0,2.75,2.75,0,0,0,.34,1.34"/><path class="cls-1" d="M3.39,14.89H7.22a0,0,0,0,1,0,0v1a3.83,3.83,0,0,1-3.83,3.83h0a0,0,0,0,1,0,0V14.89A0,0,0,0,1,3.39,14.89Z"/><path class="cls-1" d="M16.78,14.89h0a3.83,3.83,0,0,1,3.83,3.83v1a0,0,0,0,1,0,0H16.78a0,0,0,0,1,0,0V14.89A0,0,0,0,1,16.78,14.89Z" transform="translate(37.39 34.57) rotate(180)"/><line class="cls-1" x1="22.52" y1="14.89" x2="1.48" y2="14.89"/><line class="cls-1" x1="3.39" y1="23.5" x2="3.39" y2="19.67"/><line class="cls-1" x1="20.61" y1="23.5" x2="20.61" y2="19.67"/><line class="cls-1" x1="7.22" y1="11.07" x2="9.13" y2="11.07"/><line class="cls-1" x1="11.04" y1="11.07" x2="12.96" y2="11.07"/><line class="cls-1" x1="14.87" y1="11.07" x2="16.78" y2="11.07"/></svg>