<svg id="Layer_1" data-name="Layer 1" xmlns="http://www.w3.org/2000/svg" viewBox="0 0 24 24"><defs><style>.cls-1{fill:none;stroke:#020202;stroke-miterlimit:10;stroke-width:1.91px;}</style></defs><polyline class="cls-1" points="14.39 1 12 3.39 9.61 1"/><polyline class="cls-1" points="9.61 23 12 20.61 14.39 23"/><line class="cls-1" x1="12" y1="20.61" x2="12" y2="15.31"/><line class="cls-1" x1="12" y1="8.69" x2="12" y2="3.39"/><line class="cls-1" x1="10.09" y1="5.3" x2="13.91" y2="5.3"/><line class="cls-1" x1="10.09" y1="18.7" x2="13.91" y2="18.7"/><polyline class="cls-1" points="3.67 4.43 4.54 7.7 1.28 8.57"/><polyline class="cls-1" points="20.33 19.57 19.45 16.3 22.72 15.43"/><line class="cls-1" x1="19.45" y1="16.3" x2="14.87" y2="13.65"/><line class="cls-1" x1="9.13" y1="10.35" x2="4.55" y2="7.7"/><line class="cls-1" x1="5.24" y1="10.31" x2="7.16" y2="7"/><line class="cls-1" x1="16.84" y1="17" x2="18.76" y2="13.69"/><polyline class="cls-1" points="20.33 4.43 19.45 7.7 22.72 8.57"/><polyline class="cls-1" points="3.67 19.57 4.54 16.3 1.28 15.43"/><line class="cls-1" x1="9.13" y1="13.65" x2="4.55" y2="16.3"/><line class="cls-1" x1="19.45" y1="7.7" x2="14.87" y2="10.35"/><line class="cls-1" x1="18.75" y1="10.31" x2="16.84" y2="7"/><line class="cls-1" x1="7.16" y1="17" x2="5.24" y2="13.69"/><polygon class="cls-1" points="14.87 10.35 14.87 13.65 12 15.31 9.13 13.65 9.13 10.35 12 8.69 14.87 10.35"/><circle class="cls-1" cx="2.43" cy="12" r="0.96"/><circle class="cls-1" cx="21.57" cy="12" r="0.96"/><circle class="cls-1" cx="7.22" cy="20.28" r="0.96"/><circle class="cls-1" cx="16.78" cy="3.72" r="0.96"/><circle class="cls-1" cx="16.78" cy="20.28" r="0.96"/><circle class="cls-1" cx="7.22" cy="3.72" r="0.96"/></svg>