<svg id="Layer_1" data-name="Layer 1" xmlns="http://www.w3.org/2000/svg" viewBox="0 0 24 24"><defs><style>.cls-1{fill:none;stroke:#020202;stroke-miterlimit:10;stroke-width:1.91px;}</style></defs><path class="cls-1" d="M3.41,6.27H20.59a0,0,0,0,1,0,0V20.59a1.91,1.91,0,0,1-1.91,1.91H5.32a1.91,1.91,0,0,1-1.91-1.91V6.27A0,0,0,0,1,3.41,6.27Z"/><path class="cls-1" d="M8.18,9.14V5.32A3.82,3.82,0,0,1,12,1.5h0a3.82,3.82,0,0,1,3.82,3.82V9.14"/><line class="cls-1" x1="12" y1="12" x2="12" y2="17.73"/><polyline class="cls-1" points="13.91 10.09 12 12 10.09 10.09"/><polyline class="cls-1" points="10.09 19.64 12 17.73 13.91 19.64"/><line class="cls-1" x1="14.86" y1="14.86" x2="9.14" y2="14.86"/><polyline class="cls-1" points="16.77 16.77 14.86 14.86 16.77 12.96"/><polyline class="cls-1" points="7.23 12.96 9.14 14.86 7.23 16.77"/><circle class="cls-1" cx="12" cy="14.86" r="0.95"/></svg>