<svg id="Layer_1" data-name="Layer 1" xmlns="http://www.w3.org/2000/svg" viewBox="0 0 24 24"><defs><style>.cls-1{fill:none;stroke:#020202;stroke-miterlimit:10;stroke-width:1.91px;}</style></defs><rect class="cls-1" x="1.48" y="1.5" width="21.04" height="7.65" rx="1.91"/><path class="cls-1" d="M13,9.15h7.65a0,0,0,0,1,0,0v9.57a1.91,1.91,0,0,1-1.91,1.91H14.87A1.91,1.91,0,0,1,13,18.72V9.15A0,0,0,0,1,13,9.15Z"/><line class="cls-1" x1="16.78" y1="23.5" x2="16.78" y2="20.63"/><line class="cls-1" x1="12.96" y1="23.5" x2="12.96" y2="18.72"/><line class="cls-1" x1="20.61" y1="23.5" x2="20.61" y2="18.72"/><line class="cls-1" x1="3.39" y1="4.37" x2="5.3" y2="6.28"/><line class="cls-1" x1="7.22" y1="4.37" x2="9.13" y2="6.28"/><line class="cls-1" x1="11.04" y1="4.37" x2="12.96" y2="6.28"/><line class="cls-1" x1="14.87" y1="4.37" x2="16.78" y2="6.28"/><line class="cls-1" x1="18.7" y1="4.37" x2="20.61" y2="6.28"/><line class="cls-1" x1="15.83" y1="15.85" x2="17.74" y2="17.76"/><line class="cls-1" x1="15.83" y1="12.02" x2="17.74" y2="13.93"/></svg>