<svg id="Layer_1" data-name="Layer 1" xmlns="http://www.w3.org/2000/svg" viewBox="0 0 24 24"><defs><style>.cls-1{fill:none;stroke:#020202;stroke-miterlimit:10;stroke-width:1.91px;}</style></defs><line class="cls-1" x1="12" y1="3.41" x2="12" y2="20.59"/><circle class="cls-1" cx="12" cy="2.45" r="0.95"/><circle class="cls-1" cx="12" cy="2.45" r="0.95"/><circle class="cls-1" cx="12" cy="21.55" r="0.95"/><polyline class="cls-1" points="14.39 5.79 12 8.18 9.61 5.79"/><polyline class="cls-1" points="9.61 18.2 12 15.82 14.39 18.2"/><line class="cls-1" x1="4.56" y1="7.7" x2="19.44" y2="16.3"/><circle class="cls-1" cx="3.73" cy="7.23" r="0.95"/><circle class="cls-1" cx="3.73" cy="7.23" r="0.95"/><circle class="cls-1" cx="20.27" cy="16.77" r="0.95"/><polyline class="cls-1" points="7.82 6.83 8.69 10.09 5.43 10.96"/><polyline class="cls-1" points="16.18 17.17 15.31 13.91 18.57 13.04"/><line class="cls-1" x1="19.44" y1="7.7" x2="4.56" y2="16.3"/><circle class="cls-1" cx="20.27" cy="7.23" r="0.95"/><circle class="cls-1" cx="20.27" cy="7.23" r="0.95"/><circle class="cls-1" cx="3.73" cy="16.77" r="0.95"/><polyline class="cls-1" points="16.18 6.83 15.31 10.09 18.57 10.96"/><polyline class="cls-1" points="7.82 17.17 8.69 13.91 5.43 13.04"/><path class="cls-1" d="M23.45,12h0Z"/><path class="cls-1" d="M2.45,12h0Z"/><path class="cls-1" d="M17.73,2.08l-.48.83-.48.82.48-.82Z"/><path class="cls-1" d="M7.23,20.27l-.48.82-.48.83.48-.83Z"/><path class="cls-1" d="M6.27,2.08l.48.83.48.82-.48-.82Z"/><path class="cls-1" d="M16.77,20.27l.48.82.48.83-.48-.83Z"/></svg>