<svg id="Layer_1" data-name="Layer 1" xmlns="http://www.w3.org/2000/svg" viewBox="0 0 24 24"><defs><style>.cls-1{fill:none;stroke:#020202;stroke-miterlimit:10;stroke-width:1.91px;}</style></defs><path class="cls-1" d="M8.18,1.5h1A2.86,2.86,0,0,1,12,4.36v1a0,0,0,0,1,0,0H8.18a0,0,0,0,1,0,0V1.5A0,0,0,0,1,8.18,1.5Z"/><path class="cls-1" d="M14.86,1.5h1a0,0,0,0,1,0,0V5.32a0,0,0,0,1,0,0H12a0,0,0,0,1,0,0v-1A2.86,2.86,0,0,1,14.86,1.5Z"/><path class="cls-1" d="M15.89,5.32H8.11A5.59,5.59,0,0,0,3.24,8,13,13,0,0,0,1.5,14.54v6.05H5.32A1.9,1.9,0,0,0,7.23,22.5h9.54a1.9,1.9,0,0,0,1.91-1.91H22.5V14.54A13,13,0,0,0,20.76,8,5.59,5.59,0,0,0,15.89,5.32Z"/><line class="cls-1" x1="5.32" y1="11.05" x2="5.32" y2="20.59"/><line class="cls-1" x1="18.68" y1="11.05" x2="18.68" y2="20.59"/><line class="cls-1" x1="12" y1="5.32" x2="12" y2="22.5"/><line class="cls-1" x1="9.14" y1="17.73" x2="5.32" y2="17.73"/><line class="cls-1" x1="18.68" y1="17.73" x2="14.86" y2="17.73"/></svg>