<svg id="Layer_1" data-name="Layer 1" xmlns="http://www.w3.org/2000/svg" viewBox="0 0 24 24"><defs><style>.cls-1{fill:none;stroke:#020202;stroke-miterlimit:10;stroke-width:2px;}</style></defs><polyline class="cls-1" points="12 20 12 18 12 15"/><polyline class="cls-1" points="12 9 12 6 12 4"/><polyline class="cls-1" points="15 1 12 4 9 1"/><polyline class="cls-1" points="9 23 12 20 15 23"/><line class="cls-1" x1="10" y1="18" x2="14" y2="18"/><line class="cls-1" x1="10" y1="6" x2="14" y2="6"/><polyline class="cls-1" points="18.93 16 17.2 15 14.6 13.5"/><polyline class="cls-1" points="9.4 10.5 6.8 9 5.07 8"/><polyline class="cls-1" points="3.97 3.9 5.07 8 0.97 9.1"/><polyline class="cls-1" points="20.03 20.1 18.93 16 23.03 14.9"/><line class="cls-1" x1="16.2" y1="16.73" x2="18.2" y2="13.27"/><line class="cls-1" x1="5.8" y1="10.73" x2="7.8" y2="7.27"/><polyline class="cls-1" points="5.07 16 6.8 15 9.4 13.5"/><polyline class="cls-1" points="14.6 10.5 17.2 9 18.93 8"/><polyline class="cls-1" points="20.03 3.9 18.93 8 23.03 9.1"/><polyline class="cls-1" points="3.97 20.1 5.07 16 0.97 14.9"/><line class="cls-1" x1="7.8" y1="16.73" x2="5.8" y2="13.27"/><line class="cls-1" x1="18.2" y1="10.73" x2="16.2" y2="7.27"/><path class="cls-1" d="M15,12a3,3,0,1,1-.4-1.5A3,3,0,0,1,15,12Z"/></svg>