<svg id="Layer_1" data-name="Layer 1" xmlns="http://www.w3.org/2000/svg" viewBox="0 0 24 24"><defs><style>.cls-1{fill:none;stroke:#020202;stroke-miterlimit:10;stroke-width:1.91px;}</style></defs><path class="cls-1" d="M14.86,1.5H9.14A7.64,7.64,0,0,0,1.5,9.14V20.59H5.32V22.5H18.68V20.59H22.5V9.14A7.64,7.64,0,0,0,14.86,1.5Z"/><line class="cls-1" x1="5.32" y1="7.23" x2="5.32" y2="20.59"/><line class="cls-1" x1="18.68" y1="7.23" x2="18.68" y2="20.59"/><path class="cls-1" d="M9.14,1.5c0,2.11,1.28,3.82,2.86,3.82s2.86-1.71,2.86-3.82"/><line class="cls-1" x1="12" y1="11.05" x2="12" y2="16.77"/><polyline class="cls-1" points="13.91 9.14 12 11.04 10.09 9.14"/><polyline class="cls-1" points="10.09 18.68 12 16.77 13.91 18.68"/><line class="cls-1" x1="14.86" y1="13.91" x2="9.14" y2="13.91"/><polyline class="cls-1" points="16.77 15.82 14.86 13.91 16.77 12"/><polyline class="cls-1" points="7.23 12 9.14 13.91 7.23 15.82"/><circle class="cls-1" cx="12" cy="13.91" r="0.95"/></svg>