<svg id="Layer_1" data-name="Layer 1" xmlns="http://www.w3.org/2000/svg" viewBox="0 0 24 24"><defs><style>.cls-1{fill:none;stroke:#020202;stroke-miterlimit:10;stroke-width:1.91px;}</style></defs><line class="cls-1" x1="12" y1="3.39" x2="12" y2="20.61"/><polyline class="cls-1" points="14.39 1 12 3.39 9.61 1"/><polyline class="cls-1" points="14.87 5.3 12 8.17 9.13 5.3"/><polyline class="cls-1" points="9.61 23 12 20.61 14.39 23"/><polyline class="cls-1" points="9.13 18.7 12 15.83 14.87 18.7"/><line class="cls-1" x1="4.54" y1="7.7" x2="19.46" y2="16.3"/><polyline class="cls-1" points="3.67 4.43 4.54 7.7 1.28 8.57"/><polyline class="cls-1" points="7.64 6.17 8.69 10.09 4.77 11.14"/><polyline class="cls-1" points="20.33 19.57 19.45 16.3 22.72 15.43"/><polyline class="cls-1" points="16.36 17.83 15.31 13.91 19.23 12.86"/><line class="cls-1" x1="19.46" y1="7.7" x2="4.54" y2="16.3"/><polyline class="cls-1" points="20.33 4.43 19.45 7.7 22.72 8.57"/><polyline class="cls-1" points="16.36 6.17 15.31 10.09 19.23 11.14"/><polyline class="cls-1" points="3.67 19.57 4.54 16.3 1.28 15.43"/><polyline class="cls-1" points="7.64 17.83 8.69 13.91 4.77 12.86"/><line class="cls-1" x1="0.52" y1="12" x2="2.43" y2="12"/><line class="cls-1" x1="21.57" y1="12" x2="23.48" y2="12"/><line class="cls-1" x1="6.26" y1="21.94" x2="7.22" y2="20.28"/><line class="cls-1" x1="16.78" y1="3.72" x2="17.74" y2="2.06"/><line class="cls-1" x1="17.74" y1="21.94" x2="16.78" y2="20.28"/><line class="cls-1" x1="7.22" y1="3.72" x2="6.26" y2="2.06"/></svg>