<svg id="Layer_1" data-name="Layer 1" xmlns="http://www.w3.org/2000/svg" viewBox="0 0 24 24"><defs><style>.cls-1{fill:none;stroke:#020202;stroke-miterlimit:10;stroke-width:1.91px;}</style></defs><path class="cls-1" d="M11.8,5.32A10.73,10.73,0,0,0,1.5,16.17v4.32a2,2,0,0,0,1.59,2,1.91,1.91,0,0,0,2.23-1.88v-.1a2.75,2.75,0,0,1,2.76-2.76h7.84a2.75,2.75,0,0,1,2.76,2.76h0a2,2,0,0,0,1.59,2,1.9,1.9,0,0,0,2.23-1.88V15.82A10.5,10.5,0,0,0,11.8,5.32Z"/><line class="cls-1" x1="9.14" y1="13.91" x2="11.05" y2="13.91"/><line class="cls-1" x1="5.32" y1="13.91" x2="7.23" y2="13.91"/><line class="cls-1" x1="12.95" y1="13.91" x2="14.86" y2="13.91"/><line class="cls-1" x1="16.77" y1="13.91" x2="18.68" y2="13.91"/><path class="cls-1" d="M13.78,5.47a2.34,2.34,0,0,0,.61-1.58,2.39,2.39,0,0,0-4.78,0,2.34,2.34,0,0,0,.61,1.58"/><line class="cls-1" x1="20.59" y1="13.91" x2="22.5" y2="13.91"/><line class="cls-1" x1="1.5" y1="13.91" x2="3.41" y2="13.91"/></svg>