<svg id="Layer_1" data-name="Layer 1" xmlns="http://www.w3.org/2000/svg" viewBox="0 0 24 24"><defs><style>.cls-1{fill:none;stroke:currentColor;stroke-miterlimit:10;stroke-width:1.91px;}</style></defs><path class="cls-1" d="M12,23.5V18a2.87,2.87,0,0,0-.84-2L8.57,13.37a1.93,1.93,0,0,0-2.71,0h0a2,2,0,0,0-.56,1.36h0a2.71,2.71,0,0,0,.8,1.91l2.07,2.08"/><path class="cls-1" d="M5.3,23.5v-1l-3-3a2.87,2.87,0,0,1-.84-2V10.11A1.9,1.9,0,0,1,3.39,8.2h0A1.9,1.9,0,0,1,5.3,10.11v5.74l2.87,2.87"/><path class="cls-1" d="M12,23.5V18a2.87,2.87,0,0,1,.84-2l2.59-2.59a1.93,1.93,0,0,1,2.71,0h0a2,2,0,0,1,.56,1.36h0a2.71,2.71,0,0,1-.8,1.91l-2.07,2.08"/><path class="cls-1" d="M18.7,23.5v-1l3-3a2.87,2.87,0,0,0,.84-2V10.11A1.9,1.9,0,0,0,20.61,8.2h0a1.9,1.9,0,0,0-1.91,1.91v5.74l-2.87,2.87"/><polygon class="cls-1" points="17.74 4.37 12 11.06 6.26 4.37 8.17 1.5 15.83 1.5 17.74 4.37"/></svg>