<svg id="Layer_1" data-name="Layer 1" xmlns="http://www.w3.org/2000/svg" viewBox="0 0 24 24"><defs><style>.cls-1{fill:none;stroke:#020202;stroke-miterlimit:10;stroke-width:1.91px;}</style></defs><path class="cls-1" d="M10.09,3.41A1.91,1.91,0,0,1,12,1.5h0a1.91,1.91,0,0,1,1.91,1.91v.16a1.9,1.9,0,0,1-.56,1.35l-.79.79A1.92,1.92,0,0,0,12,7.06v.17"/><polyline class="cls-1" points="14.77 7.23 22.5 7.23 22.5 22.5 1.5 22.5 1.5 7.23 5.41 7.23"/><polyline class="cls-1" points="1.5 7.23 12 17.73 22.5 7.23"/><line class="cls-1" x1="9.14" y1="14.86" x2="1.5" y2="22.5"/><line class="cls-1" x1="22.5" y1="22.5" x2="14.86" y2="14.86"/><polyline class="cls-1" points="14.77 7.23 22.5 7.23 22.5 22.5 1.5 22.5 1.5 7.23 9.14 7.23"/><path class="cls-1" d="M13,9.14h0Z"/></svg>