<svg id="Layer_1" data-name="Layer 1" xmlns="http://www.w3.org/2000/svg" viewBox="0 0 24 24"><defs><style>.cls-1{fill:none;stroke:#020202;stroke-miterlimit:10;stroke-width:1.91px;}</style></defs><rect class="cls-1" x="9.14" y="5.32" width="5.73" height="4.77"/><path class="cls-1" d="M12,1.5h0a1.91,1.91,0,0,1,1.91,1.91V5.32a0,0,0,0,1,0,0H10.09a0,0,0,0,1,0,0V3.41A1.91,1.91,0,0,1,12,1.5Z"/><polyline class="cls-1" points="17.63 7.23 22.5 7.23 22.5 22.5 1.5 22.5 1.5 7.23 6.37 7.23"/><polyline class="cls-1" points="1.5 7.23 12 17.73 22.5 7.23"/><line class="cls-1" x1="9.14" y1="14.86" x2="1.5" y2="22.5"/><line class="cls-1" x1="22.5" y1="22.5" x2="14.86" y2="14.86"/><polyline class="cls-1" points="17.63 7.23 22.5 7.23 22.5 22.5 1.5 22.5 1.5 7.23 6.37 7.23"/></svg>