<svg id="Layer_1" data-name="Layer 1" xmlns="http://www.w3.org/2000/svg" viewBox="0 0 24 24"><defs><style>.cls-1{fill:none;stroke:#020202;stroke-miterlimit:10;stroke-width:1.91px;}</style></defs><path class="cls-1" d="M9.14,10.09h0A6.35,6.35,0,0,1,11,5.39l3.3-3.3A2,2,0,0,1,15.7,1.5h0a2,2,0,0,1,2,2h0A2,2,0,0,1,17.13,5l-3.3,3.3A6.35,6.35,0,0,1,9.14,10.09Z"/><polyline class="cls-1" points="18.59 7.23 22.5 7.23 22.5 22.5 1.5 22.5 1.5 7.23 7.32 7.23"/><polyline class="cls-1" points="1.5 7.23 12 17.73 22.5 7.23"/><line class="cls-1" x1="9.14" y1="14.86" x2="1.5" y2="22.5"/><line class="cls-1" x1="22.5" y1="22.5" x2="14.86" y2="14.86"/><polyline class="cls-1" points="18.59 7.23 22.5 7.23 22.5 22.5 1.5 22.5 1.5 7.23 7.32 7.23"/></svg>