<svg id="Layer_1" data-name="Layer 1" xmlns="http://www.w3.org/2000/svg" viewBox="0 0 24 24"><defs><style>.cls-1{fill:none;stroke:#020202;stroke-miterlimit:10;stroke-width:1.91px;}</style></defs><path class="cls-1" d="M20.59,6.27A1.92,1.92,0,0,0,22.5,8.18v1.91a1.91,1.91,0,0,0,0,3.82v1.91a1.91,1.91,0,0,0,0,3.82V22.5H19.64a1.91,1.91,0,0,0-3.82,0H13.91a1.91,1.91,0,0,0-3.82,0H8.18a1.91,1.91,0,0,0-3.82,0H1.5V19.64a1.91,1.91,0,0,0,0-3.82V13.91a1.91,1.91,0,0,0,0-3.82V8.18a1.91,1.91,0,0,0,0-3.82V1.5H4.36a1.91,1.91,0,1,0,3.82,0h1.91a1.91,1.91,0,0,0,3.82,0h1.91a1.91,1.91,0,0,0,3.82,0H22.5V4.36A1.92,1.92,0,0,0,20.59,6.27Z"/><path class="cls-1" d="M13,11.05l1.59.95a3.12,3.12,0,0,0,3.19,0,3,3,0,0,1,1.58-.44,2.93,2.93,0,0,1,1.29.29"/><path class="cls-1" d="M20.82,7.19a5.66,5.66,0,0,0-1.51-.4,3,3,0,0,0-1.58.44,3.12,3.12,0,0,1-3.19,0L13,6.27"/><path class="cls-1" d="M13,15.82l1.59.95a3.1,3.1,0,0,0,3.19,0,3.06,3.06,0,0,1,3.13,0"/></svg>