<svg id="Layer_1" data-name="Layer 1" xmlns="http://www.w3.org/2000/svg" viewBox="0 0 24 24"><defs><style>.cls-1{fill:none;stroke:#020202;stroke-miterlimit:10;stroke-width:1.91px;}</style></defs><rect class="cls-1" x="10.09" y="1.52" width="3.82" height="12.41" rx="1.91"/><rect class="cls-1" x="1.5" y="4.39" width="4.77" height="7.64"/><rect class="cls-1" x="17.73" y="4.39" width="4.77" height="7.64"/><line class="cls-1" x1="7.23" y1="8.2" x2="10.09" y2="8.2"/><line class="cls-1" x1="16.77" y1="8.2" x2="13.91" y2="8.2"/><line class="cls-1" x1="12" y1="16.8" x2="12" y2="13.93"/><path class="cls-1" d="M12,16.8h0a3.82,3.82,0,0,1,3.82,3.82v0a0,0,0,0,1,0,0H8.18a0,0,0,0,1,0,0v0A3.82,3.82,0,0,1,12,16.8Z"/><line class="cls-1" x1="12" y1="23.48" x2="12" y2="20.61"/></svg>