<svg id="Layer_1" data-name="Layer 1" xmlns="http://www.w3.org/2000/svg" viewBox="0 0 24 24"><defs><style>.cls-1{fill:none;stroke:#020202;stroke-miterlimit:10;stroke-width:1.91px;}</style></defs><polygon class="cls-1" points="12 2.48 13.18 4.99 15.82 5.39 13.91 7.35 14.36 10.11 12 8.81 9.64 10.11 10.09 7.35 8.18 5.39 10.82 4.99 12 2.48"/><polyline class="cls-1" points="18.59 7.25 22.5 7.25 22.5 22.52 1.5 22.52 1.5 7.25 5.41 7.25"/><polyline class="cls-1" points="1.5 7.25 12 17.75 22.5 7.25"/><line class="cls-1" x1="9.14" y1="14.89" x2="1.5" y2="22.52"/><line class="cls-1" x1="22.5" y1="22.52" x2="14.86" y2="14.89"/><polyline class="cls-1" points="18.59 7.25 22.5 7.25 22.5 22.52 1.5 22.52 1.5 7.25 5.41 7.25"/></svg>