<svg id="Layer_1" data-name="Layer 1" xmlns="http://www.w3.org/2000/svg" viewBox="0 0 24 24"><defs><style>.cls-1{fill:none;stroke:#020202;stroke-miterlimit:10;stroke-width:1.91px;}</style></defs><line class="cls-1" x1="9.14" y1="19.64" x2="14.86" y2="19.64"/><path class="cls-1" d="M4.36,12H19.64a0,0,0,0,1,0,0v8.59a1.91,1.91,0,0,1-1.91,1.91H6.27a1.91,1.91,0,0,1-1.91-1.91V12A0,0,0,0,1,4.36,12Z"/><line class="cls-1" x1="1.5" y1="12" x2="22.5" y2="12"/><line class="cls-1" x1="22.5" y1="10.09" x2="22.5" y2="13.91"/><line class="cls-1" x1="1.5" y1="10.09" x2="1.5" y2="13.91"/><rect class="cls-1" x="6.27" y="1.5" width="11.45" height="10.5"/><path class="cls-1" d="M14.86,5.32h0Z"/><path class="cls-1" d="M14.86,9.14h0Z"/><line class="cls-1" x1="7.23" y1="15.82" x2="9.14" y2="15.82"/><line class="cls-1" x1="11.05" y1="15.82" x2="12.95" y2="15.82"/><line class="cls-1" x1="14.86" y1="15.82" x2="16.77" y2="15.82"/></svg>