<svg id="Layer_1" data-name="Layer 1" xmlns="http://www.w3.org/2000/svg" viewBox="0 0 24 24"><defs><style>.cls-1{fill:none;stroke:#020202;stroke-miterlimit:10;stroke-width:1.91px;}</style></defs><path class="cls-1" d="M13.43,7.9a2.68,2.68,0,0,1,2.67,2.67"/><path class="cls-1" d="M13.43,4.7a5.87,5.87,0,0,1,5.87,5.87"/><path class="cls-1" d="M13.43,1.5a9.07,9.07,0,0,1,9.07,9.07"/><path class="cls-1" d="M18.75,21.38c-2.43,2.42-8,.79-12.46-3.67S.2,7.68,2.62,5.25L5.28,2.59l5.13,5.13L8.49,9.66a2.07,2.07,0,0,0,0,2.92l2.93,2.93a2.07,2.07,0,0,0,2.92,0l1.94-1.92,5.13,5.13Z"/></svg>