<svg id="Layer_1" data-name="Layer 1" xmlns="http://www.w3.org/2000/svg" viewBox="0 0 24 24"><defs><style>.cls-1{fill:none;stroke:#020202;stroke-miterlimit:10;stroke-width:1.91px;}</style></defs><path class="cls-1" d="M1.5,5.32H6.92a3.17,3.17,0,0,1,3.17,3.17v.34A3.17,3.17,0,0,1,6.92,12H1.5a0,0,0,0,1,0,0V5.32A0,0,0,0,1,1.5,5.32Z"/><path class="cls-1" d="M1.5,12H7.7A3.34,3.34,0,0,1,11,15.34v0A3.34,3.34,0,0,1,7.7,18.68H1.5a0,0,0,0,1,0,0V12A0,0,0,0,1,1.5,12Z"/><path class="cls-1" d="M13.91,13.91H22.5a4.55,4.55,0,0,0-4.3-4.77,4.55,4.55,0,0,0-4.29,4.77,4.55,4.55,0,0,0,4.29,4.77,4.13,4.13,0,0,0,3.43-1.91"/><line class="cls-1" x1="13.91" y1="6.27" x2="22.5" y2="6.27"/></svg>