<svg id="Layer_1" data-name="Layer 1" xmlns="http://www.w3.org/2000/svg" viewBox="0 0 24 24"><defs><style>.cls-1{fill:none;stroke:#020202;stroke-miterlimit:10;stroke-width:1.91px;}</style></defs><path class="cls-1" d="M18.68,9.14V5.55a4,4,0,0,0-4-4H5.55a4,4,0,0,0-4,4.05V18.68A3.82,3.82,0,0,0,5.32,22.5H18.68a3.82,3.82,0,0,0,3.82-3.82V13a1.9,1.9,0,0,0-1.91-1.9h0A1.92,1.92,0,0,1,18.68,9.14Z"/><rect class="cls-1" x="6.27" y="6.27" width="7.64" height="3.82" rx="1.91"/><rect class="cls-1" x="6.27" y="14.86" width="10.5" height="3.82" rx="1.91"/></svg>