<svg id="Layer_1" data-name="Layer 1" xmlns="http://www.w3.org/2000/svg" viewBox="0 0 24 24"><defs><style>.cls-1{fill:none;stroke:#020202;stroke-miterlimit:10;stroke-width:1.83px;}</style></defs><path class="cls-1" d="M5.26,15.38A4.91,4.91,0,0,0,7,15.7a5,5,0,1,0-5-5,4.8,4.8,0,0,0,.52,2.21"/><circle class="cls-1" cx="7.02" cy="10.67" r="1.37"/><path class="cls-1" d="M2,23V20.63a12.15,12.15,0,0,1,4.57-9.5h0"/><path class="cls-1" d="M20.74,6.78a3,3,0,0,0,.43-1.58,3.2,3.2,0,1,0-3.78,3.14"/><path class="cls-1" d="M18,5.2l.08.23A9.83,9.83,0,0,0,23,11.13h0"/><circle class="cls-1" cx="17.98" cy="5.2" r="0.46"/></svg>