<svg id="Layer_1" data-name="Layer 1" xmlns="http://www.w3.org/2000/svg" viewBox="0 0 24 24"><defs><style>.cls-1{fill:none;stroke:#020202;stroke-miterlimit:10;stroke-width:1.9px;}</style></defs><path class="cls-1" d="M18.61,6.89a3.31,3.31,0,0,1,0,.55v0a2.41,2.41,0,0,1-.08.44c0,.15-.08.3-.13.44a2.18,2.18,0,0,1-.09.23c-.07.15-.13.3-.22.46a0,0,0,0,0,0,0h0a12.18,12.18,0,0,1-12,0l-.06,0h0a4.09,4.09,0,0,1-.23-.47,2.09,2.09,0,0,1-.08-.23,3.22,3.22,0,0,1-.14-.44c0-.15-.06-.3-.08-.44v0a3.31,3.31,0,0,1,0-.55c0-2.95,3-5.34,6.63-5.34S18.61,3.94,18.61,6.89Z"/><path class="cls-1" d="M18.61,15.8A6.63,6.63,0,1,1,6.28,12.42a19,19,0,0,0,2.42.73,15.07,15.07,0,0,0,2.58.34,15.78,15.78,0,0,0,6.4-1.08A6.6,6.6,0,0,1,18.61,15.8Z"/><path class="cls-1" d="M18.61,6.89a3.31,3.31,0,0,1,0,.55v0a2.41,2.41,0,0,1-.08.44c0,.15-.08.3-.13.44a2.18,2.18,0,0,1-.09.23c-.07.15-.13.3-.22.46a0,0,0,0,0,0,0h0a12.18,12.18,0,0,1-12,0l-.06,0h0a4.09,4.09,0,0,1-.23-.47,2.09,2.09,0,0,1-.08-.23,3.22,3.22,0,0,1-.14-.44c0-.15-.06-.3-.08-.44v0a3.31,3.31,0,0,1,0-.55c0-2.95,3-5.34,6.63-5.34S18.61,3.94,18.61,6.89Z"/><path class="cls-1" d="M20.19,10.35a1.49,1.49,0,0,1-.85,1.34c-.55.27-1.11.51-1.66.72a15.78,15.78,0,0,1-6.4,1.08,15.07,15.07,0,0,1-2.58-.34,19,19,0,0,1-2.42-.73c-.55-.22-1.09-.46-1.64-.73a1.51,1.51,0,0,1-.43-.32,1.45,1.45,0,0,1-.3-1.53A1.43,1.43,0,0,1,5.27,8.9a1.51,1.51,0,0,1,.65.15h0l.06,0a12.18,12.18,0,0,0,12,0h0a0,0,0,0,1,0,0,1.48,1.48,0,0,1,2,.79A1.37,1.37,0,0,1,20.19,10.35Z"/><path class="cls-1" d="M8.7,13.15a10.34,10.34,0,0,1-1.45,3.6c-1,.95,2.85.95,2.85.95a20.56,20.56,0,0,0,1.18-4.21"/><path class="cls-1" d="M4.4,11.05s-3,4.75-1.48,7.6"/><path class="cls-1" d="M19.6,11.05s3,4.75,1.48,7.6"/><path class="cls-1" d="M6.56,19.61c-1.21.07-2.16.67-2.16,1.41s1.06,1.43,2.38,1.43a2.8,2.8,0,0,0,2.1-.77"/><path class="cls-1" d="M17.41,19.61c1.22.05,2.19.66,2.19,1.41s-1.06,1.43-2.38,1.43a2.77,2.77,0,0,1-2.11-.78"/></svg>