<svg id="Layer_1" data-name="Layer 1" xmlns="http://www.w3.org/2000/svg" viewBox="0 0 24 24"><defs><style>.cls-1{fill:none;stroke:#020202;stroke-miterlimit:10;stroke-width:1.91px;}</style></defs><path class="cls-1" d="M8.18,14.39c0,1.31,1.71,2.38,3.82,2.38s3.82-1.07,3.82-2.38S14.11,12,12,12,8.18,10.93,8.18,9.61,9.89,7.23,12,7.23s3.82,1.07,3.82,2.38"/><path class="cls-1" d="M21.21,14.48A9.51,9.51,0,0,0,12,2.45a9.64,9.64,0,0,0-2.48.34A4.76,4.76,0,0,0,2.79,9.52a9.51,9.51,0,0,0,9.21,12,9.64,9.64,0,0,0,2.48-.34,4.76,4.76,0,0,0,6.73-6.73Z"/></svg>