<svg id="Layer_1" data-name="Layer 1" xmlns="http://www.w3.org/2000/svg" viewBox="0 0 24 24"><defs><style>.cls-1{fill:none;stroke:#020202;stroke-miterlimit:10;stroke-width:1.91px;}</style></defs><path class="cls-1" d="M1.5,9.14a9.92,9.92,0,0,0,3.82.95c1.91,0,0-2.86.95-5.73S12,1.5,12,1.5s4.77,0,5.73,2.86-1,5.73.95,5.73a9.92,9.92,0,0,0,3.82-.95"/><path class="cls-1" d="M6.27,12a4.18,4.18,0,0,1-2.86,3.82c-2.86.95-1.91,2.86-1,2.86h1c1,0,0,1.91,1,1.91s3.27-.55,4.78,1A3.51,3.51,0,0,0,12,22.5a3.51,3.51,0,0,0,2.86-.95c1.51-1.51,3.82-1,4.78-1s0-1.91.95-1.91h1c.95,0,1.9-1.91-1-2.86A4.18,4.18,0,0,1,17.73,12"/></svg>