<svg id="Layer_1" data-name="Layer 1" xmlns="http://www.w3.org/2000/svg" viewBox="0 0 24 24"><defs><style>.cls-1{fill:none;stroke:#020202;stroke-miterlimit:10;stroke-width:1.91px;}</style></defs><path class="cls-1" d="M12,9.14S13.73,3,7.23,6.27A10.21,10.21,0,0,0,1.5,14.86c0,2.87,2.86,5.73,7.64,5.73s9.76-1.84,10.5-4.77C20.59,12,16.77,12,16.77,12s1.21-2.26,0-2.86C14.86,8.18,12,9.14,12,9.14Z"/><path class="cls-1" d="M19.15,9.44a1.87,1.87,0,0,0,.49-1.26,1.91,1.91,0,0,0-3.08-1.51"/><path class="cls-1" d="M21.74,10.77a4.78,4.78,0,0,0-4-7.36A4.71,4.71,0,0,0,15.45,4"/><ellipse class="cls-1" cx="9.61" cy="16.3" rx="6.2" ry="4.3"/><ellipse class="cls-1" cx="8.6" cy="16.26" rx="2.04" ry="1.7" transform="translate(-5.04 3.92) rotate(-20)"/></svg>