<svg id="Layer_1" data-name="Layer 1" xmlns="http://www.w3.org/2000/svg" viewBox="0 0 24 24"><defs><style>.cls-1{fill:none;stroke:#020202;stroke-miterlimit:10;stroke-width:1.91px;}</style></defs><rect class="cls-1" x="12.95" y="1.5" width="3.82" height="8.59" rx="1.91"/><path class="cls-1" d="M8.66,1.5h0a1.43,1.43,0,0,1,1.43,1.43V4.36a0,0,0,0,1,0,0H8.66A1.43,1.43,0,0,1,7.23,2.93v0A1.43,1.43,0,0,1,8.66,1.5Z"/><rect class="cls-1" x="7.23" y="13.91" width="3.82" height="8.59" rx="1.91" transform="translate(18.27 36.41) rotate(-180)"/><path class="cls-1" d="M15.34,19.64h0a1.43,1.43,0,0,1,1.43,1.43V22.5a0,0,0,0,1,0,0H15.34a1.43,1.43,0,0,1-1.43-1.43v0A1.43,1.43,0,0,1,15.34,19.64Z" transform="translate(30.68 42.14) rotate(180)"/><rect class="cls-1" x="7.23" y="13.91" width="3.82" height="8.59" rx="1.91" transform="translate(18.27 36.41) rotate(-180)"/><path class="cls-1" d="M15.34,19.64h0a1.43,1.43,0,0,1,1.43,1.43V22.5a0,0,0,0,1,0,0H15.34a1.43,1.43,0,0,1-1.43-1.43v0A1.43,1.43,0,0,1,15.34,19.64Z" transform="translate(30.68 42.14) rotate(180)"/><rect class="cls-1" x="16.3" y="10.57" width="3.82" height="8.59" rx="1.91" transform="translate(33.07 -3.34) rotate(90)"/><path class="cls-1" d="M21.07,7.23h0A1.43,1.43,0,0,1,22.5,8.66v1.43a0,0,0,0,1,0,0H21.07a1.43,1.43,0,0,1-1.43-1.43v0a1.43,1.43,0,0,1,1.43-1.43Z" transform="translate(29.73 -12.41) rotate(90)"/><rect class="cls-1" x="3.89" y="4.84" width="3.82" height="8.59" rx="1.91" transform="translate(-3.34 14.93) rotate(-90)"/><path class="cls-1" d="M2.93,13.91h0a1.43,1.43,0,0,1,1.43,1.43v1.43a0,0,0,0,1,0,0H2.93A1.43,1.43,0,0,1,1.5,15.34v0A1.43,1.43,0,0,1,2.93,13.91Z" transform="translate(-12.41 18.27) rotate(-90)"/><rect class="cls-1" x="3.89" y="4.84" width="3.82" height="8.59" rx="1.91" transform="translate(-3.34 14.93) rotate(-90)"/><path class="cls-1" d="M2.93,13.91h0a1.43,1.43,0,0,1,1.43,1.43v1.43a0,0,0,0,1,0,0H2.93A1.43,1.43,0,0,1,1.5,15.34v0A1.43,1.43,0,0,1,2.93,13.91Z" transform="translate(-12.41 18.27) rotate(-90)"/></svg>