<svg id="Layer_1" data-name="Layer 1" xmlns="http://www.w3.org/2000/svg" viewBox="0 0 24 24"><defs><style>.cls-1{fill:none;stroke:#020202;stroke-miterlimit:10;stroke-width:1.82px;}</style></defs><path class="cls-1" d="M21.63,5.4a3.62,3.62,0,0,0-3.06-3,45.84,45.84,0,0,0-13.13,0,3.64,3.64,0,0,0-3.07,3,30.62,30.62,0,0,0,0,9.46,3.64,3.64,0,0,0,3.06,3q1,.14,2,.24v3l4.12-2.74a45.91,45.91,0,0,0,7-.47,3.62,3.62,0,0,0,3.07-3A30.62,30.62,0,0,0,21.63,5.4Z"/><path class="cls-1" d="M13.39,11.76,15.65,14s-3,3-6.78-.75-.76-6.78-.76-6.78l2.26,2.26,0,.07a2.24,2.24,0,0,0,.42,2.56h0a2.22,2.22,0,0,0,2.56.42Z"/><path class="cls-1" d="M12,7.4a2.73,2.73,0,0,1,2.73,2.73"/><path class="cls-1" d="M12,4.66a5.47,5.47,0,0,1,5.47,5.47"/></svg>