<svg id="Layer_1" data-name="Layer 1" xmlns="http://www.w3.org/2000/svg" viewBox="0 0 24 24"><defs><style>.cls-1{fill:none;stroke:#020202;stroke-miterlimit:10;stroke-width:1.91px;}.cls-2{fill:#020202;}</style></defs><path class="cls-1" d="M9.23,15.79H9.14a8.74,8.74,0,0,1-3-.54l-.81.54v-.9A6.58,6.58,0,0,1,1.5,9.11c0-3.69,3.42-6.68,7.64-6.68s7.63,3,7.63,6.68v.07"/><path class="cls-1" d="M22.5,14.84a5.5,5.5,0,0,1-2.86,4.69v1L18.76,20a7.63,7.63,0,0,1-2.94.58c-3.7,0-6.68-2.57-6.68-5.73s3-5.73,6.68-5.73S22.5,11.68,22.5,14.84Z"/><circle class="cls-2" cx="6.27" cy="7.2" r="0.95"/><circle class="cls-2" cx="12" cy="7.2" r="0.95"/><circle class="cls-2" cx="12.95" cy="13.89" r="0.95"/><circle class="cls-2" cx="18.68" cy="13.89" r="0.95"/></svg>