<svg id="Layer_1" data-name="Layer 1" xmlns="http://www.w3.org/2000/svg" viewBox="0 0 24 24"><defs><style>.cls-1{fill:none;stroke:#020202;stroke-miterlimit:10;stroke-width:1.91px;}</style></defs><path class="cls-1" d="M18.68,1.5h1.91A1.9,1.9,0,0,1,22.5,3.41V16.77a1.9,1.9,0,0,1-1.91,1.91H3.41A1.9,1.9,0,0,1,1.5,16.77V3.41A1.9,1.9,0,0,1,3.41,1.5H18.68Z"/><line class="cls-1" x1="12" y1="22.5" x2="12" y2="18.68"/><line class="cls-1" x1="16.77" y1="22.5" x2="7.23" y2="22.5"/><line class="cls-1" x1="1.5" y1="14.86" x2="22.5" y2="14.86"/><rect class="cls-1" x="10.09" y="4.36" width="3.82" height="7.64" rx="1.91"/><line class="cls-1" x1="8.18" y1="4.36" x2="10.09" y2="5.32"/><line class="cls-1" x1="15.82" y1="4.36" x2="13.91" y2="5.32"/><line class="cls-1" x1="8.18" y1="12" x2="10.09" y2="11.05"/><line class="cls-1" x1="15.82" y1="12" x2="13.91" y2="11.05"/><line class="cls-1" x1="16.77" y1="8.18" x2="13.91" y2="8.18"/><line class="cls-1" x1="7.23" y1="8.18" x2="10.09" y2="8.18"/></svg>