<svg id="Layer_1" data-name="Layer 1" xmlns="http://www.w3.org/2000/svg" viewBox="0 0 24 24"><defs><style>.cls-1{fill:none;stroke:#020202;stroke-miterlimit:10;stroke-width:1.91px;}</style></defs><path class="cls-1" d="M22.5,19.61h0a2.86,2.86,0,0,1-2.86,2.87H4.36A2.86,2.86,0,0,1,1.5,19.61h0A1.91,1.91,0,0,1,3.41,17.7H9.14l.95,1h3.82l.95-1h5.73A1.91,1.91,0,0,1,22.5,19.61Z"/><path class="cls-1" d="M16.77,5.3h1.91a1.91,1.91,0,0,1,1.91,1.9V17.7"/><path class="cls-1" d="M3.41,17.7V7.2A1.91,1.91,0,0,1,5.32,5.3H7.23"/><line class="cls-1" x1="12" y1="2.43" x2="12" y2="7.2"/><line class="cls-1" x1="12" y1="8.16" x2="12" y2="10.07"/><circle class="cls-1" cx="12" cy="6.25" r="5.73"/></svg>