<svg id="Layer_1" data-name="Layer 1" xmlns="http://www.w3.org/2000/svg" viewBox="0 0 24 24"><defs><style>.cls-1{fill:none;stroke:#020202;stroke-miterlimit:10;stroke-width:1.91px;}</style></defs><path class="cls-1" d="M14.86,19.64v.95A1.92,1.92,0,0,1,13,22.5H3.41A1.92,1.92,0,0,1,1.5,20.59V3.41A1.92,1.92,0,0,1,3.41,1.5H13a1.92,1.92,0,0,1,1.91,1.91v1"/><path class="cls-1" d="M10.09,2.45H6.27a1,1,0,0,1-.95-1h5.73A1,1,0,0,1,10.09,2.45Z"/><line class="cls-1" x1="7.23" y1="19.64" x2="9.14" y2="19.64"/><line class="cls-1" x1="16.77" y1="8.18" x2="16.77" y2="12.95"/><line class="cls-1" x1="16.77" y1="13.91" x2="16.77" y2="15.82"/><circle class="cls-1" cx="16.77" cy="12" r="5.73"/></svg>