<svg id="Layer_1" data-name="Layer 1" xmlns="http://www.w3.org/2000/svg" viewBox="0 0 24 24"><defs><style>.cls-1{fill:none;stroke:#020202;stroke-miterlimit:10;stroke-width:1.91px;}</style></defs><polyline class="cls-1" points="1.5 7.23 1.5 1.5 7.23 1.5"/><polyline class="cls-1" points="16.77 1.5 22.5 1.5 22.5 7.23"/><polyline class="cls-1" points="1.5 16.77 1.5 22.5 7.23 22.5"/><polyline class="cls-1" points="16.77 22.5 22.5 22.5 22.5 16.77"/><line class="cls-1" x1="12" y1="10.09" x2="12" y2="14.86"/><path class="cls-1" d="M9.59,15.45a2.81,2.81,0,0,1-.45-1.54V11.05a2.86,2.86,0,1,1,5.72,0"/><path class="cls-1" d="M14.86,13v1A2.86,2.86,0,0,1,12,16.77a2.63,2.63,0,0,1-.89-.14"/><path class="cls-1" d="M6.27,13v-1.9a5.61,5.61,0,0,1,.54-2.42"/><path class="cls-1" d="M6.36,14.86a5.71,5.71,0,0,0,10,2.81"/><path class="cls-1" d="M17.73,11.05v2.86A5.69,5.69,0,0,1,17.34,16"/><path class="cls-1" d="M7.91,7.05a5.71,5.71,0,0,1,8.14,0"/></svg>