<svg id="Layer_1" data-name="Layer 1" xmlns="http://www.w3.org/2000/svg" viewBox="0 0 24 24"><defs><style>.cls-1{fill:none;stroke:#020202;stroke-miterlimit:10;stroke-width:1.92px;}</style></defs><rect class="cls-1" x="1.46" y="14.9" width="6.71" height="3.83"/><rect class="cls-1" x="15.83" y="14.9" width="6.71" height="3.83"/><rect class="cls-1" x="8.17" y="14.9" width="7.67" height="3.83"/><rect class="cls-1" x="12" y="18.73" width="6.71" height="3.83"/><rect class="cls-1" x="5.29" y="18.73" width="6.71" height="3.83"/><polyline class="cls-1" points="0.5 22.56 5.29 22.56 5.29 18.73 1.46 18.73"/><polyline class="cls-1" points="22.54 18.73 18.71 18.73 18.71 22.56 23.5 22.56"/><path class="cls-1" d="M16.79,10.1a4.79,4.79,0,1,1-9.58,0C7.21,7.46,12,2.44,12,2.44l1,3.83,1.83-.87C15.84,7.09,16.79,8.93,16.79,10.1Z"/><path class="cls-1" d="M13.92,13a1.92,1.92,0,0,1-3.84,0c0-1.06,1.92-2.88,1.92-2.88S13.92,11.92,13.92,13Z"/></svg>