<svg id="Layer_1" data-name="Layer 1" xmlns="http://www.w3.org/2000/svg" viewBox="0 0 24 24"><defs><style>.cls-1{fill:none;stroke:#020202;stroke-miterlimit:10;stroke-width:1.91px;}</style></defs><path class="cls-1" d="M15.82,20.59h4.77a1.9,1.9,0,0,0,1.91-1.91V4.36H10.09L9.14,1.5H1.5V18.68a1.9,1.9,0,0,0,1.91,1.91H8.18"/><rect class="cls-1" x="8.18" y="16.77" width="7.64" height="5.73"/><path class="cls-1" d="M12,12h0a1.91,1.91,0,0,1,1.91,1.91v2.86a0,0,0,0,1,0,0H10.09a0,0,0,0,1,0,0V13.91A1.91,1.91,0,0,1,12,12Z"/><line class="cls-1" x1="1.5" y1="8.18" x2="22.5" y2="8.18"/></svg>