<svg id="Layer_1" data-name="Layer 1" xmlns="http://www.w3.org/2000/svg" viewBox="0 0 24 24"><defs><style>.cls-1{fill:none;stroke:#020202;stroke-miterlimit:10;stroke-width:1.91px;}</style></defs><polyline class="cls-1" points="19.64 7.23 19.64 3.41 12 3.41 11.04 1.5 4.36 1.5 4.36 3.41 4.36 15.82 14.86 15.82"/><circle class="cls-1" cx="12" cy="20.59" r="1.91"/><line class="cls-1" x1="10.09" y1="20.59" x2="0.55" y2="20.59"/><line class="cls-1" x1="23.45" y1="20.59" x2="13.91" y2="20.59"/><line class="cls-1" x1="12" y1="15.82" x2="12" y2="18.68"/><rect class="cls-1" x="16.77" y="12.95" width="5.73" height="3.82"/><path class="cls-1" d="M19.64,9.14h0A1.91,1.91,0,0,1,21.55,11V13a0,0,0,0,1,0,0H17.73a0,0,0,0,1,0,0V11A1.91,1.91,0,0,1,19.64,9.14Z"/><line class="cls-1" x1="4.36" y1="7.23" x2="15.82" y2="7.23"/></svg>