<svg id="Layer_1" data-name="Layer 1" xmlns="http://www.w3.org/2000/svg" viewBox="0 0 24 24"><defs><style>.cls-1{fill:none;stroke:#020202;stroke-miterlimit:10;stroke-width:1.91px;}</style></defs><polyline class="cls-1" points="16.77 9.14 22.5 9.14 22.5 18.68 5.32 18.68 5.32 9.14 7.23 9.14"/><polyline class="cls-1" points="18.68 18.68 18.68 22.5 1.5 22.5 1.5 12.96 5.32 12.96"/><circle class="cls-1" cx="13.91" cy="13.91" r="1.91"/><line class="cls-1" x1="7.23" y1="13.91" x2="9.14" y2="13.91"/><line class="cls-1" x1="18.68" y1="13.91" x2="20.59" y2="13.91"/><rect class="cls-1" x="9.14" y="5.32" width="5.73" height="3.82"/><path class="cls-1" d="M12,1.5h0a1.91,1.91,0,0,1,1.91,1.91V5.32a0,0,0,0,1,0,0H10.09a0,0,0,0,1,0,0V3.41A1.91,1.91,0,0,1,12,1.5Z"/></svg>