<svg id="Layer_1" data-name="Layer 1" xmlns="http://www.w3.org/2000/svg" viewBox="0 0 24 24"><defs><style>.cls-1{fill:none;stroke:#020202;stroke-miterlimit:10;stroke-width:1.91px;}</style></defs><path class="cls-1" d="M13,22.5H3.41A1.92,1.92,0,0,1,1.5,20.59V3.41A1.92,1.92,0,0,1,3.41,1.5H13a1.92,1.92,0,0,1,1.91,1.91V9.14"/><path class="cls-1" d="M10.09,2.45H6.27a1,1,0,0,1-.95-1h5.73A1,1,0,0,1,10.09,2.45Z"/><path class="cls-1" d="M17.74,22.48l-.06,0h0A6.58,6.58,0,0,1,13,16.2V12.42l4.73-1.37,4.82,1.37v3.75A6.56,6.56,0,0,1,17.74,22.48Z"/><path class="cls-1" d="M5.32,14.86H8.66a1.43,1.43,0,0,0,1.43-1.43h0A1.43,1.43,0,0,0,8.66,12h-1a1.43,1.43,0,0,1-1.43-1.43h0A1.43,1.43,0,0,1,7.7,9.14h3.35"/><line class="cls-1" x1="8.18" y1="6.27" x2="8.18" y2="9.14"/><line class="cls-1" x1="8.18" y1="13.91" x2="8.18" y2="17.73"/></svg>