<svg id="Layer_1" data-name="Layer 1" xmlns="http://www.w3.org/2000/svg" viewBox="0 0 24 24"><defs><style>.cls-1{fill:none;stroke:#020202;stroke-miterlimit:10;stroke-width:1.91px;}</style></defs><path class="cls-1" d="M22.5,19.64h0a2.86,2.86,0,0,1-2.86,2.86H4.36A2.86,2.86,0,0,1,1.5,19.64h0a1.9,1.9,0,0,1,1.91-1.91H9.14l.95.95h3.82l.95-.95h5.73A1.9,1.9,0,0,1,22.5,19.64Z"/><path class="cls-1" d="M16.77,5.32h1.91a1.92,1.92,0,0,1,1.91,1.91v10.5"/><path class="cls-1" d="M3.41,17.73V7.23A1.92,1.92,0,0,1,5.32,5.32H7.23"/><rect class="cls-1" x="9.14" y="5.32" width="5.73" height="3.82"/><path class="cls-1" d="M12,1.5h0a1.91,1.91,0,0,1,1.91,1.91V5.32a0,0,0,0,1,0,0H10.09a0,0,0,0,1,0,0V3.41A1.91,1.91,0,0,1,12,1.5Z"/></svg>