<svg id="Layer_1" data-name="Layer 1" xmlns="http://www.w3.org/2000/svg" viewBox="0 0 24 24"><defs><style>.cls-1{fill:none;stroke:#020202;stroke-miterlimit:10;stroke-width:1.91px;}</style></defs><polyline class="cls-1" points="16.77 7.23 22.5 7.23 22.5 22.5 1.5 22.5 1.5 7.23 7.23 7.23"/><path class="cls-1" d="M5.32,19.64a2.86,2.86,0,0,1,2.86-2.87h0a2.87,2.87,0,0,1,2.87,2.87"/><circle class="cls-1" cx="8.18" cy="14.86" r="1.91"/><line class="cls-1" x1="13.91" y1="14.86" x2="19.64" y2="14.86"/><line class="cls-1" x1="13.91" y1="18.68" x2="19.64" y2="18.68"/><rect class="cls-1" x="9.14" y="5.32" width="5.73" height="3.82"/><path class="cls-1" d="M12,1.5h0a1.91,1.91,0,0,1,1.91,1.91V5.32a0,0,0,0,1,0,0H10.09a0,0,0,0,1,0,0V3.41A1.91,1.91,0,0,1,12,1.5Z"/></svg>