<svg id="Layer_1" data-name="Layer 1" xmlns="http://www.w3.org/2000/svg" viewBox="0 0 24 24"><defs><style>.cls-1{fill:none;stroke:#020202;stroke-miterlimit:10;stroke-width:1.91px;}</style></defs><path class="cls-1" d="M12,1.5h0a6.7,6.7,0,0,1,6.7,6.7v2.87a0,0,0,0,1,0,0H5.33a0,0,0,0,1,0,0V8.2A6.7,6.7,0,0,1,12,1.5Z"/><path class="cls-1" d="M19.67,20.63v-.25a2.56,2.56,0,0,1,1.13-2,1.91,1.91,0,1,0-3-1.55"/><line class="cls-1" x1="19.67" y1="21.59" x2="19.67" y2="23.5"/><polyline class="cls-1" points="22.54 11.06 2.46 11.06 2.46 22.54 16.8 22.54"/><line class="cls-1" x1="9.15" y1="16.8" x2="11.07" y2="16.8"/><line class="cls-1" x1="5.33" y1="16.8" x2="7.24" y2="16.8"/><line class="cls-1" x1="12.98" y1="16.8" x2="14.89" y2="16.8"/></svg>