<svg id="Layer_1" data-name="Layer 1" xmlns="http://www.w3.org/2000/svg" viewBox="0 0 24 24"><defs><style>.cls-1{fill:none;stroke:#020202;stroke-miterlimit:10;stroke-width:1.91px;}</style></defs><rect class="cls-1" x="1.5" y="14.86" width="21" height="7.64" rx="1.91"/><line class="cls-1" x1="5.32" y1="3.41" x2="5.32" y2="14.86"/><line class="cls-1" x1="4.36" y1="18.68" x2="6.27" y2="18.68"/><line class="cls-1" x1="8.18" y1="18.68" x2="10.09" y2="18.68"/><line class="cls-1" x1="12" y1="18.68" x2="19.64" y2="18.68"/><rect class="cls-1" x="9.14" y="7.23" width="5.73" height="3.82"/><path class="cls-1" d="M12,3.41h0a1.91,1.91,0,0,1,1.91,1.91V7.23a0,0,0,0,1,0,0H10.09a0,0,0,0,1,0,0V5.32A1.91,1.91,0,0,1,12,3.41Z"/><circle class="cls-1" cx="5.32" cy="2.45" r="0.95"/><path class="cls-1" d="M16.77,4.36a2.88,2.88,0,0,1,2.87,2.87"/><path class="cls-1" d="M16.77,1.5A5.72,5.72,0,0,1,22.5,7.23"/></svg>