<svg id="Layer_1" data-name="Layer 1" xmlns="http://www.w3.org/2000/svg" viewBox="0 0 24 24"><defs><style>.cls-1{fill:none;stroke:#020202;stroke-miterlimit:10;stroke-width:1.91px;}</style></defs><rect class="cls-1" x="1.5" y="14.86" width="21" height="7.64" rx="1.91"/><path class="cls-1" d="M16.74,7.23h3.85A1.92,1.92,0,0,1,22.5,9.14V13a1.92,1.92,0,0,1-1.91,1.91H3.41A1.92,1.92,0,0,1,1.5,13V9.14A1.92,1.92,0,0,1,3.41,7.23H7.25"/><path class="cls-1" d="M12,12.94h0a6.55,6.55,0,0,1-4.73-6.3V2.88L12,1.5l4.81,1.38V6.63A6.56,6.56,0,0,1,12,12.94Z"/><line class="cls-1" x1="4.36" y1="11.05" x2="6.27" y2="11.05"/><line class="cls-1" x1="4.36" y1="18.68" x2="6.27" y2="18.68"/><line class="cls-1" x1="8.18" y1="18.68" x2="10.09" y2="18.68"/><line class="cls-1" x1="12" y1="18.68" x2="19.64" y2="18.68"/><line class="cls-1" x1="19.64" y1="11.05" x2="15.05" y2="11.05"/></svg>