<svg id="Layer_1" data-name="Layer 1" xmlns="http://www.w3.org/2000/svg" viewBox="0 0 24 24"><defs><style>.cls-1{fill:none;stroke:#020202;stroke-miterlimit:10;stroke-width:1.91px;}</style></defs><path class="cls-1" d="M20,11.7a4.11,4.11,0,0,1,2-3.3L20.15,5.1a4.15,4.15,0,0,1-6.23-3.6H10.1A4.15,4.15,0,0,1,3.87,5.1L2,8.4A4.13,4.13,0,0,1,4,12,4.13,4.13,0,0,1,2,15.6l1.91,3.3a4.15,4.15,0,0,1,6.23,3.6h3.82a4.13,4.13,0,0,1,.57-2.11"/><path class="cls-1" d="M17.75,22.48l-.06,0h0A6.57,6.57,0,0,1,13,16.2V12.42l4.72-1.37,4.82,1.37v3.75A6.56,6.56,0,0,1,17.75,22.48Z"/><path class="cls-1" d="M13,15.69a3.42,3.42,0,0,1-1,.13,3.82,3.82,0,1,1,3.8-4.23"/></svg>