<svg id="Layer_1" data-name="Layer 1" xmlns="http://www.w3.org/2000/svg" viewBox="0 0 24 24"><defs><style>.cls-1{fill:none;stroke:#020202;stroke-miterlimit:10;stroke-width:1.91px;}</style></defs><path class="cls-1" d="M12,18.67h0a6.56,6.56,0,0,1-4.73-6.3V7.65L12,6.27l4.81,1.38v4.7A6.58,6.58,0,0,1,12,18.67Z"/><circle class="cls-1" cx="21.55" cy="12" r="0.95"/><circle class="cls-1" cx="2.45" cy="12" r="0.95"/><circle class="cls-1" cx="21.55" cy="2.45" r="0.95"/><circle class="cls-1" cx="2.45" cy="2.45" r="0.95"/><circle class="cls-1" cx="21.55" cy="21.55" r="0.95"/><circle class="cls-1" cx="2.45" cy="21.55" r="0.95"/><line class="cls-1" x1="3.41" y1="12" x2="7.23" y2="12"/><line class="cls-1" x1="20.59" y1="12" x2="16.77" y2="12"/><polyline class="cls-1" points="14.88 7.11 14.88 2.46 20.59 2.46"/><polyline class="cls-1" points="9.14 7.23 9.14 2.46 3.41 2.46"/><polyline class="cls-1" points="9.14 16.99 9.14 21.86 3.41 21.86"/><polyline class="cls-1" points="14.86 16.97 14.86 21.86 20.59 21.86"/></svg>