<svg id="Layer_1" data-name="Layer 1" xmlns="http://www.w3.org/2000/svg" viewBox="0 0 24 24"><defs><style>.cls-1{fill:none;stroke:#020202;stroke-miterlimit:10;stroke-width:1.92px;}</style></defs><line class="cls-1" x1="0.5" y1="22.58" x2="23.5" y2="22.58"/><rect class="cls-1" x="5.29" y="18.75" width="13.42" height="3.83"/><path class="cls-1" d="M12,7.25h0A4.79,4.79,0,0,1,16.79,12v6.71a0,0,0,0,1,0,0H7.21a0,0,0,0,1,0,0V12A4.79,4.79,0,0,1,12,7.25Z"/><line class="cls-1" x1="12" y1="12.04" x2="12" y2="17.79"/><line class="cls-1" x1="10.08" y1="12.04" x2="13.92" y2="12.04"/><line class="cls-1" x1="19.67" y1="12.04" x2="23.5" y2="12.04"/><line class="cls-1" x1="0.5" y1="12.04" x2="4.33" y2="12.04"/><line class="cls-1" x1="12" y1="0.54" x2="12" y2="4.38"/><line class="cls-1" x1="3.87" y1="3.91" x2="6.58" y2="6.62"/><line class="cls-1" x1="17.42" y1="6.62" x2="20.13" y2="3.91"/></svg>