<svg id="Layer_1" data-name="Layer 1" xmlns="http://www.w3.org/2000/svg" viewBox="0 0 24 24"><defs><style>.cls-1{fill:none;stroke:#020202;stroke-miterlimit:10;stroke-width:1.91px;}</style></defs><path class="cls-1" d="M2.43,14.37A2.4,2.4,0,0,1,4.83,12h0a2.39,2.39,0,0,1,2.39,2.39"/><path class="cls-1" d="M7.22,14.37A2.39,2.39,0,0,1,9.61,12h0A2.39,2.39,0,0,1,12,14.37"/><path class="cls-1" d="M12,14.37A2.39,2.39,0,0,1,14.39,12h0a2.39,2.39,0,0,1,2.39,2.39"/><path class="cls-1" d="M16.78,14.37A2.39,2.39,0,0,1,19.17,12h0a2.4,2.4,0,0,1,2.4,2.39"/><path class="cls-1" d="M2.43,13.89v-1A9.57,9.57,0,0,1,12,3.37h0a9.57,9.57,0,0,1,9.57,9.56v1"/><line class="cls-1" x1="12" y1="0.5" x2="12" y2="3.37"/><path class="cls-1" d="M12,13.89v6.7a1.92,1.92,0,0,1-1.91,1.91h0a1.92,1.92,0,0,1-1.92-1.91v-1"/></svg>