<svg id="Layer_1" data-name="Layer 1" xmlns="http://www.w3.org/2000/svg" viewBox="0 0 24 24"><defs><style>.cls-1{fill:none;stroke:#020202;stroke-miterlimit:10;stroke-width:1.89px;}.cls-2{fill:#020202;}</style></defs><path class="cls-1" d="M19.26,13.23,21.47,12l-2.21-1.23a7.37,7.37,0,0,0-6-6L12,2.53,10.77,4.74a7.37,7.37,0,0,0-6,6L2.53,12l2.21,1.23a7.37,7.37,0,0,0,6,6L12,21.47l1.23-2.21A7.37,7.37,0,0,0,19.26,13.23Z"/><line class="cls-1" x1="20.52" y1="20.52" x2="17.2" y2="17.2"/><line class="cls-1" x1="6.8" y1="6.8" x2="3.48" y2="3.48"/><line class="cls-1" x1="6.8" y1="17.2" x2="3.48" y2="20.52"/><line class="cls-1" x1="20.52" y1="3.48" x2="17.2" y2="6.8"/><line class="cls-1" x1="1.5" y1="16.35" x2="3.25" y2="15.62"/><line class="cls-1" x1="20.75" y1="8.38" x2="22.5" y2="7.65"/><line class="cls-1" x1="22.5" y1="16.35" x2="20.75" y2="15.62"/><line class="cls-1" x1="3.25" y1="8.38" x2="1.5" y2="7.65"/><line class="cls-1" x1="7.65" y1="1.5" x2="8.38" y2="3.25"/><line class="cls-1" x1="15.62" y1="20.75" x2="16.35" y2="22.5"/><line class="cls-1" x1="7.65" y1="22.5" x2="8.38" y2="20.75"/><line class="cls-1" x1="15.62" y1="3.25" x2="16.35" y2="1.5"/><circle class="cls-1" cx="12" cy="14.84" r="1.89"/><circle class="cls-2" cx="8.21" cy="10.11" r="0.95"/><circle class="cls-1" cx="13.89" cy="9.16" r="0.95"/></svg>